<svg width="121" height="60" viewBox="0 0 121 60" fill="none" xmlns="http://www.w3.org/2000/svg">
<g clip-path="url(#clip0_2199_11985)">
<mask id="mask0_2199_11985" style="mask-type:luminance" maskUnits="userSpaceOnUse" x="26" y="-69" width="112" height="145">
<path d="M137.217 -68.2408H26.043V75.6324H137.217V-68.2408Z" fill="white"/>
</mask>
<g mask="url(#mask0_2199_11985)">
<path d="M62.3219 30.2486C62.1815 33.8632 59.3302 36.6787 55.7871 36.6787C52.0474 36.6787 49.2676 33.6513 49.2676 30.001C49.2676 26.3149 52.2772 23.2875 55.9453 23.2875C57.602 23.2875 59.223 23.9997 60.5937 25.2811L59.5242 26.5983C58.4725 25.6895 57.2089 25.0667 55.9453 25.0667C53.2548 25.0667 51.0468 27.2747 51.0468 30.001C51.0468 32.7604 53.1298 34.8995 55.7845 34.8995C58.1713 34.8995 60.0424 33.1535 60.4151 30.9097H55.0034V29.3245H62.3244V30.2486H62.3219Z" fill="#414042"/>
</g>
<mask id="mask1_2199_11985" style="mask-type:luminance" maskUnits="userSpaceOnUse" x="26" y="-69" width="112" height="145">
<path d="M137.217 -68.2408H26.043V75.6324H137.217V-68.2408Z" fill="white"/>
</mask>
<g mask="url(#mask1_2199_11985)">
<path d="M68.5372 29.3756H67.5391C66.4363 29.3756 65.5454 30.269 65.5454 31.3692V36.569H63.7637V27.6627H65.2238V28.4107C65.7037 27.9308 66.4695 27.6627 67.3246 27.6627H69.2468L68.5372 29.3756Z" fill="#414042"/>
</g>
<mask id="mask2_2199_11985" style="mask-type:luminance" maskUnits="userSpaceOnUse" x="26" y="-69" width="112" height="145">
<path d="M137.217 -68.2408H26.043V75.6324H137.217V-68.2408Z" fill="white"/>
</mask>
<g mask="url(#mask2_2199_11985)">
<path d="M78.2425 36.5715H76.7288V35.4483C75.5571 36.5919 73.7115 37.1408 71.8404 36.3188C70.4543 35.7087 69.4231 34.4452 69.1474 32.9544C68.6164 30.075 70.8321 27.5198 73.663 27.5198C74.8551 27.5198 75.9247 27.9997 76.7084 28.7833V27.6602H78.24V36.5715H78.2425ZM76.4199 32.7578C76.8411 30.948 75.4703 29.3041 73.6835 29.3041C72.134 29.3041 70.8883 30.5677 70.8883 32.0993C70.8883 33.8325 72.4122 35.1727 74.1838 34.8714C75.2738 34.6851 76.1698 33.8376 76.4199 32.7578Z" fill="#414042"/>
</g>
<mask id="mask3_2199_11985" style="mask-type:luminance" maskUnits="userSpaceOnUse" x="26" y="-69" width="112" height="145">
<path d="M137.217 -68.2408H26.043V75.6324H137.217V-68.2408Z" fill="white"/>
</mask>
<g mask="url(#mask3_2199_11985)">
<path d="M81.8323 27.1675V27.6653H84.6632V29.2326H81.8323V36.5715H80.0684V27.2211C80.0684 25.2607 81.4749 24.1043 83.2388 24.1043H85.3753L84.6632 25.7789H83.2413C82.4577 25.7789 81.8323 26.4017 81.8323 27.1675Z" fill="#414042"/>
</g>
<mask id="mask4_2199_11985" style="mask-type:luminance" maskUnits="userSpaceOnUse" x="26" y="-69" width="112" height="145">
<path d="M137.217 -68.2408H26.043V75.6324H137.217V-68.2408Z" fill="white"/>
</mask>
<g mask="url(#mask4_2199_11985)">
<path d="M94.1019 36.5715H92.5882V35.4483C91.4165 36.5919 89.5709 37.1408 87.6998 36.3188C86.3137 35.7087 85.2824 34.4452 85.0068 32.9544C84.4758 30.075 86.6915 27.5198 89.5224 27.5198C90.7145 27.5198 91.7841 27.9997 92.5677 28.7833V27.6602H94.0993V36.5715H94.1019ZM92.2818 32.7578C92.703 30.948 91.3323 29.3041 89.5454 29.3041C87.9959 29.3041 86.7502 30.5677 86.7502 32.0993C86.7502 33.8325 88.2742 35.1727 90.0457 34.8714C91.1331 34.6851 92.0317 33.8376 92.2818 32.7578Z" fill="#414042"/>
</g>
<mask id="mask5_2199_11985" style="mask-type:luminance" maskUnits="userSpaceOnUse" x="26" y="-69" width="112" height="145">
<path d="M137.217 -68.2408H26.043V75.6324H137.217V-68.2408Z" fill="white"/>
</mask>
<g mask="url(#mask5_2199_11985)">
<path d="M103.616 31.2977V36.569H101.834V31.2977C101.834 30.1924 100.925 29.3041 99.8401 29.3041C98.717 29.3041 97.8286 30.195 97.8286 31.2977V36.569H96.0469V27.6627H97.5249V28.4285C98.1656 27.8593 99.0207 27.5198 99.9116 27.5198C101.977 27.5223 103.616 29.2147 103.616 31.2977Z" fill="#414042"/>
</g>
<mask id="mask6_2199_11985" style="mask-type:luminance" maskUnits="userSpaceOnUse" x="26" y="-69" width="112" height="145">
<path d="M137.217 -68.2408H26.043V75.6324H137.217V-68.2408Z" fill="white"/>
</mask>
<g mask="url(#mask6_2199_11985)">
<path d="M114.09 36.5715H112.576V35.4483C111.405 36.5919 109.559 37.1408 107.688 36.3188C106.302 35.7087 105.271 34.4452 104.995 32.9544C104.464 30.075 106.68 27.5198 109.511 27.5198C110.703 27.5198 111.772 27.9997 112.556 28.7833V27.6602H114.088V36.5715H114.09ZM112.268 32.7578C112.689 30.948 111.318 29.3041 109.531 29.3041C107.982 29.3041 106.736 30.5677 106.736 32.0993C106.736 33.8325 108.26 35.1727 110.031 34.8714C111.119 34.6851 112.017 33.8376 112.268 32.7578Z" fill="#414042"/>
</g>
<mask id="mask7_2199_11985" style="mask-type:luminance" maskUnits="userSpaceOnUse" x="6" y="10" width="37" height="40">
<path d="M22.6648 15.176C22.6648 15.176 22.6513 15.2319 22.634 15.3264C22.4739 15.3727 22.3138 15.4171 22.1537 15.4691C21.9319 15.5366 21.7139 15.6177 21.4921 15.6967C21.2741 15.7816 21.0523 15.8665 20.8363 15.9629C20.4004 16.15 19.9683 16.3603 19.5459 16.5975C19.137 16.827 18.7339 17.0797 18.3423 17.3536C18.2864 17.3266 18.242 17.3073 18.242 17.3073C14.2435 15.7797 10.6926 17.6179 10.6926 17.6179C10.3685 21.8709 12.2896 24.552 12.6696 25.0381C12.5751 25.3004 12.4864 25.5666 12.4054 25.8347C12.1103 26.7991 11.8884 27.7886 11.7515 28.8109C11.7322 28.9575 11.7149 29.106 11.6975 29.2545C8.00378 31.0792 6.9082 34.8192 6.9082 34.8192C9.9924 38.3663 13.5877 38.5862 13.5877 38.5862C13.5916 38.5843 13.5935 38.5804 13.5974 38.5785C14.0545 39.3944 14.583 40.1717 15.179 40.895C15.4279 41.1978 15.6902 41.491 15.9621 41.7745C14.8376 44.9899 16.1203 47.6652 16.1203 47.6652C19.5536 47.7944 21.8084 46.1626 22.2829 45.7865C22.6243 45.9022 22.9715 46.0045 23.3206 46.0951C24.3757 46.3671 25.4558 46.5272 26.536 46.5735C26.806 46.5851 27.0761 46.5908 27.3442 46.5889H27.4753L27.5602 46.587L27.7299 46.5812L27.8977 46.5735L27.9016 46.5793C29.518 48.8862 32.363 49.2121 32.363 49.2121C34.3863 47.0788 34.5021 44.9629 34.5021 44.5058C34.5021 44.5058 34.5021 44.4903 34.5021 44.4749C34.5021 44.4363 34.5001 44.4113 34.5001 44.4113C34.4982 44.3785 34.4982 44.3476 34.4944 44.3129C34.9187 44.0159 35.3238 43.6957 35.7076 43.3523C36.5177 42.6194 37.2256 41.7861 37.8119 40.8854C37.8679 40.8005 37.9219 40.7156 37.974 40.6288C40.2635 40.76 41.8779 39.2111 41.8779 39.2111C41.4979 36.8252 40.1381 35.6621 39.8546 35.4422C39.8546 35.4422 39.843 35.4325 39.8256 35.421C39.8102 35.4094 39.7986 35.4017 39.7986 35.4017C39.7851 35.392 39.7678 35.3805 39.7485 35.3689C39.762 35.2242 39.7755 35.0815 39.7832 34.9388C39.8006 34.6822 39.8064 34.4238 39.8083 34.1692L39.8064 33.9782L39.8044 33.8818V33.8335C39.8044 33.768 39.8025 33.793 39.8025 33.768L39.7948 33.6079L39.7832 33.3918C39.7794 33.3166 39.7736 33.253 39.7678 33.1855C39.762 33.1199 39.7562 33.0524 39.7485 32.9868L39.7253 32.7881L39.6983 32.5914C39.6598 32.3291 39.6096 32.0687 39.5498 31.8121C39.3106 30.7841 38.9095 29.8081 38.379 28.9305C37.8486 28.0528 37.1889 27.2755 36.4463 26.6216C35.7037 25.9658 34.8705 25.4393 33.9967 25.0458C33.123 24.6523 32.2048 24.3996 31.2906 24.2839C30.8334 24.2241 30.3782 24.201 29.9269 24.2067L29.7591 24.2106L29.7166 24.2125C29.7051 24.2125 29.653 24.2145 29.6588 24.2145L29.5893 24.2183L29.4215 24.2299C29.3579 24.2338 29.2923 24.2395 29.2364 24.2453C29.0049 24.2685 28.7754 24.2993 28.5478 24.3418C27.6412 24.5115 26.7848 24.8394 26.0306 25.2908C25.2765 25.7421 24.6207 26.3072 24.0864 26.9476C23.554 27.5861 23.1393 28.2939 22.8539 29.0269C22.5684 29.7599 22.4083 30.516 22.3639 31.2508C22.3524 31.4341 22.3485 31.6173 22.3524 31.7986C22.3524 31.843 22.3543 31.8893 22.3562 31.9336L22.362 32.0802C22.3678 32.169 22.3755 32.2558 22.3832 32.3426C22.4199 32.7148 22.4874 33.0717 22.5877 33.4169C22.7863 34.1055 23.1065 34.7285 23.5 35.257C23.8935 35.7875 24.3641 36.2253 24.8637 36.5667C25.3633 36.9081 25.8976 37.1531 26.4261 37.3093C26.9565 37.4655 27.483 37.533 27.9788 37.5311C28.0405 37.5311 28.1022 37.5292 28.1639 37.5273C28.1967 37.5273 28.2295 37.5234 28.2623 37.5234C28.2951 37.5215 28.3279 37.5195 28.3607 37.5176C28.4127 37.5118 28.4668 37.508 28.5188 37.5022C28.5304 37.5022 28.5478 37.4983 28.5632 37.4964L28.6114 37.4906C28.6442 37.4868 28.6751 37.481 28.7079 37.4771C28.7734 37.4694 28.8294 37.4559 28.8872 37.4462C28.9451 37.4347 29.003 37.4231 29.0608 37.4077C29.1746 37.3826 29.2846 37.3479 29.3945 37.3151C29.6106 37.2437 29.8131 37.1569 30.0021 37.0605C30.1911 36.964 30.3647 36.8541 30.5267 36.7403C30.573 36.7075 30.6174 36.6728 30.6618 36.6381C30.8354 36.5031 30.8624 36.2484 30.7235 36.0787C30.602 35.9302 30.3937 35.8916 30.2278 35.9842C30.1873 36.0073 30.1448 36.0286 30.1024 36.0498C29.9577 36.1192 29.8073 36.1848 29.6472 36.2369C29.4871 36.287 29.3212 36.3295 29.1476 36.3603C29.0608 36.3719 28.974 36.3854 28.8853 36.3931C28.8409 36.3989 28.7966 36.4008 28.7503 36.4008C28.7059 36.4028 28.6577 36.4066 28.6172 36.4047C28.5748 36.4047 28.5323 36.4028 28.488 36.4028C28.434 36.4008 28.38 36.397 28.3259 36.395C28.3259 36.395 28.2989 36.395 28.3202 36.3931L28.3028 36.3912L28.2662 36.3873C28.2411 36.3854 28.2179 36.3835 28.1929 36.3796C28.1446 36.3738 28.0964 36.368 28.0482 36.3603C27.6605 36.3063 27.267 36.1925 26.889 36.0208C26.509 35.8492 26.1464 35.6139 25.8185 35.3187C25.4906 35.0256 25.2051 34.6707 24.9814 34.2695C24.7576 33.8702 24.6014 33.4246 24.5281 32.9579C24.4914 32.7245 24.476 32.4834 24.4818 32.248C24.4856 32.1825 24.4876 32.1188 24.4914 32.0532C24.4914 32.0706 24.4934 32.0436 24.4934 32.0417L24.4953 32.0185L24.4991 31.9703C24.5011 31.9375 24.5049 31.9066 24.5088 31.8739C24.5223 31.7466 24.5416 31.6173 24.5647 31.4919C24.7441 30.4755 25.2533 29.484 26.0403 28.7299C26.237 28.5428 26.4492 28.3672 26.6749 28.2129C26.9005 28.0586 27.1416 27.9197 27.3924 27.804C27.6431 27.6883 27.9055 27.5938 28.1736 27.5205C28.4417 27.4491 28.7175 27.4009 28.9972 27.3758C29.1361 27.3642 29.2769 27.3585 29.4177 27.3585C29.4543 27.3585 29.4832 27.3604 29.5122 27.3604L29.626 27.3642L29.6973 27.3662C29.7263 27.3662 29.6973 27.3662 29.7108 27.3681L29.7398 27.37L29.8536 27.3777C30.1564 27.4028 30.4592 27.4453 30.7563 27.5128C31.3523 27.6459 31.9309 27.8638 32.471 28.1628C33.5512 28.7607 34.4712 29.6962 35.0364 30.8246C35.3218 31.3859 35.5186 31.9915 35.6189 32.6165C35.642 32.7727 35.6613 32.9309 35.6748 33.089L35.6844 33.2086L35.6902 33.3282C35.6922 33.3687 35.6922 33.4073 35.6941 33.4478C35.6941 33.4864 35.696 33.5307 35.696 33.5597V33.6619L35.6941 33.7776C35.6902 33.8548 35.6844 33.9801 35.6806 34.0573C35.6671 34.229 35.6536 34.4026 35.6304 34.5742C35.6092 34.744 35.5803 34.9137 35.5494 35.0834C35.5147 35.2512 35.48 35.419 35.4356 35.5849C35.3527 35.9186 35.2447 36.2446 35.1193 36.5648C34.8666 37.2051 34.5291 37.8127 34.1221 38.374C33.3062 39.4947 32.1933 40.4109 30.9279 40.9857C30.2953 41.2711 29.6279 41.4814 28.9412 41.5952C28.5979 41.653 28.2507 41.6877 27.9035 41.6993L27.8399 41.7013H27.7839L27.6721 41.7032H27.5004H27.4155C27.4638 41.7032 27.4078 41.7032 27.4098 41.7013L27.375 41.6993C27.1879 41.6955 27.0028 41.6858 26.8176 41.6723C26.075 41.6164 25.3401 41.4852 24.6284 41.2769C23.9166 41.0705 23.2261 40.7947 22.5722 40.4475C21.2664 39.7493 20.0995 38.7926 19.1852 37.6391C18.7262 37.0643 18.325 36.4471 17.9932 35.7971C17.6614 35.1471 17.401 34.4662 17.2082 33.7699C17.0172 33.0736 16.8976 32.3599 16.8513 31.6424L16.8436 31.5074L16.8417 31.4746V31.4457L16.8398 31.3859L16.8359 31.2682L16.834 31.2393V31.1988V31.1158L16.832 30.948V30.9152C16.832 30.921 16.832 30.921 16.832 30.9037V30.8381C16.832 30.7513 16.8359 30.6625 16.8378 30.5758C16.8513 30.2208 16.8803 29.8563 16.9266 29.4917C16.9728 29.1272 17.0326 28.7607 17.1079 28.3962C17.1831 28.0336 17.2718 27.6729 17.3721 27.3199C17.5746 26.612 17.8273 25.9253 18.1263 25.2772C18.7262 23.9791 19.5131 22.8353 20.4582 21.9134C20.6936 21.6819 20.9385 21.4639 21.1931 21.2595C21.4477 21.055 21.712 20.866 21.984 20.6886C22.254 20.5092 22.5337 20.3472 22.8211 20.1967C22.9638 20.1196 23.1104 20.052 23.257 19.9807C23.3303 19.9479 23.4055 19.9151 23.4788 19.8823C23.5521 19.8495 23.6273 19.8167 23.7025 19.7878C24.0015 19.6605 24.3101 19.5544 24.6187 19.4541C24.6978 19.431 24.775 19.4059 24.8521 19.3827C24.9293 19.3577 25.0103 19.3403 25.0874 19.3172C25.2437 19.2728 25.4038 19.2361 25.5619 19.1956C25.641 19.1744 25.722 19.1609 25.8011 19.1436C25.8821 19.1262 25.9612 19.1088 26.0422 19.0934C26.1232 19.078 26.2042 19.0645 26.2833 19.0491L26.4048 19.0278L26.5264 19.0085C26.6074 18.997 26.6884 18.9835 26.7694 18.9719C26.86 18.9565 26.9526 18.9488 27.0433 18.9353C27.1185 18.9256 27.24 18.9121 27.3152 18.9025C27.3731 18.8967 27.429 18.8909 27.4869 18.8851L27.6007 18.8735L27.6586 18.8677L27.7261 18.8639C27.8187 18.8581 27.9093 18.8523 28.0019 18.8465L28.1389 18.8369C28.1389 18.8369 28.189 18.835 28.1446 18.835L28.1736 18.833L28.2314 18.8311C28.3105 18.8272 28.3877 18.8234 28.4668 18.8195C28.7792 18.8099 29.0898 18.8099 29.3965 18.8195C30.0117 18.8446 30.6155 18.9121 31.2018 19.0201C32.3765 19.2381 33.4817 19.6161 34.4809 20.1099C35.4819 20.5998 36.3788 21.2016 37.1581 21.8555C37.2063 21.896 37.2545 21.9384 37.3027 21.9789C37.351 22.0214 37.3972 22.0619 37.4435 22.1043C37.5381 22.1873 37.6287 22.2741 37.7194 22.357C37.81 22.4419 37.8968 22.5287 37.9855 22.6135C38.0704 22.7003 38.1572 22.7852 38.2401 22.8739C38.57 23.223 38.8767 23.5779 39.1525 23.9348C39.7061 24.6465 40.1478 25.364 40.5007 26.043C40.5239 26.0854 40.5451 26.1279 40.5663 26.1703C40.5875 26.2127 40.6087 26.2552 40.628 26.2976C40.6685 26.3805 40.711 26.4635 40.7476 26.5464C40.7862 26.6294 40.8248 26.7104 40.8614 26.7914C40.8961 26.8724 40.9309 26.9534 40.9656 27.0306C41.0967 27.3488 41.2163 27.6497 41.3147 27.9371C41.4767 28.3981 41.5944 28.8147 41.687 29.1754C41.7236 29.3201 41.8606 29.4165 42.0091 29.403C42.1634 29.3895 42.281 29.2622 42.2849 29.1079C42.2926 28.7202 42.283 28.2631 42.2386 27.7423C42.1807 27.0981 42.0708 26.3516 41.8528 25.5319C41.6387 24.7121 41.3205 23.8152 40.8576 22.8836C40.3927 21.9539 39.7871 20.9856 39.0001 20.0501C38.6934 19.6836 38.3578 19.321 37.9952 18.968C38.5353 16.8193 37.3375 14.9561 37.3375 14.9561C35.2697 14.8268 33.9543 15.5984 33.4663 15.9513C33.3853 15.9166 33.3023 15.8819 33.2194 15.8472C32.8664 15.7045 32.5057 15.5714 32.1335 15.4537C31.7612 15.3361 31.3812 15.228 30.9935 15.1374C30.6039 15.0467 30.2085 14.9696 29.8054 14.9079C29.734 14.8982 29.6646 14.8886 29.5932 14.877C28.6944 11.9953 26.1039 10.7898 26.1039 10.7898C23.2145 12.6125 22.6648 15.176 22.6648 15.176Z" fill="white"/>
</mask>
<g mask="url(#mask7_2199_11985)">
<path d="M42.2907 10.7821H6.9082V49.2102H42.2907V10.7821Z" fill="url(#paint0_linear_2199_11985)"/>
</g>
</g>
<defs>
<linearGradient id="paint0_linear_2199_11985" x1="24.5953" y1="57.8531" x2="24.5953" y2="22.745" gradientUnits="userSpaceOnUse">
<stop stop-color="#FFF200"/>
<stop offset="1" stop-color="#F15A29"/>
</linearGradient>
<clipPath id="clip0_2199_11985">
<rect width="120" height="60" fill="white" transform="translate(0.5)"/>
</clipPath>
</defs>
</svg>
