<svg width="118" height="40" viewBox="0 0 118 40" fill="none" xmlns="http://www.w3.org/2000/svg">
<g clip-path="url(#clip0_1605_4701)">
<path d="M17.0211 0.192475C16.3938 0.565904 15.3482 1.6115 14.1084 3.12763L15.2511 5.28605C16.0502 4.13588 16.8718 3.10522 17.6933 2.22393C17.7531 2.15671 17.7904 2.11937 17.7904 2.11937C17.7605 2.15671 17.7232 2.18659 17.6933 2.22393C17.4244 2.5152 16.6178 3.45624 15.4005 5.33086C16.573 5.27111 18.373 5.03211 19.8443 4.77818C20.2849 2.32849 19.4186 1.2082 19.4186 1.2082C19.4186 1.2082 18.3132 -0.576789 17.0211 0.192475Z" fill="url(#paint0_linear_1605_4701)"/>
<path d="M13.1747 18.3113C13.0253 18.3412 12.8759 18.3636 12.7266 18.386C12.8012 18.3785 12.8834 18.3636 12.9581 18.3486C13.0328 18.3412 13.1075 18.3262 13.1747 18.3113Z" fill="#BE202E"/>
<path opacity="0.35" d="M13.1747 18.3113C13.0253 18.3412 12.8759 18.3636 12.7266 18.386C12.8012 18.3785 12.8834 18.3636 12.9581 18.3486C13.0328 18.3412 13.1075 18.3262 13.1747 18.3113Z" fill="#BE202E"/>
<path d="M13.5632 16.4217C13.5558 16.4217 13.5558 16.4217 13.5632 16.4217C13.5856 16.4217 13.608 16.4142 13.6304 16.4142C13.7275 16.3993 13.8246 16.3843 13.9142 16.3619C13.8022 16.3843 13.6827 16.3993 13.5632 16.4217Z" fill="#BE202E"/>
<path opacity="0.35" d="M13.5632 16.4217C13.5558 16.4217 13.5558 16.4217 13.5632 16.4217C13.5856 16.4217 13.608 16.4142 13.6304 16.4142C13.7275 16.3993 13.8246 16.3843 13.9142 16.3619C13.8022 16.3843 13.6827 16.3993 13.5632 16.4217Z" fill="#BE202E"/>
<path d="M11.8751 10.8577C12.2262 10.2079 12.5772 9.57307 12.9282 8.95318C13.2942 8.31088 13.6676 7.69099 14.0485 7.08603C14.0709 7.04869 14.0933 7.01135 14.1157 6.98147C14.4891 6.39145 14.8626 5.82384 15.2435 5.27864L14.1008 3.12769C14.0186 3.23225 13.929 3.33681 13.8394 3.44883C13.5107 3.85961 13.1672 4.30025 12.8162 4.77077C12.4203 5.30104 12.017 5.86119 11.5988 6.4512C11.2179 6.99641 10.8295 7.57149 10.4412 8.16151C10.1125 8.66937 9.78393 9.1847 9.45531 9.71497C9.44037 9.73738 9.43291 9.75231 9.41797 9.77472L10.9042 12.7099C11.2328 12.09 11.554 11.4701 11.8751 10.8577Z" fill="url(#paint1_linear_1605_4701)"/>
<path d="M5.10122 27.4154C4.90704 27.9531 4.70539 28.5058 4.5112 29.0734C4.5112 29.0809 4.50374 29.0884 4.50374 29.0958C4.47386 29.178 4.44399 29.2527 4.42158 29.3348C4.28715 29.7157 4.17512 30.0593 3.90625 30.836C4.3469 31.0377 4.69792 31.5605 5.02654 32.158C4.98919 31.5381 4.73526 30.9555 4.2498 30.5074C6.40822 30.6045 8.27537 30.0593 9.23135 28.4759C9.3135 28.334 9.39566 28.1847 9.47034 28.0278C9.02969 28.5805 8.49196 28.8195 7.46876 28.7598C8.96995 28.0876 9.72427 27.4378 10.389 26.3698C10.5458 26.1159 10.7027 25.8395 10.8595 25.5333C9.54503 26.8851 8.02144 27.266 6.41569 26.9748L5.21325 27.1092C5.17591 27.2138 5.13857 27.3108 5.10122 27.4154Z" fill="url(#paint2_linear_1605_4701)"/>
<path d="M5.66073 24.7193C5.92213 24.0471 6.191 23.3675 6.45987 22.6803C6.72127 22.0231 6.99014 21.3659 7.26647 20.7012C7.54281 20.0365 7.82662 19.3718 8.11042 18.7071C8.4017 18.0274 8.70044 17.3552 9.00665 16.6831C9.3054 16.0184 9.61908 15.3537 9.92529 14.6964C10.0373 14.4574 10.1493 14.2259 10.2688 13.9869C10.463 13.5836 10.6647 13.1803 10.8663 12.777C10.8738 12.7546 10.8887 12.7322 10.8962 12.7098L9.42489 9.7821C9.40249 9.81945 9.38008 9.86426 9.35021 9.9016C9.00665 10.4692 8.65563 11.0443 8.31954 11.6343C7.97599 12.2318 7.6399 12.8368 7.31129 13.4566C7.03495 13.9794 6.76608 14.5022 6.49721 15.0325C6.44493 15.1371 6.39265 15.2491 6.34037 15.3537C6.01922 16.0184 5.72048 16.6681 5.45908 17.288C5.16033 17.9901 4.89893 18.6622 4.66741 19.2971C4.51804 19.7153 4.37613 20.1186 4.24917 20.507C4.14461 20.8356 4.04752 21.1717 3.95042 21.5003C3.72637 22.277 3.53965 23.0538 3.38281 23.8305L4.87653 26.7806C5.07071 26.2503 5.27983 25.7201 5.48148 25.1748C5.54123 25.0255 5.60098 24.8761 5.66073 24.7193Z" fill="url(#paint3_linear_1605_4701)"/>
<path d="M3.36086 23.9351C3.17415 24.8762 3.03971 25.8172 2.97249 26.7582C2.97249 26.7881 2.96503 26.8255 2.96503 26.8553C2.50197 26.1085 1.24725 25.3766 1.25472 25.384C2.15095 26.6836 2.83059 27.9682 2.92768 29.2303C2.44969 29.3274 1.79246 29.1855 1.03813 28.9092C1.8298 29.6337 2.41982 29.8353 2.65135 29.8876C1.92689 29.9324 1.17257 30.4328 0.410772 31.0079C1.52359 30.5523 2.42729 30.373 3.06959 30.5224C2.04639 33.4128 1.0232 36.6093 0 40C0.31368 39.9104 0.500395 39.6938 0.604955 39.41C0.784201 38.7976 2.00158 34.7646 3.8986 29.4693C3.95088 29.32 4.01063 29.1706 4.06291 29.0138C4.07784 28.9689 4.09278 28.9316 4.10772 28.8868C4.30937 28.3341 4.51849 27.7665 4.73508 27.184C4.78736 27.0495 4.83217 26.9226 4.88445 26.7881V26.7807L3.39073 23.8306C3.3758 23.8679 3.36833 23.8978 3.36086 23.9351Z" fill="url(#paint4_linear_1605_4701)"/>
<path d="M11.1429 12.9638C11.0981 13.0534 11.0608 13.1356 11.016 13.2252C10.889 13.4941 10.7546 13.7629 10.6276 14.0393C10.4857 14.338 10.3438 14.6442 10.1944 14.9579C10.1197 15.1147 10.0451 15.2716 9.97037 15.4359C9.74632 15.9213 9.52226 16.4217 9.29073 16.9371C9.00693 17.5719 8.72312 18.2291 8.43185 18.9162C8.15551 19.566 7.8717 20.2456 7.5879 20.9402C7.31903 21.6049 7.04269 22.2846 6.76636 22.9941C6.51989 23.6214 6.27343 24.2712 6.0195 24.9359C6.00456 24.9658 5.99709 25.0031 5.98215 25.033C5.73569 25.6902 5.48176 26.3699 5.22783 27.0645C5.22036 27.0794 5.21289 27.0943 5.21289 27.1093L6.41533 26.9748C6.39293 26.9674 6.37052 26.9674 6.34065 26.9599C7.78208 26.7807 9.69404 25.7052 10.9264 24.3758C11.494 23.7633 12.0093 23.0464 12.4873 22.2024C12.8458 21.5751 13.1744 20.8805 13.4955 20.1037C13.7719 19.4316 14.0408 18.6996 14.2947 17.908C13.9661 18.0798 13.5852 18.2067 13.1669 18.2963C13.0922 18.3113 13.0176 18.3262 12.9429 18.3412C12.8682 18.3561 12.7935 18.3636 12.7113 18.3785C14.0557 17.8632 14.8996 16.8698 15.5121 15.645C15.161 15.884 14.586 16.1977 13.8988 16.3545C13.8092 16.3769 13.7121 16.3919 13.615 16.4068C13.5926 16.4068 13.5702 16.4143 13.5404 16.4143C14.0034 16.2201 14.3992 16.0035 14.7428 15.7421C14.8175 15.6898 14.8847 15.6301 14.9519 15.5703C15.0565 15.4807 15.1536 15.3836 15.2507 15.2865C15.3104 15.2193 15.3702 15.1595 15.4299 15.0923C15.5643 14.9355 15.6913 14.7637 15.8033 14.577C15.8407 14.5172 15.878 14.465 15.9079 14.4052C15.9527 14.3156 15.9975 14.2334 16.0349 14.1513C16.2216 13.7779 16.3709 13.4418 16.4904 13.143C16.5502 12.9937 16.6025 12.8592 16.6473 12.7323C16.6622 12.68 16.6846 12.6352 16.6996 12.5829C16.7444 12.441 16.7892 12.314 16.8191 12.202C16.8639 12.0377 16.8937 11.9032 16.9087 11.8062C16.8639 11.8435 16.8116 11.8808 16.7518 11.9107C16.3485 12.1497 15.654 12.3738 15.0938 12.4783C15.0864 12.4783 15.0789 12.4783 15.0714 12.4858C15.0191 12.4933 14.9594 12.5007 14.8996 12.5157C14.9071 12.5082 14.922 12.5082 14.9295 12.5007L11.1504 12.9115C11.1579 12.9414 11.1504 12.9563 11.1429 12.9638Z" fill="url(#paint5_linear_1605_4701)"/>
<path d="M15.3997 5.33085C15.0636 5.84618 14.6977 6.4362 14.3018 7.09344C14.2794 7.13078 14.257 7.16065 14.2421 7.198C13.8985 7.77308 13.54 8.40044 13.1591 9.09502C12.8305 9.6925 12.487 10.3273 12.1285 11.0219C11.8148 11.6194 11.5011 12.2542 11.165 12.9264L14.9441 12.5156C16.042 12.0078 16.5349 11.5522 17.0129 10.8875C17.1399 10.7082 17.2669 10.514 17.3938 10.3124C17.7822 9.70744 18.1631 9.04273 18.4992 8.37803C18.8278 7.73573 19.1191 7.1009 19.3357 6.53329C19.4776 6.16733 19.5896 5.83125 19.6718 5.5325C19.739 5.2711 19.7912 5.02464 19.8361 4.78564C18.3722 5.03211 16.5723 5.2711 15.3997 5.33085Z" fill="url(#paint6_linear_1605_4701)"/>
<path d="M12.9581 18.3561C12.8834 18.371 12.8087 18.3785 12.7266 18.3934C12.8012 18.3785 12.8759 18.3635 12.9581 18.3561Z" fill="#BE202E"/>
<path opacity="0.35" d="M12.9581 18.3561C12.8834 18.371 12.8087 18.3785 12.7266 18.3934C12.8012 18.3785 12.8759 18.3635 12.9581 18.3561Z" fill="#BE202E"/>
<path d="M12.9581 18.3561C12.8834 18.371 12.8087 18.3785 12.7266 18.3934C12.8012 18.3785 12.8759 18.3635 12.9581 18.3561Z" fill="url(#paint7_linear_1605_4701)"/>
<path d="M13.5557 16.4217C13.5781 16.4217 13.6005 16.4142 13.6303 16.4142C13.6079 16.4142 13.5855 16.4217 13.5557 16.4217Z" fill="#BE202E"/>
<path opacity="0.35" d="M13.5557 16.4217C13.5781 16.4217 13.6005 16.4142 13.6303 16.4142C13.6079 16.4142 13.5855 16.4217 13.5557 16.4217Z" fill="#BE202E"/>
<path d="M13.5557 16.4217C13.5781 16.4217 13.6005 16.4142 13.6303 16.4142C13.6079 16.4142 13.5855 16.4217 13.5557 16.4217Z" fill="url(#paint8_linear_1605_4701)"/>
<path d="M15.2932 12.4472V12.9931H15.1396V12.4472H14.9463V12.3164H15.4809V12.4472H15.2932Z" fill="#B0AFB0"/>
<path d="M16.1975 12.5666L16.0156 12.9363H15.9246L15.7426 12.5666V12.9931H15.5947V12.3164H15.7995L15.9757 12.6861L16.152 12.3164H16.3568V12.9931H16.2089V12.5666H16.1975Z" fill="#B0AFB0"/>
<path d="M21.4975 38.934C20.8665 38.934 20.3132 38.9 19.8375 38.832C19.3618 38.7738 18.959 38.701 18.6289 38.6136V34.8568C18.9881 34.9344 19.3667 35.0024 19.7647 35.0606C20.153 35.1189 20.5801 35.148 21.0461 35.148C21.4926 35.148 21.9052 35.0995 22.2838 35.0024C22.6721 34.9053 23.007 34.7354 23.2886 34.4927C23.5798 34.2598 23.8031 33.9443 23.9584 33.5463C24.1234 33.1482 24.2059 32.6483 24.2059 32.0464V11.3838H28.72V31.9008C28.72 33.124 28.5404 34.1772 28.1812 35.0606C27.8317 35.944 27.3366 36.6721 26.6959 37.2449C26.0649 37.8273 25.3077 38.2544 24.4243 38.5263C23.541 38.7981 22.5653 38.934 21.4975 38.934Z" fill="url(#paint9_linear_1605_4701)" stroke="#D22128"/>
<path d="M39.7008 32.6726L35.0266 15.9706H34.8955C34.9538 16.8637 35.0023 17.7277 35.0411 18.5626C35.0605 18.9218 35.0751 19.2906 35.0848 19.6692C35.1042 20.0478 35.1188 20.4216 35.1285 20.7905C35.1479 21.1594 35.1576 21.5137 35.1576 21.8534C35.1673 22.1932 35.1722 22.499 35.1722 22.7708V32.6726H31.1387V11.3838H37.2836L41.885 27.6634H41.9724L46.865 11.3838H53.0099V32.6726H48.8017V22.5961C48.8016 22.3437 48.8016 22.0573 48.8017 21.7369C48.8113 21.4166 48.8211 21.0768 48.8308 20.7177C48.8405 20.3585 48.8502 19.9944 48.8599 19.6255C48.8793 19.2567 48.8939 18.8975 48.9036 18.548C48.9424 17.7326 48.9764 16.8832 49.0055 15.9998H48.889L43.8508 32.6726H39.7008Z" fill="black"/>
<path d="M62.0328 19.247C61.2464 19.247 60.5912 19.5237 60.067 20.077C59.5525 20.6303 59.2564 21.4992 59.1787 22.6835H64.8431C64.8334 22.1884 64.7703 21.7321 64.6538 21.3147C64.5373 20.8973 64.3626 20.5381 64.1296 20.2372C63.8966 19.9265 63.6054 19.6838 63.2559 19.5091C62.9064 19.3344 62.4987 19.247 62.0328 19.247ZM62.6007 32.9638C61.4357 32.9638 60.3631 32.794 59.3826 32.4542C58.4021 32.1144 57.5576 31.6048 56.8489 30.9252C56.1402 30.236 55.5869 29.372 55.1889 28.3333C54.8006 27.2849 54.6064 26.0569 54.6064 24.6493C54.6064 23.2223 54.786 21.9748 55.1452 20.907C55.5044 19.8392 56.0043 18.9509 56.645 18.2422C57.2954 17.5239 58.0721 16.9851 58.9749 16.6259C59.8874 16.2668 60.897 16.0872 62.0036 16.0872C63.0812 16.0872 64.0519 16.2522 64.9159 16.5822C65.7896 16.9026 66.5274 17.3783 67.1293 18.0093C67.7408 18.6403 68.2068 19.4169 68.5272 20.3391C68.8572 21.2516 69.0222 22.3 69.0222 23.4844V25.6394H59.0914C59.1108 26.2607 59.2078 26.8238 59.3826 27.3286C59.567 27.8237 59.8194 28.2459 60.1398 28.5954C60.4698 28.9352 60.863 29.1973 61.3193 29.3817C61.7852 29.5662 62.3143 29.6584 62.9065 29.6584C63.4015 29.6584 63.8675 29.6341 64.3043 29.5856C64.7509 29.5273 65.1829 29.4448 65.6003 29.338C66.0177 29.2313 66.4303 29.1002 66.838 28.9449C67.2457 28.7799 67.6632 28.5906 68.0903 28.377V31.8135C67.702 32.0173 67.3088 32.1921 66.9108 32.3377C66.5225 32.4736 66.1099 32.5901 65.6731 32.6872C65.2363 32.7842 64.7654 32.8522 64.2607 32.891C63.7559 32.9396 63.2025 32.9638 62.6007 32.9638Z" fill="black"/>
<path d="M77.935 29.4253C78.3719 29.4253 78.7844 29.3768 79.1727 29.2797C79.5707 29.1826 79.9736 29.0613 80.3813 28.9157V32.2211C79.9639 32.4347 79.4445 32.6094 78.8233 32.7453C78.2117 32.8909 77.5419 32.9637 76.8138 32.9637C76.1051 32.9637 75.445 32.8812 74.8334 32.7162C74.2219 32.5512 73.6928 32.2648 73.2463 31.8571C72.7997 31.4397 72.4454 30.8863 72.1833 30.1971C71.9309 29.4981 71.8047 28.6245 71.8047 27.576V19.7274H69.6787V17.849L72.125 16.3637L73.4064 12.9272H76.2459V16.3929H80.2066V19.7274H76.2459V27.576C76.2459 28.207 76.4012 28.673 76.7119 28.9739C77.0225 29.2749 77.4302 29.4253 77.935 29.4253Z" fill="black"/>
<path d="M88.7691 19.247C87.9828 19.247 87.3275 19.5237 86.8033 20.077C86.2888 20.6303 85.9927 21.4992 85.9151 22.6835H91.5794C91.5697 22.1884 91.5066 21.7321 91.3902 21.3147C91.2737 20.8973 91.0989 20.5381 90.8659 20.2372C90.6329 19.9265 90.3417 19.6838 89.9923 19.5091C89.6428 19.3344 89.2351 19.247 88.7691 19.247ZM89.337 32.9638C88.1721 32.9638 87.0994 32.794 86.1189 32.4542C85.1384 32.1144 84.2939 31.6048 83.5852 30.9252C82.8766 30.236 82.3232 29.372 81.9252 28.3333C81.5369 27.2849 81.3428 26.0569 81.3428 24.6493C81.3428 23.2223 81.5224 21.9748 81.8815 20.907C82.2407 19.8392 82.7407 18.9509 83.3814 18.2422C84.0318 17.5239 84.8084 16.9851 85.7112 16.6259C86.6237 16.2668 87.6333 16.0872 88.74 16.0872C89.8175 16.0872 90.7883 16.2522 91.6523 16.5822C92.5259 16.9026 93.2637 17.3783 93.8656 18.0093C94.4772 18.6403 94.9431 19.4169 95.2635 20.3391C95.5935 21.2516 95.7586 22.3 95.7586 23.4844V25.6394H85.8277C85.8471 26.2607 85.9442 26.8238 86.1189 27.3286C86.3034 27.8237 86.5557 28.2459 86.8761 28.5954C87.2062 28.9352 87.5993 29.1973 88.0556 29.3817C88.5215 29.5662 89.0506 29.6584 89.6428 29.6584C90.1379 29.6584 90.6038 29.6341 91.0407 29.5856C91.4872 29.5273 91.9192 29.4448 92.3366 29.338C92.7541 29.2313 93.1666 29.1002 93.5744 28.9449C93.9821 28.7799 94.3995 28.5906 94.8266 28.377V31.8135C94.4383 32.0173 94.0452 32.1921 93.6472 32.3377C93.2588 32.4736 92.8463 32.5901 92.4094 32.6872C91.9726 32.7842 91.5018 32.8522 90.997 32.891C90.4922 32.9396 89.9389 32.9638 89.337 32.9638Z" fill="black"/>
<path d="M105.437 16.0872C105.553 16.0872 105.679 16.092 105.815 16.1017C105.961 16.1017 106.097 16.1114 106.223 16.1308C106.359 16.1406 106.48 16.1551 106.587 16.1745C106.703 16.1843 106.791 16.1988 106.849 16.2182V20.3828C106.771 20.3634 106.665 20.344 106.529 20.3245C106.393 20.3051 106.247 20.2906 106.092 20.2808C105.946 20.2614 105.801 20.2517 105.655 20.2517C105.509 20.242 105.388 20.2372 105.291 20.2372C104.718 20.2372 104.189 20.31 103.704 20.4556C103.228 20.6012 102.816 20.839 102.466 21.1691C102.126 21.4895 101.859 21.9166 101.665 22.4505C101.481 22.9747 101.388 23.6203 101.389 24.3872V32.6726H96.9473V16.3929H100.311L100.966 18.8393H101.185C101.418 18.4219 101.67 18.0433 101.942 17.7035C102.214 17.3637 102.515 17.0774 102.845 16.8444C103.184 16.6017 103.563 16.4172 103.98 16.291C104.408 16.1551 104.893 16.0872 105.437 16.0872Z" fill="black"/>
<path d="M111.313 16.0479H110.326V12.2011H109.153V11.3768H112.482V12.2011H111.313V16.0479Z" fill="black"/>
<path d="M115.08 16.0479L114.054 12.3832H114.025C114.038 12.5792 114.049 12.7688 114.057 12.952C114.062 13.0308 114.065 13.1117 114.067 13.1948C114.071 13.2778 114.074 13.3598 114.077 13.4408C114.081 13.5217 114.083 13.5995 114.083 13.674C114.085 13.7486 114.086 13.8157 114.086 13.8753V16.0479H113.201V11.3768H114.549L115.559 14.9488H115.578L116.652 11.3768H118V16.0479H117.077V13.837C117.077 13.7816 117.077 13.7187 117.077 13.6485C117.079 13.5782 117.081 13.5036 117.083 13.4248C117.085 13.346 117.087 13.2661 117.089 13.1852C117.094 13.1042 117.097 13.0254 117.099 12.9488C117.108 12.7698 117.115 12.5835 117.121 12.3896H117.096L115.99 16.0479H115.08Z" fill="black"/>
<path d="M24.1455 8.10969L27.334 0.490967H27.9484L31.1369 8.10969H30.3349L29.3454 5.72965H25.9176L24.941 8.10969H24.1455ZM27.6444 1.37055L26.0793 5.13464H29.1708L27.6444 1.37055Z" fill="#D22128"/>
<path d="M31.9521 8.10969V0.490967H35.1083C36.4147 0.490967 37.359 1.70039 37.359 2.88394C37.359 4.12571 36.4794 5.29632 35.173 5.29632H32.6959V8.10969H31.9521ZM32.6959 4.63017H35.1342C36.0331 4.63017 36.6152 3.80233 36.6152 2.88394C36.6152 1.92675 35.9103 1.15712 35.0695 1.15712H32.6959V4.63017Z" fill="#D22128"/>
<path d="M36.9443 8.10969L40.1328 0.490967H40.7472L43.9357 8.10969H43.1208L42.1313 5.72965H38.71L37.7334 8.10969H36.9443ZM40.4433 1.37055L38.8781 5.13464H41.9696L40.4433 1.37055Z" fill="#D22128"/>
<path d="M47.5323 0.445679C48.884 0.445679 49.8736 1.13123 50.3457 2.10783L49.7442 2.47001C49.2592 1.46108 48.3149 1.1183 47.4935 1.1183C45.6697 1.1183 44.6737 2.74811 44.6737 4.28091C44.6737 5.96246 45.909 7.48879 47.5259 7.48879C48.386 7.48879 49.395 7.06194 49.8736 6.07241L50.4944 6.39578C50.0029 7.53406 48.6512 8.16788 47.4806 8.16788C45.3916 8.16788 43.917 6.16942 43.917 4.2421C43.917 2.4118 45.2364 0.445679 47.5323 0.445679Z" fill="#D22128"/>
<path d="M57.5497 0.490967V8.10969H56.7995V4.54609H52.2851V8.10969H51.5479V0.490967H52.2851V3.87994H56.7995V0.490967H57.5497Z" fill="#D22128"/>
<path d="M64.3863 7.44354V8.10969H59.2705V0.490967H64.2893V1.15712H60.0078V3.90581H63.7396V4.53963H60.0078V7.44354H64.3863Z" fill="#D22128"/>
</g>
<defs>
<linearGradient id="paint0_linear_1605_4701" x1="15.0833" y1="3.38819" x2="23.4579" y2="1.05978" gradientUnits="userSpaceOnUse">
<stop stop-color="#F69923"/>
<stop offset="0.3123" stop-color="#F79A23"/>
<stop offset="0.8383" stop-color="#E97826"/>
</linearGradient>
<linearGradient id="paint1_linear_1605_4701" x1="-3.24756" y1="40.9745" x2="13.7859" y2="4.4448" gradientUnits="userSpaceOnUse">
<stop offset="0.3233" stop-color="#9E2064"/>
<stop offset="0.6302" stop-color="#C92037"/>
<stop offset="0.7514" stop-color="#CD2335"/>
<stop offset="1" stop-color="#E97826"/>
</linearGradient>
<linearGradient id="paint2_linear_1605_4701" x1="2.47258" y1="38.2733" x2="12.6229" y2="16.5051" gradientUnits="userSpaceOnUse">
<stop stop-color="#282662"/>
<stop offset="0.0954839" stop-color="#662E8D"/>
<stop offset="0.7882" stop-color="#9F2064"/>
<stop offset="0.9487" stop-color="#CD2032"/>
</linearGradient>
<linearGradient id="paint3_linear_1605_4701" x1="-2.63184" y1="38.7641" x2="14.4017" y2="2.23427" gradientUnits="userSpaceOnUse">
<stop offset="0.3233" stop-color="#9E2064"/>
<stop offset="0.6302" stop-color="#C92037"/>
<stop offset="0.7514" stop-color="#CD2335"/>
<stop offset="1" stop-color="#E97826"/>
</linearGradient>
<linearGradient id="paint4_linear_1605_4701" x1="-0.894854" y1="36.3304" x2="8.05675" y2="17.1329" gradientUnits="userSpaceOnUse">
<stop stop-color="#282662"/>
<stop offset="0.0954839" stop-color="#662E8D"/>
<stop offset="0.7882" stop-color="#9F2064"/>
<stop offset="0.9487" stop-color="#CD2032"/>
</linearGradient>
<linearGradient id="paint5_linear_1605_4701" x1="1.14914" y1="40.527" x2="18.1827" y2="3.99725" gradientUnits="userSpaceOnUse">
<stop offset="0.3233" stop-color="#9E2064"/>
<stop offset="0.6302" stop-color="#C92037"/>
<stop offset="0.7514" stop-color="#CD2335"/>
<stop offset="1" stop-color="#E97826"/>
</linearGradient>
<linearGradient id="paint6_linear_1605_4701" x1="-0.0955264" y1="42.7055" x2="16.938" y2="6.17571" gradientUnits="userSpaceOnUse">
<stop offset="0.3233" stop-color="#9E2064"/>
<stop offset="0.6302" stop-color="#C92037"/>
<stop offset="0.7514" stop-color="#CD2335"/>
<stop offset="1" stop-color="#E97826"/>
</linearGradient>
<linearGradient id="paint7_linear_1605_4701" x1="2.27391" y1="41.0513" x2="19.3075" y2="4.52159" gradientUnits="userSpaceOnUse">
<stop offset="0.3233" stop-color="#9E2064"/>
<stop offset="0.6302" stop-color="#C92037"/>
<stop offset="0.7514" stop-color="#CD2335"/>
<stop offset="1" stop-color="#E97826"/>
</linearGradient>
<linearGradient id="paint8_linear_1605_4701" x1="2.14531" y1="40.989" x2="19.1763" y2="4.4614" gradientUnits="userSpaceOnUse">
<stop offset="0.3233" stop-color="#9E2064"/>
<stop offset="0.6302" stop-color="#C92037"/>
<stop offset="0.7514" stop-color="#CD2335"/>
<stop offset="1" stop-color="#E97826"/>
</linearGradient>
<linearGradient id="paint9_linear_1605_4701" x1="822.979" y1="-1246.85" x2="827.243" y2="-1255.99" gradientUnits="userSpaceOnUse">
<stop stop-color="#F69923"/>
<stop offset="0.3123" stop-color="#F79A23"/>
<stop offset="0.8383" stop-color="#E97826"/>
</linearGradient>
<clipPath id="clip0_1605_4701">
<rect width="118" height="40" fill="white"/>
</clipPath>
</defs>
</svg>
