<svg width="221" height="40" viewBox="0 0 221 40" fill="none" xmlns="http://www.w3.org/2000/svg">
<path d="M135.029 26.9254C133.572 29.8892 130.909 31.3962 127.494 31.3962C121.566 31.3962 118.652 26.3226 118.652 19.7922C118.652 13.5129 121.717 8.18813 127.946 8.18813C131.211 8.18813 133.723 9.64491 135.079 12.5585V8.64023H138.846V28.985C138.846 35.5656 135.782 39.9862 127.745 39.9862C125.032 40.0867 122.37 39.6345 119.808 38.7806V35.013C122.319 35.867 124.932 36.3191 127.594 36.3693C133.17 36.3693 135.129 33.3553 135.129 29.2361L135.029 26.9254ZM79.1183 39.6848H75.3005V8.59H79.1183V12.6087C80.5751 9.64491 83.2375 8.13789 86.6534 8.13789C92.581 8.13789 95.595 13.2115 95.595 19.7419C95.595 26.0212 92.4805 31.346 86.2013 31.346C82.9863 31.346 80.4746 29.8892 79.1183 26.9756V39.6848ZM107.149 31.3962C104.486 31.4464 101.774 30.8938 99.3626 29.7385V25.6695C101.824 27.0258 104.537 27.7793 107.3 27.8798C110.263 27.8798 111.77 26.6742 111.77 24.916C111.77 23.1578 110.464 22.2536 106.245 21.1987C101.271 19.9931 99.1616 18.0842 99.1616 14.4171C99.1616 10.5491 102.176 8.13789 107.249 8.13789C109.761 8.08766 112.222 8.64023 114.433 9.74538V13.7139C111.77 12.3575 109.56 11.6543 107.199 11.6543C104.386 11.6543 102.879 12.6589 102.879 14.3669C102.879 15.9241 103.934 16.9288 108.053 17.8833C113.026 19.0889 115.538 20.9475 115.538 24.8155C115.538 28.5831 113.127 31.3962 107.149 31.3962ZM42.2969 16.1753C42.2969 7.33415 47.3705 1.10515 56.4628 1.10515C65.5552 1.10515 70.5786 7.33415 70.5786 16.1753C70.5786 25.117 65.5049 31.3962 56.4628 31.3962C47.4207 31.3962 42.2969 25.117 42.2969 16.1753ZM147.135 21.5001C147.688 25.3179 150.149 27.7793 155.424 27.7793C157.734 27.7793 160.045 27.3775 162.205 26.5737V30.0901C160.397 31.0446 157.584 31.4464 155.273 31.4464C146.934 31.4464 143.217 26.624 143.217 19.7922C143.217 13.0608 146.984 8.23836 153.766 8.23836C160.648 8.23836 163.411 13.0106 163.411 19.7922V21.5503H147.135V21.5001ZM204.603 21.5001C205.155 25.3179 207.617 27.7793 212.891 27.7793C215.202 27.7793 217.513 27.3775 219.673 26.5737V30.0901C217.864 31.0446 215.001 31.4464 212.74 31.4464C204.402 31.4464 200.735 26.624 200.735 19.7922C200.735 13.0608 204.502 8.23836 211.284 8.23836C218.166 8.23836 220.929 13.0106 220.929 19.7922V21.5503H204.603V21.5001ZM196.264 30.9441H192.396V8.59H196.264V30.9441ZM171.85 30.9441H168.032V8.59H171.85V12.2571C173.257 9.69514 175.969 8.08766 178.933 8.13789C184.057 8.13789 187.021 11.6543 187.021 17.833V30.9441H183.153V17.4312C183.153 13.4125 181.545 11.604 177.878 11.604C174.312 11.604 171.85 13.965 171.85 18.4861V30.9441ZM85.6487 11.7045C82.1826 11.7045 79.1183 13.9148 79.1183 18.8377V20.6461C79.1183 25.6193 81.9314 27.7793 85.1966 27.7793C89.5167 27.7793 91.7773 24.916 91.7773 19.7419C91.7773 14.4171 89.6674 11.7045 85.6487 11.7045ZM128.498 27.8296C131.914 27.8296 135.029 25.6193 135.029 20.6964V18.8879C135.029 13.9148 132.216 11.7547 128.95 11.7547C124.63 11.7547 122.37 14.6181 122.37 19.7922C122.37 25.117 124.53 27.8296 128.498 27.8296ZM46.3156 16.1753C46.3156 22.4043 49.2292 27.5282 56.4628 27.5282C63.6965 27.5282 66.5599 22.4043 66.5599 16.1753C66.5599 10.097 63.6463 4.97316 56.4628 4.97316C49.2794 4.97316 46.3156 10.097 46.3156 16.1753ZM147.085 18.1344H159.543C159.342 13.965 157.433 11.604 153.615 11.604C149.546 11.604 147.487 14.2664 147.085 18.1344ZM204.552 18.1344H217.01C216.809 13.965 214.901 11.604 211.083 11.604C207.014 11.604 204.954 14.2664 204.552 18.1344ZM194.355 0C194.405 0 194.455 0 194.556 0C195.912 0 197.068 1.15538 197.068 2.51169C197.068 2.56193 197.068 2.61216 197.068 2.71263C197.068 4.16941 195.862 5.37503 194.405 5.37503C192.948 5.37503 191.743 4.16941 191.743 2.71263C191.743 2.6624 191.743 2.61216 191.743 2.51169C191.743 1.15538 192.898 0 194.254 0C194.254 0 194.305 0 194.355 0Z" fill="#253858"/>
<path d="M15.0705 18.2349C20.0089 18.2349 24.0122 14.2316 24.0122 9.29326C24.0122 4.35493 20.0089 0.351624 15.0705 0.351624C10.1322 0.351624 6.12891 4.35493 6.12891 9.29326C6.12891 14.2316 10.1322 18.2349 15.0705 18.2349Z" fill="url(#paint0_linear_1605_5123)"/>
<path d="M14.3167 36.0177C8.48953 32.3003 3.61684 27.1765 0.150702 21.1987C0.0502339 21.048 0 20.8972 0 20.6963C0 20.2944 0.200936 19.9428 0.552573 19.7921L7.33415 16.4767C7.78625 16.2255 8.38906 16.4264 8.64023 16.8785C12.0561 22.6052 17.1298 27.2267 23.2081 30.0398C20.9475 32.3003 18.4861 34.3097 15.8237 36.0177C15.3716 36.3191 14.7688 36.3191 14.3167 36.0177Z" fill="url(#paint1_linear_1605_5123)"/>
<path d="M15.824 36.0176C21.7014 32.3003 26.5238 27.1764 29.99 21.1986C30.0904 21.0479 30.1407 20.8972 30.1407 20.6963C30.1407 20.2944 29.9397 19.9427 29.5881 19.792L22.8065 16.4766C22.3544 16.2254 21.7516 16.4264 21.5004 16.8785C18.0845 22.6051 13.0109 27.2267 6.93262 30.0398C9.14291 32.3003 11.6546 34.3096 14.317 36.0176C14.7691 36.319 15.3719 36.319 15.824 36.0176Z" fill="#2684FF"/>
<defs>
<linearGradient id="paint0_linear_1605_5123" x1="15.0776" y1="3.30879" x2="15.0776" y2="24.1369" gradientUnits="userSpaceOnUse">
<stop stop-color="#2684FF"/>
<stop offset="0.82" stop-color="#0052CC"/>
<stop offset="1" stop-color="#0052CC"/>
</linearGradient>
<linearGradient id="paint1_linear_1605_5123" x1="9.54911" y1="21.177" x2="16.5259" y2="35.7788" gradientUnits="userSpaceOnUse">
<stop stop-color="#2684FF"/>
<stop offset="0.62" stop-color="#0052CC"/>
<stop offset="1" stop-color="#0052CC"/>
</linearGradient>
</defs>
</svg>
