<svg width="87" height="40" viewBox="0 0 87 40" fill="none" xmlns="http://www.w3.org/2000/svg">
<path d="M40.1034 20.0946C40.1034 23.8824 40.0885 27.6715 40.113 31.4592C40.1211 32.6492 39.7086 33.6131 38.8713 34.4368C37.3845 35.9005 35.9073 37.3736 34.4382 38.855C33.6771 39.6229 32.7717 40 31.6947 40C23.9368 39.9986 16.1789 39.9973 8.41961 40C7.36444 40 6.4672 39.6269 5.72381 38.8958C4.2207 37.4158 2.7312 35.9223 1.23626 34.4328C0.409816 33.6104 0 32.6192 0 31.4429C0.00544606 23.8197 0.00408455 16.198 0.00136152 8.57622C0.00136152 7.40259 0.420708 6.42094 1.26213 5.59586C2.68627 4.19758 4.10225 2.79114 5.49508 1.36154C6.40457 0.427545 7.47472 2.90734e-05 8.77905 0.00139059C16.2878 0.0177288 23.7966 0.0204518 31.3053 2.90734e-05C32.6355 -0.00405547 33.7302 0.422099 34.6587 1.36835C36.0243 2.76118 37.409 4.13631 38.8005 5.50191C39.6909 6.37601 40.1239 7.39442 40.1143 8.66199C40.083 12.4729 40.1034 16.2838 40.1034 20.0946ZM20.0361 35.8351V35.8324C23.5992 35.8324 27.1609 35.8515 30.7226 35.8093C31.1923 35.8038 31.7614 35.5887 32.1073 35.2755C33.2346 34.2585 34.3143 33.1815 35.3354 32.0583C35.6703 31.6893 35.9495 31.1079 35.9522 30.6219C35.9903 23.5651 35.9917 16.5084 35.9495 9.45167C35.9467 8.94791 35.6513 8.34884 35.3027 7.9649C34.2843 6.83892 33.1978 5.76877 32.0773 4.74491C31.7424 4.43857 31.2046 4.19622 30.758 4.1935C23.6332 4.15946 16.5084 4.16082 9.38357 4.1935C8.93699 4.19622 8.39919 4.43993 8.06426 4.74763C6.92875 5.78919 5.83273 6.88113 4.79117 8.01663C4.46849 8.36927 4.18802 8.92204 4.1853 9.38359C4.14718 16.4635 4.14718 23.542 4.18394 30.6219C4.18666 31.0889 4.44399 31.6485 4.76531 32.0011C5.77146 33.1066 6.87974 34.121 7.91858 35.1993C8.36107 35.6595 8.84441 35.8501 9.48432 35.846C13.0011 35.8242 16.5179 35.8351 20.0347 35.8351H20.0361Z" fill="black"/>
<path d="M69.788 9.96634C70.3952 10.6308 70.5804 11.3959 70.4511 12.2482C70.2972 13.268 69.5184 14.0427 68.4905 14.0999C67.5415 14.1516 66.5871 14.1203 65.6354 14.1435C65.2487 14.153 65.1207 13.9883 65.1221 13.6152C65.1316 11.1672 65.133 8.71783 65.1262 6.26982C65.1262 5.89132 65.2759 5.747 65.6544 5.75789C66.583 5.78376 67.517 5.73339 68.4415 5.80282C70.5001 5.9594 70.8241 8.12557 70.206 9.32779C70.1025 9.52793 69.9595 9.70629 69.7866 9.96634H69.788ZM66.2045 8.08336C66.2045 8.97107 66.6452 9.41447 67.5265 9.41356C67.7076 9.41356 67.8887 9.41356 68.0698 9.41084C68.982 9.3945 69.3741 9.02145 69.3918 8.15416C69.4095 7.31411 68.9847 6.87298 68.1106 6.83349C67.8846 6.82396 67.6586 6.83349 67.4326 6.83349C65.9417 6.83349 66.2372 6.8226 66.2059 8.08336H66.2045ZM66.2453 12.9957C67.0391 12.9957 67.807 13.0515 68.5613 12.9794C69.2339 12.914 69.3891 12.3585 69.3918 11.7703C69.3945 11.0692 69.0746 10.5695 68.4946 10.5259C67.7607 10.4701 67.0187 10.5123 66.2453 10.5123V12.9957Z" fill="black"/>
<path d="M54.2524 29.7507C54.2524 30.7024 54.2674 31.6554 54.2429 32.6058C54.236 32.8876 54.1448 33.1763 54.0482 33.4445C53.7799 34.1879 53.2244 34.5568 52.4661 34.3335C51.818 34.1429 51.2189 34.3512 50.5967 34.3512C49.6614 34.3512 48.9643 33.7413 48.9506 32.7978C48.9207 30.7814 48.9234 28.7636 48.9656 26.7472C48.9711 26.5048 49.3074 26.2679 49.4898 26.0297C49.6614 26.2775 49.9745 26.5225 49.9813 26.7744C50.0249 28.5417 50.0058 30.3089 50.0058 32.0775C50.0058 32.2368 49.95 32.4274 50.0181 32.5472C50.1692 32.8114 50.383 33.0401 50.5708 33.2825C50.7342 33.0415 51.0256 32.8073 51.0406 32.5568C51.0964 31.586 51.0651 30.6084 51.0651 29.635C51.0651 29.2388 51.0555 28.7908 51.5988 28.7908C52.1271 28.7908 52.1502 29.2238 52.1488 29.6295C52.1461 30.5363 52.1407 31.443 52.1557 32.3485C52.1597 32.5663 52.1924 32.8059 52.2904 32.9952C52.5001 33.3982 52.8473 33.4009 53.0461 32.9952C53.1496 32.7841 53.1768 32.5186 53.1795 32.2777C53.1918 30.5553 53.1877 28.833 53.1904 27.1107C53.1904 26.9296 53.1373 26.7131 53.2163 26.5756C53.3374 26.366 53.5539 26.2121 53.7296 26.0351C53.9025 26.2312 54.2156 26.4204 54.2265 26.6246C54.2769 27.6635 54.2497 28.7078 54.2497 29.7493H54.2524V29.7507Z" fill="black"/>
<path d="M52.0621 9.65875C52.397 10.2319 52.6884 10.7303 52.9784 11.2299C53.3092 11.7977 53.6455 12.3627 53.9668 12.9373C54.1588 13.2817 54.5074 13.6902 53.9941 13.9965C53.4427 14.326 53.2466 13.8018 53.0328 13.4424C52.3957 12.3709 51.7707 11.2926 51.1403 10.217C51.06 10.0795 51.0083 9.89157 50.8871 9.82077C50.691 9.70504 50.4487 9.6179 50.2268 9.62062C50.1519 9.62062 50.0212 9.93105 50.0171 10.1012C49.9967 11.1442 50.0062 12.1884 50.0048 13.2314C50.0048 13.6262 50.0144 14.0823 49.4698 14.0741C48.9388 14.066 48.9374 13.6194 48.9374 13.2191C48.9374 10.9508 48.9524 8.68254 48.9279 6.41425C48.9224 5.90505 49.0817 5.73486 49.5882 5.75528C50.5399 5.7934 51.493 5.76481 52.446 5.78796C53.6564 5.81655 54.2827 6.46055 54.299 7.65868C54.3154 8.82141 53.7313 9.46405 52.5645 9.57433C52.4379 9.58659 52.3112 9.61654 52.0621 9.66011V9.65875ZM50.0824 8.50554C50.8326 8.50554 51.5542 8.48784 52.2745 8.51099C52.8354 8.53005 53.203 8.3762 53.2153 7.73901C53.2275 7.0882 53.0219 6.869 52.3167 6.83905C52.0008 6.82543 51.6822 6.83496 51.3663 6.83496C50.367 6.83496 49.939 7.39137 50.0824 8.50418V8.50554Z" fill="black"/>
<path d="M68.2465 29.8732C68.9504 31.0863 69.5917 32.2028 70.2425 33.3124C70.4372 33.6446 70.6346 33.9904 70.203 34.2491C69.7864 34.4983 69.5386 34.2056 69.3384 33.8652C68.6372 32.6739 67.9156 31.4948 67.2376 30.2912C67.0089 29.8841 66.7461 29.7343 66.2097 29.9182C66.2097 30.8685 66.211 31.857 66.2097 32.8454C66.2097 33.1858 66.2491 33.5398 66.1661 33.8597C66.1171 34.0463 65.8638 34.2981 65.6964 34.3036C65.5235 34.309 65.2974 34.0803 65.1763 33.8992C65.0891 33.7685 65.1259 33.548 65.1259 33.3682C65.1245 31.1476 65.1409 28.9256 65.1164 26.705C65.1109 26.1767 65.2484 25.9793 65.8012 26.0052C66.7284 26.0487 67.6597 26.0052 68.5882 26.0201C69.8245 26.0406 70.4671 26.6628 70.4903 27.8364C70.5148 29.0863 69.932 29.7316 68.6876 29.831C68.5773 29.8405 68.4657 29.8514 68.2465 29.8732ZM66.2505 28.7187C67.1641 28.7187 68.045 28.7622 68.9136 28.6833C69.0988 28.6669 69.3248 28.2163 69.3834 27.9358C69.4582 27.5818 69.3834 27.142 68.8987 27.1202C68.0259 27.0794 67.1505 27.1093 66.2505 27.1093V28.72V28.7187Z" fill="black"/>
<path d="M57.0984 15.9393C58.4177 15.9393 59.7057 15.8808 60.9855 15.9598C61.8882 16.0142 62.3756 16.7304 62.3838 17.742C62.3933 18.8244 61.9426 19.4643 61.0345 19.6508C60.7758 19.7039 60.5131 19.7434 60.1713 19.8033C60.7459 20.7891 61.2918 21.7244 61.8351 22.6584C61.9603 22.8735 62.1537 23.0791 62.1891 23.3092C62.2299 23.5761 62.1333 23.8634 62.0965 24.1425C61.8351 24.0485 61.4797 24.0295 61.33 23.8443C60.9923 23.4263 60.754 22.9253 60.4777 22.4583C60.0406 21.7162 59.6063 20.9729 59.1679 20.2322C58.8629 19.7189 58.8602 19.7216 58.0827 19.7952C58.0827 20.6529 58.0841 21.5256 58.0827 22.397C58.0827 22.8504 58.1209 23.3106 58.0487 23.7531C58.0188 23.9342 57.7451 24.1956 57.5776 24.1983C57.4115 24.2024 57.2223 23.9423 57.0779 23.7681C57.0194 23.6973 57.048 23.5489 57.048 23.4358C57.048 21.0777 57.048 18.7209 57.0507 16.3628C57.0507 16.2321 57.0793 16.1014 57.0984 15.9393ZM58.0909 17C58.0909 17.4697 58.0596 17.8741 58.1086 18.2689C58.125 18.401 58.3374 18.6079 58.4667 18.612C59.2101 18.6419 59.9562 18.6324 60.7009 18.6147C61.1162 18.6052 61.3014 18.356 61.2932 17.9503C61.285 17.5486 61.3749 17.0449 60.7922 17.0122C59.9222 16.9632 59.0481 17 58.0923 17H58.0909Z" fill="black"/>
<path d="M77.2228 17.6181C76.9518 18.1723 76.6986 18.7359 76.3963 19.2724C76.3024 19.4399 76.06 19.6482 75.9116 19.6305C75.7251 19.6073 75.5113 19.4031 75.4024 19.2206C75.0879 18.6978 74.8197 18.1478 74.5324 17.6086C74.4548 17.6318 74.3785 17.6563 74.3009 17.6794C74.3009 17.915 74.3009 18.1519 74.3009 18.3874C74.3009 20.0661 74.2969 21.7449 74.2996 23.4236C74.2996 23.8076 74.2832 24.2092 73.7822 24.2147C73.2757 24.2215 73.2607 23.8212 73.2607 23.4359C73.2635 20.9661 73.2621 18.495 73.2621 16.0388C74.2615 15.7243 74.5351 15.8141 75.0579 16.5766C75.3112 16.9469 75.578 17.3091 75.898 17.7584C76.1758 17.3663 76.4467 17.064 76.6278 16.7168C77.0417 15.9217 77.6598 15.7147 78.5176 15.983C78.5353 16.1191 78.5707 16.2716 78.5707 16.4241C78.5747 18.7387 78.5734 21.0519 78.5775 23.3665C78.5775 23.7749 78.557 24.2092 78.0342 24.2147C77.5032 24.2201 77.4883 23.7749 77.4883 23.3733C77.4883 21.6714 77.4882 19.9708 77.4855 18.2689C77.4855 18.0756 77.4678 17.8823 77.4583 17.6889C77.3807 17.6658 77.3017 17.6427 77.2241 17.6195L77.2228 17.6181Z" fill="black"/>
<path d="M81.3643 24.2392V15.9027C82.3187 15.9027 83.2404 15.9027 84.1622 15.9027C84.7749 15.9027 85.393 15.8523 85.9961 15.9285C86.2262 15.9571 86.4209 16.2744 86.632 16.4595C86.4277 16.6256 86.2317 16.9197 86.0166 16.9333C85.1125 16.9919 84.2044 16.966 83.2962 16.9701C83.0267 16.9701 82.7571 16.9701 82.3908 16.9701C82.3908 17.7448 82.3718 18.4637 82.4085 19.1798C82.4154 19.3051 82.6373 19.4998 82.7816 19.5229C83.1138 19.576 83.4596 19.5447 83.8 19.5461C84.1812 19.5475 84.5502 19.6727 84.4712 20.0961C84.4345 20.2963 84.0614 20.5291 83.8095 20.5754C83.3766 20.6544 82.9178 20.5972 82.3922 20.5972C82.3922 21.395 82.3663 22.1153 82.4154 22.8301C82.4249 22.9594 82.7353 23.165 82.9137 23.1718C83.9103 23.2058 84.9083 23.1936 85.9063 23.1895C86.2793 23.1881 86.6238 23.2467 86.6211 23.7069C86.617 24.1494 86.2916 24.2433 85.9104 24.2433C84.4181 24.2392 82.9246 24.242 81.3643 24.242V24.2392Z" fill="black"/>
<path d="M74.6065 30.1931C75.5786 31.0263 76.5044 31.8201 77.4303 32.6152C77.6536 32.8072 77.8796 32.9964 78.0988 33.1925C78.3833 33.4471 78.785 33.7085 78.4228 34.1374C78.0389 34.5908 77.6876 34.2354 77.3772 33.9754C76.5616 33.2905 75.757 32.5921 74.9441 31.9018C74.7794 31.7615 74.601 31.6377 74.3083 31.413C74.3083 32.2163 74.3083 32.8862 74.3083 33.556C74.3083 33.9386 74.2743 34.3321 73.7678 34.3294C73.2477 34.3253 73.2586 33.9155 73.2586 33.5411C73.2586 31.2959 73.2613 29.0508 73.2559 26.8043C73.2559 26.4067 73.3062 26.0309 73.8018 26.0473C74.2484 26.0622 74.3042 26.4258 74.3015 26.792C74.2974 27.4673 74.3015 28.1426 74.3015 29.0045C74.9673 28.449 75.4983 28.0092 76.0252 27.5654C76.5453 27.127 77.0381 26.6491 77.595 26.2665C77.7897 26.133 78.2281 26.1181 78.4065 26.2501C78.7523 26.5061 78.5086 26.8274 78.2608 27.0439C77.3213 27.8635 76.3683 28.6682 75.422 29.4796C75.1661 29.6989 74.9142 29.9221 74.6051 30.1931H74.6065Z" fill="black"/>
<path d="M57.0029 9.92965C57.0887 9.5988 57.1282 9.25434 57.2671 8.95481C57.6279 8.1733 58.0132 7.40268 58.4216 6.64568C59.0343 5.51153 60.325 5.47613 60.9513 6.58577C61.3965 7.37409 61.7941 8.191 62.1753 9.01199C62.4653 9.63829 62.4572 10.2945 62.1563 10.9222C61.7641 11.7391 61.3802 12.5615 60.9377 13.3511C60.3536 14.3927 59.0534 14.3927 58.472 13.3566C58.0404 12.5873 57.6469 11.7936 57.278 10.9916C57.1309 10.6717 57.0955 10.3013 57.0029 9.93101V9.92965ZM57.9955 9.97186C58.4897 10.9658 58.9621 11.9338 59.4727 12.8814C59.4959 12.9236 59.9683 12.846 60.0418 12.7167C60.4639 11.9692 60.871 11.2068 61.1909 10.413C61.3108 10.1162 61.2686 9.68186 61.1419 9.37415C60.8438 8.64302 60.4666 7.9432 60.0908 7.24747C59.8362 6.77638 59.5803 6.77638 59.3175 7.22977C59.1146 7.58104 58.9417 7.95137 58.7661 8.31898C58.5156 8.8418 58.2759 9.37007 57.9955 9.97322V9.97186Z" fill="black"/>
<path d="M73.1953 9.91193C73.292 9.57155 73.3492 9.21075 73.4962 8.88943C73.8448 8.12834 74.2178 7.37678 74.6154 6.64157C75.2267 5.51287 76.5283 5.47611 77.1532 6.58302C77.5971 7.37134 77.9851 8.19233 78.3704 9.01197C78.6768 9.66549 78.64 10.3381 78.3309 10.9821C77.9593 11.7581 77.5753 12.5274 77.1764 13.2898C76.9191 13.7814 76.5201 14.0945 75.936 14.1013C75.3315 14.1081 74.8972 13.8249 74.6276 13.2939C74.226 12.507 73.8162 11.7255 73.4486 10.9235C73.311 10.624 73.2838 10.2755 73.1967 9.91329L73.1953 9.91193ZM77.6175 9.90104C77.1287 8.94253 76.6468 7.97857 76.1294 7.03504C76.0981 6.97786 75.6569 7.02007 75.6038 7.11946C75.16 7.95679 74.742 8.8091 74.3649 9.67775C74.2777 9.87925 74.3104 10.191 74.4043 10.4007C74.7556 11.1836 75.1382 11.9542 75.5426 12.7126C75.7822 13.1605 76.0654 13.0775 76.2819 12.6744C76.5174 12.236 76.7366 11.7895 76.9531 11.3415C77.1655 10.899 77.3656 10.4497 77.6175 9.90104Z" fill="black"/>
<path d="M57.0166 30.1523C57.0806 29.8813 57.1078 29.5314 57.2453 29.2319C57.6238 28.4082 58.0173 27.5899 58.4612 26.8002C59.0602 25.7341 60.385 25.7587 60.9691 26.837C61.3898 27.613 61.8541 28.385 62.125 29.2169C62.3088 29.7792 62.3497 30.4926 62.1686 31.0454C61.8677 31.9604 61.3748 32.8236 60.8901 33.6663C60.37 34.5704 59.0943 34.6194 58.5742 33.7439C58.0432 32.8508 57.6143 31.895 57.1677 30.9542C57.0656 30.7391 57.0738 30.4709 57.018 30.1536L57.0166 30.1523ZM61.3054 30.4273C61.2904 30.1632 61.3067 30.0855 61.2809 30.0297C60.8479 29.1134 60.4204 28.1944 59.952 27.2972C59.9194 27.2345 59.4537 27.2645 59.3979 27.3652C58.9636 28.1563 58.5551 28.965 58.1998 29.7942C58.0963 30.0365 58.1031 30.4014 58.2093 30.6451C58.5497 31.4307 58.9513 32.1918 59.3475 32.9529C59.5871 33.4131 59.8526 33.3464 60.0759 32.9338C60.3006 32.5159 60.5103 32.0897 60.7186 31.6635C60.9432 31.202 61.1597 30.7364 61.3054 30.4273Z" fill="black"/>
<path d="M70.4873 23.7518C70.3784 23.8703 70.2491 24.1235 70.0598 24.1834C69.906 24.2311 69.6718 24.0595 69.488 23.9574C69.424 23.922 69.3995 23.8035 69.3682 23.7191C69.2143 23.3039 69.1435 22.5932 68.8984 22.5264C68.2422 22.3494 67.5124 22.4366 66.8112 22.4543C66.705 22.457 66.5621 22.634 66.5076 22.7606C66.4028 23.0084 66.351 23.2794 66.2707 23.5394C66.1536 23.9165 66.0338 24.3468 65.5083 24.1766C65.0385 24.0241 65.1338 23.6293 65.2414 23.263C65.7275 21.6129 66.2108 19.9613 66.6941 18.3112C66.8793 17.6808 67.0318 17.0382 67.2673 16.4282C67.3477 16.2199 67.6173 15.9925 67.8283 15.9598C67.9712 15.9381 68.264 16.2104 68.3212 16.4023C69.04 18.7632 69.7276 21.1336 70.4233 23.5013C70.4356 23.5449 70.4451 23.5898 70.4846 23.7532L70.4873 23.7518ZM68.6724 21.3161C68.3906 20.363 68.1401 19.5188 67.8896 18.6733C67.8296 18.6706 67.7697 18.6679 67.7085 18.6652C67.458 19.5229 67.2074 20.3821 66.9351 21.3161H68.6724Z" fill="black"/>
<path d="M49.0094 15.9094C50.5915 15.9094 52.1518 15.893 53.7094 15.9325C53.8918 15.9366 54.0647 16.2511 54.2431 16.4213C54.0511 16.601 53.8687 16.925 53.6672 16.9373C52.74 16.9945 51.8087 16.9659 50.8774 16.9673C50.6106 16.9673 50.3437 16.9673 50.0415 16.9673V18.6242C50.7086 18.6242 51.358 18.6242 52.0075 18.6242C52.2117 18.6242 52.4541 18.5616 52.6106 18.6501C52.8298 18.7726 52.9864 19.0082 53.1702 19.1947C52.9674 19.3662 52.774 19.6699 52.5589 19.6862C51.7474 19.7447 50.9292 19.7093 50.0061 19.7093C50.0061 20.7155 50.0061 21.659 50.0061 22.6026C50.0061 22.9661 50.0619 23.3432 49.9788 23.6863C49.9284 23.8946 49.663 24.1901 49.4914 24.1915C49.3117 24.1928 49.1183 23.9001 48.9536 23.7149C48.9073 23.6632 48.9373 23.5393 48.9373 23.4494C48.9373 21.1117 48.9373 18.7753 48.94 16.4376C48.94 16.2838 48.9781 16.1313 49.0067 15.9107L49.0094 15.9094Z" fill="black"/>
<path d="M85.4412 6.87446C84.5331 6.79822 84.5194 6.80639 84.5181 7.70771C84.5154 9.45454 84.5167 11.2014 84.5154 12.9482C84.5154 13.1075 84.5685 13.2954 84.5004 13.4179C84.367 13.6603 84.1668 13.8672 83.9939 14.0878C83.8251 13.8686 83.5146 13.6507 83.5106 13.4274C83.4724 11.4315 83.4752 9.43411 83.4983 7.43813C83.5038 6.94935 83.3254 6.74104 82.8706 6.84996C82.6882 6.89353 82.5412 7.09775 82.3832 7.23527C82.1981 7.39593 82.0183 7.56475 81.8359 7.7295C81.6684 7.52118 81.3852 7.32921 81.3526 7.10048C81.166 5.80567 81.2219 5.76347 82.503 5.76211C83.6603 5.76211 84.8176 5.78389 85.9735 5.75121C86.5018 5.73624 86.751 5.89145 86.6679 6.4415C86.6543 6.53 86.6679 6.62258 86.6652 6.71381C86.6516 7.11273 86.7523 7.65734 86.2036 7.68048C85.9395 7.69137 85.6563 7.27067 85.3826 7.04602C85.4017 6.98747 85.4208 6.93029 85.4385 6.87174L85.4412 6.87446Z" fill="black"/>
<path d="M81.984 34.343C81.4121 34.313 81.2202 33.9155 81.4612 33.4825C81.9921 32.5349 82.5476 31.6009 83.0977 30.6642C83.8996 29.2986 84.7084 27.937 85.5076 26.5701C85.7132 26.2188 85.9296 25.8498 86.3939 26.1371C86.8214 26.4013 86.609 26.7634 86.4212 27.0847C85.0964 29.3503 83.7744 31.6159 82.4374 33.8746C82.3121 34.0857 82.0888 34.2368 81.984 34.343Z" fill="black"/>
<path d="M20.2007 28.6327C17.0706 28.6327 13.9405 28.6327 10.8103 28.6327C9.47877 28.6327 8.59243 27.8267 8.57064 26.6081C8.55022 25.3882 9.48013 24.5223 10.8253 24.5223C17.0856 24.5209 23.3458 24.5209 29.6074 24.5223C30.939 24.5223 31.8716 25.4018 31.8526 26.6244C31.8349 27.8239 30.9254 28.6327 29.5911 28.634C26.461 28.634 23.3308 28.634 20.2007 28.634V28.6327Z" fill="black"/>
<path d="M8.31641 16.8638C8.33683 13.8412 11.0381 11.2611 14.077 11.3592C17.2439 11.4626 19.7763 14.0645 19.6755 17.1102C19.6374 18.2607 18.7728 19.1239 17.6346 19.1511C16.5345 19.177 15.6414 18.3342 15.5311 17.1674C15.414 15.9325 14.4841 15.2572 13.4398 15.6643C12.8026 15.9121 12.5085 16.4131 12.4445 17.0789C12.3152 18.4132 11.4411 19.2219 10.2375 19.1375C9.05026 19.0544 8.3096 18.1763 8.31777 16.8651L8.31641 16.8638Z" fill="black"/>
<path d="M31.4764 13.8166C31.4355 14.5464 31.166 15.1509 30.5587 15.5621C28.9658 16.6432 27.3782 17.7324 25.7662 18.7835C24.756 19.4424 23.5238 19.1824 22.8852 18.2402C22.2249 17.2681 22.4577 16.025 23.4802 15.317C25.0446 14.2346 26.624 13.1726 28.2128 12.1256C28.9113 11.6654 29.6765 11.6573 30.4103 12.0467C31.1088 12.417 31.4287 13.0474 31.4778 13.8166H31.4764Z" fill="black"/>
</svg>
