<svg width="164" height="40" viewBox="0 0 164 40" fill="none" xmlns="http://www.w3.org/2000/svg">
<g clip-path="url(#clip0_1605_4690)">
<path d="M54.3603 31.0235C53.3481 31.0141 52.3377 30.9355 51.3363 30.7882C50.2509 30.6405 49.1745 30.4324 48.1123 30.1647V28.5294C49.1631 28.7951 50.2275 29.0032 51.301 29.1529C52.2749 29.2996 53.2578 29.3782 54.2426 29.3882C55.6048 29.4744 56.9596 29.1286 58.1137 28.3999C58.5528 28.079 58.9052 27.6541 59.1393 27.1633C59.3734 26.6725 59.482 26.1313 59.4551 25.5882C59.4825 25.0159 59.3627 24.4462 59.1073 23.9334C58.8519 23.4206 58.4693 22.9818 57.9961 22.6588C57.5263 22.3191 57.0165 22.0385 56.4782 21.8235C55.8664 21.596 55.2114 21.3803 54.5132 21.1764C53.5741 20.9072 52.6574 20.565 51.7717 20.1529C51.0896 19.8437 50.4618 19.4266 49.9126 18.9176C49.4448 18.479 49.0827 17.94 48.8536 17.3411C48.6194 16.6844 48.5039 15.9912 48.5124 15.2941C48.5016 14.5107 48.6665 13.7348 48.9948 13.0235C49.3165 12.3401 49.7868 11.7371 50.3715 11.2588C51 10.7282 51.728 10.3283 52.5129 10.0823C53.4202 9.82974 54.3602 9.71473 55.3016 9.74112C57.0504 9.77597 58.7903 10.0008 60.4906 10.4117V12.0823C59.6264 11.8602 58.7504 11.6873 57.8666 11.5647C57.087 11.4541 56.3008 11.3951 55.5134 11.3882C54.2203 11.3207 52.9426 11.694 51.8893 12.447C51.4363 12.7688 51.0687 13.1964 50.8185 13.6926C50.5683 14.1887 50.4431 14.7385 50.4538 15.2941C50.445 15.78 50.5288 16.2631 50.7009 16.7176C50.8786 17.1693 51.1609 17.5725 51.5246 17.8941C51.9714 18.2796 52.4755 18.5931 53.0189 18.8235C53.7825 19.1477 54.5691 19.4151 55.3722 19.6235C56.2429 19.8823 57.0508 20.1607 57.796 20.4588C58.4961 20.7257 59.1509 21.0987 59.7375 21.5647C60.282 22.0052 60.7237 22.5593 61.0318 23.1882C61.3651 23.9267 61.5261 24.7313 61.5025 25.5411C61.5462 26.3206 61.4023 27.0991 61.0829 27.8115C60.7635 28.5238 60.2779 29.1493 59.6669 29.6352C58.1024 30.6769 56.2345 31.1656 54.3603 31.0235Z" fill="#01A71C"/>
<path d="M71.3278 30.9647C70.4004 31.0303 69.4699 30.8938 68.6004 30.5647C67.731 30.2357 66.9433 29.7219 66.2918 29.0588C65.0588 27.4895 64.4473 25.521 64.5739 23.5294C64.4452 21.4339 65.0391 19.3576 66.2565 17.647C66.8514 16.9475 67.6018 16.397 68.4477 16.0395C69.2936 15.682 70.2114 15.5274 71.1278 15.5882C71.8918 15.5365 72.6575 15.6614 73.3655 15.9531C74.0736 16.2448 74.7049 16.6956 75.2107 17.2706C76.2099 18.682 76.6995 20.3913 76.5991 22.1176C76.5991 22.5412 76.5991 22.9019 76.5991 23.2C76.5892 23.4539 76.5537 23.7061 76.4932 23.9529H66.4094C66.3695 25.4447 66.8569 26.9027 67.7861 28.0706C68.2835 28.5437 68.8744 28.9074 69.5209 29.1384C70.1673 29.3694 70.855 29.4625 71.5396 29.4117C72.2579 29.4073 72.9744 29.3404 73.6811 29.2117C74.454 29.0726 75.2137 28.8679 75.952 28.6L76.0932 30.0941C75.3316 30.3856 74.5435 30.6023 73.7399 30.7412C72.9442 30.8878 72.1369 30.9626 71.3278 30.9647ZM71.0689 16.9765C68.1823 16.9765 66.6369 18.8353 66.433 22.5529H74.846C74.9625 21.0704 74.6435 19.5861 73.9282 18.2823C73.6011 17.8405 73.1672 17.4889 72.6671 17.2605C72.167 17.0321 71.6171 16.9343 71.0689 16.9765Z" fill="#01A71C"/>
<path d="M80.7646 8.23535H82.6237V30.7177H80.7646V8.23535Z" fill="#01A71C"/>
<path d="M93.6139 30.9647C92.6865 31.0303 91.756 30.8938 90.8865 30.5647C90.0171 30.2357 89.2294 29.7219 88.5779 29.0588C87.3491 27.4878 86.7418 25.5195 86.8717 23.5294C86.7431 21.4339 87.337 19.3576 88.5543 17.647C89.1493 16.9475 89.8997 16.397 90.7456 16.0395C91.5914 15.682 92.5093 15.5274 93.4256 15.5882C94.1897 15.5365 94.9554 15.6614 95.6634 15.9531C96.3714 16.2448 97.0028 16.6956 97.5086 17.2706C98.487 18.6895 98.9557 20.3981 98.8382 22.1176C98.8382 22.5412 98.8382 22.9019 98.8382 23.2C98.8282 23.4539 98.7927 23.7061 98.7323 23.9529H88.6955C88.6566 25.4445 89.1439 26.9023 90.0722 28.0706C90.571 28.5452 91.1638 28.9098 91.8124 29.1408C92.461 29.3719 93.1509 29.4642 93.8374 29.4117C94.5557 29.4073 95.2723 29.3404 95.9789 29.2117C96.7518 29.0724 97.5115 28.8678 98.2498 28.6L98.391 30.0941C97.6295 30.3856 96.8413 30.6023 96.0378 30.7412C95.2382 30.8885 94.4269 30.9633 93.6139 30.9647ZM93.3668 16.9765C90.4801 16.9765 88.9348 18.8353 88.7308 22.5529H97.1438C97.2603 21.0704 96.9414 19.5861 96.226 18.2823C95.899 17.8405 95.4651 17.4889 94.965 17.2605C94.4649 17.0321 93.915 16.9343 93.3668 16.9765Z" fill="#01A71C"/>
<path d="M102.968 15.7294H104.521L104.662 17.4824H104.803C105.541 17.1294 106.215 16.8236 106.827 16.5647C107.439 16.3059 108 16.0941 108.51 15.9294C108.971 15.7734 109.443 15.6515 109.922 15.5647C110.349 15.493 110.782 15.4576 111.216 15.4589C111.746 15.4189 112.278 15.4881 112.78 15.6622C113.282 15.8362 113.743 16.1114 114.134 16.4706C114.854 17.3334 115.205 18.4451 115.111 19.5647V30.753H113.24V20.1647C113.311 19.3284 113.081 18.4942 112.593 17.8118C112.33 17.5599 112.017 17.3666 111.674 17.2449C111.332 17.1232 110.967 17.0758 110.604 17.1059C109.706 17.1269 108.816 17.2897 107.968 17.5883C106.891 17.9514 105.841 18.3918 104.827 18.9059V30.6706H102.968V15.7294Z" fill="#01A71C"/>
<path d="M120.9 12.3764C120.737 12.4001 120.57 12.3865 120.413 12.3368C120.256 12.2872 120.112 12.2026 119.992 12.0895C119.872 11.9763 119.779 11.8376 119.72 11.6835C119.662 11.5295 119.638 11.3642 119.652 11.1999C119.652 10.8692 119.784 10.552 120.018 10.3181C120.252 10.0843 120.569 9.95288 120.9 9.95288C121.23 9.95288 121.548 10.0843 121.782 10.3181C122.016 10.552 122.147 10.8692 122.147 11.1999C122.161 11.3642 122.138 11.5295 122.079 11.6835C122.02 11.8376 121.928 11.9763 121.808 12.0895C121.688 12.2026 121.544 12.2872 121.386 12.3368C121.229 12.3865 121.063 12.4001 120.9 12.3764ZM119.958 15.7294H121.817V30.7176H119.958V15.7294Z" fill="#01A71C"/>
<path d="M130.383 30.9882C127.92 30.9882 126.688 29.6274 126.688 26.9058V15.7294H128.548V26.3176C128.468 27.1429 128.667 27.9712 129.112 28.6705C129.349 28.9239 129.641 29.1193 129.965 29.2417C130.29 29.3641 130.638 29.4102 130.983 29.3764C131.983 29.3712 132.972 29.1797 133.901 28.8117C134.882 28.4353 135.898 27.9882 136.949 27.4705V15.7294H138.843V30.7176H137.29L137.149 28.8588H137.043L135.007 29.8117C134.427 30.0784 133.886 30.3019 133.384 30.4823C132.912 30.6505 132.428 30.7803 131.936 30.8705C131.423 30.9565 130.903 30.9958 130.383 30.9882Z" fill="#01A71C"/>
<path d="M143.762 15.7294H145.291L145.456 17.4824H145.562C146.534 16.8943 147.549 16.3791 148.598 15.9412C149.345 15.6352 150.143 15.4716 150.951 15.4588C151.687 15.3627 152.435 15.5154 153.074 15.8927C153.714 16.27 154.209 16.8502 154.481 17.5412H154.622C155.25 17.149 155.818 16.8235 156.328 16.5647C156.788 16.3285 157.259 16.1165 157.74 15.9294C158.121 15.7747 158.515 15.6527 158.917 15.5647C159.305 15.4914 159.699 15.4559 160.093 15.4588C160.616 15.4207 161.14 15.4885 161.636 15.6584C162.131 15.8282 162.587 16.0965 162.976 16.4471C163.696 17.3098 164.047 18.4215 163.953 19.5412V30.7294H162.117V20.1412C162.199 19.3039 161.969 18.466 161.47 17.7882C161.205 17.5403 160.892 17.3504 160.549 17.2309C160.207 17.1113 159.843 17.0648 159.482 17.0941C158.762 17.1174 158.053 17.2688 157.387 17.5412C156.506 17.8968 155.656 18.3258 154.846 18.8235V30.7059H152.963V20.1177C153.045 19.2804 152.814 18.4424 152.316 17.7647C152.051 17.5167 151.738 17.3269 151.395 17.2073C151.053 17.0878 150.689 17.0412 150.327 17.0706C149.575 17.0926 148.834 17.2521 148.139 17.5412C147.264 17.8957 146.422 18.3248 145.621 18.8235V30.7177H143.762V15.7294Z" fill="#01A71C"/>
<path d="M25.2388 25.3058C24.5035 25.2835 23.7868 25.5385 23.2309 26.0202C22.675 26.5019 22.3207 27.175 22.2384 27.9058C22.2347 27.92 22.2344 27.9348 22.2374 27.9491C22.2405 27.9634 22.2468 27.9768 22.256 27.9882C22.2651 27.9996 22.2768 28.0088 22.2901 28.0149C22.3033 28.021 22.3179 28.024 22.3325 28.0235H28.1568C28.1703 28.0236 28.1836 28.0208 28.1958 28.0154C28.2081 28.0099 28.219 28.0019 28.2279 27.9919C28.2369 27.9819 28.2435 27.9701 28.2475 27.9572C28.2515 27.9444 28.2527 27.9309 28.251 27.9176C28.1937 27.1735 27.8454 26.482 27.2815 25.9931C26.7176 25.5041 25.9836 25.2572 25.2388 25.3058Z" fill="#01A71C"/>
<path d="M37.7231 5.77647L25.3683 19.6471C25.3331 19.6852 25.2903 19.7156 25.2427 19.7364C25.1952 19.7573 25.1438 19.768 25.0918 19.768C25.0399 19.768 24.9885 19.7573 24.9409 19.7364C24.8933 19.7156 24.8506 19.6852 24.8153 19.6471L18.5085 13.1412C18.4551 13.0744 18.4259 12.9914 18.4259 12.9059C18.4259 12.8203 18.4551 12.7374 18.5085 12.6706L20.5912 10C20.626 9.95142 20.672 9.91184 20.7252 9.88454C20.7784 9.85724 20.8373 9.843 20.8971 9.843C20.9569 9.843 21.0159 9.85724 21.069 9.88454C21.1222 9.91184 21.1682 9.95142 21.203 10L24.733 13.9059C24.7683 13.9479 24.8124 13.9818 24.8622 14.005C24.912 14.0282 24.9663 14.0402 25.0212 14.0402C25.0762 14.0402 25.1304 14.0282 25.1803 14.005C25.23 13.9818 25.2742 13.9479 25.3095 13.9059L35.1462 0.423529C35.1736 0.383686 35.1898 0.337241 35.1931 0.289023C35.1964 0.240804 35.1868 0.192573 35.1652 0.149342C35.1436 0.106111 35.1108 0.0694588 35.0702 0.0431957C35.0296 0.0169326 34.9827 0.00201723 34.9344 0L0.29416 0C0.216144 0 0.141323 0.0309873 0.0861574 0.0861451C0.0309918 0.141303 0 0.216113 0 0.294118L0 39.7059C0 39.7839 0.0309918 39.8587 0.0861574 39.9139C0.141323 39.969 0.216144 40 0.29416 40H37.9466C38.0246 40 38.0995 39.969 38.1546 39.9139C38.2098 39.8587 38.2408 39.7839 38.2408 39.7059V5.95294C38.2642 5.8843 38.2594 5.80917 38.2274 5.74408C38.1954 5.679 38.1388 5.62928 38.0702 5.60588C38.0015 5.58248 37.9264 5.58731 37.8613 5.6193C37.7962 5.65129 37.7465 5.70783 37.7231 5.77647ZM10.6604 35.6118C8.18856 35.7363 5.76563 34.8922 3.90644 33.2588C3.84771 33.1922 3.8153 33.1065 3.8153 33.0177C3.8153 32.9288 3.84771 32.8431 3.90644 32.7765L5.37724 30.7176C5.40153 30.6755 5.43401 30.6386 5.47277 30.6092C5.51153 30.5797 5.55579 30.5584 5.60294 30.5463C5.65009 30.5343 5.69917 30.5318 5.74731 30.5389C5.79544 30.5462 5.84164 30.5629 5.8832 30.5882C7.2268 31.8337 8.9929 32.5232 10.8251 32.5176C12.7548 32.5176 13.6961 31.6235 13.6961 30.6824C13.6961 27.7647 4.18884 29.7647 4.18884 23.5529C4.18884 20.8118 6.54211 18.5294 10.4486 18.5294C12.6904 18.4497 14.8851 19.1854 16.6259 20.6C16.6913 20.668 16.7279 20.7586 16.7279 20.8529C16.7279 20.9473 16.6913 21.0379 16.6259 21.1059L15.1786 23.1176C15.1488 23.1577 15.111 23.1911 15.0676 23.2159C15.0243 23.2407 14.9763 23.2564 14.9267 23.2619C14.877 23.2674 14.8268 23.2627 14.779 23.248C14.7313 23.2333 14.6871 23.209 14.6492 23.1765C13.3656 22.1564 11.7704 21.6082 10.1309 21.6235C8.62477 21.6235 7.77759 22.2941 7.77759 23.2824C7.77759 25.9059 17.2613 24.1529 17.2613 30.3412C17.2613 33.3294 15.108 35.6118 10.6486 35.6118H10.6604ZM31.3927 29.8824C31.3944 29.9261 31.387 29.9696 31.371 30.0103C31.3551 30.0511 31.3308 30.088 31.2999 30.119C31.269 30.1499 31.232 30.1741 31.1913 30.1901C31.1506 30.206 31.107 30.2134 31.0633 30.2118H22.3561C22.3422 30.2132 22.3287 30.2174 22.3164 30.2242C22.3041 30.2309 22.2933 30.24 22.2845 30.2509C22.2757 30.2619 22.2692 30.2744 22.2654 30.2879C22.2615 30.3014 22.2604 30.3155 22.262 30.3294C22.4032 31.1429 22.8438 31.8742 23.497 32.3793C24.1503 32.8844 24.9689 33.1268 25.7919 33.0588C26.8719 33.036 27.9206 32.6919 28.8041 32.0706C28.8386 32.0417 28.8788 32.0204 28.9221 32.0082C28.9655 31.9961 29.0109 31.9932 29.0554 31.9999C29.0999 32.0065 29.1424 32.0226 29.1803 32.047C29.2181 32.0713 29.2503 32.1034 29.2748 32.1412L30.3338 33.6824C30.3779 33.7508 30.3951 33.8332 30.3821 33.9136C30.369 33.9939 30.3267 34.0667 30.2632 34.1176C28.8651 35.1377 27.1691 35.6671 25.4389 35.6235C24.5746 35.6717 23.7098 35.5388 22.8999 35.2333C22.09 34.9278 21.3529 34.4564 20.7358 33.8494C20.1187 33.2424 19.6354 32.5132 19.3166 31.7085C18.9979 30.9037 18.8509 30.0413 18.8851 29.1765C18.8611 28.3324 19.0085 27.4922 19.3184 26.7067C19.6283 25.9211 20.0943 25.2066 20.6882 24.6062C21.2821 24.0058 21.9915 23.532 22.7737 23.2135C23.5559 22.895 24.3945 22.7383 25.2389 22.7529C28.8983 22.7529 31.381 25.4941 31.381 29.5059L31.3927 29.8824Z" fill="#01A71C"/>
</g>
<defs>
<clipPath id="clip0_1605_4690">
<rect width="164" height="40" fill="white"/>
</clipPath>
</defs>
</svg>
