<svg width="78" height="68" viewBox="0 0 78 68" fill="none" xmlns="http://www.w3.org/2000/svg">
<path d="M77.2912 24.1166C77.1562 23.7037 76.8163 23.3905 76.3938 23.2894C75.971 23.1883 75.5265 23.3141 75.2191 23.6213L70.0698 28.7708L67.4537 28.0699L66.7527 25.454L71.9024 20.3044C72.2096 19.9972 72.3352 19.5526 72.2341 19.1299C72.133 18.7072 71.8201 18.3676 71.4071 18.2324C68.0873 17.1466 64.4916 18.0051 62.0241 20.4732C59.5952 22.9019 58.7348 26.4347 59.7248 29.6733L45.0087 44.3893L43.7066 43.0872C42.6987 42.0791 41.1074 42.004 40.0095 42.8579L23.7934 26.6419L22.4407 22.9863C22.3448 22.7271 22.1655 22.5071 21.9313 22.3605L15.3473 18.2412C14.8537 17.9322 14.2121 18.0054 13.8004 18.4169L10.2099 22.0074C9.7982 22.4191 9.72523 23.0607 10.0341 23.5543L14.1537 30.1382C14.3002 30.3726 14.5204 30.5516 14.7796 30.6476L18.4352 32.0004L34.6502 48.2154C34.3479 48.6032 34.1576 49.0565 34.0896 49.5313C32.9087 49.9854 31.811 50.6865 30.8771 51.6204C28.4095 54.0882 27.5507 57.6835 28.6362 61.0032C28.7712 61.4162 29.111 61.7293 29.5335 61.8304C29.956 61.9315 30.4007 61.8058 30.708 61.4985L35.8579 56.349L38.4738 57.0499L39.1748 59.6658L34.0251 64.8155C33.7179 65.1227 33.5921 65.5674 33.6934 65.9901C33.7943 66.4126 34.1074 66.7524 34.5205 66.8874C35.4707 67.1982 36.4435 67.3496 37.4062 67.3496C39.806 67.3496 42.1421 66.4079 43.9037 64.6465C44.5434 64.0068 45.0732 63.2897 45.4901 62.5224L49.6705 66.7027C49.9146 66.9468 50.2345 67.0688 50.5543 67.0688C50.8741 67.0688 51.1941 66.9468 51.4382 66.7027L58.4963 59.6446C58.7307 59.4102 58.8624 59.0922 58.8624 58.7607C58.8624 58.4291 58.7307 58.1112 58.4963 57.8768L51.1341 50.5147L65.8501 35.7988C69.088 36.7883 72.6215 35.9282 75.0502 33.4994C77.5184 31.0316 78.377 27.4363 77.2912 24.1166ZM41.9387 44.8551L43.2409 46.1572L40.0773 49.3208C39.2134 49.0568 38.3285 48.9257 37.4493 48.9196L41.5137 44.8551C41.6284 44.7399 41.8232 44.7396 41.9387 44.8551ZM19.5593 29.7504L16.047 28.4505L12.6812 23.0713L14.8648 20.8879L20.2441 24.2535L21.5438 27.766C21.6063 27.9351 21.7048 28.0885 21.8323 28.216L38.2246 44.6085L36.402 46.4312L20.0095 30.0388C19.882 29.9113 19.7284 29.813 19.5593 29.7504ZM55.8446 58.7608L50.5543 64.0512L46.4287 59.9255C46.7196 58.4594 46.6541 56.9224 46.2027 55.4462L49.3663 52.2826L55.8446 58.7608ZM73.2824 31.7318C71.3662 33.6483 68.506 34.2246 65.9963 33.1999C65.5307 33.0096 64.996 33.1174 64.6399 33.4733L43.8771 54.2363C43.5213 54.5921 43.4135 55.1268 43.6038 55.5927C44.6285 58.1024 44.0523 60.9622 42.1357 62.8788C40.8832 64.131 39.233 64.8146 37.529 64.8471L41.4527 60.9233C41.7685 60.6076 41.8918 60.1474 41.7762 59.716L40.7016 55.7057C40.586 55.2743 40.2491 54.9374 39.8177 54.8218L35.8076 53.7474C35.7005 53.7188 35.592 53.7049 35.4841 53.7049C35.157 53.7049 34.8377 53.8335 34.6004 54.071L30.6765 57.9946C30.7091 56.2907 31.3927 54.6401 32.6449 53.388C34.5615 51.4715 37.4216 50.8951 39.9309 51.9199C40.397 52.1102 40.9313 52.0024 41.2874 51.6465L62.0505 30.8835C62.4063 30.5277 62.5141 29.993 62.3238 29.5271C61.2991 27.0174 61.8754 24.1576 63.792 22.241C65.044 20.9888 66.6945 20.3052 68.3984 20.2727L64.4746 24.1963C64.1588 24.5121 64.0355 24.9722 64.1512 25.4037L65.2257 29.414C65.3413 29.8454 65.6782 30.1822 66.1096 30.2979L70.1199 31.3724C70.5515 31.4877 71.0115 31.3647 71.3274 31.0488L75.251 27.1251C75.2184 28.829 74.5348 30.4796 73.2824 31.7318ZM25.5602 21.3893L27.6363 22.1883C27.9521 23.2941 28.393 24.3579 28.9529 25.3641L28.0493 27.3983C27.8395 27.871 27.9421 28.424 28.3077 28.7896L31.3968 31.8783C31.7624 32.244 32.3151 32.3468 32.7879 32.1369L34.823 31.233C35.8291 31.7929 36.8926 32.2338 37.9977 32.5493L38.7971 34.626C38.9827 35.1085 39.4465 35.4269 39.9637 35.4269H44.3318C44.849 35.4269 45.3126 35.1085 45.4984 34.626L46.2973 32.5501C47.4032 32.2343 48.4669 31.7933 49.4732 31.2335L51.5076 32.1369C51.9804 32.3471 52.533 32.2441 52.8988 31.8785L55.9877 28.7896C56.3534 28.424 56.456 27.871 56.2462 27.3983L55.3423 25.3632C55.9021 24.3568 56.343 23.2933 56.6585 22.1885L58.7352 21.3891C59.2177 21.2035 59.5362 20.7397 59.5362 20.2226V15.8543C59.5362 15.3371 59.2177 14.8735 58.7352 14.6877L56.6591 13.8887C56.3435 12.7827 55.9026 11.719 55.3426 10.7127L56.2462 8.6785C56.456 8.20584 56.3534 7.65287 55.9877 7.28725L52.8988 4.19834C52.533 3.83271 51.9804 3.7299 51.5076 3.9399L49.4724 4.84381C48.4663 4.28396 47.4029 3.84303 46.2977 3.52756L45.4984 1.45084C45.3127 0.96834 44.849 0.649902 44.3318 0.649902H39.9638C39.4466 0.649902 38.983 0.96834 38.7973 1.45084L37.9979 3.52756C36.8927 3.84318 35.8293 4.28396 34.8232 4.84381L32.788 3.9399C32.3159 3.73006 31.7626 3.83271 31.3968 4.19834L28.3079 7.28725C27.9423 7.65287 27.8396 8.20584 28.0495 8.6785L28.9534 10.7133C28.3934 11.7194 27.9526 12.783 27.6368 13.8885L25.5604 14.6877C25.0779 14.8733 24.7595 15.3371 24.7595 15.8543V20.2226C24.7593 20.7399 25.0779 21.2037 25.5602 21.3893ZM27.2593 16.7127L29.1324 15.9918C29.517 15.8438 29.804 15.5157 29.8993 15.1147C30.2079 13.8187 30.7195 12.5847 31.4198 11.4474C31.636 11.0963 31.6651 10.6613 31.4979 10.2844L30.6823 8.44834L32.5573 6.57334L34.3937 7.38897C34.7701 7.55615 35.2054 7.52709 35.5563 7.311C36.6938 6.61053 37.9277 6.09912 39.2235 5.79068C39.6243 5.69521 39.9526 5.40834 40.1005 5.02365L40.8216 3.15021H43.4734L44.1945 5.02365C44.3424 5.40818 44.6707 5.69521 45.0715 5.79068C46.3673 6.09912 47.601 6.61053 48.7387 7.311C49.0899 7.52709 49.5249 7.55615 49.9013 7.38897L51.7377 6.57334L53.6127 8.44834L52.7974 10.2838C52.6302 10.6607 52.6593 11.0957 52.8755 11.4468C53.576 12.5841 54.0876 13.8182 54.3959 15.1147C54.4913 15.5157 54.7782 15.844 55.1629 15.9919L57.0357 16.7129V19.3644L55.1623 20.0855C54.7776 20.2335 54.4907 20.5618 54.3954 20.9627C54.0871 22.258 53.5755 23.4918 52.8751 24.6297C52.659 24.9807 52.6299 25.4157 52.7971 25.7924L53.6127 27.6287L51.7377 29.5037L49.9021 28.6885C49.5257 28.5213 49.0905 28.5502 48.7393 28.7666C47.6021 29.4671 46.3679 29.9787 45.0712 30.2872C44.6704 30.3827 44.3421 30.6696 44.1941 31.0543L43.4734 32.9269H40.8216L40.1005 31.0535C39.9526 30.669 39.6243 30.3819 39.2235 30.2865C37.9277 29.978 36.694 29.4666 35.5563 28.7662C35.2051 28.5499 34.7701 28.5212 34.3937 28.688L32.5573 29.5037L30.6823 27.6287L31.4976 25.7932C31.6648 25.4163 31.6357 24.9813 31.4196 24.6304C30.7193 23.493 30.2076 22.259 29.899 20.9622C29.8037 20.5613 29.5166 20.2332 29.1321 20.0852L27.2593 19.3643V16.7127ZM42.1479 26.9066C47.0377 26.9066 51.0159 22.9285 51.0159 18.0388C51.0159 13.149 47.0377 9.17084 42.1479 9.17084C37.258 9.17084 33.2799 13.149 33.2799 18.0388C33.2799 22.9285 37.258 26.9066 42.1479 26.9066ZM42.1479 11.6707C45.6593 11.6707 48.5159 14.5274 48.5159 18.0387C48.5159 21.5499 45.6593 24.4065 42.1479 24.4065C38.6365 24.4065 35.7799 21.5499 35.7799 18.0387C35.7799 14.5272 38.6365 11.6707 42.1479 11.6707ZM42.1479 21.3513C43.9745 21.3513 45.4605 19.8652 45.4605 18.0387C45.4605 16.2121 43.9745 14.726 42.1479 14.726C40.3213 14.726 38.8352 16.2121 38.8352 18.0387C38.8351 19.8652 40.3212 21.3513 42.1479 21.3513ZM42.1479 17.226C42.596 17.226 42.9605 17.5905 42.9605 18.0387C42.9605 18.4868 42.596 18.8513 42.1479 18.8513C41.6998 18.8513 41.3352 18.4868 41.3352 18.0387C41.3351 17.5905 41.6996 17.226 42.1479 17.226ZM28.7049 53.4455C29.1874 53.2599 29.5059 52.7962 29.5059 52.279V48.6577C29.5059 48.1405 29.1874 47.6769 28.7049 47.4911L27.0827 46.8668C26.829 46.0052 26.4846 45.1746 26.054 44.3851L26.7601 42.7955C26.9699 42.323 26.8673 41.7699 26.5015 41.4043L23.9407 38.8438C23.5751 38.4782 23.0223 38.3754 22.5496 38.5854L20.9595 39.2916C20.1699 38.861 19.3396 38.5168 18.4785 38.263L17.854 36.6404C17.6684 36.1579 17.2046 35.8394 16.6874 35.8394H13.0665C12.5493 35.8394 12.0859 36.1579 11.8999 36.6402L11.2752 38.2629C10.4141 38.5166 9.58398 38.8608 8.79445 39.2915L7.20414 38.5851C6.73148 38.3751 6.17867 38.478 5.81289 38.8437L3.25227 41.4044C2.88664 41.7701 2.78398 42.323 2.99383 42.7957L3.70008 44.3857C3.26945 45.1751 2.92523 46.0057 2.67148 46.8668L1.04898 47.4913C0.566484 47.6769 0.248047 48.1407 0.248047 48.6579V52.2791C0.248047 52.7963 0.566484 53.2599 1.04914 53.4457L2.67117 54.0699C2.92492 54.9315 3.2693 55.7621 3.69992 56.5516L2.99383 58.141C2.78398 58.6137 2.88664 59.1666 3.25227 59.5322L5.81305 62.093C6.17898 62.4588 6.73211 62.5615 7.20445 62.3515L8.79445 61.6451C9.58398 62.0757 10.4145 62.4199 11.2754 62.6737L11.8999 64.2963C12.0855 64.7788 12.5493 65.0972 13.0665 65.0972H16.6877C17.2049 65.0972 17.6685 64.7788 17.8543 64.2963L18.4787 62.6743C19.3399 62.4205 20.1707 62.0762 20.9604 61.6455L22.5496 62.3516C23.0223 62.5616 23.5751 62.4588 23.941 62.0932L26.5018 59.5324C26.8674 59.1668 26.9701 58.6138 26.7602 58.1412L26.0538 56.5508C26.4845 55.7613 26.8287 54.931 27.0824 54.0702L28.7049 53.4455ZM27.0059 51.4207L25.5898 51.9658C25.2051 52.1138 24.9182 52.4421 24.8229 52.843C24.5726 53.8946 24.1573 54.8965 23.5884 55.8204C23.3723 56.1715 23.3432 56.6065 23.5104 56.983L24.127 58.3713L22.7801 59.7183L21.3927 59.1021C21.0159 58.9349 20.581 58.9638 20.2298 59.1801C19.306 59.749 18.304 60.1643 17.2515 60.4147C16.8505 60.5101 16.5223 60.7971 16.3743 61.1818L15.8295 62.5974H13.9248L13.3796 61.1813C13.2316 60.7968 12.9034 60.5097 12.5024 60.4143C11.4507 60.164 10.4488 59.7487 9.52492 59.1799C9.17398 58.9637 8.73898 58.9347 8.36211 59.1019L6.97398 59.7185L5.62711 58.3716L6.24336 56.9841C6.41055 56.6072 6.38148 56.1722 6.16523 55.8212C5.59648 54.8976 5.18117 53.8957 4.93086 52.8429C4.83539 52.4419 4.54852 52.1137 4.16367 51.9655L2.74805 51.4207V49.516L4.16398 48.971C4.54867 48.823 4.83555 48.4947 4.93086 48.0938C5.18133 47.0416 5.59664 46.0397 6.16523 45.1162C6.38148 44.7651 6.41055 44.3301 6.24336 43.9533L5.62695 42.5654L6.97367 41.2185L8.36211 41.8351C8.73852 42.0021 9.17383 41.9732 9.52477 41.7569C10.4485 41.188 11.4502 40.7727 12.5021 40.5226C12.903 40.4271 13.2313 40.1402 13.3793 39.7557L13.9245 38.3394H15.829L16.3741 39.7555C16.5221 40.1401 16.8504 40.4271 17.2513 40.5226C18.303 40.7729 19.3049 41.1882 20.2288 41.7569C20.5798 41.9732 21.0151 42.0022 21.3915 41.8349L22.7798 41.2183L24.1266 42.5652L23.5104 43.9527C23.3432 44.3294 23.3723 44.7644 23.5885 45.1155C24.1573 46.0391 24.5727 47.0412 24.8229 48.0937C24.9184 48.4946 25.2052 48.8229 25.5899 48.9708L27.0057 49.5157V51.4207H27.0059ZM14.8768 42.903C10.7054 42.903 7.31148 46.2968 7.31148 50.4683C7.31148 54.6399 10.7054 58.0337 14.8768 58.0337C19.0484 58.0337 22.4423 54.6399 22.4423 50.4683C22.4423 46.2968 19.0485 42.903 14.8768 42.903ZM14.8768 55.5338C12.0838 55.5338 9.81148 53.2615 9.81148 50.4685C9.81148 47.6755 12.0838 45.4032 14.8768 45.4032C17.6699 45.4032 19.9423 47.6755 19.9423 50.4685C19.9423 53.2615 17.6699 55.5338 14.8768 55.5338ZM14.8768 47.5085C13.2448 47.5085 11.917 48.8363 11.917 50.4683C11.917 52.1005 13.2448 53.4283 14.8768 53.4283C16.509 53.4283 17.8368 52.1005 17.8368 50.4683C17.837 48.8363 16.5091 47.5085 14.8768 47.5085ZM14.8768 50.9283C14.6232 50.9283 14.417 50.7219 14.417 50.4683C14.417 50.2147 14.6232 50.0085 14.8768 50.0085C15.1305 50.0085 15.3368 50.2147 15.3368 50.4683C15.3368 50.7219 15.1305 50.9283 14.8768 50.9283Z" fill="black"/>
</svg>
