<svg width="155" height="111" viewBox="0 0 155 111" fill="none" xmlns="http://www.w3.org/2000/svg">
<path d="M61.7578 82.1328L59.8463 81.5446L59.844 81.5521L59.8417 81.5596L61.7578 82.1328ZM55.7812 93.4414L54.281 92.1188L54.2761 92.1244L54.2712 92.13L55.7812 93.4414ZM46.5234 100.062L47.2592 101.922L47.2697 101.918L46.5234 100.062ZM24.9609 100.824L24.3885 102.741L24.9609 100.824ZM16.8164 96.6641L15.5639 98.2233L15.5779 98.2345L15.5921 98.2455L16.8164 96.6641ZM6.67969 79.3203L4.72961 79.7644L4.7317 79.7735L4.73387 79.7827L6.67969 79.3203ZM7.38281 34.4375L5.47268 33.8447L5.47035 33.8522L5.46807 33.8598L7.38281 34.4375ZM22.6758 16.625L21.947 14.7625L21.9401 14.7652L22.6758 16.625ZM44.2383 15.8633L43.659 17.7776L43.6659 17.7796L44.2383 15.8633ZM58.5352 27.1133L56.8119 28.1284L56.817 28.1371L56.8222 28.1457L58.5352 27.1133ZM62.4609 37.3086L60.5109 37.7527L60.5134 37.764L60.5162 37.7753L62.4609 37.3086ZM45.0586 40.707L43.0787 40.9899L43.0816 41.01L43.0848 41.03L45.0586 40.707ZM43.6523 35.1406L41.7857 35.8586L41.7936 35.8792L41.802 35.8997L43.6523 35.1406ZM38.3203 29.3984L37.5556 31.2465L37.5934 31.2621L37.6318 31.2762L38.3203 29.3984ZM29.9414 29.75L29.0267 27.9714L29.9414 29.75ZM26.4844 33.0898L28.1754 34.1578L28.1816 34.148L28.1877 34.138L26.4844 33.0898ZM24.3164 39.125L22.3552 38.7328L22.3529 38.7446L22.3507 38.7564L24.3164 39.125ZM24.082 75.8633L22.1021 76.1461L22.1046 76.1634L22.1074 76.1806L24.082 75.8633ZM25.4883 81.4883L23.6156 82.1905L23.6263 82.2191L23.6379 82.2474L25.4883 81.4883ZM27.7734 85.2383L26.3016 86.5924L26.3154 86.6074L26.3295 86.6221L27.7734 85.2383ZM39.2578 86.9375L40.1522 88.7264L40.173 88.716L40.1936 88.7051L39.2578 86.9375ZM42.6562 83.5977L40.9602 82.5376L40.9529 82.5495L42.6562 83.5977ZM44.8242 77.4453L42.8631 77.0531L42.8601 77.0676L42.8575 77.0822L44.8242 77.4453ZM61.8672 50.7266V65.9023H65.8672V50.7266H61.8672ZM61.8672 65.9023C61.8672 72.0105 61.1791 77.213 59.8463 81.5446L63.6694 82.721C65.1491 77.912 65.8672 72.2942 65.8672 65.9023H61.8672ZM59.8417 81.5596C58.5406 85.9089 56.6719 89.4068 54.281 92.1188L57.2815 94.764C60.125 91.5386 62.2406 87.4973 63.6739 82.706L59.8417 81.5596ZM54.2712 92.13C51.8977 94.8632 49.0722 96.8818 45.7772 98.2069L47.2697 101.918C51.1622 100.353 54.5086 97.9571 57.2913 94.7528L54.2712 92.13ZM45.7877 98.2027C42.4966 99.5047 38.8051 100.172 34.6875 100.172V104.172C39.2418 104.172 43.4409 103.433 47.2592 101.922L45.7877 98.2027ZM34.6875 100.172C31.3842 100.172 28.3367 99.7452 25.5333 98.9079L24.3885 102.741C27.6008 103.7 31.0377 104.172 34.6875 104.172V100.172ZM25.5333 98.9079C22.7556 98.0782 20.2629 96.803 18.0408 95.0826L15.5921 98.2455C18.2136 100.275 21.1506 101.773 24.3885 102.741L25.5333 98.9079ZM18.0689 95.1048C15.885 93.3506 13.9852 91.1515 12.377 88.4832L8.95115 90.5481C10.7804 93.5829 12.9822 96.1494 15.5639 98.2233L18.0689 95.1048ZM12.377 88.4832C10.7851 85.8421 9.52529 82.6445 8.62551 78.8579L4.73387 79.7827C5.70909 83.8867 7.10552 87.486 8.95115 90.5481L12.377 88.4832ZM8.62976 78.8762C7.77119 75.106 7.33203 70.7864 7.33203 65.9023H3.33203C3.33203 71.0183 3.79131 75.644 4.72961 79.7644L8.62976 78.8762ZM7.33203 65.9023V50.7266H3.33203V65.9023H7.33203ZM7.33203 50.7266C7.33203 44.5327 8.00227 39.3082 9.29755 35.0152L5.46807 33.8598C4.02898 38.6293 3.33203 44.2642 3.33203 50.7266H7.33203ZM9.29294 35.0303C10.6319 30.7158 12.5209 27.2294 14.9182 24.5101L11.9177 21.8649C9.08065 25.0831 6.94621 29.0967 5.47268 33.8447L9.29294 35.0303ZM14.9182 24.5101C17.3342 21.7696 20.161 19.7707 23.4115 18.4848L21.9401 14.7652C18.0812 16.2918 14.7361 18.6679 11.9177 21.8649L14.9182 24.5101ZM23.4046 18.4875C26.7392 17.1827 30.4531 16.5156 34.5703 16.5156V12.5156C30.0157 12.5156 25.7999 13.2548 21.947 14.7625L23.4046 18.4875ZM34.5703 16.5156C37.874 16.5156 40.8992 16.9424 43.659 17.7775L44.8176 13.949C41.6399 12.9873 38.2198 12.5156 34.5703 12.5156V16.5156ZM43.6659 17.7796C46.4436 18.6093 48.9363 19.8845 51.1585 21.6049L53.6072 18.442C50.9856 16.4124 48.0486 14.9141 44.8107 13.9469L43.6659 17.7796ZM51.1585 21.6049C53.3639 23.3123 55.2506 25.4778 56.8119 28.1284L60.2584 26.0982C58.4603 23.0456 56.2454 20.4845 53.6072 18.442L51.1585 21.6049ZM56.8222 28.1457C58.4104 30.7807 59.6499 33.9717 60.5109 37.7527L64.411 36.8645C63.4751 32.7548 62.0974 29.149 60.2481 26.0808L56.8222 28.1457ZM60.5162 37.7753C61.4091 41.4958 61.8672 45.8068 61.8672 50.7266H65.8672C65.8672 45.5682 65.3878 40.9339 64.4057 36.8418L60.5162 37.7753ZM47.5859 68.1875V48.3242H43.5859V68.1875H47.5859ZM47.5859 48.3242C47.5859 45.3208 47.4062 42.6686 47.0323 40.3841L43.0848 41.03C43.4141 43.0424 43.5859 45.4683 43.5859 48.3242H47.5859ZM47.0385 40.4242C46.71 38.125 46.2075 36.0996 45.5027 34.3815L41.802 35.8997C42.3472 37.2285 42.7822 38.9141 43.0787 40.9899L47.0385 40.4242ZM45.519 34.4227C44.8614 32.7129 43.9925 31.237 42.8698 30.0654L39.9818 32.833C40.6559 33.5364 41.2714 34.5215 41.7857 35.8586L45.519 34.4227ZM42.8698 30.0654C41.7692 28.917 40.4785 28.0596 39.0088 27.5207L37.6318 31.2762C38.5059 31.5967 39.2855 32.1065 39.9818 32.833L42.8698 30.0654ZM39.085 27.5504C37.6833 26.9704 36.1697 26.6953 34.5703 26.6953V30.6953C35.7053 30.6953 36.6917 30.889 37.5556 31.2465L39.085 27.5504ZM34.5703 26.6953C32.5714 26.6953 30.7088 27.1063 29.0267 27.9714L30.8561 31.5286C31.9084 30.9874 33.1317 30.6953 34.5703 30.6953V26.6953ZM29.0267 27.9714C27.285 28.8672 25.8781 30.2589 24.7811 32.0416L28.1877 34.138C28.9656 32.8739 29.8635 32.0391 30.8561 31.5286L29.0267 27.9714ZM24.7934 32.0219C23.6788 33.7866 22.8904 36.0572 22.3552 38.7328L26.2776 39.5172C26.7581 37.1146 27.4149 35.3618 28.1754 34.1578L24.7934 32.0219ZM22.3507 38.7564C21.8517 41.4173 21.6133 44.6155 21.6133 48.3242H25.6133C25.6133 44.7673 25.8436 41.8327 26.2822 39.4936L22.3507 38.7564ZM21.6133 48.3242V68.1875H25.6133V48.3242H21.6133ZM21.6133 68.1875C21.6133 71.1833 21.7727 73.8404 22.1021 76.1461L26.0619 75.5804C25.7663 73.5111 25.6133 71.051 25.6133 68.1875H21.6133ZM22.1074 76.1806C22.4736 78.4596 22.9706 80.4706 23.6156 82.1905L27.3609 80.786C26.834 79.381 26.3936 77.6419 26.0567 75.5459L22.1074 76.1806ZM23.6379 82.2474C24.332 83.9392 25.2093 85.4052 26.3016 86.5924L29.2453 83.8842C28.5407 83.1183 27.8946 82.0843 27.3386 80.7292L23.6379 82.2474ZM26.3295 86.6221C27.43 87.7705 28.7207 88.6279 30.1904 89.1668L31.5674 85.4113C30.6934 85.0908 29.9137 84.581 29.2174 83.8545L26.3295 86.6221ZM30.1904 89.1668C31.6029 89.6847 33.1078 89.9336 34.6875 89.9336V85.9336C33.5328 85.9336 32.4987 85.7528 31.5674 85.4113L30.1904 89.1668ZM34.6875 89.9336C36.6678 89.9336 38.5057 89.5496 40.1522 88.7264L38.3634 85.1486C37.3537 85.6535 36.1447 85.9336 34.6875 85.9336V89.9336ZM40.1936 88.7051C41.8925 87.8056 43.2708 86.4151 44.3596 84.6459L40.9529 82.5495C40.1667 83.8271 39.2794 84.6631 38.322 85.1699L40.1936 88.7051ZM44.3522 84.6577C45.504 82.8149 46.2936 80.5028 46.791 77.8084L42.8575 77.0822C42.4174 79.4659 41.7617 81.2554 40.9603 82.5377L44.3522 84.6577ZM46.7854 77.8375C47.327 75.1294 47.5859 71.9038 47.5859 68.1875H43.5859C43.5859 71.7368 43.337 74.6831 42.8631 77.0531L46.7854 77.8375ZM145.809 68.4219H147.809V66.4219H145.809V68.4219ZM145.809 82.6016V84.6016H147.809V82.6016H145.809ZM84.4023 82.6016L82.4103 82.7798L82.5733 84.6016H84.4023V82.6016ZM83.4062 71.4688L81.7111 70.4075L81.3543 70.9773L81.4142 71.647L83.4062 71.4688ZM118.328 15.6875V13.6875H117.221L116.633 14.6262L118.328 15.6875ZM132.801 15.6875L134.513 16.721L136.344 13.6875H132.801V15.6875ZM117.098 41.7031L115.385 40.6696L115.378 40.6814L117.098 41.7031ZM101.219 68.4219L99.4995 67.4001L97.7036 70.4219H101.219V68.4219ZM136.668 15.6875H138.668V13.6875H136.668V15.6875ZM136.668 101V103H138.668V101H136.668ZM118.387 101H116.387V103H118.387V101ZM118.387 15.6875V13.6875H116.387V15.6875H118.387ZM143.809 68.4219V82.6016H147.809V68.4219H143.809ZM145.809 80.6016H84.4023V84.6016H145.809V80.6016ZM86.3944 82.4233L85.3983 71.2905L81.4142 71.647L82.4103 82.7798L86.3944 82.4233ZM85.1014 72.53L120.023 16.7488L116.633 14.6262L81.7111 70.4075L85.1014 72.53ZM118.328 17.6875H132.801V13.6875H118.328V17.6875ZM131.089 14.654L115.385 40.6696L118.81 42.7366L134.513 16.721L131.089 14.654ZM115.378 40.6814L99.4995 67.4001L102.938 69.4436L118.817 42.7249L115.378 40.6814ZM101.219 70.4219H145.809V66.4219H101.219V70.4219ZM134.668 15.6875V101H138.668V15.6875H134.668ZM136.668 99H118.387V103H136.668V99ZM120.387 101V15.6875H116.387V101H120.387ZM118.387 17.6875H136.668V13.6875H118.387V17.6875Z" fill="#161C24" fill-opacity="0.8"/>
</svg>
