<svg width="343" height="358" viewBox="0 0 343 358" fill="none" xmlns="http://www.w3.org/2000/svg">
<g clip-path="url(#clip0_1761_4102)">
<path d="M201.216 347.521C242.219 347.521 275.459 341.156 275.459 333.305C275.459 325.455 242.219 319.09 201.216 319.09C160.212 319.09 126.973 325.455 126.973 333.305C126.973 341.156 160.212 347.521 201.216 347.521Z" fill="#BBBCBD"/>
<path d="M100.206 341.102C136.553 341.102 166.018 331.1 166.018 318.762C166.018 306.424 136.553 296.422 100.206 296.422C63.8594 296.422 34.3945 306.424 34.3945 318.762C34.3945 331.1 63.8594 341.102 100.206 341.102Z" fill="#BBBCBD"/>
<path d="M275.471 357.509C310.847 357.509 339.524 347.389 339.524 334.905C339.524 322.421 310.847 312.3 275.471 312.3C240.096 312.3 211.418 322.421 211.418 334.905C211.418 347.389 240.096 357.509 275.471 357.509Z" fill="#BBBCBD"/>
<path d="M217.211 169.004C212.89 170.074 205.983 168.136 201.513 167.786C191.069 166.992 180.582 166.335 170.106 166.896C162.119 167.331 154.281 168.898 146.252 168.729C142.174 168.644 136.051 169.036 132.248 167.521C128.53 166.038 125.649 159.46 123.584 156.156C114.781 142.099 107.006 127.418 99.0195 112.885C95.6087 106.678 86.4673 95.2801 88.9036 87.9924C90.0158 84.6769 93.2571 80.8636 95.0896 77.8659L102.515 65.7163C106.847 58.6298 111.18 51.5434 115.512 44.457C120.099 36.9575 124.209 27.9961 129.749 21.1639C134.388 15.444 144.504 17.34 151.389 17.4989C160.202 17.7108 169.005 18.3146 177.828 18.4734C185.931 18.6217 194.045 18.537 202.138 18.2086C205.994 18.0497 209.849 17.8273 213.705 17.679C215.739 17.6048 218.504 16.9799 220.325 18.2192C221.586 19.0772 223.313 22.3821 224.181 23.632C233.418 36.9575 241.903 50.8655 249.402 65.2396C251.446 69.1694 253.438 73.1204 255.355 77.1033C257.315 81.1602 260.694 86.3929 261.52 90.7994C262.42 95.5873 259.518 99.4006 257.294 103.595C255.111 107.705 252.908 111.815 250.684 115.904C244.964 126.412 238.746 136.623 232.782 146.993C230.219 151.463 227.592 155.87 224.827 160.117C222.846 163.157 221.183 168.019 217.222 168.994L217.211 169.004Z" fill="#5EBBA8"/>
<path d="M105.534 84.465C107.377 80.9801 109.252 77.5057 111.138 74.042C115.978 65.1442 121.254 56.4901 126.296 47.7089C128.467 43.9273 130.692 40.1881 133.032 36.5867C134.717 34.0127 136.126 29.8922 139.473 29.066C143.127 28.1656 148.985 29.8074 152.766 30.0934C161.611 30.7714 170.498 31.3222 179.364 30.8455C186.133 30.4748 192.764 29.1507 199.564 29.2884C203.018 29.3625 208.197 29.0236 211.428 30.3159C214.574 31.5764 217.021 37.1481 218.769 39.9445C226.226 51.8505 232.814 64.2862 239.572 76.5948C242.464 81.8593 250.207 91.5091 248.142 97.6845C247.199 100.502 244.456 103.722 242.898 106.265L236.607 116.56C232.941 122.566 229.266 128.562 225.601 134.568C221.724 140.923 218.239 148.508 213.547 154.291C209.617 159.132 201.058 157.533 195.211 157.395C187.743 157.215 180.286 156.706 172.818 156.569C165.954 156.441 159.09 156.516 152.226 156.791C148.964 156.918 145.701 157.109 142.428 157.236C140.712 157.299 138.361 157.829 136.825 156.78C135.755 156.06 134.293 153.253 133.562 152.194C125.734 140.913 118.552 129.134 112.208 116.952C110.47 113.626 108.797 110.279 107.165 106.9C105.513 103.468 102.642 99.0298 101.943 95.3012C101.181 91.2443 103.638 88.0135 105.524 84.465H105.534Z" fill="#DFD1CF"/>
<path d="M99.0523 96.53C100.726 100.534 102.802 104.453 104.719 108.341C111.604 122.344 119.326 135.977 127.875 149.027C129.93 152.162 131.995 155.287 134.145 158.348C135.766 160.647 135.692 160.689 138.531 160.509C147.037 159.979 155.458 159.397 164.006 159.407C171.834 159.418 179.64 159.778 187.458 160.191C191.335 160.393 195.222 160.594 199.11 160.647C201.048 160.668 202.987 160.668 204.925 160.604C206.98 160.541 210.793 160.965 212.647 160.043C214.257 159.238 213.791 159.63 215.009 157.448C216.969 153.942 219.077 150.52 221.185 147.088C225.729 139.663 230.273 132.227 234.817 124.802C239.012 117.938 243.206 111.084 247.401 104.231C248.842 101.879 251.193 99.1993 251.839 96.4452C252.464 93.7865 251.151 91.7951 249.922 89.5177C242.274 75.2283 234.489 60.9496 226.311 46.9568C223.992 42.9846 221.566 39.0759 219.13 35.1779C217.657 32.8369 216.227 29.1825 213.685 27.7313C211.249 26.3331 207.319 26.8204 204.66 26.6721C199.978 26.3967 195.381 26.3225 190.71 26.778C172.501 28.5575 154.684 27.0322 136.455 25.8141C134.241 25.6658 131.413 31.2375 130.576 32.8263C128.425 36.9362 126.243 40.9085 123.828 44.9442C118.426 53.9691 113.543 63.2799 108.48 72.4955C106.584 75.9486 104.698 79.4124 102.834 82.8868C101.446 85.4819 99.1794 88.4479 98.4273 91.2973C97.8871 93.3522 98.2473 94.6339 99.0417 96.53H99.0523ZM105.535 84.4651C107.378 80.9801 109.253 77.5057 111.138 74.042C115.979 65.1442 121.254 56.4901 126.296 47.7089C128.468 43.9273 130.692 40.1882 133.033 36.5867C134.717 34.0127 136.126 29.8922 139.474 29.066C143.128 28.1656 148.986 29.8075 152.767 30.0935C161.612 30.7714 170.499 31.3222 179.365 30.8455C186.134 30.4748 192.765 29.1507 199.565 29.2884C203.018 29.3626 208.198 29.0236 211.429 30.3159C214.575 31.5764 217.022 37.1481 218.769 39.9445C226.227 51.8506 232.815 64.2862 239.573 76.5948C242.465 81.8593 250.208 91.5091 248.143 97.6846C247.2 100.502 244.456 103.722 242.899 106.265L236.607 116.561C232.942 122.566 229.267 128.562 225.602 134.568C221.725 140.923 218.24 148.508 213.547 154.291C209.617 159.132 201.059 157.533 195.212 157.395C187.744 157.215 180.287 156.706 172.819 156.569C165.955 156.441 159.091 156.516 152.227 156.791C148.964 156.918 145.702 157.109 142.429 157.236C140.713 157.299 138.361 157.829 136.825 156.78C135.756 156.06 134.294 153.253 133.563 152.194C125.735 140.913 118.553 129.134 112.208 116.952C110.471 113.626 108.797 110.279 107.166 106.9C105.514 103.468 102.643 99.0298 101.944 95.3012C101.181 91.2443 103.639 88.0136 105.524 84.4651H105.535Z" fill="#202020"/>
<path d="M153.025 99.5363C153.025 99.6245 153.025 99.6906 153.025 99.7347C153.069 99.7788 153.091 99.8229 153.091 99.867C153.091 100.088 153.025 100.264 152.892 100.396C152.76 100.529 152.606 100.595 152.429 100.595H152.098C151.878 100.595 151.569 100.617 151.172 100.661C150.82 100.705 150.357 100.727 149.783 100.727C149.254 100.727 148.923 100.859 148.791 101.124C148.659 101.388 148.593 101.807 148.593 102.381V102.711L148.526 101.719C148.482 101.719 148.416 103.483 148.328 107.011C148.284 110.539 148.262 113.097 148.262 114.685V115.346C148.262 115.964 148.019 116.338 147.534 116.471C147.093 116.603 146.63 116.669 146.145 116.669C145.704 116.625 145.417 116.603 145.285 116.603C144.932 116.603 144.712 116.493 144.623 116.272C144.535 116.008 144.491 115.324 144.491 114.222V111.046C144.535 109.988 144.601 109.128 144.69 108.467C144.778 107.144 144.822 105.159 144.822 102.513C144.822 101.807 144.69 101.344 144.425 101.124C144.205 100.859 143.852 100.727 143.367 100.727L141.647 100.793C139.618 100.97 137.832 101.058 136.289 101.058C135.583 101.058 135.098 101.036 134.833 100.992L133.246 100.925C131.437 100.925 129.696 100.992 128.02 101.124L125.44 101.19C124.778 101.19 124.359 101.058 124.183 100.793C124.007 100.484 123.918 100.065 123.918 99.5363C123.918 98.7866 123.962 98.2794 124.051 98.0148C124.183 97.7061 124.514 97.221 125.043 96.5595C125.837 95.5893 126.763 94.3104 127.821 92.7228C128.35 91.9289 129.21 90.7603 130.401 89.2168C132.033 87.2764 134.15 84.5421 136.752 81.0141C138.383 78.7209 139.662 76.8687 140.588 75.4575C141.559 74.0463 142.308 72.9658 142.837 72.2161L144.028 70.43C144.557 69.6803 145.153 69.3055 145.814 69.3055H146.277C146.498 69.3055 146.696 69.2614 146.873 69.1732C147.225 69.2173 147.622 69.2614 148.063 69.3055C148.504 69.3496 148.791 69.4819 148.923 69.7024C149.056 69.9229 149.122 70.3639 149.122 71.0254C149.122 71.5546 149.078 72.7453 148.989 74.5975C148.769 79.6691 148.659 86.5267 148.659 95.1703C148.659 96.1405 148.725 96.78 148.857 97.0887C148.989 97.3533 149.232 97.4856 149.585 97.4856C149.761 97.4856 150.158 97.4635 150.775 97.4194C151.437 97.3312 151.988 97.2871 152.429 97.2871C152.65 97.2871 152.782 97.3974 152.826 97.6179C152.914 97.8384 152.958 98.1691 152.958 98.6102C152.958 99.0512 152.98 99.3599 153.025 99.5363ZM145.02 75.7221C145.02 75.3252 145.042 74.9283 145.087 74.5314C145.175 74.0904 145.219 73.6714 145.219 73.2745L145.153 73.1422V73.076C145.02 73.076 144.271 74.2006 142.904 76.4497L141.382 78.8973L137.016 84.9831C135.781 86.7031 134.282 88.6655 132.518 90.8705C132.518 90.8705 132.187 91.2674 131.526 92.0613C130.688 93.3843 129.651 94.597 128.417 95.6995C127.976 96.0964 127.667 96.4272 127.49 96.6918C127.358 96.9123 127.292 97.221 127.292 97.6179C127.292 97.9266 127.402 98.0809 127.623 98.0809C127.755 98.0809 127.931 98.0368 128.152 97.9486C128.417 97.8604 128.769 97.8163 129.21 97.8163C129.828 97.8163 130.313 97.8384 130.666 97.8825L132.584 97.9486C132.893 97.9486 133.687 97.9266 134.966 97.8825C136.244 97.7943 137.788 97.7502 139.596 97.7502H143.036C143.609 97.7502 144.006 97.5738 144.227 97.221C144.447 96.8241 144.579 96.1405 144.623 95.1703C144.712 94.2001 144.756 92.5464 144.756 90.209V87.2323L144.888 83.9247L145.02 75.7221ZM171.481 116.735C167.379 116.515 164.777 116.118 163.675 115.545C162.572 114.971 161.404 113.56 160.169 111.311C158.978 109.106 158.14 107.011 157.655 105.027C157.258 103.086 157.06 98.8307 157.06 92.2597C157.06 88.423 157.258 85.0713 157.655 82.2048C158.052 79.3383 158.802 77.001 159.904 75.1929C161.183 73.2083 162.793 71.753 164.733 70.8269C166.762 69.8567 169.65 69.3496 173.399 69.3055C178.25 70.0111 181.447 71.731 182.991 74.4652C184.534 77.1994 185.438 80.1321 185.703 83.2632C185.968 86.3503 186.1 89.9444 186.1 94.0458C186.1 98.2794 185.813 102.05 185.24 105.358C184.711 108.841 183.233 111.62 180.808 113.692C178.426 115.721 175.317 116.735 171.481 116.735ZM172.804 73.1422C171.525 73.1422 170.047 73.6053 168.372 74.5314C166.784 75.3693 165.549 76.6702 164.667 78.4342C163.873 80.0219 163.476 81.7418 163.476 83.594C163.476 84.8729 163.498 85.9313 163.543 86.7692L163.609 92.4582L163.741 98.8748C163.873 102.491 164.557 105.049 165.792 106.548C167.556 108.665 168.658 110.032 169.099 110.65C170.025 111.884 171.525 112.502 173.597 112.502C174.876 112.502 176.199 112.039 177.566 111.113C178.978 110.142 180.19 108.775 181.205 107.011C182.175 105.38 182.66 103.285 182.66 100.727L182.594 96.0964C182.55 95.5231 182.528 94.7955 182.528 93.9135C182.616 90.5618 182.66 88.3568 182.66 87.2984C182.66 84.6965 182.572 82.7561 182.395 81.4772C182.043 78.787 181.491 76.7805 180.742 75.4575C179.948 74.0463 178.801 73.2745 177.302 73.1422C176.332 73.054 175.582 73.0099 175.053 73.0099C174.612 73.0099 173.862 73.054 172.804 73.1422ZM173.664 89.4814C175.913 89.4814 177.037 90.9146 177.037 93.7812C177.037 94.575 176.684 95.2585 175.979 95.8318C175.273 96.361 174.501 96.6256 173.664 96.6256C172.782 96.6256 172.01 96.2949 171.348 95.6334C170.731 94.9719 170.422 94.0237 170.422 92.7889C170.422 91.4659 170.709 90.5839 171.282 90.1429C171.9 89.7019 172.693 89.4814 173.664 89.4814ZM219.175 99.5363C219.175 99.6245 219.175 99.6906 219.175 99.7347C219.219 99.7788 219.241 99.8229 219.241 99.867C219.241 100.088 219.175 100.264 219.043 100.396C218.911 100.529 218.756 100.595 218.58 100.595H218.249C218.029 100.595 217.72 100.617 217.323 100.661C216.97 100.705 216.507 100.727 215.934 100.727C215.405 100.727 215.074 100.859 214.941 101.124C214.809 101.388 214.743 101.807 214.743 102.381V102.711L214.677 101.719C214.633 101.719 214.567 103.483 214.478 107.011C214.434 110.539 214.412 113.097 214.412 114.685V115.346C214.412 115.964 214.17 116.338 213.685 116.471C213.244 116.603 212.781 116.669 212.295 116.669C211.854 116.625 211.568 116.603 211.436 116.603C211.083 116.603 210.862 116.493 210.774 116.272C210.686 116.008 210.642 115.324 210.642 114.222V111.046C210.686 109.988 210.752 109.128 210.84 108.467C210.928 107.144 210.972 105.159 210.972 102.513C210.972 101.807 210.84 101.344 210.576 101.124C210.355 100.859 210.002 100.727 209.517 100.727L207.797 100.793C205.769 100.97 203.983 101.058 202.439 101.058C201.733 101.058 201.248 101.036 200.984 100.992L199.396 100.925C197.588 100.925 195.846 100.992 194.17 101.124L191.59 101.19C190.929 101.19 190.51 101.058 190.333 100.793C190.157 100.484 190.069 100.065 190.069 99.5363C190.069 98.7866 190.113 98.2794 190.201 98.0148C190.333 97.7061 190.664 97.221 191.193 96.5595C191.987 95.5893 192.913 94.3104 193.972 92.7228C194.501 91.9289 195.361 90.7603 196.552 89.2168C198.183 87.2764 200.3 84.5421 202.902 81.0141C204.534 78.7209 205.813 76.8687 206.739 75.4575C207.709 74.0463 208.459 72.9658 208.988 72.2161L210.179 70.43C210.708 69.6803 211.303 69.3055 211.965 69.3055H212.428C212.648 69.3055 212.847 69.2614 213.023 69.1732C213.376 69.2173 213.773 69.2614 214.214 69.3055C214.655 69.3496 214.941 69.4819 215.074 69.7024C215.206 69.9229 215.272 70.3639 215.272 71.0254C215.272 71.5546 215.228 72.7453 215.14 74.5975C214.919 79.6691 214.809 86.5267 214.809 95.1703C214.809 96.1405 214.875 96.78 215.008 97.0887C215.14 97.3533 215.382 97.4856 215.735 97.4856C215.912 97.4856 216.309 97.4635 216.926 97.4194C217.588 97.3312 218.139 97.2871 218.58 97.2871C218.8 97.2871 218.933 97.3974 218.977 97.6179C219.065 97.8384 219.109 98.1691 219.109 98.6102C219.109 99.0512 219.131 99.3599 219.175 99.5363ZM211.171 75.7221C211.171 75.3252 211.193 74.9283 211.237 74.5314C211.325 74.0904 211.369 73.6714 211.369 73.2745L211.303 73.1422V73.076C211.171 73.076 210.421 74.2006 209.054 76.4497L207.533 78.8973L203.167 84.9831C201.932 86.7031 200.432 88.6655 198.668 90.8705C198.668 90.8705 198.338 91.2674 197.676 92.0613C196.838 93.3843 195.802 94.597 194.567 95.6995C194.126 96.0964 193.817 96.4272 193.641 96.6918C193.509 96.9123 193.443 97.221 193.443 97.6179C193.443 97.9266 193.553 98.0809 193.773 98.0809C193.906 98.0809 194.082 98.0368 194.303 97.9486C194.567 97.8604 194.92 97.8163 195.361 97.8163C195.978 97.8163 196.463 97.8384 196.816 97.8825L198.735 97.9486C199.043 97.9486 199.837 97.9266 201.116 97.8825C202.395 97.7943 203.938 97.7502 205.747 97.7502H209.186C209.76 97.7502 210.157 97.5738 210.377 97.221C210.598 96.8241 210.73 96.1405 210.774 95.1703C210.862 94.2001 210.906 92.5464 210.906 90.209V87.2323L211.039 83.9247L211.171 75.7221Z" fill="#202020"/>
<path d="M273.235 84.7829C273.107 83.427 272.821 82.0712 272.324 80.6941C267.991 68.6504 260.873 57.7083 255.1 46.3319C250.831 37.9214 246.361 29.6274 241.87 21.3334C239.624 17.1917 237.294 13.0818 235.144 8.88718C233.576 5.82593 232.188 2.15031 228.82 0.614388C226.437 -0.466053 223.778 0.127131 221.278 0.338982C214.361 0.942758 207.465 1.12283 200.527 1.37705C190.824 1.68424 181.132 2.00201 171.43 2.27742C164.438 2.46809 157.437 2.23505 150.446 2.5846C145.224 2.84942 140.383 2.34098 136.273 6.20726C133.826 8.50585 131.866 11.3023 130.023 14.0987C129.801 14.4165 129.6 14.7343 129.398 15.052C128.975 15.3698 128.858 15.8041 127.958 17.393C125.638 21.5347 123.149 25.5705 120.67 29.6274C115.3 38.398 109.94 47.1687 104.569 55.9499C99.612 64.0426 94.6653 72.1459 89.7079 80.2387C88.0025 83.0245 85.2273 86.1811 84.4646 89.433C83.7337 92.5684 85.2802 94.9199 86.7208 97.6105C95.7457 114.474 104.94 131.337 114.59 147.862C117.333 152.554 120.183 157.162 123.074 161.77C124.812 164.534 126.506 168.845 129.504 170.561C132.385 172.214 137.025 171.631 140.16 171.811C145.69 172.129 151.124 172.224 156.632 171.684C158.125 171.536 159.608 171.419 161.102 171.313C162.405 171.229 164.301 170.752 165.572 171.049C168.983 171.854 167.786 175.762 167.775 178.061C167.743 182.266 167.839 186.482 167.881 190.687C167.966 199.108 168.072 207.529 168.199 215.94C168.379 228.397 168.58 240.854 168.781 253.321C169.014 268.246 169.502 283.16 169.798 298.075C169.947 305.616 170.052 313.158 170.052 320.711C170.052 328.973 169.025 339.597 180.751 338.453C186.799 337.86 189.892 332.553 189.405 327.013C188.706 318.91 189.246 310.5 189.204 302.343C189.119 285.48 188.939 268.627 188.642 251.775C188.632 251.097 188.621 250.429 188.611 249.751C188.367 236.045 188.07 222.338 187.657 208.642C187.287 196.27 187.89 183.167 185.973 170.869C188.823 170.943 191.661 171.049 194.5 171.186C202.805 171.578 211.035 173.443 219.371 173.199C227.157 172.966 232.231 165.699 235.801 159.672C240.069 152.459 244.772 145.711 248.649 138.116C252.802 130.002 256.774 121.804 260.841 113.637C265.195 104.898 274.177 95.153 273.224 84.7723L273.235 84.7829ZM140.595 8.4317C145.139 5.33867 150.435 5.83652 155.647 5.68822C163.337 5.47637 171.016 5.27511 178.707 5.06326C193.451 4.66075 208.217 4.39593 222.962 4.00401C220.982 7.15 219.17 10.3595 217.772 13.8339C207.879 14.4483 198.091 15.1156 188.166 15.105C178.918 15.0838 169.703 14.6601 160.477 14.1729C155.89 13.9292 151.314 13.6962 146.728 13.6326C144.44 13.6009 142.152 13.6115 139.864 13.6856C138.677 13.728 137.004 13.6221 135.341 13.6432C136.993 11.7472 138.73 9.7028 140.595 8.4317ZM183.865 332.257C183.865 332.257 183.844 332.278 183.844 332.289C182.636 333.782 181.037 334.725 179.088 334.672C171.133 334.481 172.658 323.179 172.51 317.957C172.298 310.775 172.182 303.604 172.097 296.422C171.938 282.069 171.938 267.706 171.694 253.353C171.514 242.57 171.345 231.786 171.154 221.003C171.006 212.582 170.858 204.15 170.677 195.729C170.593 191.513 170.497 187.308 170.391 183.092C170.338 181.101 170.127 179.025 170.296 177.033C170.423 175.455 170.201 173.845 170.55 172.277C170.9 170.689 171.461 170.869 172.955 170.837C176.154 170.773 179.353 170.752 182.541 170.805C181.45 183.611 183.039 197.075 183.389 209.86C183.759 223.567 184.109 237.263 184.363 250.969C184.67 267.282 184.871 283.605 184.977 299.918C185.03 307.989 185.052 316.071 185.062 324.143C185.062 327.088 185.835 329.778 183.865 332.246V332.257ZM217.126 169.004C212.804 170.074 205.898 168.136 201.428 167.786C190.983 166.992 180.497 166.335 170.021 166.896C162.034 167.331 154.195 168.898 146.166 168.729C142.088 168.644 135.966 169.036 132.163 167.521C128.445 166.038 125.564 159.46 123.498 156.156C114.696 142.099 106.921 127.418 98.9341 112.885C95.5232 106.678 86.3819 95.2801 88.8182 87.9924C89.9304 84.6769 93.1717 80.8636 95.0042 77.8659L102.43 65.7162C106.762 58.6298 111.094 51.5434 115.427 44.457C120.013 36.9575 124.123 27.9962 129.663 21.164C134.303 15.444 144.418 17.34 151.304 17.4989C160.117 17.7108 168.919 18.3146 177.743 18.4734C185.846 18.6217 193.96 18.537 202.053 18.2086C205.908 18.0497 209.764 17.8273 213.62 17.679C215.653 17.6049 218.418 16.9799 220.24 18.2192C221.501 19.0772 223.227 22.3821 224.096 23.632C233.332 36.9575 241.817 50.8655 249.317 65.2396C251.361 69.1694 253.352 73.1205 255.27 77.1033C257.229 81.1602 260.608 86.3929 261.434 90.7994C262.335 95.5873 259.433 99.4006 257.208 103.595C255.026 107.705 252.823 111.815 250.598 115.904C244.878 126.412 238.66 136.623 232.697 146.993C230.133 151.463 227.507 155.87 224.742 160.117C222.761 163.157 221.098 168.019 217.136 168.994L217.126 169.004ZM246.7 134.218C242.188 143.074 237.601 152.13 231.563 160.022C230.419 161.261 229.254 162.49 228.079 163.708C230.472 159.164 232.898 154.747 235.578 150.277C241.955 139.621 247.717 128.625 253.702 117.747C255.948 113.669 258.172 109.58 260.365 105.47C261.784 102.811 263.987 99.8243 265.121 96.8796C265.491 96.8796 265.852 96.7419 266.148 96.4559C259.92 109.167 253.077 121.645 246.679 134.218H246.7ZM268.415 81.8064C268.351 81.9229 268.277 82.0288 268.246 82.1665C267.472 84.91 266.159 87.2933 265.078 89.8779C265.015 89.7084 264.941 89.5389 264.866 89.3588C262.896 84.6346 260.439 80.0056 258.172 75.4084C250.047 58.8735 240.927 42.7834 230.833 27.3712C228.407 23.6744 225.971 19.9776 223.428 16.3655C222.486 15.0203 222.03 14.3318 221.395 14.0034C221.162 13.8869 223.079 10.2007 223.238 9.90406C224.413 7.55251 225.706 5.65645 227.464 3.73919C228.29 2.82823 230.991 9.18377 231.225 9.5651C232.273 11.2281 233.301 12.9018 234.318 14.586C236.351 17.9544 238.322 21.3652 240.239 24.7972C244.084 31.6824 247.728 38.6946 251.255 45.7493C254.253 51.7553 257.155 57.8036 260.026 63.8731C261.434 66.8602 262.843 69.8579 264.242 72.8556C264.941 74.3492 265.64 75.8427 266.339 77.3363C266.614 77.9189 268.69 81.3509 268.436 81.8169L268.415 81.8064Z" fill="#202020"/>
<path d="M140.594 8.43166C145.138 5.33863 150.434 5.83648 155.646 5.68818C163.336 5.47633 171.016 5.27507 178.706 5.06322C193.451 4.66071 208.217 4.39589 222.961 4.00397C220.981 7.14996 219.169 10.3595 217.771 13.8339C207.878 14.4482 198.09 15.1156 188.165 15.105C178.918 15.0838 169.702 14.6601 160.476 14.1728C155.889 13.9292 151.313 13.6962 146.727 13.6326C144.439 13.6008 142.151 13.6114 139.863 13.6856C138.676 13.7279 137.003 13.622 135.34 13.6432C136.992 11.7471 138.729 9.70276 140.594 8.43166Z" fill="#F1E9EA"/>
<path d="M246.712 134.218C242.199 143.074 237.613 152.13 231.575 160.022C230.431 161.261 229.266 162.49 228.09 163.708C230.484 159.164 232.909 154.747 235.589 150.277C241.966 139.621 247.728 128.625 253.713 117.747C255.959 113.669 258.183 109.58 260.376 105.47C261.795 102.811 263.999 99.8243 265.132 96.8795C265.503 96.8795 265.863 96.7418 266.16 96.4558C259.931 109.167 253.088 121.645 246.69 134.218H246.712Z" fill="#A1A1A1"/>
<path d="M268.427 81.8063C268.363 81.9228 268.289 82.0288 268.257 82.1665C267.484 84.9099 266.17 87.2933 265.09 89.8778C265.026 89.7084 264.952 89.5389 264.878 89.3588C262.908 84.6345 260.451 80.0056 258.184 75.4084C250.059 58.8734 240.939 42.7833 230.844 27.3712C228.419 23.6744 225.982 19.9776 223.44 16.3655C222.497 15.0202 222.042 14.3317 221.406 14.0034C221.173 13.8868 223.091 10.2006 223.249 9.90403C224.425 7.55248 225.717 5.65641 227.476 3.73916C228.302 2.8282 231.003 9.18374 231.236 9.56507C232.285 11.2281 233.312 12.9017 234.329 14.5859C236.363 17.9544 238.333 21.3652 240.25 24.7972C244.096 31.6823 247.739 38.6946 251.267 45.7492C254.264 51.7552 257.167 57.8036 260.037 63.8731C261.446 66.8602 262.855 69.8579 264.253 72.8556C264.952 74.3492 265.651 75.8427 266.351 77.3363C266.626 77.9189 268.702 81.3508 268.448 81.8169L268.427 81.8063Z" fill="#F1E9EA"/>
<path d="M185.074 324.153C185.074 316.082 185.043 308 184.99 299.928C184.884 283.605 184.693 267.293 184.375 250.98C184.121 237.273 183.771 223.567 183.401 209.87C183.221 203.441 182.733 196.842 182.437 190.232C182.14 183.707 182.013 177.171 182.553 170.805C179.354 170.752 176.155 170.773 172.967 170.837C171.484 170.869 170.912 170.678 170.562 172.277C170.224 173.845 170.446 175.455 170.308 177.033C170.149 179.025 170.361 181.09 170.404 183.092C170.478 186.016 170.541 188.939 170.605 191.863C173.994 192.191 177.405 191.884 180.541 190.91C180.678 192.594 180.689 194.215 180.689 195.486C182.733 241.447 182.786 288.382 180.89 334.418C182.045 334.047 183.041 333.305 183.856 332.299C183.856 332.289 183.877 332.278 183.877 332.267C185.848 329.799 185.074 327.109 185.074 324.164V324.153Z" fill="#A1A1A1"/>
<path d="M216.119 335.159C225.96 333.496 236.044 327.818 244.931 323.211L255.704 326.505C266.413 329.778 277.111 333.041 287.842 336.261C298.572 339.481 309.313 342.659 320.032 345.889C325.879 347.648 331.928 349.819 338.103 349.544C339.173 349.491 340.307 349.353 341.133 348.686C342.181 347.838 342.478 346.324 342.224 345.01C341.895 343.326 340.836 341.684 339.946 340.233C333.474 329.799 326.875 319.44 320.064 309.218C313.243 298.975 306.209 288.88 298.879 278.997C295.225 274.061 291.485 269.178 287.683 264.358C287.312 263.892 286.931 263.426 286.56 262.971C286.242 258.003 285.776 253.035 285.172 248.078C284.685 242.167 285.087 234.085 282.778 228.587C279.622 221.056 272.609 224.636 267.017 226.342C258.648 228.895 250.344 231.68 242.124 234.689C233.989 237.665 226.076 241.203 218.132 244.667C212.719 247.029 205.559 250.938 205.41 257.442C205.071 272.599 203.938 287.8 205.092 302.958C205.59 309.493 205.707 316.4 206.745 322.819C207.582 327.999 209.001 336.367 216.109 335.17L216.119 335.159ZM337.637 343.559C337.764 343.887 337.807 344.258 337.743 344.597C337.701 344.851 337.595 345.095 337.415 345.286C336.949 345.805 336.154 345.836 335.455 345.815C331.705 345.709 328.167 344.565 324.587 343.453C320.71 342.256 316.982 340.657 313.126 339.407C312.84 339.047 312.565 338.686 312.3 338.316C312.215 338.178 312.13 338.03 312.035 337.903C312.035 337.892 312.014 337.881 312.003 337.871C311.823 337.606 311.643 337.331 311.463 337.055C310.933 335.456 310.859 333.856 311.092 332.278C312.226 326.759 317.649 321.039 322.013 319.599C322.161 319.546 322.289 319.482 322.416 319.397C322.299 319.472 336.769 341.292 337.627 343.57L337.637 343.559ZM319.916 315.616C320.52 316.537 316.05 318.561 315.488 318.984C312.649 321.135 310.541 324.831 308.953 327.924C307.332 331.07 306.622 334.428 307.575 337.638C306.548 337.32 305.521 336.992 304.493 336.674C304.239 336.356 304.006 336.017 303.783 335.678C303.773 335.604 303.783 335.53 303.752 335.445C302.512 330.647 302.502 327.999 304.906 323.74C305.944 321.897 306.993 320.097 308.137 318.381C310.563 315.34 313.497 312.936 316.855 310.998C317.882 312.523 318.899 314.069 319.926 315.605L319.916 315.616ZM302.512 290.3C303.963 292.344 305.404 294.388 306.845 296.443C309.143 299.716 311.283 303.106 313.815 306.188C314.026 306.517 314.249 306.845 314.439 307.184C314.62 307.502 314.8 307.83 314.969 308.169C314.185 308.826 311.664 309.928 311.368 310.118C310.234 310.817 309.196 311.993 308.243 312.915C306.135 314.938 304.165 317.141 302.491 319.535C299.419 323.931 297.025 329.545 298.847 334.915C293.148 333.115 287.439 331.325 281.74 329.534C280.077 329.015 278.414 328.507 276.741 327.988C276.709 327.903 276.698 327.808 276.666 327.723C276.571 325.594 276.2 323.486 276.327 321.283C276.571 317.046 277.662 313.042 279.431 309.186C283.202 300.956 289.558 293.943 296.612 288.361C296.75 288.351 296.877 288.308 296.983 288.234C297.883 287.599 298.784 287.164 299.811 286.815C300.69 288.022 301.718 289.198 302.512 290.31V290.3ZM290.172 273.182C292.735 276.688 295.267 280.194 297.799 283.722C297.587 283.806 297.385 283.902 297.184 284.008C296.718 284.209 296.273 284.421 295.86 284.707C281.952 291.613 268.457 310.383 271.974 326.526C269.379 325.732 266.784 324.916 264.188 324.122C263.309 321.971 262.409 319.842 261.572 317.671C259.549 308.085 263.097 298.445 267.917 290.003C269.633 287.005 271.55 283.881 274.283 281.698C277.895 278.817 282.005 276.254 286.168 274.252C286.655 274.019 289.791 272.652 290.193 273.203L290.172 273.182ZM285.543 269.803C285.543 269.803 285.543 269.824 285.554 269.835C285.363 269.92 285.225 270.047 285.14 270.195C284.738 270.449 284.388 270.693 284.177 270.799C281.391 272.123 278.827 273.924 276.306 275.661C273.457 277.631 270.735 279.866 268.521 282.546C267.44 283.849 266.487 285.289 265.618 286.741C258.956 297.598 254.337 310.224 260.364 322.247C260.439 322.501 260.513 322.755 260.587 323.009C257.706 322.13 254.825 321.251 251.943 320.361C246.901 318.815 242.018 316.834 237.008 315.213C234.487 314.398 231.934 313.656 229.328 313.127C228.852 313.031 227.665 313.042 227.295 312.766C227.104 312.618 226.945 312.385 226.807 312.099C226.489 311.421 226.341 310.478 226.203 309.938C225.345 306.464 225.97 302.375 226.309 298.858C227.252 288.923 231.415 279.559 237.22 271.519C241.594 265.471 246.774 259.888 252.399 254.995C257.61 250.461 263.214 247.76 269.421 245.186C274.05 251.383 278.647 257.569 283.234 263.776C283.297 264.316 283.626 264.687 284.049 264.877C285.056 266.244 286.073 267.61 287.079 268.977C286.57 269.252 286.083 269.57 285.532 269.803H285.543ZM212.115 318.211C210.823 308.964 209.467 299.812 209.149 290.374C208.927 283.902 208.98 277.43 209.308 270.968C209.753 262.208 208.779 255.514 216.554 249.592C222.75 244.879 230.409 242.591 237.569 239.784C244.497 237.093 251.498 234.646 258.585 232.422C264.315 230.621 270.131 227.857 276.137 228.895C280.204 235.61 281.211 242.178 281.994 250.037C282.259 252.707 282.482 255.376 282.715 258.045C282.619 257.908 282.514 257.78 282.418 257.632C280.681 255.079 278.901 252.558 277.069 250.069C275.861 248.427 274.633 246.796 273.372 245.175C272.79 244.434 272.228 243.724 271.773 242.909C271.444 242.305 271.455 242.178 270.703 242.061C267.101 241.521 262.981 242.803 259.74 244.243C256.011 245.896 252.6 248.237 249.475 250.832C243.363 255.895 238.152 262.018 233.502 268.426C227.739 276.37 223.396 285.522 221.829 295.268C221.278 298.721 221.077 302.227 221.289 305.712C221.394 307.46 221.596 309.197 221.903 310.913C222.168 312.385 222.199 313.942 223.005 315.224C223.11 315.393 223.238 315.552 223.375 315.711C224.276 316.749 225.335 316.94 226.521 317.438C227.708 317.936 228.841 318.423 230.08 318.815C232.866 319.683 235.716 320.361 238.501 321.219L239.571 321.548C237.04 322.946 234.466 324.238 231.796 325.446C228.11 327.109 224.583 329.312 220.685 330.477C215.802 331.939 213.768 330.774 213.153 325.997C212.825 323.391 212.465 320.785 212.105 318.2L212.115 318.211Z" fill="#202020"/>
<path d="M322.427 319.387C322.3 319.472 322.172 319.546 322.024 319.588C317.649 321.039 312.237 326.749 311.103 332.267C311.05 332.606 311.018 332.956 311.008 333.295C319.312 336.176 327.733 338.739 336.239 341.027C332.415 334.693 322.331 319.45 322.427 319.387Z" fill="#DFD1CF"/>
<path d="M336.229 341.038C327.723 338.761 319.302 336.197 310.998 333.305C310.924 334.545 311.061 335.805 311.474 337.055C311.644 337.331 311.824 337.595 312.015 337.871C312.015 337.881 312.036 337.892 312.046 337.903C312.142 338.03 312.226 338.178 312.311 338.316C312.576 338.686 312.851 339.047 313.137 339.407C316.993 340.667 320.722 342.256 324.598 343.453C328.179 344.565 331.717 345.709 335.466 345.815C336.166 345.836 336.96 345.805 337.426 345.286C337.606 345.095 337.701 344.851 337.754 344.597C337.818 344.258 337.765 343.887 337.649 343.559C337.511 343.188 336.992 342.277 336.24 341.038H336.229Z" fill="#A1A1A1"/>
<path d="M308.943 327.935C310.542 324.842 312.65 321.145 315.479 318.995C316.04 318.571 320.51 316.537 319.906 315.626C318.879 314.091 317.872 312.544 316.834 311.019C313.477 312.957 310.553 315.362 308.117 318.402C306.973 320.118 305.935 321.918 304.886 323.762C303.467 326.283 302.905 328.242 302.926 330.414C304.42 330.975 305.924 331.526 307.428 332.066C307.725 330.678 308.244 329.291 308.932 327.946L308.943 327.935Z" fill="#5FBCA9"/>
<path d="M307.437 332.056C305.933 331.515 304.429 330.964 302.936 330.403C302.946 331.897 303.232 333.496 303.741 335.456C303.762 335.53 303.762 335.604 303.772 335.689C303.995 336.028 304.228 336.367 304.482 336.684C305.51 337.002 306.537 337.331 307.564 337.648C307.014 335.805 307.035 333.92 307.437 332.045V332.056Z" fill="#327769"/>
<path d="M302.48 319.535C304.154 317.131 306.124 314.938 308.232 312.915C309.196 311.993 310.223 310.817 311.357 310.118C311.653 309.938 314.174 308.826 314.958 308.169C314.778 307.83 314.609 307.502 314.429 307.184C314.227 306.845 314.016 306.517 313.804 306.188C311.272 303.106 309.132 299.716 306.834 296.443C305.393 294.388 303.953 292.344 302.501 290.3C301.718 289.187 300.679 288.012 299.8 286.804C298.773 287.154 297.872 287.577 296.972 288.224C296.866 288.298 296.728 288.34 296.601 288.351C289.547 293.943 283.202 300.945 279.42 309.176C277.969 312.332 276.995 315.584 276.539 318.984C283.678 322.501 290.977 325.711 298.402 328.645C298.963 325.372 300.584 322.226 302.47 319.525L302.48 319.535Z" fill="#DFD1CF"/>
<path d="M298.424 328.655C290.999 325.732 283.701 322.512 276.561 318.995C276.466 319.747 276.381 320.51 276.339 321.283C276.212 323.486 276.582 325.594 276.678 327.723C276.699 327.808 276.72 327.903 276.752 327.988C278.415 328.507 280.089 329.005 281.752 329.534C287.461 331.325 293.16 333.115 298.859 334.916C298.149 332.839 298.085 330.721 298.435 328.655H298.424Z" fill="#A1A1A1"/>
<path d="M295.85 284.696C296.263 284.41 296.718 284.198 297.174 283.997C297.375 283.891 297.587 283.796 297.788 283.711C295.256 280.194 292.714 276.678 290.161 273.172C289.759 272.621 286.623 273.987 286.136 274.22C281.973 276.233 277.874 278.796 274.251 281.667C271.518 283.849 269.591 286.963 267.885 289.971C264.231 296.369 261.318 303.466 261 310.69C264.538 312.735 268.129 314.694 271.773 316.58C273.891 303.307 284.727 290.204 295.85 284.686V284.696Z" fill="#5FBCA9"/>
<path d="M271.784 316.59C268.151 314.716 264.56 312.756 261.012 310.701C260.906 313.01 261.065 315.33 261.562 317.65C262.399 319.821 263.3 321.961 264.179 324.101C266.774 324.895 269.369 325.711 271.964 326.505C271.255 323.264 271.255 319.916 271.784 316.58V316.59Z" fill="#327769"/>
<path d="M265.618 286.73C266.487 285.279 267.44 283.838 268.521 282.535C270.735 279.855 273.457 277.62 276.306 275.65C278.827 273.913 281.401 272.112 284.177 270.788C284.388 270.693 284.738 270.449 285.14 270.184C285.215 270.036 285.363 269.909 285.554 269.824C285.554 269.814 285.554 269.803 285.543 269.792C286.094 269.559 286.581 269.242 287.089 268.966C286.083 267.6 285.066 266.233 284.06 264.867C283.626 264.676 283.308 264.306 283.244 263.765C278.658 257.569 274.061 251.372 269.432 245.175C263.224 247.749 257.621 250.45 252.409 254.984C246.774 259.878 241.605 265.46 237.23 271.508C233.555 276.593 230.536 282.228 228.576 288.192C237.749 295.818 247.473 302.619 257.621 308.699C258.055 301.072 261.434 293.552 265.618 286.73Z" fill="#DFD1CF"/>
<path d="M257.621 308.699C247.473 302.619 237.749 295.818 228.576 288.192C227.443 291.645 226.659 295.204 226.32 298.848C225.981 302.375 225.356 306.453 226.214 309.928C226.352 310.468 226.5 311.411 226.818 312.089C226.945 312.375 227.104 312.608 227.305 312.756C227.676 313.031 228.862 313.021 229.339 313.116C231.934 313.646 234.498 314.387 237.019 315.203C242.029 316.823 246.923 318.804 251.954 320.351C254.835 321.23 257.716 322.12 260.598 322.999C260.523 322.745 260.449 322.49 260.375 322.236C258.13 317.766 257.367 313.211 257.632 308.699H257.621Z" fill="#BBBCBD"/>
<path d="M281.993 250.048C281.21 242.188 280.203 235.621 276.136 228.905C270.13 227.867 264.314 230.632 258.584 232.432C251.497 234.657 244.485 237.104 237.568 239.794C230.418 242.601 222.749 244.889 216.553 249.603C208.788 255.514 209.752 262.208 209.307 270.979C208.979 277.44 208.926 283.923 209.148 290.384C209.265 293.859 209.53 297.301 209.869 300.712C213.502 302.365 217.389 303.064 221.224 302.174C221.266 299.865 221.457 297.566 221.828 295.289C223.395 285.554 227.738 276.392 233.501 268.447C238.151 262.039 243.373 255.916 249.474 250.853C252.61 248.258 256.01 245.917 259.738 244.264C262.98 242.824 267.1 241.532 270.712 242.082C271.454 242.199 271.443 242.326 271.782 242.93C272.238 243.745 272.799 244.455 273.382 245.197C274.632 246.807 275.86 248.438 277.078 250.09C278.911 252.58 280.691 255.101 282.428 257.653C282.523 257.791 282.629 257.929 282.724 258.067C282.491 255.397 282.269 252.728 282.004 250.059L281.993 250.048Z" fill="#5FBCA9"/>
<path d="M209.871 300.712C210.464 306.57 211.301 312.375 212.117 318.222C212.477 320.806 212.837 323.412 213.165 326.018C213.769 330.795 215.803 331.96 220.697 330.498C224.595 329.333 228.111 327.119 231.808 325.467C234.467 324.27 237.052 322.967 239.583 321.569L238.513 321.241C235.717 320.383 232.878 319.705 230.092 318.836C228.853 318.455 227.709 317.957 226.533 317.459C225.347 316.961 224.277 316.76 223.387 315.732C223.249 315.574 223.133 315.404 223.016 315.245C222.201 313.963 222.18 312.417 221.915 310.934C221.608 309.218 221.406 307.47 221.3 305.733C221.226 304.547 221.226 303.36 221.247 302.174C217.413 303.074 213.526 302.365 209.892 300.712H209.871Z" fill="#327769"/>
<path d="M144.505 313.646C143.541 310.764 139.05 309.578 136.677 308.476C127.441 304.186 117.696 300.829 107.866 298.202L106.658 294.727L102.951 284.092C99.2751 273.521 95.5783 262.95 91.8286 252.399C88.0788 241.839 84.3078 231.299 80.5687 220.738C78.5349 214.987 76.713 208.822 72.8361 204.002C72.1688 203.165 71.3849 202.339 70.3469 202.064C69.044 201.725 67.6458 202.371 66.7348 203.356C65.5696 204.616 64.8599 206.438 64.2244 208.017C59.6272 219.404 55.1677 230.844 50.9519 242.379C46.7254 253.935 42.7321 265.577 39.0882 277.324C37.2663 283.192 35.5291 289.092 33.8979 295.013C33.739 295.596 33.5907 296.168 33.4424 296.74L31.7264 302.767C31.7264 302.767 31.7476 302.756 31.7476 302.746C31.6946 302.905 31.6522 303.064 31.5887 303.223C31.2074 304.292 30.8472 305.362 30.4765 306.432C22.7651 309.409 15.3927 313.01 8.44394 317.533C4.36581 320.181 -2.48758 323.92 0.880857 329.768C2.14137 331.95 4.42936 333.083 6.64321 334.036C11.251 336.017 16.0282 337.67 20.8055 339.184C30.6036 342.299 40.5182 345.042 50.3799 347.934C67.5928 352.976 83.5876 355.984 100.864 349.152C108.205 346.25 114.465 341.917 120.386 336.769C126.742 331.25 134.368 327.268 140.427 321.421C142.323 319.588 145.512 316.696 144.484 313.624L144.505 313.646ZM68.2919 207.911C68.4826 207.614 68.758 207.36 69.0652 207.212C69.2982 207.095 69.5524 207.042 69.8172 207.063C70.5163 207.137 71.0036 207.752 71.4061 208.334C73.5352 211.427 74.7004 214.955 75.9291 218.503C77.2532 222.338 78.1748 226.289 79.4353 230.134C79.3187 230.579 79.1916 231.013 79.0434 231.447C78.9798 231.596 78.9162 231.744 78.8633 231.903C78.8633 231.913 78.8633 231.935 78.8633 231.945C78.7573 232.252 78.6408 232.56 78.5243 232.856C77.5392 234.223 76.2999 235.24 74.8911 235.981C69.7643 238.322 61.9575 237.337 58.2078 234.668C58.0807 234.583 57.943 234.519 57.8053 234.466C57.9324 234.509 66.989 209.955 68.3131 207.911H68.2919ZM56.227 238.724C56.6083 237.697 60.8983 240.102 61.5656 240.303C64.9764 241.32 69.2029 240.832 72.6454 240.303C76.141 239.752 79.2658 238.343 81.2996 235.674C81.6491 236.691 81.9881 237.708 82.3376 238.735C82.2317 239.127 82.094 239.519 81.9563 239.9C81.9033 239.953 81.8398 239.996 81.7868 240.059C78.6408 243.894 76.5223 245.461 71.6603 246.044C69.563 246.298 67.4869 246.51 65.4319 246.605C61.5444 246.436 57.8688 245.493 54.3309 243.936C54.9559 242.199 55.602 240.472 56.2376 238.735L56.227 238.724ZM46.0899 267.727C46.8843 265.354 47.6788 262.971 48.4838 260.598C49.7655 256.817 51.2379 253.088 52.223 249.222C52.3713 248.851 52.4984 248.491 52.6573 248.12C52.8056 247.781 52.9751 247.453 53.1339 247.114C54.1296 247.357 56.513 248.745 56.8307 248.872C58.0701 249.37 59.6272 249.518 60.9301 249.741C63.8112 250.239 66.7454 250.535 69.6689 250.472C75.0288 250.355 80.9712 248.967 84.2231 244.328C86.1404 249.984 88.0682 255.651 89.9961 261.308C90.5575 262.96 91.1401 264.602 91.7015 266.244C91.6485 266.318 91.5849 266.382 91.532 266.456C89.8795 267.79 88.386 269.337 86.5429 270.534C82.9838 272.843 79.1069 274.326 74.944 275.184C66.0675 277.006 56.6719 276.021 47.986 273.638C47.8906 273.532 47.7847 273.447 47.6576 273.404C46.6089 273.055 45.7297 272.578 44.84 271.964C45.2955 270.545 45.6344 269.019 46.0687 267.727H46.0899ZM39.5649 287.8C40.8784 283.669 42.213 279.538 43.5583 275.417C43.7489 275.534 43.9502 275.65 44.1515 275.745C44.5858 276 45.02 276.243 45.4967 276.402C59.2882 283.542 82.4012 283.33 93.3433 270.968C94.2331 273.532 95.1123 276.106 96.002 278.669C94.7945 280.65 93.5975 282.631 92.337 284.59C85.8014 291.889 75.9291 294.717 66.2687 295.829C62.8367 296.221 59.1823 296.517 55.8033 295.596C51.3438 294.378 46.8526 292.588 42.7744 290.416C42.2978 290.162 39.3424 288.435 39.5543 287.789L39.5649 287.8ZM36.0693 298.954C36.4719 298.583 36.5778 298.106 36.4824 297.64C36.9909 296.02 37.4887 294.388 37.9972 292.768C38.5162 293.011 39.067 293.223 39.5755 293.53C39.5755 293.53 39.5861 293.509 39.5967 293.499C39.7767 293.605 39.9568 293.647 40.1263 293.615C40.5712 293.785 40.9737 293.933 41.1855 294.039C43.8972 295.501 46.8632 296.517 49.7549 297.524C53.028 298.668 56.4388 299.526 59.9132 299.738C61.608 299.844 63.324 299.759 65.0082 299.6C77.6981 298.562 90.621 294.823 96.7541 282.853C96.913 282.641 97.0825 282.429 97.2414 282.228C98.2371 285.067 99.2222 287.916 100.207 290.766C101.934 295.744 103.226 300.86 104.879 305.86C105.715 308.381 106.626 310.87 107.728 313.286C107.929 313.73 108.65 314.684 108.639 315.139C108.639 315.383 108.533 315.648 108.385 315.923C108.025 316.58 107.357 317.258 106.997 317.681C104.709 320.435 101.034 322.332 97.9934 324.143C89.4241 329.248 79.4035 331.431 69.4889 331.494C62.0317 331.536 54.458 330.668 47.1915 329.005C40.4547 327.469 34.9677 324.556 29.216 321.06C30.5612 316.675 31.9171 312.3 33.2729 307.915C33.2729 307.915 33.2835 307.915 33.2941 307.915C33.9296 307.64 34.0038 306.941 33.7496 306.39C34.5122 303.911 35.2749 301.422 36.0481 298.943L36.0693 298.954ZM136.444 320.033C133.341 322.819 129.782 325.043 126.371 327.437C119.804 332.045 114.274 337.966 107.325 342.034C99.5188 346.599 90.5892 349.332 81.5538 349.872C72.6348 350.402 64.3409 348.389 55.8456 345.921C46.2276 343.125 36.5884 340.36 26.9915 337.479C22.7969 336.218 18.6234 334.894 14.5029 333.433C12.3844 332.691 8.96298 332.066 7.2258 330.583C1.13508 325.393 6.17714 323.423 9.39727 321.198C15.7316 316.813 22.4685 313 29.4384 309.716C29.1842 310.489 28.93 311.252 28.6863 312.025C28.072 313.974 27.4894 315.934 26.928 317.893C26.6631 318.804 26.4301 319.673 26.0382 320.52C25.7522 321.145 25.6357 321.219 25.9852 321.887C27.68 325.117 31.1544 327.67 34.2262 329.439C37.7641 331.473 41.6622 332.839 45.6132 333.824C53.314 335.763 61.3326 336.356 69.2452 336.314C79.0645 336.271 89.0109 334.365 97.8028 329.873C100.917 328.285 103.862 326.367 106.552 324.143C107.897 323.031 109.179 321.834 110.387 320.573C111.425 319.493 112.654 318.55 113.204 317.141C113.278 316.951 113.342 316.76 113.384 316.559C113.692 315.224 113.215 314.249 112.918 312.999C112.622 311.75 112.346 310.542 111.923 309.313C111.171 307.131 110.334 304.992 109.529 302.831C117.854 305.002 125.905 307.788 133.828 311.273C135.078 311.824 139.304 312.978 139.749 314.006C140.692 316.156 137.758 318.878 136.466 320.044L136.444 320.033Z" fill="#202020"/>
<path d="M78.5034 232.867C78.6305 232.57 78.7364 232.263 78.8423 231.956C78.8423 231.945 78.8423 231.924 78.8423 231.913C78.8953 231.755 78.9483 231.606 79.0224 231.458C79.1707 231.024 79.2978 230.589 79.4143 230.145C78.1538 226.299 77.2323 222.338 75.9082 218.514C75.1032 216.184 74.3193 213.874 73.2812 211.682C74.7854 219.043 76.173 226.501 77.5818 233.968C77.8996 233.629 78.2068 233.28 78.4928 232.888L78.5034 232.867Z" fill="#327769"/>
<path d="M73.2915 211.671C72.7407 210.517 72.1264 209.404 71.3955 208.334C70.993 207.762 70.5057 207.137 69.8066 207.063C69.5418 207.032 69.2875 207.095 69.0545 207.212C68.7473 207.36 68.4719 207.625 68.2813 207.911C66.9572 209.955 57.9005 234.519 57.7734 234.466C57.9111 234.519 58.0488 234.583 58.176 234.668C61.9257 237.337 69.743 238.333 74.8592 235.981C75.8655 235.451 76.7871 234.773 77.5815 233.937C76.1727 226.469 74.7851 219.012 73.2809 211.65L73.2915 211.671Z" fill="#5FBCA9"/>
<path d="M78.4184 238.258C76.7342 239.307 74.764 239.964 72.6454 240.292C69.2029 240.832 64.9764 241.32 61.5656 240.292C60.8983 240.091 56.6083 237.686 56.227 238.714C55.5914 240.451 54.9453 242.178 54.3203 243.915C57.8688 245.472 61.5444 246.415 65.4213 246.584C67.4869 246.489 69.5524 246.266 71.6497 246.023C75.1347 245.61 77.2214 244.667 79.2764 242.75C78.9798 241.246 78.6938 239.752 78.4078 238.248L78.4184 238.258Z" fill="#DFD1CF"/>
<path d="M81.7747 240.049C81.8276 239.985 81.8912 239.943 81.9442 239.89C82.0925 239.508 82.2302 239.116 82.3255 238.724C81.9759 237.708 81.637 236.691 81.2874 235.663C80.4824 236.722 79.5079 237.57 78.4062 238.258C78.6922 239.763 78.9782 241.256 79.2748 242.76C80.0799 242.008 80.8849 241.129 81.7747 240.049Z" fill="#A1A1A1"/>
<path d="M86.5543 270.545C88.3974 269.348 89.891 267.801 91.5434 266.466C91.5964 266.392 91.6599 266.329 91.7129 266.255C91.1409 264.602 90.5689 262.96 90.0075 261.318C88.0796 255.662 86.1624 249.995 84.2345 244.339C83.1753 245.853 81.8194 247.018 80.3047 247.908C81.883 255.726 83.5884 263.5 85.5904 271.138C85.9082 270.947 86.2365 270.756 86.5543 270.545Z" fill="#327769"/>
<path d="M80.3032 247.898C77.1678 249.741 73.2909 250.397 69.6789 250.472C66.7553 250.535 63.8212 250.249 60.94 249.741C59.6265 249.508 58.0694 249.37 56.8407 248.872C56.5229 248.745 54.1396 247.357 53.1439 247.114C52.9744 247.453 52.8155 247.792 52.6672 248.12C52.5083 248.48 52.3706 248.851 52.2329 249.222C51.2372 253.088 49.7754 256.817 48.4937 260.598C47.6887 262.971 46.8943 265.344 46.0998 267.727C45.6655 269.019 45.3266 270.545 44.8711 271.964C45.7609 272.578 46.6401 273.055 47.6887 273.404C47.8158 273.447 47.9218 273.532 48.0171 273.638C56.6924 276.031 66.0986 277.006 74.9751 275.184C78.7567 274.411 82.3158 273.097 85.6101 271.127C83.6081 263.49 81.9027 255.715 80.3244 247.898H80.3032Z" fill="#5FBCA9"/>
<path d="M92.3478 284.601C93.6083 282.641 94.7947 280.65 96.0128 278.68C95.1231 276.116 94.2439 273.542 93.3541 270.979C91.5322 273.044 89.3607 274.75 86.9668 276.159C87.9731 279.718 89.0535 283.245 90.2187 286.719C90.9602 286.052 91.6805 285.364 92.3584 284.601H92.3478Z" fill="#A1A1A1"/>
<path d="M86.9556 276.159C74.9543 283.203 56.9893 282.366 45.4964 276.413C45.0197 276.243 44.5854 276.01 44.1511 275.756C43.9499 275.661 43.7486 275.544 43.5579 275.428C42.2127 279.548 40.878 283.669 39.5645 287.81C39.3633 288.457 42.308 290.183 42.7847 290.437C46.8628 292.609 51.3541 294.41 55.8135 295.617C59.182 296.539 62.8364 296.242 66.279 295.85C74.9331 294.854 83.7673 292.471 90.2076 286.73C89.0424 283.256 87.9619 279.728 86.9556 276.169V276.159Z" fill="#DFD1CF"/>
<path d="M107.007 317.681C107.368 317.258 108.035 316.58 108.395 315.923C108.543 315.648 108.639 315.383 108.649 315.139C108.649 314.684 107.94 313.73 107.738 313.286C106.637 310.87 105.715 308.381 104.889 305.86C103.236 300.86 101.944 295.744 100.218 290.766C99.2324 287.916 98.2367 285.078 97.2516 282.228C97.0927 282.44 96.9232 282.652 96.7644 282.853C95.3132 285.681 93.4701 288.043 91.3516 290.024C95.0166 300.32 99.5502 310.161 105.376 319.323C105.969 318.804 106.531 318.275 107.007 317.681Z" fill="#327769"/>
<path d="M91.3405 290.024C84.5083 296.422 74.6996 298.816 65.0074 299.6C63.3232 299.748 61.5966 299.833 59.9124 299.738C56.4486 299.526 53.0272 298.657 49.7541 297.524C46.8623 296.517 43.8858 295.501 41.1847 294.039C40.9835 293.933 40.581 293.785 40.1255 293.615C39.956 293.647 39.7759 293.605 39.5959 293.499C39.5959 293.499 39.5853 293.52 39.5747 293.53C39.0662 293.223 38.5154 293.022 37.9964 292.768C37.4879 294.388 36.9901 296.02 36.4816 297.64C36.577 298.106 36.4816 298.583 36.0685 298.954C35.2953 301.432 34.5326 303.922 33.7699 306.4C34.0242 306.951 33.95 307.65 33.3145 307.926C33.3145 307.926 33.3039 307.926 33.2933 307.926C31.9374 312.3 30.5816 316.675 29.2363 321.071C34.9881 324.556 40.475 327.48 47.2119 329.015C54.489 330.668 62.0521 331.547 69.5092 331.505C79.4239 331.441 89.4338 329.259 98.0138 324.153C100.408 322.723 103.183 321.23 105.376 319.323C99.5497 310.171 95.0161 300.32 91.3511 290.024H91.3405Z" fill="#5FBCA9"/>
<path d="M80.76 335.339C76.9467 335.975 73.0804 336.293 69.2247 336.303C61.3121 336.335 53.2829 335.742 45.5927 333.814C41.6417 332.818 37.7543 331.462 34.2057 329.429C31.1233 327.66 27.649 325.096 25.9647 321.876C25.6152 321.209 25.7317 321.135 26.0177 320.51C26.4096 319.662 26.6427 318.783 26.9075 317.883C27.4689 315.923 28.0621 313.963 28.6658 312.014C28.9095 311.241 29.1637 310.478 29.4179 309.705C22.448 313 15.7111 316.813 9.37679 321.188C6.16724 323.412 1.12519 325.382 7.20531 330.573C8.94249 332.056 12.3745 332.68 14.4824 333.422C18.6135 334.884 22.787 336.208 26.971 337.468C36.5679 340.349 46.2071 343.114 55.8252 345.911C64.3204 348.379 72.6144 350.391 81.5333 349.862C90.5687 349.321 99.4983 346.599 107.305 342.023C110.345 340.244 113.11 338.104 115.811 335.879C104.742 338.665 92.3483 338.21 80.7389 335.339H80.76Z" fill="#DFD1CF"/>
<path d="M136.443 320.022C137.735 318.868 140.669 316.135 139.727 313.985C139.271 312.957 135.045 311.803 133.805 311.252C125.882 307.756 117.832 304.981 109.506 302.809C110.311 304.97 111.148 307.11 111.9 309.292C112.324 310.521 112.599 311.728 112.896 312.978C113.192 314.228 113.669 315.203 113.362 316.537C113.319 316.739 113.256 316.94 113.182 317.12C112.631 318.529 111.391 319.472 110.364 320.552C109.156 321.813 107.875 323.009 106.53 324.122C103.839 326.346 100.894 328.263 97.7801 329.852C92.4414 332.585 86.6685 334.344 80.7578 335.329C92.3673 338.199 104.761 338.665 115.83 335.869C119.304 333.009 122.673 330.011 126.369 327.416C129.77 325.022 133.339 322.798 136.443 320.012V320.022Z" fill="#A1A1A1"/>
</g>
<defs>
<clipPath id="clip0_1761_4102">
<rect width="342.32" height="357.52" fill="white"/>
</clipPath>
</defs>
</svg>
