<svg width="29" height="32" viewBox="0 0 29 32" fill="none" xmlns="http://www.w3.org/2000/svg">
<g clip-path="url(#clip0_1753_1701)">
<path fill-rule="evenodd" clip-rule="evenodd" d="M15.1917 20.0929L22.9201 23.2522L21.4803 24.3683L15.4382 21.8984L10.2792 25.8974L8.59295 25.2081L15.1917 20.0929ZM16.5206 29.8272L27.4722 21.3381L25.5891 7.544L12.7629 2.30089L1.81134 10.79L3.69443 24.5841L16.5206 29.8272ZM17.9829 19.8555L25.2168 14.2473L24.9703 12.4418L16.2929 19.1649L17.9829 19.8555ZM13.8804 19.4942L3.72027 15.3427L3.96674 17.1483L12.4391 20.6123L13.8821 19.494L13.8804 19.4942ZM4.16627 18.6099L4.41275 20.4154L9.83496 22.6301L11.2748 21.5139L4.16627 18.6099ZM14.9835 18.5677L3.52121 13.8846L3.27238 12.0619L14.7371 16.7622L24.5224 9.16095L24.7712 10.9837L14.9835 18.5677ZM23.7255 8.16098L14.5373 15.2989L3.77206 10.8849L5.19906 9.77753L14.2882 13.4744L22.0539 7.4766L23.7255 8.16098ZM19.3463 20.4121L21.0326 21.1014L25.6628 17.5144L25.4163 15.7089L19.3463 20.4121ZM4.61204 21.8753L4.85876 23.6825L7.22761 24.65L8.66914 23.5336L4.61204 21.8753ZM11.6426 26.454L13.3326 27.1446L15.8859 25.1653L18.8764 26.3878L20.3194 25.2695L15.641 23.3578L11.6461 26.4535L11.6426 26.454ZM22.3996 21.6592L24.0876 22.3484L26.1105 20.7813L25.8638 18.9741L22.3996 21.6592ZM14.0909 12.016L6.3651 8.87567L7.80344 7.76149L13.8389 10.234L13.8453 10.2297L13.8526 10.2322L19.0045 6.2324L20.6888 6.92029L14.0892 12.0163L14.0909 12.016ZM13.6489 8.77815L8.96753 6.85816L10.4073 5.74202L13.3951 6.9964L13.4047 6.98983L13.4158 6.99358L15.958 4.98428L17.6443 5.67366L13.6489 8.77815ZM13.2059 5.53339L11.5653 4.84478L12.9639 3.76055L14.602 4.43023L13.2059 5.53339ZM14.696 27.7012L16.085 26.6235L17.7121 27.2894L16.323 28.3671L14.696 27.7012Z" fill="#202020"/>
</g>
<defs>
<clipPath id="clip0_1753_1701">
<rect width="24" height="27.7816" fill="white" transform="translate(0.874023 3.92389) rotate(-7.77361)"/>
</clipPath>
</defs>
</svg>
