<svg width="65" height="74" viewBox="0 0 65 74" fill="none" xmlns="http://www.w3.org/2000/svg">
<path d="M42.3016 5.6575L39.8493 7.07248L37.3994 8.48747L34.9495 7.07248V26.8799L32.4972 28.2948L30.0474 26.8799V7.07248L27.5975 8.48747L25.1476 7.07248L22.6953 5.6575L23.9632 4.92671L25.1476 4.24496L27.5975 2.82752L30.0474 1.41499L32.4972 0L34.9495 1.41499L37.3994 2.82752L39.8493 4.24496L41.0337 4.92671L42.3016 5.6575Z" fill="black"/>
<path d="M64.3563 18.3924V35.3698V38.1998V55.1771L61.9039 56.5921L59.4565 58.0071L58.0121 58.8384L57.0042 59.4221L55.9963 58.8384L54.5544 58.0071L52.1045 56.5921L54.5544 55.1771L56.7001 53.9387H57.3083L57.0042 53.7621L52.1045 50.9322L49.6522 49.5172L48.8208 49.0365L47.2023 48.1022L44.7524 46.6872L42.3026 45.2722L40.3309 44.1368L39.8503 43.8572L37.4004 42.4423L39.8503 41.0273L42.3026 39.6147L49.6522 43.8572L50.1328 44.1368L52.1045 45.2722L54.5544 46.6872L57.0042 48.1022L58.6227 49.0365L59.4565 49.5172V24.0524L58.6227 24.533L57.0042 25.4673L55.3881 24.533L54.5544 24.0524L52.1045 22.6374L57.0042 19.8074L57.3083 19.6308H56.7001L54.5544 18.3924L52.1045 16.9774L54.5544 15.5624L55.9963 14.7311L57.0042 14.1475L58.0121 14.7311L59.4565 15.5624L61.9039 16.9774L64.3563 18.3924Z" fill="black"/>
<path d="M42.3016 67.9095L41.0362 68.6403H41.0337L41.0313 68.6427L39.8493 69.3245L37.3994 70.7395L34.9495 72.1545L32.4997 73.5694H32.4972L30.0474 72.1545L27.5975 70.7395L25.1476 69.3245L23.9632 68.6427L23.9607 68.6403L22.6953 67.9095L25.1476 66.497L27.5975 65.0795L30.0474 66.497V44.1367H30.528L32.4972 45.2721L34.4689 44.1367H34.9495V66.497L37.3994 65.0795L39.8493 66.497L42.3016 67.9095Z" fill="black"/>
<path d="M47.2026 31.1249L44.7528 32.5399L42.3029 33.9549L41.6432 34.335L39.8506 35.3699L37.4007 36.7848L34.9508 38.1998L33.1582 39.2347H31.8413L30.0487 38.1998L27.5988 36.7848L25.1489 35.3699L23.3563 34.335L22.6966 33.9549L20.2467 32.5399L17.7969 31.1249L20.2467 29.7099L20.7274 29.4328L22.6966 28.2949L24.6683 29.4328L25.1489 29.7099L27.5988 31.1249L30.0487 32.5399L32.4985 33.9549L34.9508 32.5399L37.4007 31.1249L39.8506 29.7099L40.3312 29.4328L42.3029 28.2949L44.2721 29.4328L44.7528 29.7099L47.2026 31.1249Z" fill="black"/>
<path d="M27.5985 42.4423L25.1486 43.8572L24.6679 44.1368L22.6963 45.2722L20.2464 46.6872L17.7965 48.1022L16.178 49.0365L15.3442 49.5172L12.8944 50.9322L10.4445 52.3472L7.99463 53.7621L7.69054 53.9387H8.29871L10.4445 55.1771L12.8944 56.5921L10.4445 58.0046L9.00253 58.8384L7.99463 59.4221L6.98673 58.8384L5.54476 58.0071L3.0949 56.5921L0.642578 55.1771V18.3924L5.54476 15.5624L6.98673 14.7311L7.99463 14.1475L9.00253 14.7311L10.4445 15.5624L12.8944 16.9774L10.4445 18.39L8.29871 19.6308H7.69054L7.99463 19.8074L10.4445 21.2224L12.8944 22.6374L10.4445 24.0499L9.61071 24.533L7.99463 25.4673L6.3761 24.533L5.54476 24.0524V49.5172L6.3761 49.0365L7.99463 48.1022L10.4445 46.6872L12.8944 45.2722L14.866 44.1368L15.3442 43.8572L22.6963 39.6147L25.1486 41.0273L27.5985 42.4423Z" fill="black"/>
</svg>
