<svg width="24" height="11" viewBox="0 0 24 11" fill="none" xmlns="http://www.w3.org/2000/svg">
<path d="M23.861 5.14003L18.5278 0.27884C18.3796 0.158489 18.2176 0.135333 18.0416 0.209421C17.8659 0.283607 17.7776 0.417774 17.7776 0.612311V3.72344H0.444434C0.314742 3.72344 0.208207 3.76504 0.124973 3.84837C0.0417873 3.93165 0 4.03819 0 4.16778V6.83438C0 6.96393 0.0415927 7.07046 0.124924 7.15365C0.208353 7.23693 0.314888 7.27852 0.444385 7.27852H17.7777V10.3896C17.7777 10.575 17.8661 10.7092 18.0418 10.7923C18.2179 10.8667 18.3799 10.8386 18.5281 10.7092L23.8613 5.79218C23.9538 5.69966 24 5.58874 24 5.459C24 5.33894 23.9535 5.2326 23.861 5.14003Z" fill="black"/>
</svg>
