<svg width="17" height="16" viewBox="0 0 17 16" fill="none" xmlns="http://www.w3.org/2000/svg">
<path d="M16.2997 8.94986L9.64422 15.6053C9.1193 16.1303 8.26795 16.1303 7.74303 15.6053C7.21811 15.0804 7.21811 14.2291 7.74303 13.7041L13.4473 7.99993L7.74303 2.29575C7.21811 1.77083 7.21811 0.919486 7.74303 0.394562C8.26795 -0.130362 9.1193 -0.130362 9.64422 0.394562L16.2997 7.05C16.8246 7.57362 16.8246 8.42494 16.2997 8.94986ZM8.29726 9.35288L3.01341 14.9218C2.48247 15.4807 1.6225 15.4807 1.09156 14.9218C0.560625 14.363 0.560625 13.4563 1.09156 12.8968L5.41485 8.34034L1.09156 3.78391C0.560625 3.22501 0.560625 2.31774 1.09156 1.75883C1.6225 1.19992 2.48247 1.19992 3.01341 1.75883L8.29726 7.3278C8.8282 7.88668 8.8282 8.79332 8.29726 9.35288Z" fill="#364557"/>
</svg>
