<svg width="16" height="17" viewBox="0 0 16 17" fill="none" xmlns="http://www.w3.org/2000/svg">
<path d="M5.00024 13.2218H2.81274V6.1593H5.00024V13.2218ZM5.21851 3.90918C5.21851 3.20203 4.64478 2.62805 3.93799 2.62805C3.22852 2.62805 2.65625 3.20203 2.65625 3.90918C2.65625 4.61658 3.22852 5.19055 3.93799 5.19055C4.64478 5.19055 5.21851 4.61658 5.21851 3.90918ZM13.1875 9.3363C13.1875 7.44043 12.787 6.0343 10.5723 6.0343C9.50806 6.0343 8.7937 6.56653 8.50208 7.12H8.5V6.1593H6.375V13.2218H8.5V9.71521C8.5 8.79688 8.73376 7.90723 9.87207 7.90723C10.9949 7.90723 11.0312 8.9574 11.0312 9.77356V13.2218H13.1875V9.3363ZM16 14.1281V1.87805C16 0.844116 15.1589 0.00305176 14.125 0.00305176H1.875C0.841064 0.00305176 0 0.844116 0 1.87805V14.1281C0 15.162 0.841064 16.0031 1.875 16.0031H14.125C15.1589 16.0031 16 15.162 16 14.1281ZM14.125 1.25305C14.4696 1.25305 14.75 1.53345 14.75 1.87805V14.1281C14.75 14.4727 14.4696 14.7531 14.125 14.7531H1.875C1.5304 14.7531 1.25 14.4727 1.25 14.1281V1.87805C1.25 1.53345 1.5304 1.25305 1.875 1.25305H14.125Z" fill="#212A36"/>
</svg>
