<svg width="16" height="17" viewBox="0 0 16 17" fill="none" xmlns="http://www.w3.org/2000/svg">
<path d="M9.59863 1.10143L6.34653 4.3535C6.34025 4.35975 6.33634 4.36734 6.33009 4.37366C7.13125 4.25697 7.95429 4.33697 8.71723 4.63447L10.9244 2.42728C11.6556 1.69606 12.8449 1.69606 13.5761 2.42728C14.3073 3.15843 14.3073 4.34772 13.5761 5.07888C13.4514 5.20363 10.136 8.51904 10.324 8.33095C9.58701 9.06801 8.37788 9.03648 7.67235 8.33095C7.30694 7.96554 6.712 7.96554 6.34653 8.33095L5.77734 8.90014C5.93522 9.16839 6.11622 9.42651 6.34653 9.65683C7.73529 11.0456 10.1257 11.1565 11.6297 9.67326C11.636 9.66701 11.6435 9.66308 11.6499 9.65683L14.9019 6.40476C16.3664 4.94025 16.3664 2.56593 14.9019 1.10143C13.4374 -0.363074 11.0631 -0.363074 9.59863 1.10143Z" fill="#212A36"/>
<path d="M7.29015 11.3646L5.07583 13.5789C4.34467 14.3101 3.15539 14.3101 2.42423 13.5789C1.69301 12.8477 1.69301 11.6584 2.42423 10.9272C2.54892 10.8025 5.87143 7.48002 5.6834 7.66805C6.4204 6.93105 7.62953 6.96251 8.33506 7.66805C8.70047 8.03352 9.29544 8.03352 9.66087 7.66805L10.2301 7.09886C10.0722 6.83061 9.89119 6.57248 9.66087 6.34223C8.27478 4.95607 5.88608 4.83813 4.37771 6.32576C4.37142 6.33201 4.36386 6.33595 4.35755 6.34223L1.09835 9.60143C-0.366087 11.0659 -0.366149 13.4402 1.09835 14.9048C2.56286 16.3692 4.93724 16.3692 6.40168 14.9048L9.66084 11.6455C9.66712 11.6393 9.67103 11.6317 9.67728 11.6254C8.87612 11.7421 8.05312 11.6621 7.29015 11.3646Z" fill="#212A36"/>
</svg>
