<svg width="16" height="15" viewBox="0 0 16 15" fill="none" xmlns="http://www.w3.org/2000/svg">
<path d="M15.9293 2.39944C15.8347 2.24466 15.6616 2.15693 15.4815 2.17265L14.6836 2.24256L15.4462 0.696289C15.537 0.512125 15.5012 0.290242 15.357 0.144488C15.2129 -0.00126494 14.9925 -0.0384184 14.809 0.051982L12.7906 1.04623C11.5436 0.384068 9.98572 0.580616 8.91371 1.56286C8.01902 2.38262 7.54874 3.64329 7.63643 4.90047C5.29801 4.66472 3.31863 3.31843 2.14819 1.1431C2.07053 0.998796 1.92494 0.904404 1.76222 0.892805C1.59919 0.881395 1.44212 0.954068 1.34506 1.08599C0.619121 2.07241 0.568184 3.42489 1.13728 4.53758C0.980404 4.49772 0.813466 4.44378 0.62834 4.38158C0.469746 4.32824 0.294901 4.3624 0.16762 4.47154C0.0403379 4.58067 -0.0208498 4.74887 0.00636902 4.91487C0.231557 6.28809 1.02769 7.34348 2.28531 7.96817C2.12156 8.02553 1.95447 8.07212 1.78456 8.10773C1.61575 8.14312 1.47906 8.26735 1.42703 8.43271C1.375 8.59805 1.41569 8.77879 1.5335 8.90543C2.43916 9.87915 3.74741 10.3584 4.67667 10.5883C3.6201 11.4205 2.47957 11.5598 0.822247 11.5026C0.630403 11.4967 0.453652 11.6054 0.372995 11.7804C0.29237 11.9553 0.323651 12.1618 0.452496 12.3047C1.14337 13.0707 3.66044 13.9344 6.30645 13.9991C6.41111 14.0017 6.51786 14.0031 6.62686 14.0031C8.48471 14.003 10.9401 13.6024 12.7025 11.8297C14.0365 10.488 14.8708 8.94337 15.1824 7.2389C15.434 5.86225 15.275 4.75984 15.1985 4.23001C15.1929 4.19107 15.1869 4.14973 15.182 4.11358L15.9283 2.90374C16.0235 2.74941 16.0239 2.55421 15.9293 2.39944ZM14.2541 4.36781C14.3957 5.34926 14.8265 8.33587 12.0277 11.151C10.4008 12.7874 8.03121 13.0812 6.32964 13.0396C4.87773 13.0041 3.57904 12.7248 2.63778 12.4062C3.01994 12.3591 3.36051 12.2864 3.68198 12.1859C4.5682 11.9088 5.31689 11.4102 6.03808 10.6169C6.1583 10.4847 6.19524 10.2961 6.13395 10.1279C6.07267 9.95968 5.9233 9.8398 5.74661 9.81704C5.29164 9.75839 3.92457 9.52692 2.84807 8.78001C3.15829 8.6524 3.45748 8.49269 3.74316 8.30208C3.89988 8.19747 3.98095 8.01007 3.95007 7.82345C3.91923 7.63687 3.78232 7.48584 3.60038 7.43787C2.71929 7.20552 1.65591 6.68562 1.16556 5.52504C1.47869 5.58023 1.81916 5.59359 2.18228 5.51171C2.3506 5.4738 2.48547 5.34744 2.53497 5.18123C2.5845 5.01501 2.541 4.83484 2.42119 4.71005C1.81106 4.07442 1.58291 3.15841 1.77866 2.37457C2.41972 3.31695 3.23188 4.11006 4.16238 4.69644C5.35273 5.44658 6.74205 5.86115 8.18021 5.89519C8.32656 5.8983 8.46693 5.83405 8.56012 5.72001C8.65324 5.60601 8.68906 5.45522 8.65721 5.31117C8.40977 4.19232 8.76268 2.99958 9.55631 2.27245C10.3794 1.51822 11.596 1.40381 12.5146 1.99439C12.6549 2.08457 12.8319 2.09466 12.9814 2.02099L13.9671 1.53541L13.4512 2.58152C13.3745 2.73696 13.3873 2.92191 13.4845 3.06521C13.5817 3.20851 13.7479 3.28807 13.92 3.27289L14.6151 3.212L14.2949 3.73111C14.1875 3.90534 14.2097 4.05993 14.2541 4.36781Z" fill="#212A36"/>
</svg>
