<svg width="16" height="17" viewBox="0 0 16 17" fill="none" xmlns="http://www.w3.org/2000/svg">
<path d="M15.9593 4.70496C15.9218 3.85465 15.7843 3.27007 15.5874 2.76353C15.3842 2.22584 15.0715 1.74445 14.662 1.34427C14.2618 0.937865 13.7772 0.622068 13.2458 0.422039C12.7363 0.225063 12.1548 0.0875585 11.3044 0.0500683C10.4478 0.00940306 10.1758 0 8.00311 0C5.83039 0 5.55844 0.00940306 4.70496 0.0468932C3.85465 0.0843834 3.27007 0.22201 2.76365 0.418864C2.22584 0.622068 1.74445 0.93469 1.34427 1.34427C0.937865 1.74445 0.62219 2.22902 0.422039 2.76047C0.225063 3.27007 0.0875585 3.85147 0.0500683 4.70178C0.00940306 5.55844 0 5.83039 0 8.00311C0 10.1758 0.00940306 10.4478 0.0468932 11.3013C0.0843834 12.1516 0.22201 12.7362 0.418986 13.2427C0.62219 13.7804 0.937865 14.2618 1.34427 14.662C1.74445 15.0684 2.22902 15.3842 2.76047 15.5842C3.27007 15.7812 3.85147 15.9187 4.7019 15.9562C5.55526 15.9938 5.82734 16.0031 8.00006 16.0031C10.1728 16.0031 10.4447 15.9938 11.2982 15.9562C12.1485 15.9187 12.7331 15.7812 13.2395 15.5842C14.315 15.1684 15.1653 14.3181 15.5811 13.2427C15.778 12.7331 15.9156 12.1516 15.9531 11.3013C15.9906 10.4478 16 10.1758 16 8.00311C16 5.83039 15.9968 5.55844 15.9593 4.70496ZM14.5182 11.2387C14.4838 12.0203 14.3525 12.4423 14.2431 12.7237C13.9742 13.4209 13.4209 13.9742 12.7237 14.2431C12.4423 14.3525 12.0172 14.4838 11.2387 14.5181C10.3947 14.5557 10.1415 14.565 8.00629 14.565C5.87106 14.565 5.61473 14.5557 4.77371 14.5181C3.99215 14.4838 3.57011 14.3525 3.28876 14.2431C2.94182 14.1149 2.62602 13.9117 2.3697 13.6459C2.10397 13.3864 1.90076 13.0738 1.77254 12.7269C1.66312 12.4455 1.53185 12.0203 1.49753 11.2419C1.45992 10.3978 1.45064 10.1446 1.45064 8.00934C1.45064 5.87411 1.45992 5.61779 1.49753 4.77688C1.53185 3.99533 1.66312 3.57329 1.77254 3.29193C1.90076 2.94487 2.10397 2.6292 2.37287 2.37275C2.63225 2.10702 2.94487 1.90382 3.29193 1.77572C3.57329 1.6663 3.9985 1.53502 4.77688 1.50058C5.62096 1.46309 5.87423 1.45369 8.00934 1.45369C10.1477 1.45369 10.4009 1.46309 11.2419 1.50058C12.0235 1.53502 12.4455 1.6663 12.7269 1.77572C13.0738 1.90382 13.3896 2.10702 13.6459 2.37275C13.9117 2.63225 14.1149 2.94487 14.2431 3.29193C14.3525 3.57329 14.4838 3.99838 14.5182 4.77688C14.5557 5.62096 14.5651 5.87411 14.5651 8.00934C14.5651 10.1446 14.5557 10.3947 14.5182 11.2387Z" fill="#212A36"/>
<path d="M8.00355 3.89209C5.73399 3.89209 3.89258 5.73338 3.89258 8.00306C3.89258 10.2727 5.73399 12.114 8.00355 12.114C10.2732 12.114 12.1145 10.2727 12.1145 8.00306C12.1145 5.73338 10.2732 3.89209 8.00355 3.89209ZM8.00355 10.6698C6.53118 10.6698 5.33687 9.47556 5.33687 8.00306C5.33687 6.53057 6.53118 5.33638 8.00355 5.33638C9.47605 5.33638 10.6702 6.53057 10.6702 8.00306C10.6702 9.47556 9.47605 10.6698 8.00355 10.6698Z" fill="#212A36"/>
<path d="M13.236 3.72962C13.236 4.25961 12.8062 4.68935 12.2761 4.68935C11.7461 4.68935 11.3164 4.25961 11.3164 3.72962C11.3164 3.19951 11.7461 2.7699 12.2761 2.7699C12.8062 2.7699 13.236 3.19951 13.236 3.72962Z" fill="#212A36"/>
</svg>
