<svg width="32" height="28" viewBox="0 0 32 28" fill="none" xmlns="http://www.w3.org/2000/svg">
<path d="M31.8153 10.0466C31.7613 9.88141 31.6254 9.75616 31.4564 9.71572C31.2872 9.67529 31.1094 9.7256 30.9865 9.84847L28.9267 11.9083L27.8803 11.6279L27.5999 10.5815L29.6598 8.52172C29.7827 8.39885 29.8329 8.22097 29.7925 8.05191C29.752 7.88285 29.6269 7.74697 29.4617 7.69291C28.1337 7.2586 26.6955 7.60197 25.7085 8.58922C24.7369 9.56073 24.3927 10.9738 24.7887 12.2693L18.9023 18.1557L18.3815 17.6348C17.9783 17.2316 17.3418 17.2015 16.9026 17.5431L10.4162 11.0567L9.87511 9.59447C9.83673 9.49079 9.76505 9.40279 9.67136 9.34416L7.03773 7.69641C6.8403 7.57285 6.58367 7.6021 6.41898 7.76672L4.9828 9.20291C4.81811 9.3676 4.78892 9.62422 4.91248 9.82166L6.5603 12.4552C6.61892 12.549 6.70698 12.6206 6.81067 12.659L8.27292 13.2001L14.7589 19.6861C14.638 19.8412 14.5619 20.0225 14.5347 20.2125C14.0623 20.3941 13.6232 20.6745 13.2497 21.0481C12.2626 22.0352 11.9191 23.4734 12.3533 24.8012C12.4073 24.9664 12.5432 25.0917 12.7122 25.1321C12.8812 25.1725 13.0591 25.1223 13.182 24.9993L15.242 22.9395L16.2884 23.2199L16.5687 24.2663L14.5089 26.3262C14.386 26.449 14.3357 26.6269 14.3762 26.796C14.4165 26.965 14.5418 27.1009 14.707 27.1549C15.0871 27.2792 15.4762 27.3398 15.8613 27.3398C16.8212 27.3398 17.7557 26.9631 18.4603 26.2585C18.7162 26.0027 18.9281 25.7159 19.0949 25.4089L20.767 27.081C20.8647 27.1787 20.9926 27.2275 21.1205 27.2275C21.2485 27.2275 21.3765 27.1787 21.4741 27.081L24.2974 24.2578C24.3911 24.164 24.4438 24.0368 24.4438 23.9042C24.4438 23.7716 24.3911 23.6444 24.2974 23.5507L21.3525 20.6059L27.2389 14.7195C28.534 15.1153 29.9474 14.7712 30.9189 13.7997C31.9062 12.8126 32.2496 11.3745 31.8153 10.0466ZM17.6743 18.342L18.1952 18.8629L16.9297 20.1283C16.5842 20.0227 16.2302 19.9702 15.8785 19.9678L17.5043 18.342C17.5502 18.2959 17.6281 18.2958 17.6743 18.342ZM8.72255 12.3001L7.31761 11.7802L5.9713 9.62848L6.84473 8.7551L8.99648 10.1013L9.51636 11.5063C9.54136 11.574 9.58073 11.6354 9.63173 11.6863L16.1887 18.2433L15.4596 18.9724L8.90261 12.4155C8.85161 12.3645 8.79017 12.3252 8.72255 12.3001ZM23.2367 23.9043L21.1205 26.0204L19.4703 24.3702C19.5867 23.7837 19.5605 23.1689 19.3799 22.5784L20.6454 21.313L23.2367 23.9043ZM30.2118 13.0927C29.4453 13.8593 28.3012 14.0898 27.2974 13.6799C27.1111 13.6038 26.8972 13.6469 26.7548 13.7893L18.4497 22.0945C18.3074 22.2368 18.2642 22.4507 18.3404 22.637C18.7502 23.6409 18.5197 24.7849 17.7531 25.5515C17.2521 26.0524 16.592 26.3258 15.9104 26.3388L17.4799 24.7693C17.6062 24.643 17.6555 24.4589 17.6093 24.2864L17.1795 22.6822C17.1332 22.5097 16.9985 22.3749 16.8259 22.3287L15.2219 21.8989C15.179 21.8875 15.1356 21.8819 15.0925 21.8819C14.9616 21.8819 14.8339 21.9333 14.739 22.0283L13.1694 23.5978C13.1825 22.9162 13.4559 22.256 13.9568 21.7552C14.7234 20.9885 15.8675 20.758 16.8712 21.1679C17.0576 21.244 17.2714 21.2009 17.4138 21.0585L25.719 12.7533C25.8614 12.611 25.9045 12.3972 25.8284 12.2108C25.4185 11.2069 25.649 10.063 26.4156 9.29635C26.9164 8.79548 27.5766 8.52204 28.2582 8.50904L26.6887 10.0785C26.5624 10.2048 26.513 10.3888 26.5593 10.5614L26.9891 12.1655C27.0354 12.3381 27.1701 12.4728 27.3427 12.5191L28.9468 12.9489C29.1194 12.995 29.3034 12.9459 29.4298 12.8195L30.9992 11.25C30.9862 11.9315 30.7127 12.5918 30.2118 13.0927ZM11.1229 8.95566L11.9534 9.27529C12.0797 9.7176 12.256 10.1431 12.48 10.5456L12.1185 11.3593C12.0346 11.5483 12.0757 11.7695 12.2219 11.9158L13.4575 13.1513C13.6038 13.2975 13.8249 13.3387 14.014 13.2547L14.828 12.8932C15.2305 13.1171 15.6559 13.2935 16.0979 13.4197L16.4177 14.2503C16.4919 14.4433 16.6774 14.5707 16.8843 14.5707H18.6315C18.8384 14.5707 19.0239 14.4433 19.0982 14.2503L19.4177 13.42C19.8601 13.2937 20.2856 13.1173 20.6881 12.8933L21.5019 13.2547C21.691 13.3388 21.912 13.2976 22.0584 13.1514L23.2939 11.9158C23.4402 11.7695 23.4812 11.5483 23.3973 11.3593L23.0357 10.5452C23.2597 10.1427 23.436 9.71729 23.5622 9.27535L24.3929 8.9556C24.5859 8.88135 24.7133 8.69585 24.7133 8.48897V6.74166C24.7133 6.53479 24.5859 6.34935 24.3929 6.27504L23.5625 5.95541C23.4362 5.51304 23.2599 5.08754 23.0359 4.68504L23.3973 3.87135C23.4812 3.68229 23.4402 3.4611 23.2939 3.31485L22.0584 2.07929C21.912 1.93304 21.691 1.89191 21.5019 1.97591L20.6878 2.33747C20.2854 2.11354 19.86 1.93716 19.4179 1.81097L19.0982 0.980287C19.0239 0.787287 18.8384 0.659912 18.6315 0.659912H16.8844C16.6775 0.659912 16.492 0.787287 16.4177 0.980287L16.098 1.81097C15.6559 1.93722 15.2305 2.11354 14.8281 2.33747L14.014 1.97591C13.8252 1.89197 13.6039 1.93304 13.4575 2.07929L12.222 3.31485C12.0757 3.4611 12.0347 3.68229 12.1186 3.87135L12.4802 4.68529C12.2562 5.08773 12.0799 5.51316 11.9535 5.95535L11.123 6.27504C10.93 6.34929 10.8026 6.53479 10.8026 6.74166V8.48897C10.8025 8.69591 10.93 8.88141 11.1229 8.95566ZM11.8025 7.08504L12.5518 6.79666C12.7056 6.73747 12.8204 6.60622 12.8585 6.44585C12.982 5.92741 13.1866 5.43385 13.4667 4.97891C13.5532 4.83847 13.5649 4.66447 13.498 4.51372L13.1717 3.77929L13.9217 3.02929L14.6563 3.35554C14.8069 3.42241 14.981 3.41079 15.1214 3.32435C15.5764 3.04416 16.0699 2.8396 16.5882 2.71622C16.7485 2.67804 16.8799 2.56329 16.939 2.40941L17.2275 1.66004H18.2882L18.5766 2.40941C18.6358 2.56322 18.7671 2.67804 18.9274 2.71622C19.4457 2.8396 19.9392 3.04416 20.3943 3.32435C20.5348 3.41079 20.7088 3.42241 20.8594 3.35554L21.5939 3.02929L22.3439 3.77929L22.0178 4.51347C21.9509 4.66422 21.9625 4.83822 22.049 4.97866C22.3292 5.4336 22.5339 5.92722 22.6572 6.44585C22.6954 6.60622 22.8101 6.73754 22.964 6.79672L23.7131 7.0851V8.14572L22.9637 8.43416C22.8099 8.49335 22.6951 8.62466 22.657 8.78504C22.5337 9.30316 22.329 9.79666 22.0489 10.2519C21.9624 10.3922 21.9508 10.5662 22.0177 10.7169L22.3439 11.4514L21.5939 12.2014L20.8597 11.8753C20.7091 11.8085 20.535 11.82 20.3945 11.9066C19.9397 12.1868 19.446 12.3914 18.9273 12.5148C18.767 12.553 18.6357 12.6678 18.5765 12.8217L18.2882 13.5707H17.2275L16.939 12.8214C16.8799 12.6675 16.7485 12.5527 16.5882 12.5145C16.0699 12.3912 15.5764 12.1866 15.1214 11.9064C14.9809 11.8199 14.8069 11.8084 14.6563 11.8752L13.9217 12.2014L13.1717 11.4514L13.4979 10.7172C13.5647 10.5665 13.5531 10.3925 13.4667 10.2521C13.1865 9.79716 12.9819 9.30354 12.8584 8.78485C12.8203 8.62448 12.7055 8.49322 12.5517 8.43404L11.8025 8.14566V7.08504ZM17.758 11.1626C19.7139 11.1626 21.3052 9.57135 21.3052 7.61547C21.3052 5.65954 19.7139 4.06829 17.758 4.06829C15.802 4.06829 14.2108 5.65954 14.2108 7.61547C14.2108 9.57135 15.802 11.1626 17.758 11.1626ZM17.758 5.06822C19.1625 5.06822 20.3052 6.21091 20.3052 7.61541C20.3052 9.01991 19.1625 10.1625 17.758 10.1625C16.3534 10.1625 15.2108 9.01991 15.2108 7.61541C15.2108 6.21085 16.3534 5.06822 17.758 5.06822ZM17.758 8.94047C18.4886 8.94047 19.083 8.34604 19.083 7.61541C19.083 6.88479 18.4886 6.29035 17.758 6.29035C17.0274 6.29035 16.4329 6.88479 16.4329 7.61541C16.4329 8.34604 17.0273 8.94047 17.758 8.94047ZM17.758 7.29035C17.9372 7.29035 18.083 7.43616 18.083 7.61541C18.083 7.79466 17.9372 7.94047 17.758 7.94047C17.5787 7.94047 17.4329 7.79466 17.4329 7.61541C17.4329 7.43616 17.5787 7.29035 17.758 7.29035ZM12.3808 21.7782C12.5738 21.7039 12.7012 21.5184 12.7012 21.3115V19.863C12.7012 19.6562 12.5738 19.4707 12.3808 19.3964L11.7319 19.1467C11.6304 18.802 11.4927 18.4698 11.3204 18.154L11.6029 17.5182C11.6868 17.3292 11.6457 17.1079 11.4994 16.9617L10.4751 15.9375C10.3289 15.7912 10.1077 15.7501 9.91867 15.8341L9.28261 16.1166C8.9668 15.9444 8.63467 15.8067 8.29023 15.7052L8.04042 15.0561C7.96617 14.8631 7.78067 14.7357 7.5738 14.7357H6.12542C5.91855 14.7357 5.73317 14.8631 5.6588 15.056L5.40892 15.7051C5.06448 15.8066 4.73242 15.9443 4.41661 16.1165L3.78048 15.834C3.59142 15.75 3.3703 15.7912 3.22398 15.9374L2.19973 16.9617C2.05348 17.108 2.01242 17.3292 2.09636 17.5182L2.37886 18.1542C2.20661 18.47 2.06892 18.8022 1.96742 19.1467L1.31842 19.3965C1.12542 19.4707 0.998047 19.6562 0.998047 19.8631V21.3116C0.998047 21.5185 1.12542 21.7039 1.31848 21.7782L1.9673 22.0279C2.0688 22.3725 2.20655 22.7048 2.3788 23.0206L2.09636 23.6563C2.01242 23.8454 2.05348 24.0666 2.19973 24.2129L3.22405 25.2372C3.37042 25.3835 3.59167 25.4245 3.78061 25.3405L4.41661 25.058C4.73242 25.2302 5.06461 25.3679 5.40898 25.4694L5.6588 26.1185C5.73305 26.3115 5.91855 26.4389 6.12542 26.4389H7.57392C7.7808 26.4389 7.96623 26.3115 8.04055 26.1185L8.2903 25.4697C8.6348 25.3682 8.96711 25.2304 9.28298 25.0582L9.91867 25.3406C10.1077 25.4246 10.3289 25.3835 10.4752 25.2372L11.4995 24.2129C11.6458 24.0667 11.6869 23.8455 11.6029 23.6564L11.3204 23.0203C11.4926 22.7045 11.6303 22.3724 11.7318 22.028L12.3808 21.7782ZM11.7012 20.9682L11.1347 21.1863C10.9809 21.2455 10.8661 21.3768 10.828 21.5372C10.7279 21.9578 10.5617 22.3585 10.3342 22.7281C10.2477 22.8685 10.2361 23.0425 10.303 23.1932L10.5496 23.7485L10.0109 24.2873L9.45592 24.0408C9.30517 23.9739 9.13123 23.9855 8.99073 24.072C8.62123 24.2995 8.22042 24.4657 7.79942 24.5658C7.63905 24.604 7.50773 24.7188 7.44855 24.8727L7.23061 25.4389H6.46873L6.25067 24.8725C6.19148 24.7187 6.06017 24.6038 5.8998 24.5657C5.47911 24.4655 5.07836 24.2994 4.7088 24.0719C4.56842 23.9854 4.39442 23.9739 4.24367 24.0407L3.68842 24.2873L3.14967 23.7486L3.39617 23.1936C3.46305 23.0429 3.45142 22.8689 3.36492 22.7284C3.13742 22.359 2.9713 21.9582 2.87117 21.5371C2.83298 21.3767 2.71823 21.2454 2.5643 21.1862L1.99805 20.9682V20.2064L2.56442 19.9883C2.7183 19.9292 2.83305 19.7978 2.87117 19.6375C2.97136 19.2166 3.13748 18.8159 3.36492 18.4464C3.45142 18.306 3.46305 18.132 3.39617 17.9813L3.14961 17.4261L3.6883 16.8874L4.24367 17.134C4.39423 17.2008 4.56836 17.1892 4.70873 17.1027C5.07823 16.8752 5.47892 16.709 5.89967 16.609C6.06005 16.5708 6.19136 16.456 6.25055 16.3022L6.46861 15.7357H7.23042L7.44848 16.3022C7.50767 16.456 7.63898 16.5708 7.79936 16.609C8.22005 16.7091 8.6208 16.8752 8.99036 17.1027C9.13073 17.1892 9.30486 17.2009 9.45542 17.1339L10.0107 16.8873L10.5495 17.426L10.303 17.981C10.2361 18.1317 10.2477 18.3057 10.3342 18.4462C10.5617 18.8156 10.7279 19.2164 10.828 19.6374C10.8662 19.7978 10.9809 19.9291 11.1348 19.9883L11.7011 20.2062V20.9682H11.7012ZM6.84955 17.5612C5.18098 17.5612 3.82342 18.9187 3.82342 20.5873C3.82342 22.2559 5.18098 23.6134 6.84955 23.6134C8.51817 23.6134 9.87573 22.2559 9.87573 20.5873C9.87573 18.9187 8.51823 17.5612 6.84955 17.5612ZM6.84955 22.6135C5.73236 22.6135 4.82342 21.7045 4.82342 20.5873C4.82342 19.4702 5.73236 18.5612 6.84955 18.5612C7.9668 18.5612 8.87573 19.4702 8.87573 20.5873C8.87573 21.7045 7.9668 22.6135 6.84955 22.6135ZM6.84955 19.4033C6.19673 19.4033 5.66561 19.9345 5.66561 20.5873C5.66561 21.2402 6.19673 21.7713 6.84955 21.7713C7.50242 21.7713 8.03355 21.2402 8.03355 20.5873C8.03361 19.9345 7.50248 19.4033 6.84955 19.4033ZM6.84955 20.7713C6.74811 20.7713 6.66561 20.6887 6.66561 20.5873C6.66561 20.4859 6.74811 20.4033 6.84955 20.4033C6.95105 20.4033 7.03355 20.4859 7.03355 20.5873C7.03355 20.6887 6.95105 20.7713 6.84955 20.7713Z" fill="#364557"/>
</svg>
