<svg width="16" height="17" viewBox="0 0 16 17" fill="none" xmlns="http://www.w3.org/2000/svg">
<g clip-path="url(#clip0_2752_759)">
<path d="M11.8761 4.671L8.37606 0.671C8.28106 0.563 8.14406 0.5 8.00006 0.5C7.85606 0.5 7.71906 0.563 7.62406 0.671L4.12406 4.671C3.99506 4.819 3.96306 5.028 4.04506 5.207C4.12606 5.385 4.30406 5.5 4.50006 5.5H6.50006V12C6.50006 12.276 6.72406 12.5 7.00006 12.5H9.00006C9.27606 12.5 9.50006 12.276 9.50006 12V5.5H11.5001C11.6961 5.5 11.8741 5.386 11.9551 5.207C12.0361 5.028 12.0061 4.818 11.8761 4.671Z" fill="black"/>
<path d="M13.5 11.5V14.5H2.5V11.5H0.5V15.5C0.5 16.053 0.948 16.5 1.5 16.5H14.5C15.053 16.5 15.5 16.053 15.5 15.5V11.5H13.5Z" fill="black"/>
</g>
<defs>
<clipPath id="clip0_2752_759">
<rect width="16" height="16" fill="white" transform="translate(0 0.5)"/>
</clipPath>
</defs>
</svg>
