<svg width="53" height="53" viewBox="0 0 53 53" fill="none" xmlns="http://www.w3.org/2000/svg">
<path d="M52.4449 42.1971C51.7048 41.457 50.5085 41.457 49.7684 42.1971L45.4282 46.5374V43.5353C45.4282 31.8338 41.2261 18.5233 30.0186 14.4973C25.5193 6.11009 14.4651 0 1.89284 0C0.847992 0 0 0.8461 0 1.89284C0 2.93958 0.847992 3.78568 1.89284 3.78568C11.3249 3.78568 19.96 7.74361 24.6675 13.371C17.0034 12.7502 13.2499 17.8003 13.2499 22.7141C13.2499 27.9326 17.4955 32.1783 22.7141 32.1783C27.7736 32.1783 33.4181 27.961 31.8584 19.6723C38.9187 24.3533 41.6425 34.497 41.6425 43.5353V46.5374L37.3022 42.1971C36.5621 41.457 35.3658 41.457 34.6257 42.1971C33.8856 42.9372 33.8856 44.1335 34.6257 44.8736L42.1971 52.4449C42.9372 53.185 44.1335 53.185 44.8736 52.4449L52.4449 44.8736C53.185 44.1335 53.185 42.9372 52.4449 42.1971ZM22.7141 28.3926C19.5833 28.3926 17.0356 25.8448 17.0356 22.7141C17.0356 19.6117 19.4811 15.544 27.3099 17.6261C30.117 24.2851 26.9162 28.3926 22.7141 28.3926Z" fill="#202020"/>
</svg>
