<svg width="222" height="299" viewBox="0 0 222 299" fill="none" xmlns="http://www.w3.org/2000/svg">
<path d="M94.6399 296.552L-30.763 223.115V76.2403L107.748 109.309L94.6399 296.552Z" fill="#232E3A"/>
<path d="M94.64 298.525C94.9512 298.525 95.2623 298.446 95.5346 298.288C96.1181 297.972 96.507 297.38 96.5459 296.67L109.693 109.427C109.771 108.441 109.11 107.572 108.215 107.375L-30.2961 74.3068C-30.8796 74.1489 -31.5019 74.3068 -31.9687 74.6619C-32.4354 75.0171 -32.7077 75.6089 -32.7077 76.2008V223.075C-32.7077 223.785 -32.3188 224.417 -31.7353 224.772L93.6676 298.209C93.9787 298.367 94.2899 298.485 94.64 298.485V298.525ZM105.726 110.848L92.9285 293.276L-28.7791 221.97V78.7264L105.726 110.848Z" fill="#202020"/>
<path d="M94.6391 296.552L220.042 223.115V76.2403L94.6391 109.309V296.552Z" fill="#DFDFDF"/>
<path d="M94.6391 298.525C94.9892 298.525 95.3004 298.446 95.6115 298.249L221.014 224.811C221.598 224.456 221.987 223.825 221.987 223.115V76.2403C221.987 75.6484 221.715 75.0565 221.248 74.6619C220.781 74.2672 220.159 74.1489 219.575 74.3067L94.1724 107.375C93.3166 107.612 92.7332 108.401 92.7332 109.269V296.512C92.7332 297.223 93.1221 297.854 93.7056 298.209C94.0168 298.367 94.3279 298.485 94.678 298.485L94.6391 298.525ZM218.097 221.97L96.5839 293.158V110.848L218.097 78.8052V222.01V221.97Z" fill="#202020"/>
<path d="M-30.7637 76.2403L94.6391 2.80316L220.042 76.2403L94.6391 149.677L-30.7637 76.2403Z" fill="#5FBCA9"/>
<path d="M94.6391 151.65C94.9892 151.65 95.3004 151.572 95.6115 151.374L221.014 77.9371C221.598 77.582 221.987 76.9506 221.987 76.2403C221.987 75.53 221.598 74.8987 221.014 74.5435L95.6115 1.10633C95.0281 0.751178 94.2502 0.751178 93.6667 1.10633L-31.7362 74.5435C-32.3196 74.8987 -32.7086 75.53 -32.7086 76.2403C-32.7086 76.9506 -32.3196 77.582 -31.7362 77.9371L93.6667 151.374C93.9779 151.532 94.2891 151.65 94.6391 151.65ZM216.152 76.2403L94.6391 147.428L-26.8741 76.2403L94.6391 5.05244L216.152 76.2403Z" fill="#202020"/>
<path d="M94.6395 221.299L33.4939 185.468V113.886L101.019 129.986L94.6395 221.299Z" fill="#5EBBA8"/>
<path d="M94.6398 223.272C94.9509 223.272 95.2621 223.193 95.5344 223.036C96.1179 222.72 96.5068 222.128 96.5457 221.418L102.964 130.144C103.041 129.158 102.419 128.289 101.486 128.092L33.961 111.952C33.3775 111.834 32.7552 111.952 32.2884 112.308C31.8216 112.663 31.5494 113.255 31.5494 113.847V185.468C31.5494 186.179 31.9383 186.81 32.5218 187.165L93.6673 222.957C93.9785 223.114 94.2897 223.233 94.6398 223.233V223.272ZM98.9962 131.525L92.9283 217.985L35.4779 184.324V116.333L98.9962 131.525Z" fill="#202020"/>
<path d="M94.6391 221.299L155.785 185.469V113.886L94.6391 129.986V221.299Z" fill="#232E3A"/>
<path d="M94.6391 223.272C94.9892 223.272 95.3003 223.194 95.6115 222.996L156.757 187.205C157.341 186.85 157.729 186.218 157.729 185.508V113.886C157.729 113.294 157.457 112.702 156.99 112.308C156.524 111.953 155.901 111.795 155.318 111.953L94.1723 128.092C93.3166 128.329 92.7332 129.118 92.7332 129.986V221.26C92.7332 221.97 93.1221 222.602 93.7056 222.957C94.0168 223.115 94.3279 223.233 94.678 223.233L94.6391 223.272ZM153.84 184.364L96.5839 217.906V131.565L153.84 116.451V184.364Z" fill="#202020"/>
<path d="M33.4936 113.886L94.6391 78.0556L155.785 113.886L94.6391 149.677L33.4936 113.886Z" fill="#DFDFDF"/>
<path d="M94.6391 151.651C94.9892 151.651 95.3003 151.572 95.6115 151.374L156.757 115.583C157.341 115.228 157.729 114.597 157.729 113.886C157.729 113.176 157.341 112.545 156.757 112.189L95.6115 76.3983C95.0281 76.0432 94.2501 76.0432 93.6667 76.3983L32.5211 112.189C31.9377 112.545 31.5487 113.176 31.5487 113.886C31.5487 114.597 31.9377 115.228 32.5211 115.583L93.6667 151.374C93.9778 151.532 94.289 151.651 94.6391 151.651ZM151.895 113.886L94.6391 147.428L37.3832 113.886L94.6391 80.3444L151.895 113.886Z" fill="#202020"/>
</svg>
