<svg width="224" height="299" viewBox="0 0 224 299" fill="none" xmlns="http://www.w3.org/2000/svg">
<path opacity="0.3" d="M124.301 298.424H255.648L385.987 222.034L216.91 123.015L124.301 298.424Z" fill="#061015"/>
<path d="M127.347 296.415L252.75 222.978V76.1033L114.239 109.172L127.347 296.415Z" fill="#232E3A"/>
<path d="M127.347 298.388C127.036 298.388 126.724 298.309 126.452 298.151C125.869 297.835 125.48 297.243 125.441 296.533L112.294 109.29C112.216 108.304 112.877 107.435 113.772 107.238L252.283 74.1698C252.866 74.0119 253.489 74.1698 253.955 74.5249C254.422 74.8801 254.695 75.4719 254.695 76.0638V222.938C254.695 223.648 254.306 224.28 253.722 224.635L128.319 298.072C128.008 298.23 127.697 298.348 127.347 298.348V298.388ZM116.261 110.711L129.058 293.139L250.766 221.833V78.5894L116.261 110.711Z" fill="#202020"/>
<path d="M127.348 296.415L1.94482 222.978V76.1033L127.348 109.172V296.415Z" fill="#DFDFDF"/>
<path d="M127.348 298.388C126.998 298.388 126.686 298.309 126.375 298.112L0.972417 224.674C0.388967 224.319 0 223.688 0 222.978V76.1033C0 75.5113 0.272275 74.9195 0.739035 74.5248C1.2058 74.1302 1.82814 74.0119 2.41159 74.1697L127.814 107.238C128.67 107.475 129.254 108.264 129.254 109.132V296.375C129.254 297.086 128.865 297.717 128.281 298.072C127.97 298.23 127.659 298.348 127.309 298.348L127.348 298.388ZM3.88967 221.833L125.403 293.021V110.711L3.88967 78.6682V221.873V221.833Z" fill="#202020"/>
<path d="M252.751 76.1033L127.348 2.66612L1.94482 76.1033L127.348 149.54L252.751 76.1033Z" fill="#5FBCA9"/>
<path d="M127.348 151.513C126.998 151.513 126.686 151.435 126.375 151.237L0.972417 77.8001C0.388967 77.4449 0 76.8136 0 76.1033C0 75.393 0.388967 74.7616 0.972417 74.4065L126.375 0.969304C126.959 0.614154 127.737 0.614154 128.32 0.969304L253.723 74.4065C254.306 74.7616 254.695 75.393 254.695 76.1033C254.695 76.8136 254.306 77.4449 253.723 77.8001L128.32 151.237C128.009 151.395 127.698 151.513 127.348 151.513ZM5.8345 76.1033L127.348 147.291L248.861 76.1033L127.348 4.91541L5.8345 76.1033Z" fill="#202020"/>
<path d="M127.347 221.162L188.493 185.332V113.749L120.968 129.849L127.347 221.162Z" fill="#5EBBA8"/>
<path d="M127.347 223.135C127.036 223.135 126.725 223.056 126.452 222.899C125.869 222.583 125.48 221.991 125.441 221.281L119.023 130.007C118.945 129.021 119.568 128.152 120.501 127.955L188.026 111.815C188.609 111.697 189.232 111.815 189.698 112.171C190.165 112.526 190.437 113.118 190.437 113.71V185.331C190.437 186.042 190.048 186.673 189.465 187.028L128.319 222.82C128.008 222.977 127.697 223.096 127.347 223.096V223.135ZM122.991 131.388L129.059 217.848L186.509 184.187V116.196L122.991 131.388Z" fill="#202020"/>
<path d="M127.348 221.162L66.2021 185.332V113.749L127.348 129.849V221.162Z" fill="#232E3A"/>
<path d="M127.348 223.135C126.998 223.135 126.686 223.057 126.375 222.859L65.2297 187.068C64.6463 186.713 64.2573 186.081 64.2573 185.371V113.749C64.2573 113.157 64.5296 112.565 64.9964 112.171C65.4631 111.816 66.0855 111.658 66.6689 111.816L127.814 127.955C128.67 128.192 129.254 128.981 129.254 129.849V221.123C129.254 221.833 128.865 222.465 128.281 222.82C127.97 222.978 127.659 223.096 127.309 223.096L127.348 223.135ZM68.147 184.227L125.403 217.769V131.428L68.147 116.314V184.227Z" fill="#202020"/>
<path d="M188.493 113.749L127.348 77.9186L66.2021 113.749L127.348 149.54L188.493 113.749Z" fill="#DFDFDF"/>
<path d="M127.348 151.514C126.998 151.514 126.686 151.435 126.375 151.237L65.2297 115.446C64.6463 115.091 64.2573 114.46 64.2573 113.749C64.2573 113.039 64.6463 112.408 65.2297 112.052L126.375 76.2613C126.959 75.9061 127.737 75.9061 128.32 76.2613L189.466 112.052C190.049 112.408 190.438 113.039 190.438 113.749C190.438 114.46 190.049 115.091 189.466 115.446L128.32 151.237C128.009 151.395 127.698 151.514 127.348 151.514ZM70.0918 113.749L127.348 147.291L184.604 113.749L127.348 80.2074L70.0918 113.749Z" fill="#202020"/>
</svg>
