<svg width="32" height="32" viewBox="0 0 32 32" fill="none" xmlns="http://www.w3.org/2000/svg">
<g clip-path="url(#clip0_2643_12783)">
<path d="M16 0C7.1635 0 0 7.163 0 16C0 24.837 7.164 32 16 32C24.836 32 32 24.8365 32 16C32 7.1635 24.836 0 16 0ZM16 29.945C13.486 29.945 11.4475 28.265 11.4475 26.195H20.5475C20.5475 28.266 18.509 29.945 15.995 29.945H16ZM23.525 24.9535H8.48V22.2265H23.525V24.9535ZM23.471 20.8235H8.5235L8.375 20.6515C6.835 18.7815 6.473 17.8015 6.121 16.8115C6.115 16.7785 7.988 17.1945 9.316 17.493C9.316 17.493 9.9995 17.651 10.998 17.833C10.039 16.708 9.4695 15.2795 9.4695 13.818C9.4695 10.6105 11.9295 7.808 11.042 5.543C11.906 5.613 12.8295 7.366 12.892 10.106C13.8105 8.837 14.1945 6.52 14.1945 5.099C14.1945 3.628 15.1645 1.919 16.1335 1.8605C15.2685 3.2855 16.3575 4.5055 17.3245 7.5355C17.6875 8.6735 17.641 10.5885 17.921 11.803C18.014 9.2805 18.4475 5.6005 20.048 4.33C19.342 5.93 20.153 7.9325 20.707 8.895C21.602 10.448 22.1435 11.625 22.1435 13.845C22.1435 15.337 21.5925 16.7415 20.6635 17.845C21.72 17.6465 22.4495 17.468 22.4495 17.468L25.8805 16.798C25.8805 16.7975 25.382 18.848 23.4665 20.823L23.471 20.8235Z" fill="black"/>
</g>
<defs>
<clipPath id="clip0_2643_12783">
<rect width="32" height="32" fill="white"/>
</clipPath>
</defs>
</svg>
