<svg width="156" height="49" viewBox="0 0 156 49" fill="none" xmlns="http://www.w3.org/2000/svg">
<g clip-path="url(#clip0_2211_3255)">
<path d="M65.4537 27.8872L70.0523 18.0392H73.0123L66.9807 30.9624H63.9282L62.5511 28.0184L61.1834 30.9624H58.1214L52.0898 18.0392H55.0498L59.658 27.8872L61.0734 24.8504L57.8999 18.0392H60.8599L62.5542 21.6744L64.2582 18.0392H67.2182L64.035 24.8504L65.46 27.8872H65.4537Z" fill="#202020"/>
<path d="M75.625 18.0392H78.687L84.7185 30.9624H73.7903L74.7021 28.804H80.7528L77.16 21.1048L72.5518 30.9624H69.5918L75.6234 18.0392H75.625Z" fill="#202020"/>
<path d="M97.4819 25.8408H95.7971L98.3474 30.9608H95.4145L92.8084 25.8408H88.5541V30.9608H85.873V18.0392H97.4803V25.8408H97.4819ZM88.5557 20.7304V23.1512H94.8025V20.7304H88.5557Z" fill="#202020"/>
<path d="M99.502 20.7304V18.0392H111.109V30.9624H99.502V23.1512H102.183V28.2712H108.43V20.7304H99.5035H99.502Z" fill="#202020"/>
<path d="M118.852 18.0392H130.459V30.9624H118.852V18.0392ZM127.778 28.2712V20.7304H121.531V28.2712H127.778Z" fill="#202020"/>
<path d="M143.228 18.0392V25.8408H134.302V30.9608H131.621V23.1496H140.547V20.7288H131.621V18.0376H143.228V18.0392Z" fill="#202020"/>
<path d="M156 20.7304H147.074V23.1512H156V30.9624H144.393V28.2712H153.319V25.8424H144.393V18.0408H156V20.732V20.7304Z" fill="#202020"/>
<path d="M27.0762 4.1912L25.4838 5.1144L23.8914 6.0376L22.299 5.1144V18.0376L20.7051 18.9608L19.1127 18.0376V5.1144L17.5203 6.0376L15.9264 5.1144L14.334 4.1912L15.1581 3.7144L15.9264 3.2696L17.5203 2.3448L19.1127 1.4232L20.7051 0.5L22.299 1.4232L23.8914 2.3448L25.4838 3.2696L26.2537 3.7144L27.0762 4.1912Z" fill="#202020"/>
<path d="M41.4135 12.5V23.5768L41.4119 25.4232V36.5L39.8195 37.4232L38.2271 38.3464L37.2899 38.8888L36.6348 39.2696L35.9796 38.8888L35.0424 38.3464L33.45 37.4232L35.0424 36.5L36.4371 35.692H36.8324L36.6348 35.5768L33.45 33.7304L31.856 32.8072L31.3141 32.4936L30.2637 31.884L28.6713 30.9608L27.0773 30.0376L25.7974 29.2968L25.485 29.1144L23.8926 28.1912L25.485 27.268L27.0773 26.3464L31.856 29.1144L32.1685 29.2968L33.45 30.0376L35.0424 30.9608L36.6348 31.884L37.6868 32.4936L38.2271 32.8072V16.1928L37.6868 16.5064L36.6348 17.116L35.5843 16.5064L35.0424 16.1928L33.45 15.2696L36.6348 13.4232L36.8324 13.308H36.4371L35.0424 12.5L33.45 11.5768L35.0424 10.6536L35.9796 10.1112L36.6348 9.73041L37.2899 10.1112L38.2271 10.6536L39.8195 11.5768L41.4135 12.5Z" fill="#202020"/>
<path d="M27.0762 44.8072L26.2553 45.284H26.2537L26.2521 45.2856L25.4838 45.7304L23.8914 46.6536L22.299 47.5768L20.7067 48.5H20.7051L19.1127 47.5768L17.5203 46.6536L15.9264 45.7304L15.1581 45.2856L15.1565 45.284L14.334 44.8072L15.9264 43.8856L17.5203 42.9608L19.1127 43.8856V29.2968H19.4251L20.7051 30.0376L21.985 29.2968H22.299V43.8856L23.8914 42.9608L25.4838 43.8856L27.0762 44.8072Z" fill="#202020"/>
<path d="M30.2637 20.8072L28.6713 21.7304L27.0773 22.6536L26.6501 22.9016L25.4849 23.5768L23.8926 24.5L22.3002 25.4232L21.1334 26.0984H20.279L19.1139 25.4232L17.5215 24.5L15.9275 23.5768L14.7623 22.9016L14.3351 22.6536L12.7428 21.7304L11.1504 20.8072L12.7428 19.884L13.0552 19.7032L14.3351 18.9608L15.6167 19.7032L15.9275 19.884L17.5215 20.8072L19.1139 21.7304L20.7062 22.6536L22.3002 21.7304L23.8926 20.8072L25.4849 19.884L25.7974 19.7032L27.0773 18.9608L28.3589 19.7032L28.6713 19.884L30.2637 20.8072Z" fill="#202020"/>
<path d="M17.5209 28.1912L15.9269 29.1144L15.6161 29.2968L14.3345 30.0376L12.7422 30.9608L11.1498 31.884L10.0978 32.4936L9.55583 32.8072L7.96346 33.7304L6.37109 34.6536L4.77712 35.5768L4.58106 35.692H4.97477L6.37109 36.5L7.96346 37.4232L6.37109 38.3448L5.43224 38.8888L4.77712 39.2696L4.122 38.8888L3.18634 38.3464L1.59237 37.4232L0 36.5V12.5L3.18634 10.6536L4.122 10.1112L4.77712 9.73041L5.43224 10.1112L6.37109 10.6536L7.96346 11.5768L6.37109 12.4984L4.97477 13.308H4.58106L4.77712 13.4232L6.37109 14.3464L7.96346 15.2696L6.37109 16.1912L5.82914 16.5064L4.77712 17.116L3.7267 16.5064L3.18634 16.1928V32.8072L3.7267 32.4936L4.77712 31.884L6.37109 30.9608L7.96346 30.0376L9.24501 29.2968L9.55583 29.1144L14.3345 26.3464L15.9269 27.268L17.5209 28.1912Z" fill="#202020"/>
</g>
<defs>
<clipPath id="clip0_2211_3255">
<rect width="156" height="48" fill="white" transform="translate(0 0.5)"/>
</clipPath>
</defs>
</svg>
