<svg width="40" height="40" viewBox="0 0 40 40" fill="none" xmlns="http://www.w3.org/2000/svg">
<g clip-path="url(#clip0_2492_4639)">
<path d="M21.9141 15.9375C21.9141 16.261 22.1765 16.5234 22.5 16.5234H23.4766V23.4766H16.5234V16.5234H20C20.3235 16.5234 20.5859 16.261 20.5859 15.9375C20.5859 15.614 20.3235 15.3516 20 15.3516H16.25C15.7547 15.3516 15.3516 15.7547 15.3516 16.25V23.75C15.3516 24.2453 15.7547 24.6484 16.25 24.6484H23.75C24.2453 24.6484 24.6484 24.2453 24.6484 23.75V16.25C24.6484 15.7547 24.2453 15.3516 23.75 15.3516H22.5C22.1765 15.3516 21.9141 15.614 21.9141 15.9375Z" fill="#202020"/>
<path d="M3.24219 2.34375C2.74689 2.34375 2.34375 2.74689 2.34375 3.24219V7.30469C2.34375 7.79999 2.74689 8.20312 3.24219 8.20312H7.30469C7.79999 8.20312 8.20312 7.79999 8.20312 7.30469V3.24219C8.20312 2.74689 7.79999 2.34375 7.30469 2.34375H3.24219ZM7.03125 7.03125H3.51562V3.51562H7.03125V7.03125Z" fill="#202020"/>
<path d="M7.30469 31.7969H3.24219C2.74689 31.7969 2.34375 32.2 2.34375 32.6953V36.7578C2.34375 37.2531 2.74689 37.6562 3.24219 37.6562H7.30469C7.79999 37.6562 8.20312 37.2531 8.20312 36.7578V32.6953C8.20312 32.2 7.79999 31.7969 7.30469 31.7969ZM7.03125 36.4844H3.51562V32.9688H7.03125V36.4844Z" fill="#202020"/>
<path d="M30.9766 10.5469H38.4766C39.3167 10.5469 40 9.86359 40 9.02344V1.52344C40 0.683289 39.3167 0 38.4766 0H30.9766C30.1364 0 29.4531 0.683289 29.4531 1.52344V4.6875H22.4219C22.0984 4.6875 21.8359 4.94995 21.8359 5.27344V13.0078H18.6328V10.7196C19.3149 10.4776 19.8047 9.82635 19.8047 9.0625C19.8047 8.09326 19.0161 7.30469 18.0469 7.30469C17.0776 7.30469 16.2891 8.09326 16.2891 9.0625C16.2891 9.82635 16.7789 10.4776 17.4609 10.7196V13.0078H14.8431C13.8312 13.0078 13.0078 13.8312 13.0078 14.8431V18.2422H5.85938V10.5469H9.02344C9.86359 10.5469 10.5469 9.86359 10.5469 9.02344V7.5C10.5469 7.17651 10.2844 6.91406 9.96094 6.91406C9.63745 6.91406 9.375 7.17651 9.375 7.5V9.02344C9.375 9.21722 9.21722 9.375 9.02344 9.375H1.52344C1.32965 9.375 1.17188 9.21722 1.17188 9.02344V1.52344C1.17188 1.32965 1.32965 1.17188 1.52344 1.17188H9.02344C9.21722 1.17188 9.375 1.32965 9.375 1.52344V5C9.375 5.32349 9.63745 5.58594 9.96094 5.58594C10.2844 5.58594 10.5469 5.32349 10.5469 5V1.52344C10.5469 0.683289 9.86359 0 9.02344 0H1.52344C0.683289 0 0 0.683289 0 1.52344V9.02344C0 9.86359 0.683289 10.5469 1.52344 10.5469H4.6875V18.8281C4.6875 19.1516 4.94995 19.4141 5.27344 19.4141H13.0078V21.9141H12.204C11.962 21.232 11.3107 20.7422 10.5469 20.7422C9.57764 20.7422 8.78906 21.5308 8.78906 22.5C8.78906 23.4692 9.57764 24.2578 10.5469 24.2578C11.3107 24.2578 11.962 23.768 12.204 23.0859H13.0078V25.1569C13.0078 26.1688 13.8312 26.9922 14.8431 26.9922H17.4609V33.952H10.5469V30.9766C10.5469 30.1364 9.86359 29.4531 9.02344 29.4531H1.52344C0.683289 29.4531 0 30.1364 0 30.9766V38.4766C0 39.3167 0.683289 40 1.52344 40H9.02344C9.86359 40 10.5469 39.3167 10.5469 38.4766V35.1239H18.0469C18.3704 35.1239 18.6328 34.8615 18.6328 34.538V26.9922H21.8359V29.5929C21.1539 29.8349 20.6641 30.4861 20.6641 31.25C20.6641 32.2192 21.4526 33.0078 22.4219 33.0078C23.3911 33.0078 24.1797 32.2192 24.1797 31.25C24.1797 30.4861 23.6899 29.8349 23.0078 29.5929V26.9922H25.1569C26.1688 26.9922 26.9922 26.1688 26.9922 25.1569V21.1679H34.1415V29.4531H30.9766C30.1364 29.4531 29.4531 30.1364 29.4531 30.9766V32.5C29.4531 32.8235 29.7156 33.0859 30.0391 33.0859C30.3625 33.0859 30.625 32.8235 30.625 32.5V30.9766C30.625 30.7828 30.7828 30.625 30.9766 30.625H38.4766C38.6703 30.625 38.8281 30.7828 38.8281 30.9766V38.4766C38.8281 38.6703 38.6703 38.8281 38.4766 38.8281H30.9766C30.7828 38.8281 30.625 38.6703 30.625 38.4766V34.9902C30.625 34.6667 30.3625 34.4043 30.0391 34.4043C29.7156 34.4043 29.4531 34.6667 29.4531 34.9902V38.4766C29.4531 39.3167 30.1364 40 30.9766 40H38.4766C39.3167 40 40 39.3167 40 38.4766V30.9766C40 30.1364 39.3167 29.4531 38.4766 29.4531H35.3134V20.582C35.3134 20.2585 35.051 19.996 34.7275 19.996H26.9922V18.0078H29.7842C30.0262 18.6899 30.6775 19.1797 31.4413 19.1797C32.4106 19.1797 33.1992 18.3911 33.1992 17.4219C33.1992 16.4526 32.4106 15.6641 31.4413 15.6641C30.6775 15.6641 30.0262 16.1539 29.7842 16.8359H26.9922V14.8431C26.9922 13.8312 26.1688 13.0078 25.1569 13.0078H23.0078V5.85938H29.4531V9.02344C29.4531 9.86359 30.1364 10.5469 30.9766 10.5469ZM18.0469 8.47656C18.3701 8.47656 18.6328 8.73932 18.6328 9.0625C18.6328 9.38568 18.3701 9.64844 18.0469 9.64844C17.7237 9.64844 17.4609 9.38568 17.4609 9.0625C17.4609 8.73932 17.7237 8.47656 18.0469 8.47656ZM10.5469 23.0859C10.2237 23.0859 9.96094 22.8232 9.96094 22.5C9.96094 22.1768 10.2237 21.9141 10.5469 21.9141C10.8701 21.9141 11.1328 22.1768 11.1328 22.5C11.1328 22.8232 10.8701 23.0859 10.5469 23.0859ZM9.375 38.4766C9.375 38.6703 9.21722 38.8281 9.02344 38.8281H1.52344C1.32965 38.8281 1.17188 38.6703 1.17188 38.4766V30.9766C1.17188 30.7828 1.32965 30.625 1.52344 30.625H9.02344C9.21722 30.625 9.375 30.7828 9.375 30.9766V38.4766ZM22.4219 31.8359C22.0987 31.8359 21.8359 31.5732 21.8359 31.25C21.8359 30.9268 22.0987 30.6641 22.4219 30.6641C22.7451 30.6641 23.0078 30.9268 23.0078 31.25C23.0078 31.5732 22.7451 31.8359 22.4219 31.8359ZM31.4413 16.8359C31.7645 16.8359 32.0273 17.0987 32.0273 17.4219C32.0273 17.7451 31.7645 18.0078 31.4413 18.0078C31.1182 18.0078 30.8554 17.7451 30.8554 17.4219C30.8554 17.0987 31.1182 16.8359 31.4413 16.8359ZM25.8203 14.8431V25.1569C25.8203 25.5228 25.5228 25.8203 25.1569 25.8203H14.8431C14.4772 25.8203 14.1797 25.5228 14.1797 25.1569V14.8431C14.1797 14.4772 14.4772 14.1797 14.8431 14.1797H25.1569C25.5228 14.1797 25.8203 14.4772 25.8203 14.8431ZM30.9766 1.17188H38.4766C38.6703 1.17188 38.8281 1.32965 38.8281 1.52344V9.02344C38.8281 9.21722 38.6703 9.375 38.4766 9.375H30.9766C30.7828 9.375 30.625 9.21722 30.625 9.02344V5.2887C30.6253 5.28351 30.6259 5.27863 30.6259 5.27344C30.6259 5.26825 30.6253 5.26337 30.625 5.25818V1.52344C30.625 1.32965 30.7828 1.17188 30.9766 1.17188Z" fill="#202020"/>
<path d="M32.6953 8.20312H36.7578C37.2531 8.20312 37.6562 7.79999 37.6562 7.30469V3.24219C37.6562 2.74689 37.2531 2.34375 36.7578 2.34375H32.6953C32.2 2.34375 31.7969 2.74689 31.7969 3.24219V7.30469C31.7969 7.79999 32.2 8.20312 32.6953 8.20312ZM32.9688 3.51562H36.4844V7.03125H32.9688V3.51562Z" fill="#202020"/>
<path d="M36.7578 37.6562C37.2531 37.6562 37.6562 37.2531 37.6562 36.7578V32.6953C37.6562 32.2 37.2531 31.7969 36.7578 31.7969H32.6953C32.2 31.7969 31.7969 32.2 31.7969 32.6953V36.7578C31.7969 37.2531 32.2 37.6562 32.6953 37.6562H36.7578ZM32.9688 32.9688H36.4844V36.4844H32.9688V32.9688Z" fill="#202020"/>
</g>
<defs>
<clipPath id="clip0_2492_4639">
<rect width="40" height="40" fill="white"/>
</clipPath>
</defs>
</svg>
