<svg width="40" height="40" viewBox="0 0 40 40" fill="none" xmlns="http://www.w3.org/2000/svg">
<g clip-path="url(#clip0_2638_4943)">
<path d="M25.2546 3.94533C25.0832 3.43 24.6506 3.05267 24.1259 2.962L22.1972 2.628L21.2919 0.809333C21.0419 0.310667 20.5472 0 19.9999 0C19.4526 0 18.9579 0.310667 18.7079 0.81L17.8026 2.62867L15.8746 2.96267C15.3492 3.05333 14.9159 3.43 14.7452 3.946C14.5686 4.47533 14.6952 5.05267 15.0746 5.45467L16.4612 6.92267L16.1666 8.96667C16.0852 9.528 16.3186 10.078 16.7746 10.4013C17.0212 10.5767 17.3099 10.6653 17.5992 10.6653C17.8239 10.6653 18.0499 10.612 18.2572 10.5033L19.9992 9.596L21.7412 10.5033C22.2172 10.7527 22.7859 10.712 23.2246 10.4013C23.6812 10.078 23.9139 9.52733 23.8326 8.96667L23.5379 6.92267L24.9246 5.45467C25.3039 5.05267 25.4306 4.47533 25.2539 3.946L25.2546 3.94533ZM23.9566 4.53867L22.3486 6.24133C22.2086 6.38933 22.1439 6.59267 22.1732 6.794L22.5146 9.15667C22.5279 9.25133 22.4766 9.298 22.4546 9.314C22.4079 9.34533 22.3759 9.33 22.3579 9.32133L20.3079 8.25267C20.1152 8.15267 19.8846 8.15267 19.6919 8.25267L17.6419 9.32133C17.6239 9.33067 17.5912 9.34533 17.5452 9.314C17.5232 9.298 17.4726 9.25067 17.4852 9.15667L17.8266 6.794C17.8559 6.59267 17.7912 6.38933 17.6512 6.24133L16.0432 4.53867C15.9826 4.474 15.9999 4.39667 16.0099 4.36667C16.0272 4.314 16.0579 4.284 16.1019 4.276L18.3632 3.884C18.5719 3.84733 18.7512 3.714 18.8466 3.524L19.9026 1.404C19.9112 1.38667 19.9379 1.33333 19.9999 1.33333C20.0619 1.33333 20.0892 1.386 20.0972 1.40333L21.1532 3.524C21.2486 3.714 21.4272 3.84733 21.6366 3.884L23.8986 4.276C23.9412 4.284 23.9719 4.314 23.9899 4.36667C24.0006 4.39667 24.0172 4.474 23.9566 4.53867Z" fill="#202020"/>
<path d="M13.2546 9.27883C13.0833 8.7635 12.6506 8.38616 12.126 8.2955L10.1973 7.9615L9.29195 6.14283C9.04328 5.64416 8.54862 5.3335 8.00062 5.3335C7.45262 5.3335 6.95862 5.64416 6.70862 6.1435L5.80328 7.96216L3.87528 8.29616C3.34995 8.38683 2.91662 8.7635 2.74595 9.2795C2.56928 9.80883 2.69595 10.3862 3.07528 10.7882L4.46195 12.2562L4.16728 14.3002C4.08595 14.8615 4.31928 15.4115 4.77528 15.7348C5.02195 15.9102 5.31062 15.9988 5.59995 15.9988C5.82462 15.9988 6.05062 15.9455 6.25795 15.8368L7.99995 14.9295L9.74195 15.8368C10.2186 16.0862 10.7873 16.0455 11.2253 15.7348C11.682 15.4115 11.9146 14.8608 11.8333 14.3002L11.5386 12.2562L12.9253 10.7882C13.3046 10.3862 13.4313 9.80816 13.2546 9.27883ZM11.9566 9.87216L10.3486 11.5748C10.2086 11.7228 10.144 11.9262 10.1733 12.1275L10.5146 14.4902C10.528 14.5848 10.4766 14.6315 10.4546 14.6475C10.408 14.6788 10.376 14.6642 10.358 14.6548L8.30795 13.5862C8.11528 13.4862 7.88462 13.4862 7.69195 13.5862L5.64195 14.6548C5.62395 14.6648 5.59195 14.6788 5.54528 14.6475C5.52328 14.6315 5.47262 14.5842 5.48528 14.4902L5.82662 12.1275C5.85595 11.9262 5.79128 11.7228 5.65128 11.5748L4.04328 9.87216C3.98262 9.8075 3.99995 9.73016 4.00995 9.70016C4.02728 9.6475 4.05795 9.6175 4.10195 9.6095L6.36328 9.2175C6.57195 9.18083 6.75128 9.0475 6.84662 8.8575L7.90262 6.7375C7.91128 6.72016 7.93795 6.66683 7.99995 6.66683C8.06195 6.66683 8.08928 6.7195 8.09728 6.73683L9.15328 8.8575C9.24862 9.0475 9.42728 9.18083 9.63662 9.2175L11.8986 9.6095C11.9413 9.6175 11.972 9.6475 11.99 9.70016C12.0006 9.73016 12.0173 9.8075 11.9566 9.87216Z" fill="#202020"/>
<path d="M37.2546 9.27883C37.0833 8.7635 36.6506 8.38616 36.126 8.2955L34.1973 7.9615L33.292 6.14283C33.0433 5.64416 32.5486 5.3335 32.0006 5.3335C31.4526 5.3335 30.9586 5.64416 30.7086 6.1435L29.8033 7.96216L27.8753 8.29616C27.35 8.38683 26.9166 8.7635 26.746 9.2795C26.5693 9.80883 26.6959 10.3862 27.0753 10.7882L28.462 12.2562L28.1673 14.3002C28.086 14.8615 28.3193 15.4115 28.7753 15.7348C29.0219 15.9102 29.3106 15.9988 29.6 15.9988C29.8246 15.9988 30.0506 15.9455 30.258 15.8368L32 14.9295L33.7419 15.8368C34.2179 16.0862 34.7873 16.0455 35.2253 15.7348C35.682 15.4115 35.9146 14.8608 35.8333 14.3002L35.5386 12.2562L36.9253 10.7882C37.3046 10.3862 37.4313 9.80816 37.2546 9.27883ZM35.9566 9.87216L34.3486 11.5748C34.2086 11.7228 34.1439 11.9262 34.1733 12.1275L34.5146 14.4902C34.528 14.5848 34.4766 14.6315 34.4546 14.6475C34.408 14.6788 34.3759 14.6642 34.3579 14.6548L32.308 13.5862C32.1153 13.4862 31.8846 13.4862 31.6919 13.5862L29.642 14.6548C29.6246 14.6648 29.5913 14.6788 29.5453 14.6475C29.5233 14.6315 29.4726 14.5842 29.4853 14.4902L29.8266 12.1275C29.856 11.9262 29.7913 11.7228 29.6513 11.5748L28.0433 9.87216C27.9826 9.8075 28 9.73016 28.01 9.70016C28.0273 9.6475 28.058 9.6175 28.102 9.6095L30.3633 9.2175C30.5719 9.18083 30.7513 9.0475 30.8466 8.8575L31.9026 6.7375C31.9113 6.72016 31.938 6.66683 32 6.66683C32.062 6.66683 32.0893 6.7195 32.0973 6.73683L33.1533 8.8575C33.2486 9.0475 33.4273 9.18083 33.6366 9.2175L35.8986 9.6095C35.9413 9.6175 35.972 9.6475 35.99 9.70016C36.0006 9.73016 36.0173 9.8075 35.9566 9.87216Z" fill="#202020"/>
<path d="M20 16C8.972 16 0 24.972 0 36C0 36.7353 0.598 37.3333 1.33333 37.3333H9.33333C10.0687 37.3333 10.6667 36.7353 10.6667 36C10.6667 30.8533 14.8533 26.6667 20 26.6667C23.1567 26.6667 26.0747 28.264 27.794 30.88C24.8207 31.9313 22.5153 32.78 20.818 33.4467C20.5547 33.3793 20.284 33.3333 20 33.3333C18.162 33.3333 16.6667 34.8287 16.6667 36.6667C16.6667 38.5047 18.162 40 20 40C21.3127 40 22.44 39.2307 22.9833 38.1247C24.7253 37.176 26.9613 35.888 29.2107 34.568C29.284 35.04 29.3333 35.5173 29.3333 36C29.3333 36.7353 29.9313 37.3333 30.6667 37.3333H38.6667C39.402 37.3333 40 36.7353 40 36C40 24.972 31.028 16 20 16ZM27.0513 28.006C25.2953 26.4553 23.058 25.5053 20.6667 25.356V17.35C25.3107 17.514 29.5273 19.3807 32.7107 22.3467L27.0513 28.006ZM9.33333 36H1.33333C1.33333 31.0927 3.23933 26.6247 6.34667 23.2893L12.012 28.9547C10.3507 30.836 9.33333 33.2987 9.33333 36ZM12.9547 28.012L7.28933 22.3467C10.4727 19.3813 14.6887 17.5147 19.3333 17.35V25.3667C16.8947 25.5187 14.6793 26.4887 12.9547 28.012ZM34.17 30.074C30.9707 31.9887 26.5387 34.6233 23.308 36.4227C23.2467 35.5913 22.8927 34.8413 22.3313 34.2907C25.0147 33.2673 28.908 31.88 34.17 30.074ZM19.9993 38.6667C18.8967 38.6667 17.9993 37.7693 17.9993 36.6667C17.9993 35.564 18.8967 34.6667 19.9993 34.6667C21.102 34.6667 21.9993 35.564 21.9993 36.6667C21.9993 37.7693 21.102 38.6667 19.9993 38.6667ZM30.666 36C30.666 35.2707 30.5887 34.548 30.4427 33.8427C32.01 32.9173 33.538 32.006 34.8573 31.2173C35.4567 30.854 35.6773 30.1333 35.3833 29.5033C35.0907 28.8773 34.404 28.5827 33.7427 28.8107C32.0487 29.392 30.5007 29.9293 29.0833 30.4267C28.7593 29.8993 28.3933 29.4073 27.9913 28.9513L33.652 23.2907C36.7593 26.626 38.6653 31.094 38.6653 36.0013H30.6653L30.666 36Z" fill="#202020"/>
</g>
<defs>
<clipPath id="clip0_2638_4943">
<rect width="40" height="40" fill="white"/>
</clipPath>
</defs>
</svg>
