<svg width="40" height="40" viewBox="0 0 40 40" fill="none" xmlns="http://www.w3.org/2000/svg">
<path d="M8.125 35C9.84812 35 11.25 33.5981 11.25 31.875C11.25 30.1519 9.84812 28.75 8.125 28.75C6.40188 28.75 5 30.1519 5 31.875C5 33.5981 6.40188 35 8.125 35ZM8.125 30C9.15875 30 10 30.8412 10 31.875C10 32.9088 9.15875 33.75 8.125 33.75C7.09125 33.75 6.25 32.9088 6.25 31.875C6.25 30.8412 7.09125 30 8.125 30Z" fill="black"/>
<path d="M1.875 33.75L2.83563 33.7756C2.89625 33.9444 2.96438 34.1088 3.05313 34.2956L2.38 34.9688C2.13563 35.2131 2.13563 35.6081 2.38 35.8525L4.1475 37.6206C4.265 37.7381 4.42313 37.8038 4.58938 37.8038C4.75563 37.8038 4.91438 37.7381 5.03125 37.6206L5.73062 36.9606C5.89125 37.0356 6.055 37.1038 6.25 37.1725V38.125C6.25 38.47 6.52938 38.75 6.875 38.75H9.375C9.72062 38.75 10 38.47 10 38.125L10.0269 37.1638C10.1956 37.1038 10.3587 37.0356 10.5456 36.9469L11.2188 37.62C11.4531 37.8544 11.8681 37.8544 12.1025 37.62L13.87 35.8519C14.1144 35.6075 14.1144 35.2125 13.87 34.9681L13.2094 34.2694C13.285 34.1088 13.3531 33.9438 13.4219 33.7494H14.375C14.7206 33.7494 15 33.4694 15 33.1244V30.6244C15 30.2794 14.7206 29.9994 14.375 29.9994L13.4144 29.9738C13.3537 29.805 13.2856 29.6406 13.1969 29.4537L13.87 28.7806C14.1144 28.5362 14.1144 28.1412 13.87 27.8969L12.1025 26.1287C11.985 26.0112 11.8269 25.9456 11.6606 25.9456C11.4944 25.9456 11.3356 26.0112 11.2188 26.1287L10.5194 26.7887C10.3587 26.7137 10.195 26.6456 10 26.5769V25.625C10 25.28 9.72062 25 9.375 25H6.875C6.52938 25 6.25 25.28 6.25 25.625L6.22312 26.5862C6.05437 26.6462 5.89125 26.7144 5.70437 26.8031L5.03125 26.13C4.79688 25.8956 4.38188 25.8956 4.1475 26.13L2.38 27.8981C2.13563 28.1425 2.13563 28.5375 2.38 28.7819L3.04062 29.4806C2.965 29.6412 2.89688 29.8062 2.82812 30.0006H1.875C1.52938 30.0006 1.25 30.2806 1.25 30.6256V33.1256C1.25 33.47 1.52938 33.75 1.875 33.75ZM2.5 31.25H2.8275C3.36125 31.25 3.82625 30.9144 4.01312 30.3938C4.05875 30.2638 4.11125 30.1375 4.17062 30.0125C4.405 29.5131 4.31312 28.9469 3.93625 28.5706L3.705 28.3394L4.58875 27.455L4.82 27.6863C5.19125 28.0581 5.77063 28.1519 6.2625 27.9206C6.38625 27.8619 6.51438 27.8087 6.645 27.7625C7.15625 27.5787 7.5 27.1031 7.5 26.5775V26.25H8.75V26.5775C8.75 27.1031 9.09375 27.5794 9.60437 27.7625C9.735 27.8094 9.86312 27.8625 9.98625 27.9206C10.4781 28.1525 11.0575 28.0594 11.4294 27.6869L11.6606 27.4556L12.5444 28.34L12.3131 28.5713C11.9362 28.9475 11.8444 29.5137 12.0794 30.0144C12.1381 30.1381 12.1906 30.2644 12.2369 30.3962C12.4237 30.9144 12.8888 31.25 13.4225 31.25H13.75V32.5H13.4225C12.8888 32.5 12.4237 32.8356 12.2369 33.3562C12.1912 33.4862 12.1388 33.6125 12.0794 33.7375C11.845 34.2369 11.9369 34.8031 12.3137 35.1794L12.545 35.4106L11.6613 36.295L11.43 36.0637C11.0581 35.6919 10.4787 35.5975 9.9875 35.8294C9.86375 35.8881 9.73563 35.9413 9.605 35.9875C9.09375 36.1713 8.75 36.6469 8.75 37.1725V37.5H7.5V37.1725C7.5 36.6469 7.15625 36.1706 6.64563 35.9875C6.515 35.9406 6.38688 35.8875 6.26375 35.8294C5.77313 35.5975 5.19313 35.6906 4.82062 36.0631L4.58938 36.2944L3.70563 35.41L3.93687 35.1787C4.31375 34.8025 4.40562 34.2363 4.17062 33.7356C4.11187 33.6119 4.05938 33.4856 4.01312 33.3538C3.82625 32.8356 3.36125 32.5 2.8275 32.5H2.5V31.25Z" fill="black"/>
<path d="M8.125 11.25C9.84812 11.25 11.25 9.84812 11.25 8.125C11.25 6.40188 9.84812 5 8.125 5C6.40188 5 5 6.40188 5 8.125C5 9.84812 6.40188 11.25 8.125 11.25ZM8.125 6.25C9.15875 6.25 10 7.09125 10 8.125C10 9.15875 9.15875 10 8.125 10C7.09125 10 6.25 9.15875 6.25 8.125C6.25 7.09125 7.09125 6.25 8.125 6.25Z" fill="black"/>
<path d="M1.875 10L2.83563 10.0256C2.89625 10.1944 2.96438 10.3587 3.05313 10.5456L2.38 11.2188C2.13563 11.4631 2.13563 11.8581 2.38 12.1025L4.1475 13.8706C4.265 13.9881 4.42313 14.0538 4.58938 14.0538C4.75563 14.0538 4.91438 13.9881 5.03125 13.8706L5.73062 13.2106C5.89125 13.2856 6.055 13.3538 6.25 13.4225V14.375C6.25 14.72 6.52938 15 6.875 15H9.375C9.72062 15 10 14.72 10 14.375L10.0269 13.4137C10.1956 13.3538 10.3587 13.2856 10.5456 13.1969L11.2188 13.87C11.4531 14.1044 11.8681 14.1044 12.1025 13.87L13.87 12.1019C14.1144 11.8575 14.1144 11.4625 13.87 11.2181L13.2094 10.5194C13.285 10.3587 13.3531 10.1937 13.4219 9.99937H14.375C14.7206 9.99937 15 9.71937 15 9.37437V6.87437C15 6.52937 14.7206 6.24937 14.375 6.24937L13.4144 6.22375C13.3537 6.055 13.2856 5.89063 13.1969 5.70375L13.87 5.03062C14.1144 4.78625 14.1144 4.39125 13.87 4.14688L12.1025 2.37875C11.985 2.26125 11.8269 2.19563 11.6606 2.19563C11.4944 2.19563 11.3356 2.26125 11.2188 2.37875L10.5194 3.03875C10.3587 2.96438 10.195 2.89625 10 2.8275V1.875C10 1.53 9.72062 1.25 9.375 1.25H6.875C6.52938 1.25 6.25 1.53 6.25 1.875L6.22312 2.83625C6.05437 2.89625 5.89125 2.96438 5.70437 3.05313L5.03125 2.38C4.79688 2.14563 4.38188 2.14563 4.1475 2.38L2.38 4.1475C2.13563 4.39188 2.13563 4.78688 2.38 5.03125L3.04062 5.73C2.96437 5.89125 2.89625 6.05562 2.8275 6.25H1.875C1.52938 6.25 1.25 6.53 1.25 6.875V9.375C1.25 9.72 1.52938 10 1.875 10ZM2.5 7.5H2.8275C3.36125 7.5 3.82625 7.16438 4.01312 6.64375C4.05875 6.51375 4.11125 6.3875 4.17062 6.2625C4.405 5.76313 4.31312 5.19687 3.93625 4.82062L3.705 4.58938L4.58875 3.705L4.82 3.93625C5.19125 4.3075 5.77063 4.40125 6.2625 4.17062C6.38625 4.11187 6.51438 4.05875 6.645 4.0125C7.15625 3.82875 7.5 3.35313 7.5 2.8275V2.5H8.75V2.8275C8.75 3.35313 9.09375 3.82938 9.60437 4.0125C9.735 4.05938 9.86312 4.1125 9.98625 4.17062C10.4781 4.4025 11.0575 4.30937 11.4294 3.93687L11.6606 3.70563L12.5444 4.59L12.3131 4.82125C11.9362 5.1975 11.8444 5.76375 12.0794 6.26437C12.1381 6.38812 12.1906 6.51437 12.2369 6.64625C12.4237 7.16437 12.8888 7.5 13.4225 7.5H13.75V8.75H13.4225C12.8888 8.75 12.4237 9.08562 12.2369 9.60625C12.1912 9.73625 12.1388 9.8625 12.0794 9.9875C11.845 10.4869 11.9369 11.0531 12.3137 11.4294L12.545 11.6606L11.6613 12.545L11.43 12.3137C11.0581 11.9419 10.4787 11.8475 9.9875 12.0794C9.86375 12.1381 9.73563 12.1912 9.605 12.2375C9.09375 12.4213 8.75 12.8969 8.75 13.4225V13.75H7.5V13.4225C7.5 12.8969 7.15625 12.4206 6.64563 12.2375C6.515 12.1906 6.38688 12.1375 6.26375 12.0794C5.77313 11.8481 5.19313 11.9412 4.82062 12.3131L4.58938 12.5444L3.70563 11.66L3.93687 11.4287C4.31375 11.0525 4.40562 10.4862 4.17062 9.98563C4.11187 9.86188 4.05938 9.73563 4.01312 9.60375C3.82625 9.08563 3.36125 8.75 2.8275 8.75H2.5V7.5Z" fill="black"/>
<path d="M34.1562 23.9006C33.9712 23.7425 33.7106 23.7063 33.4887 23.8075C33.2675 23.9094 33.125 24.1306 33.125 24.375V25.625H29.4312C28.49 25.625 27.6137 25.0844 27.1968 24.2456L26.1843 22.2206L25.0662 22.78L26.0781 24.8038C26.7037 26.0619 28.0193 26.875 29.4312 26.875H33.75C34.0956 26.875 34.375 26.595 34.375 26.25V25.7338L37.165 28.125L34.375 30.5163V30C34.375 29.655 34.0956 29.375 33.75 29.375H28.8625C26.7168 29.375 24.7906 28.1831 23.8343 26.2644L23.375 25.3456L22.2568 25.905L22.7162 26.8231C23.885 29.1681 26.24 30.625 28.8625 30.625H33.125V31.875C33.125 32.1194 33.2675 32.3406 33.4887 32.4431C33.5725 32.4813 33.6612 32.5 33.75 32.5C33.8962 32.5 34.0412 32.4481 34.1562 32.3494L38.5312 28.5994C38.67 28.4806 38.75 28.3075 38.75 28.125C38.75 27.9425 38.67 27.7694 38.5312 27.6506L34.1562 23.9006Z" fill="black"/>
<path d="M18.4888 19.6037L19.0112 18.4681C18.5231 18.2437 17.9812 18.125 17.4438 18.125H8.125V19.375H17.4438C17.8019 19.375 18.1638 19.4537 18.4888 19.6037Z" fill="black"/>
<path d="M13.75 15.625H18.0125C18.8537 15.625 19.7006 15.8194 20.4612 16.1875L21.0056 15.0619C20.0763 14.6125 19.0412 14.375 18.0125 14.375H13.75V15.625Z" fill="black"/>
<path d="M17.4438 21.25H8.125V22.5H17.4438C18.8731 22.5 20.1588 21.7056 20.7975 20.4269L23.8313 14.3594C24.7906 12.4413 26.7181 11.25 28.8631 11.25H33.75C34.0956 11.25 34.375 10.97 34.375 10.625V10.1088L37.165 12.5L34.375 14.8913V14.375C34.375 14.03 34.0956 13.75 33.75 13.75H29.4312C28.0019 13.75 26.7162 14.5444 26.0775 15.8231L23.0437 21.8906C22.0844 23.8088 20.1569 25 18.0119 25H13.75V26.25H18.0119C20.6331 26.25 22.9894 24.7937 24.1613 22.4494L27.195 16.3819C27.6213 15.5294 28.4775 15 29.4312 15H33.125V16.25C33.125 16.4944 33.2675 16.7156 33.4888 16.8181C33.71 16.9206 33.9706 16.8831 34.1562 16.725L38.5312 12.975C38.67 12.8556 38.75 12.6825 38.75 12.5C38.75 12.3175 38.67 12.1444 38.5312 12.0256L34.1562 8.27563C33.9713 8.1175 33.7106 8.08125 33.4888 8.1825C33.2675 8.28438 33.125 8.50563 33.125 8.75V10H28.8631C26.2419 10 23.8856 11.4563 22.7137 13.8006L19.68 19.8681C19.2538 20.7206 18.3975 21.25 17.4438 21.25Z" fill="black"/>
<path d="M5.625 18.125H6.875V19.375H5.625V18.125Z" fill="black"/>
<path d="M3.125 18.125H4.375V19.375H3.125V18.125Z" fill="black"/>
<path d="M5.625 21.25H6.875V22.5H5.625V21.25Z" fill="black"/>
<path d="M3.125 21.25H4.375V22.5H3.125V21.25Z" fill="black"/>
</svg>
