<svg width="40" height="41" viewBox="0 0 40 41" fill="none" xmlns="http://www.w3.org/2000/svg">
<path d="M10.625 13.625H11.875V14.875H10.625V13.625Z" fill="#202020"/>
<path d="M15.625 13.625H16.875V14.875H15.625V13.625Z" fill="#202020"/>
<path d="M13.125 13.625H14.375V14.875H13.125V13.625Z" fill="#202020"/>
<path d="M14.375 8.625H15.625V9.875H14.375V8.625Z" fill="#202020"/>
<path d="M19.375 8.625H20.625V9.875H19.375V8.625Z" fill="#202020"/>
<path d="M16.875 8.625H18.125V9.875H16.875V8.625Z" fill="#202020"/>
<path d="M10.625 3.625H11.875V4.875H10.625V3.625Z" fill="#202020"/>
<path d="M13.125 3.625H14.375V4.875H13.125V3.625Z" fill="#202020"/>
<path d="M15.625 3.625H16.875V4.875H15.625V3.625Z" fill="#202020"/>
<path d="M38.415 34.2812L28.75 24.6162L28.125 25.2412L25.98 23.0962C27.3319 21.0938 28.125 18.6938 28.125 16.125C28.125 12.2069 26.26 8.50312 23.125 6.14375V3C23.125 1.96625 22.2838 1.125 21.25 1.125H10C8.96625 1.125 8.125 1.96625 8.125 3V6.14375C4.99 8.50312 3.125 12.2069 3.125 16.125C3.125 18.4619 3.79688 20.7481 5.02063 22.7181C4.645 22.7819 4.28625 22.955 4.00125 23.24L2.74 24.5013C2.12812 25.1131 2.01 26.0588 2.45937 26.8156C2.56125 26.9862 2.57563 27.2006 2.49125 27.4012C2.41438 27.5856 2.25437 27.725 2.04813 27.7775C1.21062 27.9906 0.625 28.7431 0.625 29.6081V31.3919C0.625 32.2569 1.21063 33.0094 2.06313 33.2269C2.24938 33.2744 2.40062 33.4012 2.4825 33.5769L2.49687 33.6131C2.57562 33.8 2.56187 34.0144 2.4525 34.1981C2.01063 34.9419 2.12875 35.8881 2.74063 36.5L4.00187 37.7612C4.6125 38.3731 5.55875 38.4912 6.31625 38.0419C6.48688 37.94 6.70125 37.925 6.90188 38.01L6.91187 38.0137C7.09375 38.0938 7.22563 38.2481 7.27813 38.4531C7.49063 39.2894 8.24312 39.875 9.10812 39.875H10.8919C11.7569 39.875 12.5094 39.2894 12.7269 38.4369C12.7744 38.2506 12.9012 38.0994 13.0769 38.0175L13.1131 38.0031C13.2994 37.9238 13.5144 37.9388 13.6981 38.0475C14.4406 38.49 15.3875 38.3713 16 37.7594L17.2612 36.4981C17.8731 35.8862 17.9912 34.9406 17.5419 34.1838C17.44 34.0131 17.4256 33.7988 17.51 33.5981L17.5138 33.5881C17.5938 33.4062 17.7481 33.2744 17.9531 33.2219C18.7894 33.0094 19.375 32.2569 19.375 31.3919V29.6081C19.375 29.06 19.1388 28.5588 18.75 28.2081C20.1462 27.8488 21.4444 27.2631 22.6 26.4838L24.7412 28.625L24.1162 29.25L33.7819 38.9162C34.4012 39.5344 35.2238 39.875 36.0988 39.875C37.905 39.875 39.375 38.405 39.375 36.5988C39.375 35.7231 39.0337 34.9 38.415 34.2812ZM26.875 16.125C26.875 21.6413 22.8569 26.3175 17.46 27.205C17.4463 27.0694 17.4731 26.9294 17.5481 26.8031C17.7219 26.5106 17.8056 26.1875 17.8106 25.8656C22.3731 24.8538 25.625 20.8594 25.625 16.125C25.625 13.6944 24.7344 11.3687 23.125 9.53875V7.75688C25.4912 9.88 26.875 12.9237 26.875 16.125ZM8.52375 21.2206C7.4475 19.7281 6.875 17.9794 6.875 16.125C6.875 14.5325 7.31437 12.9919 8.125 11.6444V15.5C8.125 16.5337 8.96625 17.375 10 17.375H21.25C22.2838 17.375 23.125 16.5337 23.125 15.5V11.6438C23.9356 12.9913 24.375 14.5319 24.375 16.125C24.375 20.3125 21.4662 23.8381 17.4044 24.6731C17.3581 24.6144 17.3131 24.555 17.2594 24.5013L15.9981 23.24C15.3863 22.6281 14.4394 22.51 13.6844 22.9594C13.5125 23.06 13.2988 23.0744 13.0981 22.9912L13.0881 22.9875C12.9062 22.9075 12.7744 22.7531 12.7219 22.5481C12.5094 21.7106 11.7569 21.125 10.8919 21.125H9.10812C8.905 21.125 8.70937 21.16 8.52375 21.2206ZM9.375 12.375H21.875V15.5C21.875 15.845 21.595 16.125 21.25 16.125H10C9.655 16.125 9.375 15.845 9.375 15.5V12.375ZM21.875 11.125H9.375V7.375H21.875V11.125ZM10 2.375H21.25C21.595 2.375 21.875 2.655 21.875 3V6.125H9.375V3C9.375 2.655 9.655 2.375 10 2.375ZM8.125 7.75688V9.53938C6.51562 11.3694 5.625 13.695 5.625 16.125C5.625 18.2244 6.30312 20.2787 7.53125 21.9775C7.41625 22.1525 7.32812 22.3494 7.27375 22.5631C7.22625 22.7494 7.09938 22.9006 6.92375 22.9825L6.88812 22.9969C6.84625 23.0144 6.80312 23.0256 6.75875 23.0338C5.22438 21.0662 4.375 18.6269 4.375 16.125C4.375 12.9237 5.75875 9.88 8.125 7.75688ZM18.125 31.3919C18.125 31.6844 17.9269 31.9394 17.6294 32.0156C17.0594 32.16 16.5825 32.5725 16.3544 33.1175L16.3387 33.1575C16.1206 33.7012 16.1681 34.3225 16.4738 34.8356C16.6231 35.0875 16.5831 35.4081 16.3762 35.615L15.115 36.8763C14.9075 37.0838 14.5869 37.1237 14.3237 36.9669C13.8225 36.6681 13.2006 36.6219 12.6575 36.8394L12.6175 36.855C12.0725 37.0831 11.6606 37.56 11.5119 38.1437C11.4394 38.4269 11.1844 38.625 10.8919 38.625H9.10812C8.81563 38.625 8.56063 38.4269 8.48438 38.1294C8.34 37.5594 7.9275 37.0825 7.3825 36.8544L7.3425 36.8387C6.8 36.62 6.17812 36.6669 5.66437 36.9738C5.4125 37.1238 5.0925 37.0838 4.885 36.8763L3.62375 35.615C3.41687 35.4081 3.37625 35.0875 3.53312 34.8237C3.83187 34.3219 3.87875 33.7012 3.66062 33.1575L3.645 33.1175C3.41687 32.5725 2.94 32.1606 2.35625 32.0119C2.07313 31.9394 1.875 31.6844 1.875 31.3919V29.6081C1.875 29.3156 2.07313 29.0606 2.37063 28.9844C2.94125 28.84 3.41813 28.4275 3.64938 27.8725C3.88125 27.3213 3.83812 26.6875 3.52688 26.165C3.3775 25.9131 3.4175 25.5925 3.62437 25.3856L4.88562 24.1244C5.09312 23.9169 5.41312 23.8775 5.6775 24.0337C6.1875 24.3369 6.82062 24.38 7.31375 24.17L7.38312 24.1456C7.92812 23.9175 8.34 23.4406 8.48875 22.8569C8.56063 22.5731 8.81563 22.375 9.10812 22.375H10.8919C11.1844 22.375 11.4394 22.5731 11.5156 22.8706C11.66 23.4406 12.0725 23.9175 12.6281 24.1494C13.1781 24.3813 13.8125 24.3388 14.335 24.0269C14.5875 23.8781 14.9075 23.9175 15.1144 24.1244L16.3756 25.3856C16.5825 25.5925 16.6231 25.9131 16.4663 26.1769C16.1625 26.6875 16.1187 27.3219 16.355 27.8825C16.5819 28.4281 17.0588 28.84 17.6431 28.9888C17.9269 29.0606 18.125 29.3156 18.125 29.6081V31.3919ZM23.6075 25.7238C24.195 25.2344 24.735 24.6931 25.2231 24.1069L27.2412 26.125L25.625 27.7412L23.6075 25.7238ZM36.0988 38.625C35.5581 38.625 35.0488 38.4144 34.6656 38.0319L25.8838 29.25L28.75 26.3838L37.5312 35.165C37.9137 35.5481 38.125 36.0575 38.125 36.5988C38.125 37.7163 37.2163 38.625 36.0988 38.625Z" fill="#202020"/>
<path d="M10 24.875C6.89813 24.875 4.375 27.3981 4.375 30.5C4.375 33.6019 6.89813 36.125 10 36.125C13.1019 36.125 15.625 33.6019 15.625 30.5C15.625 27.3981 13.1019 24.875 10 24.875ZM10 34.875C7.58812 34.875 5.625 32.9119 5.625 30.5C5.625 28.0881 7.58812 26.125 10 26.125C12.4119 26.125 14.375 28.0881 14.375 30.5C14.375 32.9119 12.4119 34.875 10 34.875Z" fill="#202020"/>
<path d="M8.74998 31.4912L7.94186 30.6831L7.05811 31.5669L8.74998 33.2587L12.9419 29.0669L12.0581 28.1831L8.74998 31.4912Z" fill="#202020"/>
<path d="M36.25 37.375C36.5952 37.375 36.875 37.0952 36.875 36.75C36.875 36.4048 36.5952 36.125 36.25 36.125C35.9048 36.125 35.625 36.4048 35.625 36.75C35.625 37.0952 35.9048 37.375 36.25 37.375Z" fill="#202020"/>
</svg>
