<svg width="40" height="40" viewBox="0 0 40 40" fill="none" xmlns="http://www.w3.org/2000/svg">
<path d="M28.1132 28.2293V26.2025C28.1132 25.9439 27.954 25.7121 27.7128 25.6192L26.7704 25.2565C26.6256 24.7551 26.4254 24.2722 26.1727 23.8146L26.5829 22.8912C26.6878 22.6549 26.6364 22.3784 26.4536 22.1956L25.0204 20.7623C24.8375 20.5795 24.561 20.5282 24.3247 20.6331L23.4009 21.0434C22.9433 20.7908 22.4607 20.5907 21.9596 20.4459L21.5967 19.5032C21.5039 19.2619 21.272 19.1027 21.0134 19.1027H18.9866C18.728 19.1027 18.4962 19.262 18.4033 19.5032L18.0404 20.4459C17.5393 20.5907 17.0567 20.7909 16.5991 21.0434L15.6753 20.6331C15.439 20.5281 15.1625 20.5795 14.9796 20.7623L13.5464 22.1956C13.3636 22.3784 13.3122 22.6548 13.4171 22.8912L13.8274 23.8148C13.5747 24.2723 13.3746 24.7551 13.2297 25.2563L12.2872 25.6191C12.0459 25.712 11.8868 25.9438 11.8868 26.2024V28.2292C11.8868 28.4878 12.046 28.7196 12.2872 28.8125L13.2296 29.1752C13.3745 29.6767 13.5746 30.1595 13.8273 30.617L13.4171 31.5404C13.3121 31.7767 13.3636 32.0532 13.5464 32.236L14.9796 33.6692C15.1624 33.8521 15.4388 33.9034 15.6752 33.7985L16.599 33.3882C17.0565 33.6409 17.5392 33.8409 18.0403 33.9858L18.4032 34.9284C18.4961 35.1698 18.7279 35.3289 18.9865 35.3289H21.0133C21.2719 35.3289 21.5037 35.1697 21.5966 34.9284L21.9593 33.9861C22.4608 33.8413 22.9436 33.641 23.4012 33.3884L24.3246 33.7985C24.5608 33.9035 24.8374 33.8521 25.0202 33.6693L26.4533 32.2361C26.6361 32.0533 26.6875 31.7768 26.5825 31.5405L26.1722 30.6166C26.4249 30.1591 26.625 29.6765 26.7698 29.1753L27.7125 28.8125C27.9539 28.7198 28.1132 28.4879 28.1132 28.2293ZM26.8632 27.8002L26.0229 28.1236C25.8305 28.1977 25.6871 28.3617 25.6393 28.5623C25.4975 29.1587 25.2619 29.7267 24.9394 30.2506C24.8314 30.4261 24.8168 30.6436 24.9004 30.832L25.2663 31.6558L24.44 32.482L23.6166 32.1163C23.4281 32.0326 23.2107 32.0472 23.0351 32.1554C22.5114 32.4779 21.9433 32.7134 21.3464 32.8555C21.1459 32.9032 20.9818 33.0466 20.9078 33.239L20.5844 34.0791H19.4158L19.0923 33.2387C19.0183 33.0463 18.8542 32.9029 18.6537 32.8552C18.0572 32.7132 17.4892 32.4777 16.9654 32.1552C16.7899 32.0471 16.5724 32.0326 16.3841 32.1162L15.5603 32.4821L14.7339 31.6558L15.0996 30.8324C15.1833 30.644 15.1687 30.4265 15.0606 30.2509C14.7382 29.7274 14.5026 29.1592 14.3605 28.5621C14.3128 28.3616 14.1693 28.1976 13.977 28.1235L13.1369 27.8002V26.6316L13.9772 26.3081C14.1696 26.2341 14.313 26.0701 14.3607 25.8695C14.5027 25.2728 14.7382 24.7048 15.0607 24.1811C15.1688 24.0056 15.1834 23.7881 15.0998 23.5997L14.7339 22.776L15.5603 21.9497L16.3841 22.3156C16.5724 22.3992 16.79 22.3846 16.9654 22.2766C17.4893 21.9541 18.0573 21.7185 18.6538 21.5766C18.8543 21.5288 19.0183 21.3854 19.0923 21.1931L19.4158 20.3526H20.5844L20.9079 21.193C20.9819 21.3853 21.146 21.5288 21.3464 21.5765C21.9429 21.7184 22.5109 21.954 23.0348 22.2765C23.2103 22.3845 23.4278 22.3991 23.6161 22.3155L24.44 21.9496L25.2663 22.7759L24.9006 23.5994C24.8169 23.7877 24.8315 24.0053 24.9396 24.1808C25.2621 24.7045 25.4977 25.2727 25.6397 25.8695C25.6875 26.07 25.8309 26.2341 26.0232 26.3081L26.8633 26.6315V27.8002H26.8632ZM20 23.0563C17.7064 23.0563 15.8403 24.9223 15.8403 27.216C15.8403 29.5096 17.7064 31.3757 20 31.3757C22.2937 31.3757 24.1598 29.5097 24.1598 27.216C24.1598 24.9223 22.2937 23.0563 20 23.0563ZM20 30.1256C18.3956 30.1256 17.0904 28.8203 17.0904 27.2159C17.0904 25.6115 18.3957 24.3062 20 24.3062C21.6044 24.3062 22.9098 25.6115 22.9098 27.2159C22.9098 28.8203 21.6044 30.1256 20 30.1256ZM26.3342 36.8733C26.5079 37.1716 26.4068 37.5542 26.1086 37.7279C24.2418 38.8148 22.1598 39.3753 20.0221 39.3753C19.5922 39.3753 19.1603 39.3527 18.7272 39.307C15.4975 38.967 12.5936 37.3897 10.5503 34.8656C8.50699 32.3416 7.56887 29.1728 7.90887 25.9431C8.11121 24.0209 8.76066 22.1945 9.80246 20.5934L9.57871 20.6573C9.24676 20.752 8.9009 20.5596 8.80621 20.2277C8.71152 19.8958 8.90387 19.5499 9.23574 19.4552L11.2818 18.8715C11.4664 18.8188 11.6653 18.8539 11.8207 18.967C11.9761 19.0799 12.0709 19.2581 12.0778 19.4501L12.1542 21.5763C12.1666 21.9213 11.897 22.211 11.552 22.2234C11.5443 22.2237 11.5368 22.2238 11.5292 22.2238C11.1943 22.2238 10.9171 21.9585 10.905 21.6212L10.8904 21.2152C9.93308 22.6656 9.33605 24.3252 9.15199 26.0739C8.84699 28.9716 9.68863 31.8145 11.5218 34.0791C13.355 36.3437 15.9604 37.7588 18.8581 38.0638C21.179 38.3082 23.4686 37.8184 25.4796 36.6476C25.7779 36.474 26.1605 36.5748 26.3342 36.8733ZM33.8401 8.90672L29.9711 4.34985C29.7986 4.14672 29.5468 4.03024 29.2804 4.03024C29.0139 4.03024 28.7623 4.1468 28.5899 4.34985L24.7207 8.90688C24.4895 9.17938 24.439 9.54993 24.589 9.87399C24.7389 10.1979 25.0541 10.3992 25.4114 10.3992H26.5885V16.991C25.4027 16.2252 24.0879 15.6728 22.6921 15.3588V6.99368H23.869C24.2264 6.99368 24.5416 6.79227 24.6916 6.46813C24.8415 6.14407 24.791 5.77352 24.5597 5.50126L20.6907 0.94438C20.5182 0.741256 20.2665 0.624771 20 0.624771C19.7336 0.624771 19.4819 0.741256 19.3094 0.94438L15.4403 5.50126C15.209 5.77368 15.1585 6.14422 15.3085 6.46829C15.4584 6.79235 15.7736 6.99376 16.131 6.99376H17.308V15.3582C16.2375 15.6012 15.1992 15.9891 14.2182 16.5206C13.9147 16.6849 13.802 17.0643 13.9664 17.3678C14.1308 17.6713 14.5101 17.7841 14.8136 17.6197C16.7528 16.5692 18.9414 16.1363 21.1419 16.3681C24.0395 16.6731 26.6449 18.0882 28.4782 20.3527C30.3114 22.6173 31.153 25.4603 30.8479 28.3579C30.6635 30.1102 30.0672 31.7671 29.1095 33.217L29.0949 32.8106C29.0825 32.4656 28.7913 32.1948 28.4478 32.2084C28.1028 32.2209 27.8333 32.5106 27.8457 32.8555L27.9221 34.9818C27.9289 35.1738 28.0238 35.352 28.1793 35.4649C28.2872 35.5434 28.4161 35.5844 28.5468 35.5844C28.6041 35.5844 28.6618 35.5765 28.7182 35.5604L30.7642 34.9766C31.0961 34.882 31.2884 34.5361 31.1937 34.2041C31.099 33.8721 30.753 33.6797 30.4212 33.7746L30.1956 33.839C31.238 32.2383 31.8882 30.4153 32.091 28.4888C32.2724 26.7652 32.0896 25.059 31.5693 23.4588C31.8158 23.2412 31.9724 22.9238 31.9724 22.5699V10.3991H33.1493C33.5068 10.3991 33.8219 10.1978 33.9719 9.87376C34.122 9.54969 34.0714 9.17915 33.8401 8.90672ZM18.558 15.1416V6.36868C18.558 6.02352 18.2782 5.74368 17.933 5.74368H16.8743L20 2.06227L23.1258 5.74368H22.0671C21.7219 5.74368 21.4421 6.02352 21.4421 6.36868V15.1447C21.3857 15.138 21.3294 15.1307 21.2728 15.1248C20.3615 15.029 19.4521 15.0358 18.558 15.1416ZM31.3475 9.14915C31.0023 9.14915 30.7225 9.42899 30.7225 9.77415V21.4792C30.3627 20.8101 29.9382 20.1695 29.4496 19.5662C28.9597 18.961 28.4199 18.4109 27.8384 17.9186V9.77415C27.8384 9.42899 27.5586 9.14915 27.2134 9.14915H26.1547L29.2804 5.46766L32.4061 9.14915H31.3475ZM8.02762 13.8046H6.85058C6.49324 13.8046 6.17808 13.6033 6.02808 13.2793C5.87808 12.9553 5.92863 12.5847 6.15988 12.3123L10.029 7.75532C10.2014 7.55227 10.4531 7.43579 10.7195 7.43571C10.9859 7.43571 11.2377 7.55211 11.4102 7.75516L15.2793 12.3122C15.5106 12.5845 15.5611 12.9551 15.4112 13.2791C15.2613 13.6032 14.9461 13.8046 14.5887 13.8046H13.4117V17.9202C13.4117 18.2654 13.1318 18.5452 12.7867 18.5452C12.4415 18.5452 12.1617 18.2654 12.1617 17.9202V13.1796C12.1617 12.8345 12.4415 12.5546 12.7867 12.5546H13.8454L10.7197 8.87313L7.59394 12.5546H8.65269C8.99785 12.5546 9.27769 12.8345 9.27769 13.1796V17.9202C9.27769 18.2654 8.99785 18.5452 8.65269 18.5452C8.30754 18.5452 8.02769 18.2654 8.02769 17.9202L8.02762 13.8046Z" fill="#202020"/>
</svg>
