<svg width="40" height="40" viewBox="0 0 40 40" fill="none" xmlns="http://www.w3.org/2000/svg">
<g clip-path="url(#clip0_1861_25153)">
<path d="M35.5943 8.92516C35.178 8.42343 34.6999 7.98355 34.1695 7.61953C32.7714 3.1238 28.5543 0 23.8252 0C20.5459 0 17.4935 1.46691 15.4439 3.97106L15.4113 3.82507H11.8387L11.7278 4.32424C11.6201 4.80811 11.2956 5.19444 10.8378 5.38442C10.3795 5.57376 9.87775 5.53041 9.45954 5.26393L9.02858 4.98916L7.642 6.37511H5.33739V3.70776C6.07754 3.44384 6.61242 2.74257 6.61242 1.91253C6.61242 0.85809 5.75433 0 4.69988 0C3.64544 0 2.78735 0.85809 2.78735 1.91253C2.78735 2.74257 3.32222 3.44384 4.06237 3.70776V7.65013H6.58755L6.77626 7.94658C7.0421 8.36478 7.08609 8.86714 6.89611 9.32551C6.70677 9.78388 6.32044 10.1077 5.83657 10.2155L5.33739 10.3264V11.4752H3.94507C3.68114 10.7351 2.97988 10.2002 2.14984 10.2002C1.09539 10.2002 0.237305 11.0583 0.237305 12.1127C0.237305 13.1672 1.09539 14.0252 2.14984 14.0252C2.97988 14.0252 3.68114 13.4904 3.94507 12.7502H5.33739V13.899L5.83657 14.0099C6.32044 14.1177 6.70677 14.4422 6.89675 14.8999C7.08609 15.3576 7.04274 15.86 6.77626 16.2782L6.58692 16.5753H4.06237V24.3427C3.32222 24.6067 2.78735 25.3079 2.78735 26.138C2.78735 27.1924 3.64544 28.0505 4.69988 28.0505C5.75433 28.0505 6.61242 27.1924 6.61242 26.138C6.61242 25.3079 6.07754 24.6067 5.33739 24.3427V17.8503H7.64263L9.02858 19.2363L9.16246 19.1508V21.7927C8.42231 22.0566 7.88744 22.7579 7.88744 23.5879C7.88744 24.6424 8.74553 25.5004 9.79997 25.5004C10.8544 25.5004 11.7125 24.6424 11.7125 23.5879C11.7125 22.7579 11.1776 22.0566 10.4375 21.7927V18.7409C10.5726 18.7575 10.7072 18.7868 10.8378 18.841C11.2956 19.031 11.6201 19.4173 11.7278 19.9012L11.8387 20.4004H15.4113L15.5223 19.9012C15.6262 19.4333 15.9367 19.0603 16.3708 18.8646C16.599 19.126 16.8285 19.3893 17.0517 19.6373C18.2916 21.0162 19.3626 22.2071 19.3626 23.5879V24.8629C19.3626 25.3545 19.5545 25.7988 19.8599 26.138C19.5539 26.4771 19.3626 26.9215 19.3626 27.413C19.3626 28.1359 19.7706 28.7594 20.3642 29.0839L18.6225 32.5673L23.8252 40L29.0279 32.5679L27.2863 29.0845C27.8798 28.7594 28.2878 28.1359 28.2878 27.413C28.2878 26.9215 28.0959 26.4771 27.7905 26.138C28.0965 25.7988 28.2878 25.3545 28.2878 24.8629V23.5879C28.2878 22.9689 28.502 22.3652 28.9457 21.6754H29.8994C31.81 21.6754 33.7213 21.2329 35.4407 20.4004H39.763V8.92516H35.5943ZM4.69988 1.27502C5.05115 1.27502 5.33739 1.56126 5.33739 1.91253C5.33739 2.2638 5.05115 2.55004 4.69988 2.55004C4.34861 2.55004 4.06237 2.2638 4.06237 1.91253C4.06237 1.56126 4.34861 1.27502 4.69988 1.27502ZM2.14984 12.7502C1.79857 12.7502 1.51233 12.464 1.51233 12.1127C1.51233 11.7614 1.79857 11.4752 2.14984 11.4752C2.50111 11.4752 2.78735 11.7614 2.78735 12.1127C2.78735 12.464 2.50111 12.7502 2.14984 12.7502ZM4.69988 26.7755C4.34861 26.7755 4.06237 26.4892 4.06237 26.138C4.06237 25.7867 4.34861 25.5004 4.69988 25.5004C5.05115 25.5004 5.33739 25.7867 5.33739 26.138C5.33739 26.4892 5.05115 26.7755 4.69988 26.7755ZM23.8252 1.27502C27.5515 1.27502 30.9201 3.47061 32.4775 6.76463C31.7508 6.51409 30.9826 6.37511 30.2003 6.37511C28.1673 6.37511 26.1783 5.99197 24.2536 5.22249C24.0515 5.14089 23.838 5.10009 23.5817 5.10009C22.6611 5.10009 21.9127 5.84853 21.9127 6.76909C21.9127 8.33163 23.0309 9.65128 24.5724 9.9082L25.6938 10.095C25.7186 10.0995 25.7378 10.1218 25.7378 10.1473C25.7378 10.1766 25.7142 10.2002 25.6848 10.2002H21.3695C20.9073 10.0829 20.5369 9.76922 20.3533 9.32551C20.1634 8.86778 20.2073 8.36542 20.4732 7.94658L20.748 7.51498L18.2215 4.98916L17.7899 5.26393C17.3723 5.52977 16.87 5.57376 16.4116 5.38442C16.2981 5.33724 16.1929 5.27795 16.0967 5.20783C17.8983 2.73684 20.7492 1.27502 23.8252 1.27502ZM9.79997 24.2254C9.4487 24.2254 9.16246 23.9392 9.16246 23.5879C9.16246 23.2366 9.4487 22.9504 9.79997 22.9504C10.1512 22.9504 10.4375 23.2366 10.4375 23.5879C10.4375 23.9392 10.1512 24.2254 9.79997 24.2254ZM14.4398 19.1253H12.8103C12.5266 18.47 11.9975 17.9415 11.3255 17.6635C10.6542 17.3856 9.90644 17.3849 9.24215 17.6476L8.09017 16.4956C8.35282 15.832 8.35218 15.0835 8.07423 14.4122C7.79564 13.7403 7.26714 13.2111 6.61242 12.9275V11.298C7.26778 11.0143 7.79627 10.4851 8.07423 9.81321C8.35218 9.14191 8.35282 8.39347 8.09017 7.72918L9.24215 6.5772C9.90644 6.84049 10.6536 6.83986 11.3255 6.56126C11.9975 6.28395 12.5266 5.75545 12.8103 5.10009H14.4398C14.7235 5.75545 15.2526 6.28395 15.9245 6.5619C16.5965 6.84049 17.3443 6.84113 18.0079 6.57784L19.1599 7.72982C18.8973 8.39411 18.8979 9.14191 19.1758 9.81385C19.2319 9.94964 19.3021 10.0771 19.3779 10.2002H17.6439C16.9095 8.66186 15.3552 7.65013 13.625 7.65013C11.1642 7.65013 9.16246 9.65192 9.16246 12.1127C9.16246 14.5735 11.1642 16.5753 13.625 16.5753C15.3546 16.5753 16.9095 15.5636 17.6439 14.0252H19.3799C18.924 14.7692 18.838 15.6847 19.1599 16.4956L18.0079 17.6476C17.3443 17.3849 16.5971 17.3856 15.9245 17.6635C15.2526 17.9415 14.7235 18.47 14.4398 19.1253ZM14.9001 10.6974C14.5609 10.3914 14.1166 10.2002 13.625 10.2002C12.5706 10.2002 11.7125 11.0583 11.7125 12.1127C11.7125 13.1672 12.5706 14.0252 13.625 14.0252C14.1166 14.0252 14.5609 13.8334 14.9001 13.528C15.2386 13.8334 15.6823 14.0246 16.1725 14.0252C15.5803 14.8119 14.6431 15.3003 13.625 15.3003C11.8674 15.3003 10.4375 13.8703 10.4375 12.1127C10.4375 10.3551 11.8674 8.92516 13.625 8.92516C14.6431 8.92516 15.5803 9.41349 16.1725 10.2002C15.6823 10.2008 15.2386 10.3921 14.9001 10.6974ZM14.2625 12.1127C14.2625 12.464 13.9763 12.7502 13.625 12.7502C13.2738 12.7502 12.9875 12.464 12.9875 12.1127C12.9875 11.7614 13.2738 11.4752 13.625 11.4752C13.9763 11.4752 14.2625 11.7614 14.2625 12.1127ZM20.6377 24.8629V24.2254H27.0128V24.8629C27.0128 25.2142 26.7265 25.5004 26.3753 25.5004H21.2752C20.9239 25.5004 20.6377 25.2142 20.6377 24.8629ZM27.0128 27.413C27.0128 27.7642 26.7265 28.0505 26.3753 28.0505H21.2752C20.9239 28.0505 20.6377 27.7642 20.6377 27.413C20.6377 27.0617 20.9239 26.7755 21.2752 26.7755H26.3753C26.7265 26.7755 27.0128 27.0617 27.0128 27.413ZM23.1877 32.5131C23.1877 32.1618 23.4739 31.8756 23.8252 31.8756C24.1765 31.8756 24.4627 32.1618 24.4627 32.5131C24.4627 32.8643 24.1765 33.1506 23.8252 33.1506C23.4739 33.1506 23.1877 32.8643 23.1877 32.5131ZM24.4627 36.866V34.3083C25.2029 34.0444 25.7378 33.3431 25.7378 32.5131C25.7378 31.4586 24.8797 30.6005 23.8252 30.6005C22.7708 30.6005 21.9127 31.4586 21.9127 32.5131C21.9127 33.3431 22.4476 34.0444 23.1877 34.3083V36.866L20.1028 32.4589L21.6692 29.3255H25.9813L27.5483 32.4589L24.4627 36.866ZM27.0657 22.9504H20.5835C20.3559 21.5249 19.3926 20.3455 18.3178 19.14L19.5105 17.9472C19.7362 18.4878 20.2054 18.8958 20.7786 19.0514C20.6893 19.272 20.6377 19.511 20.6377 19.7628C20.6377 20.8173 21.4958 21.6754 22.5502 21.6754H27.4769C27.2691 22.1063 27.1333 22.5277 27.0657 22.9504ZM22.5502 20.4004C22.1989 20.4004 21.9127 20.1141 21.9127 19.7628C21.9127 19.4116 22.1989 19.1253 22.5502 19.1253H25.7378V17.8503H21.2752C20.9239 17.8503 20.6377 17.5641 20.6377 17.2128C20.6377 16.8615 20.9239 16.5753 21.2752 16.5753H25.7378V15.3003H21.2752C20.9239 15.3003 20.6377 15.014 20.6377 14.6628C20.6377 14.3115 20.9239 14.0252 21.2752 14.0252H25.7378V12.7502H16.1751C15.8238 12.7502 15.5376 12.464 15.5376 12.1127C15.5376 11.7614 15.8238 11.4752 16.1751 11.4752H25.6848C26.4167 11.4752 27.0128 10.8791 27.0128 10.1473C27.0128 9.49573 26.5461 8.94492 25.9029 8.83782L24.7815 8.65103C23.8577 8.49675 23.1877 7.7056 23.1877 6.76909C23.1877 6.5517 23.3643 6.37511 23.6193 6.37511C23.6741 6.37511 23.7277 6.38531 23.8163 6.42101C25.8563 7.23639 28.0041 7.65013 30.2003 7.65013C31.9305 7.65013 33.5804 8.45212 34.6629 9.79472V19.3561C33.1743 20.0376 31.5372 20.4004 29.8994 20.4004H22.5502ZM38.488 19.1253H35.9379V10.2002H38.488V19.1253Z" fill="#202020"/>
<path d="M32.1133 34.4256H33.3883V35.7006H32.1133V34.4256Z" fill="#202020"/>
<path d="M34.6631 34.4256H35.9381V35.7006H34.6631V34.4256Z" fill="#202020"/>
<path d="M37.2129 34.4256H38.4879V35.7006H37.2129V34.4256Z" fill="#202020"/>
<path d="M30.8379 31.8756H39.763V33.1506H30.8379V31.8756Z" fill="#202020"/>
<path d="M30.8379 29.3255H39.763V30.6005H30.8379V29.3255Z" fill="#202020"/>
<path d="M30.8379 26.7755H39.763V28.0505H30.8379V26.7755Z" fill="#202020"/>
</g>
<defs>
<clipPath id="clip0_1861_25153">
<rect width="40" height="40" fill="white"/>
</clipPath>
</defs>
</svg>
