<svg width="40" height="40" viewBox="0 0 40 40" fill="none" xmlns="http://www.w3.org/2000/svg">
<g clip-path="url(#clip0_2486_4223)">
<path d="M20.0001 26.3333C20.1148 26.3333 20.2275 26.3037 20.3274 26.2473L28.1608 21.834C28.455 21.6681 28.5788 21.3084 28.4488 20.9967C28.2199 20.4563 27.8186 20.007 27.3074 19.7187L21.3034 16.3373C20.4927 15.8822 19.5035 15.8822 18.6928 16.3373L12.6928 19.718C12.1809 20.0071 11.7794 20.4581 11.5514 21C11.4215 21.3118 11.5452 21.6715 11.8394 21.8373L19.6728 26.2507C19.773 26.3058 19.8857 26.3343 20.0001 26.3333ZM13.3474 20.88L19.3441 17.5027C19.751 17.2763 20.2459 17.2763 20.6528 17.5027L26.6528 20.8807C26.7299 20.925 26.8029 20.9764 26.8708 21.034L20.0001 24.9033L13.1334 21.0367C13.1997 20.9784 13.2714 20.9267 13.3474 20.882V20.88Z" fill="#202020"/>
<path d="M11.1607 24.6727C10.9961 24.5798 10.7999 24.5611 10.6208 24.6212C10.4417 24.6814 10.2965 24.8147 10.2213 24.988C10.0759 25.3197 10.0006 25.6778 10 26.04V33.96C10.0013 34.9221 10.5208 35.809 11.3593 36.2807L17.3593 39.6607C17.7588 39.8841 18.209 40.0009 18.6667 40C19.0349 40 19.3333 39.7015 19.3333 39.3333V29.6667C19.3333 29.4261 19.2036 29.2041 18.994 29.086L11.1607 24.6727ZM18 38.4913L12.014 35.1193C11.5951 34.8834 11.3352 34.4407 11.3333 33.96V26.3L18 30.056V38.4913Z" fill="#202020"/>
<path d="M21.3337 40C21.7914 40.0012 22.2416 39.8843 22.641 39.6607L28.641 36.2807C29.4796 35.809 29.999 34.9221 30.0003 33.96V26.04C29.9998 25.6778 29.9244 25.3197 29.779 24.988C29.7038 24.8147 29.5586 24.6814 29.3795 24.6212C29.2004 24.5611 29.0042 24.5798 28.8397 24.6727L21.0063 29.086C20.7967 29.2041 20.667 29.4261 20.667 29.6667V39.3333C20.667 39.7015 20.9655 40 21.3337 40ZM22.0003 30.056L28.667 26.3V33.96C28.6651 34.4407 28.4052 34.8834 27.9863 35.1193L22.0003 38.4913V30.056Z" fill="#202020"/>
<path d="M20.0003 0C19.6321 0 19.3336 0.298477 19.3336 0.666667V12.3907L18.4716 11.5287C18.21 11.276 17.7942 11.2796 17.5371 11.5368C17.2799 11.7939 17.2763 12.2097 17.5289 12.4713L19.5289 14.4713C19.654 14.5967 19.8238 14.6672 20.0009 14.6672C20.178 14.6672 20.3479 14.5967 20.4729 14.4713L22.4729 12.4713C22.7256 12.2097 22.722 11.7939 22.4648 11.5368C22.2077 11.2796 21.7919 11.276 21.5303 11.5287L20.6669 12.3907V0.666667C20.6669 0.298477 20.3685 0 20.0003 0Z" fill="#202020"/>
<path d="M0.666667 31.3333H6.39067L5.52867 32.1953C5.35536 32.3627 5.28586 32.6106 5.34687 32.8437C5.40788 33.0768 5.58991 33.2588 5.823 33.3198C6.05608 33.3808 6.30395 33.3113 6.47133 33.138L8.47133 31.138C8.53355 31.0759 8.58273 31.002 8.616 30.9207C8.68341 30.7576 8.68341 30.5744 8.616 30.4113C8.58273 30.33 8.53355 30.2561 8.47133 30.194L6.47133 28.194C6.20975 27.9414 5.79394 27.945 5.53679 28.2021C5.27963 28.4593 5.27602 28.8751 5.52867 29.1367L6.39067 30H0.666667C0.298477 30 0 30.2985 0 30.6667C0 31.0349 0.298477 31.3333 0.666667 31.3333Z" fill="#202020"/>
<path d="M39.3329 30H33.6089L34.4709 29.138C34.7235 28.8764 34.7199 28.4606 34.4628 28.2035C34.2056 27.9463 33.7898 27.9427 33.5282 28.1953L31.5282 30.1953C31.466 30.2574 31.4168 30.3313 31.3836 30.4127C31.3162 30.5758 31.3162 30.7589 31.3836 30.922C31.4168 31.0034 31.466 31.0772 31.5282 31.1393L33.5282 33.1393C33.7898 33.392 34.2056 33.3884 34.4628 33.1312C34.7199 32.8741 34.7235 32.4583 34.4709 32.1967L33.6089 31.3333H39.3329C39.7011 31.3333 39.9996 31.0349 39.9996 30.6667C39.9996 30.2985 39.7011 30 39.3329 30Z" fill="#202020"/>
</g>
<defs>
<clipPath id="clip0_2486_4223">
<rect width="40" height="40" fill="white"/>
</clipPath>
</defs>
</svg>
