<svg width="40" height="40" viewBox="0 0 40 40" fill="none" xmlns="http://www.w3.org/2000/svg">
<g clip-path="url(#clip0_948_3591)">
<path d="M34.2591 29.8031C34.0302 29.5743 33.6591 29.5743 33.4302 29.8031C33.2013 30.0321 33.2013 30.4031 33.4302 30.6321L35.3559 32.5579C35.5226 32.7323 35.6216 33.0916 35.3559 33.3867L33.5177 35.225C33.2891 35.4535 32.9172 35.4535 32.6888 35.225L27.1895 29.7258C27.6995 29.357 28.1819 28.9476 28.6302 28.4993C29.0838 28.0456 29.4927 27.5638 29.8581 27.0601L31.5585 28.7605C31.673 28.8749 31.8231 28.9322 31.973 28.9322C32.123 28.9322 32.273 28.8749 32.3874 28.7605C32.6163 28.5316 32.6163 28.1605 32.3874 27.9315L30.5115 26.0556C33.1662 21.4855 32.5395 15.518 28.6301 11.6085C23.9733 6.95163 16.3962 6.95178 11.7394 11.6085C9.52836 13.8196 8.28641 16.7587 8.24243 19.8847C8.19844 23.0041 9.35047 25.9708 11.4862 28.2383C11.7083 28.4738 12.0791 28.4848 12.3148 28.263C12.5504 28.041 12.5615 27.6701 12.3395 27.4344C8.32274 23.1699 8.42321 16.5823 12.5684 12.4374C16.7681 8.23757 23.6016 8.23757 27.8011 12.4374C32.0008 16.6371 32.0008 23.4705 27.8011 27.6701C24.2656 31.2057 18.6396 31.8313 14.4238 29.1578C14.1505 28.9845 13.7884 29.0655 13.6148 29.3389C13.4416 29.6123 13.5226 29.9744 13.7959 30.1478C15.7025 31.3568 17.9361 31.9965 20.195 31.9965C20.6077 31.9965 21.0214 31.9751 21.434 31.9321C23.1144 31.7563 24.7352 31.2205 26.1846 30.3787L31.8597 36.0537C32.2025 36.3965 32.6527 36.5679 33.103 36.5678C33.5532 36.5678 34.0036 36.3964 34.3464 36.0537L36.1847 34.2155C36.8702 33.5298 36.8702 32.4144 36.1847 31.7287L34.2591 29.8031Z" fill="#202020"/>
<path d="M24.1184 16.6999C24.2487 16.4036 24.1142 16.0578 23.8179 15.9274C22.5905 15.3876 21.3711 15.1139 20.1936 15.1139C16.7769 15.1139 13.8563 17.4021 12.4195 18.7662C12.0529 19.1141 11.8428 19.6038 11.8428 20.1097C11.8428 20.6155 12.0529 21.1051 12.4195 21.4532C13.8563 22.8172 16.7769 25.1055 20.1936 25.1055C23.6104 25.1055 26.531 22.8173 27.9679 21.4532C28.3344 21.1052 28.5446 20.6155 28.5446 20.1097C28.5446 19.6038 28.3344 19.1142 27.9678 18.7662C27.4535 18.2779 26.91 17.8227 26.3524 17.4131C26.0917 17.2215 25.7247 17.2776 25.533 17.5386C25.3414 17.7994 25.3975 18.1663 25.6585 18.358C26.1765 18.7385 26.682 19.1619 27.1607 19.6163C27.2973 19.7458 27.3724 19.9211 27.3724 20.1096C27.3724 20.2981 27.2973 20.4734 27.1607 20.6029C25.8507 21.8466 23.2034 23.933 20.1936 23.933C17.184 23.933 14.5367 21.8466 13.2266 20.6029C13.0901 20.4733 13.015 20.2981 13.015 20.1096C13.015 19.9211 13.0901 19.7458 13.2266 19.6163C14.5367 18.3726 17.1839 16.2862 20.1936 16.2862C21.2077 16.2862 22.2682 16.5265 23.3459 17.0005C23.6422 17.1309 23.9882 16.9963 24.1184 16.6999V16.6999Z" fill="#202020"/>
<path d="M17.3174 20.1096C17.3174 21.6955 18.6077 22.9859 20.1936 22.9859C21.7796 22.9859 23.07 21.6955 23.07 20.1096C23.07 18.5236 21.7796 17.2333 20.1936 17.2333C18.6077 17.2333 17.3174 18.5236 17.3174 20.1096ZM21.8978 20.1096C21.8978 21.0492 21.1333 21.8136 20.1937 21.8136C19.2541 21.8136 18.4897 21.0492 18.4897 20.1096C18.4897 19.17 19.2541 18.4055 20.1937 18.4055C21.1332 18.4055 21.8978 19.17 21.8978 20.1096Z" fill="#202020"/>
<path d="M30.3313 9.56179C30.4813 9.56179 30.6313 9.50452 30.7458 9.39015L33.3033 6.83257L34.4075 7.93679C34.7482 8.27726 35.3025 8.27725 35.6436 7.93671L38.7452 4.83515V5.62202C38.7452 5.94577 39.0075 6.20811 39.3313 6.20811C39.655 6.20811 39.9173 5.94577 39.9173 5.62202V3.45046C39.9173 3.12671 39.655 2.86436 39.3313 2.86436H37.1597C36.8359 2.86436 36.5736 3.12671 36.5736 3.45046C36.5736 3.77421 36.8359 4.03655 37.1597 4.03655H37.8857L35.0255 6.89694L33.9213 5.79272C33.5804 5.45202 33.0259 5.4521 32.6852 5.7928L29.9168 8.56116C29.6879 8.79015 29.6879 9.16116 29.9168 9.39015C30.0313 9.50452 30.1813 9.56179 30.3313 9.56179Z" fill="#202020"/>
<path d="M3.09152 7.96132C4.75574 7.96132 6.1098 6.60734 6.1098 4.94304C6.1098 3.27874 4.75574 1.92476 3.09152 1.92476C1.4273 1.92476 0.0732422 3.27874 0.0732422 4.94304C0.0732422 6.60734 1.42723 7.96132 3.09152 7.96132ZM3.09152 3.09702C4.10941 3.09702 4.93754 3.92515 4.93754 4.94304C4.93754 5.96093 4.10941 6.78906 3.09152 6.78906C2.07363 6.78906 1.24543 5.96093 1.24543 4.94304C1.24543 3.92515 2.07355 3.09702 3.09152 3.09702V3.09702Z" fill="#202020"/>
<path d="M3.18137 9.97061C1.51715 9.97061 0.163086 11.3246 0.163086 12.9889C0.163086 14.6532 1.51707 16.0072 3.18137 16.0072C4.84566 16.0072 6.19965 14.6532 6.19965 12.9889C6.19965 11.3246 4.84566 9.97061 3.18137 9.97061V9.97061ZM3.18137 14.8349C2.16348 14.8349 1.33535 14.0068 1.33535 12.9889C1.33535 11.971 2.16348 11.1429 3.18137 11.1429C4.19926 11.1429 5.02738 11.971 5.02738 12.9889C5.02746 14.0068 4.19934 14.8349 3.18137 14.8349V14.8349Z" fill="#202020"/>
<path d="M3.18137 17.9223C1.51715 17.9223 0.163086 19.2763 0.163086 20.9406C0.163086 22.6049 1.51707 23.9589 3.18137 23.9589C4.84566 23.9589 6.19965 22.6049 6.19965 20.9406C6.19965 19.2763 4.84566 17.9223 3.18137 17.9223V17.9223ZM3.18137 22.7866C2.16348 22.7866 1.33535 21.9585 1.33535 20.9406C1.33535 19.9227 2.16348 19.0946 3.18137 19.0946C4.19926 19.0946 5.02738 19.9227 5.02738 20.9406C5.02746 21.9585 4.19934 22.7866 3.18137 22.7866V22.7866Z" fill="#202020"/>
<path d="M8.49137 4.03242H13.6785C14.0022 4.03242 14.2646 3.77007 14.2646 3.44632C14.2646 3.12257 14.0022 2.86023 13.6785 2.86023H8.49137C8.16762 2.86023 7.90527 3.12257 7.90527 3.44632C7.90527 3.77007 8.1677 4.03242 8.49137 4.03242V4.03242Z" fill="#202020"/>
<path d="M8.49137 6.53014H11.085C11.4087 6.53014 11.6711 6.2678 11.6711 5.94405C11.6711 5.6203 11.4087 5.35796 11.085 5.35796H8.49137C8.16762 5.35796 7.90527 5.6203 7.90527 5.94405C7.90527 6.26772 8.1677 6.53014 8.49137 6.53014Z" fill="#202020"/>
<path d="M39.4141 11.1543H36.5519C36.2282 11.1543 35.9658 11.4166 35.9658 11.7404C35.9658 12.0641 36.2282 12.3265 36.5519 12.3265H39.4141C39.7379 12.3265 40.0002 12.0641 40.0002 11.7404C40.0002 11.4166 39.7379 11.1543 39.4141 11.1543Z" fill="#202020"/>
<path d="M34.3786 12.4066C34.7381 12.4066 35.0296 12.1152 35.0296 11.7556C35.0296 11.3961 34.7381 11.1046 34.3786 11.1046C34.019 11.1046 33.7275 11.3961 33.7275 11.7556C33.7275 12.1152 34.019 12.4066 34.3786 12.4066Z" fill="#202020"/>
<path d="M39.4141 13.5434H36.5519C36.2282 13.5434 35.9658 13.8058 35.9658 14.1295C35.9658 14.4533 36.2282 14.7156 36.5519 14.7156H39.4141C39.7379 14.7156 40.0002 14.4533 40.0002 14.1295C40.0002 13.8058 39.7379 13.5434 39.4141 13.5434Z" fill="#202020"/>
<path d="M34.3786 14.7958C34.7381 14.7958 35.0296 14.5043 35.0296 14.1448C35.0296 13.7852 34.7381 13.4937 34.3786 13.4937C34.019 13.4937 33.7275 13.7852 33.7275 14.1448C33.7275 14.5043 34.019 14.7958 34.3786 14.7958Z" fill="#202020"/>
<path d="M23.9209 34.4337H21.0587C20.735 34.4337 20.4727 34.696 20.4727 35.0198C20.4727 35.3435 20.735 35.6059 21.0587 35.6059H23.9209C24.2447 35.6059 24.507 35.3435 24.507 35.0198C24.507 34.6961 24.2447 34.4337 23.9209 34.4337Z" fill="#202020"/>
<path d="M18.8854 34.384C18.5259 34.384 18.2344 34.6755 18.2344 35.035C18.2344 35.3945 18.5259 35.686 18.8854 35.686C19.2449 35.686 19.5364 35.3945 19.5364 35.035C19.5364 34.6755 19.2449 34.384 18.8854 34.384Z" fill="#202020"/>
<path d="M23.9209 36.8229H21.0587C20.735 36.8229 20.4727 37.0852 20.4727 37.409C20.4727 37.7327 20.735 37.9951 21.0587 37.9951H23.9209C24.2447 37.9951 24.507 37.7327 24.507 37.409C24.507 37.0852 24.2447 36.8229 23.9209 36.8229Z" fill="#202020"/>
<path d="M18.8854 38.0752C19.2449 38.0752 19.5364 37.7838 19.5364 37.4242C19.5364 37.0647 19.2449 36.7732 18.8854 36.7732C18.5258 36.7732 18.2344 37.0647 18.2344 37.4242C18.2344 37.7838 18.5258 38.0752 18.8854 38.0752Z" fill="#202020"/>
<path d="M39.4141 15.9376H36.5519C36.2282 15.9376 35.9658 16.1999 35.9658 16.5237C35.9658 16.8474 36.2282 17.1098 36.5519 17.1098H39.4141C39.7379 17.1098 40.0002 16.8474 40.0002 16.5237C40.0002 16.1999 39.7379 15.9376 39.4141 15.9376Z" fill="#202020"/>
<path d="M39.4141 18.3268H36.5519C36.2282 18.3268 35.9658 18.5891 35.9658 18.9129C35.9658 19.2366 36.2282 19.499 36.5519 19.499H39.4141C39.7379 19.499 40.0002 19.2366 40.0002 18.9129C40.0002 18.5891 39.7379 18.3268 39.4141 18.3268Z" fill="#202020"/>
<path d="M34.3786 19.5791C34.7381 19.5791 35.0296 19.2877 35.0296 18.9281C35.0296 18.5686 34.7381 18.2771 34.3786 18.2771C34.019 18.2771 33.7275 18.5686 33.7275 18.9281C33.7275 19.2877 34.019 19.5791 34.3786 19.5791Z" fill="#202020"/>
<path d="M39.4141 20.716H36.5519C36.2282 20.716 35.9658 20.9783 35.9658 21.3021C35.9658 21.6258 36.2282 21.8882 36.5519 21.8882H39.4141C39.7379 21.8882 40.0002 21.6258 40.0002 21.3021C40.0002 20.9783 39.7379 20.716 39.4141 20.716Z" fill="#202020"/>
<path d="M39.4141 23.1051H36.5519C36.2282 23.1051 35.9658 23.3675 35.9658 23.6912C35.9658 24.015 36.2282 24.2773 36.5519 24.2773H39.4141C39.7379 24.2773 40.0002 24.015 40.0002 23.6912C40.0002 23.3676 39.7379 23.1051 39.4141 23.1051Z" fill="#202020"/>
<path d="M34.3786 23.0555C34.019 23.0555 33.7275 23.347 33.7275 23.7065C33.7275 24.066 34.019 24.3575 34.3786 24.3575C34.7381 24.3575 35.0296 24.066 35.0296 23.7065C35.0296 23.347 34.7381 23.0555 34.3786 23.0555Z" fill="#202020"/>
<path d="M15.8178 36.8272H13.6248V33.4761C13.6248 32.9805 13.2216 32.5773 12.726 32.5773H10.6002C10.1047 32.5773 9.70148 32.9805 9.70148 33.4761V36.8272H8.86578V31.378C8.86578 30.8824 8.46258 30.4792 7.96703 30.4792H5.84125C5.3457 30.4792 4.9425 30.8824 4.9425 31.378V36.8272H4.22078V34.9748C4.22078 34.4793 3.81758 34.0761 3.32203 34.0761H1.19625C0.700703 34.0761 0.2975 34.4793 0.2975 34.9748V36.9035C0.12 37.0041 0 37.1945 0 37.4133C0 37.737 0.262344 37.9994 0.586094 37.9994H15.8178C16.1416 37.9994 16.4039 37.737 16.4039 37.4133C16.4039 37.0895 16.1416 36.8272 15.8178 36.8272ZM10.8738 33.7496H12.4525V36.8272H10.8738V33.7496ZM6.11484 31.6515H7.69359V36.8272H6.11484V31.6515ZM1.46977 35.2483H3.04859V36.8271H1.46977V35.2483Z" fill="#202020"/>
</g>
<defs>
<clipPath id="clip0_948_3591">
<rect width="40" height="40" fill="white"/>
</clipPath>
</defs>
</svg>
