<svg width="1440" height="391" viewBox="0 0 1440 391" fill="none" xmlns="http://www.w3.org/2000/svg">
<g opacity="0.5">
<path d="M1700.45 98.5903V104.335L1213.23 -174.958H1223.22L1700.45 98.5903Z" fill="#439E8B"/>
<path d="M1700.46 228.598V234.343L986.322 -174.958H996.361L1700.46 228.598Z" fill="#439E8B"/>
<path d="M1700.46 358.649V364.394L759.503 -174.958H769.542L1700.46 358.649Z" fill="#439E8B"/>
<path d="M1681.11 477.55H1671.07L532.641 -174.958H542.637L1681.11 477.55Z" fill="#439E8B"/>
<path d="M1454.29 477.55H1444.21L305.779 -174.958H315.818L1454.29 477.55Z" fill="#439E8B"/>
<path d="M1227.39 477.55H1217.35L78.9199 -174.958H88.9588L1227.39 477.55Z" fill="#439E8B"/>
<path d="M1000.57 477.55H990.483L-147.9 -174.958H-137.904L1000.57 477.55Z" fill="#439E8B"/>
<path d="M773.704 477.55H763.665L-273 -116.614V-122.402L773.704 477.55Z" fill="#439E8B"/>
<path d="M546.842 477.55H536.803L-273 13.3935V7.60593L546.842 477.55Z" fill="#439E8B"/>
<path d="M319.981 477.55H309.942L-273 143.444V137.657L319.981 477.55Z" fill="#439E8B"/>
<path d="M93.1618 477.55H83.08L-273 273.452V267.707L93.1618 477.55Z" fill="#439E8B"/>
<path d="M196.195 -175L-261.218 86.9736V81.2286L186.156 -175H196.195Z" fill="#439E8B"/>
<path d="M423.142 -175L-261.218 216.896V211.151L413.061 -175H423.142Z" fill="#439E8B"/>
<path d="M650.047 -175L-261.218 346.905V341.159L640.008 -175H650.047Z" fill="#439E8B"/>
<path d="M876.994 -175L-261.218 476.827V471.082L866.912 -175H876.994Z" fill="#439E8B"/>
<path d="M1103.9 -175L-35.5159 477.508H-45.5977L1093.86 -175H1103.9Z" fill="#439E8B"/>
<path d="M1330.8 -175L191.434 477.508H181.353L1320.77 -175H1330.8Z" fill="#439E8B"/>
<path d="M1556.85 -175L418.381 477.508H408.299L1546.85 -175H1556.85Z" fill="#439E8B"/>
<path d="M1712.24 -139.508V-133.721L645.24 477.508H635.244L1712.24 -139.508Z" fill="#439E8B"/>
<path d="M1712.24 -9.28766V-3.54261L872.231 477.508H862.149L1712.24 -9.28766Z" fill="#439E8B"/>
<path d="M1712.24 120.635V126.38L1099.14 477.508H1089.1L1712.24 120.635Z" fill="#439E8B"/>
<path d="M1712.24 250.601V256.346L1326.04 477.508H1316L1712.24 250.601Z" fill="#439E8B"/>
</g>
</svg>
