<svg width="40" height="40" viewBox="0 0 40 40" fill="none" xmlns="http://www.w3.org/2000/svg">
<g clip-path="url(#clip0_2490_4372)">
<path d="M28.9355 3.17383C28.9355 2.82867 29.2153 2.54883 29.5605 2.54883H36.2401C36.5853 2.54883 36.8651 2.82867 36.8651 3.17383C36.8651 3.51898 36.5853 3.79883 36.2401 3.79883H29.5605C29.2153 3.79883 28.9355 3.51898 28.9355 3.17383ZM29.5605 12.212H36.2401C36.5853 12.212 36.8651 11.9321 36.8651 11.587C36.8651 11.2418 36.5853 10.962 36.2401 10.962H29.5605C29.2153 10.962 28.9355 11.2418 28.9355 11.587C28.9355 11.9321 29.2153 12.212 29.5605 12.212ZM29.5605 20.625H36.2401C36.5853 20.625 36.8651 20.3452 36.8651 20C36.8651 19.6548 36.5853 19.375 36.2401 19.375H29.5605C29.2153 19.375 28.9355 19.6548 28.9355 20C28.9355 20.3452 29.2153 20.625 29.5605 20.625ZM29.5605 29.0381H36.2401C36.5853 29.0381 36.8651 28.7583 36.8651 28.4131C36.8651 28.068 36.5853 27.7881 36.2401 27.7881H29.5605C29.2153 27.7881 28.9355 28.068 28.9355 28.4131C28.9355 28.7583 29.2153 29.0381 29.5605 29.0381ZM29.5605 37.4512H36.2401C36.5853 37.4512 36.8651 37.1713 36.8651 36.8262C36.8651 36.481 36.5853 36.2012 36.2401 36.2012H29.5605C29.2153 36.2012 28.9355 36.481 28.9355 36.8262C28.9355 37.1713 29.2153 37.4512 29.5605 37.4512ZM25.8008 5.03781V3.79883H10.8544V9.05391C11.9102 9.23336 12.8267 9.8632 13.3773 10.8171L15.54 14.563L17.2855 11.2927C17.3941 11.0891 17.6061 10.962 17.8369 10.962H25.8008V9.72297C25.8008 9.00078 26.3883 8.4132 27.1105 8.4132H38.6901C39.4123 8.4132 40 9.00078 40 9.72297V13.4511C40 14.1733 39.4124 14.7609 38.6901 14.7609H27.1105C26.3883 14.7609 25.8008 14.1733 25.8008 13.4511V12.2121H18.2116L16.2762 15.8383L18.3183 19.375H25.8008V18.136C25.8008 17.4138 26.3883 16.8263 27.1105 16.8263H38.6901C39.4123 16.8263 40 17.4138 40 18.136V21.8641C40 22.5863 39.4124 23.1739 38.6901 23.1739H27.1105C26.3883 23.1739 25.8008 22.5863 25.8008 21.8641V20.625H19.0399L19.9687 22.2336C20.6258 23.3716 20.6258 24.7305 19.9687 25.8685C19.4891 26.6991 18.7322 27.2838 17.8477 27.5401L18.0958 27.7881H25.8009V26.5491C25.8009 25.827 26.3884 25.2394 27.1106 25.2394H38.6902C39.4124 25.2394 40.0001 25.827 40.0001 26.5491V30.2773C40.0001 30.9995 39.4125 31.587 38.6902 31.587H27.1105C26.3883 31.587 25.8008 30.9995 25.8008 30.2773V29.0382H17.8369C17.6711 29.0382 17.5122 28.9723 17.395 28.8552L16.2259 27.6862H10.8544V36.2013H25.8008V34.9623C25.8008 34.2401 26.3883 33.6524 27.1105 33.6524H38.6901C39.4123 33.6524 40 34.24 40 34.9623V38.6904C40 39.4126 39.4124 40.0002 38.6901 40.0002H27.1105C26.3883 40.0002 25.8008 39.4126 25.8008 38.6904V37.4513H10.2294C9.88429 37.4513 9.60444 37.1715 9.60444 36.8263V27.6861H3.63804C2.32397 27.6861 1.14718 27.0066 0.490147 25.8685C-0.166963 24.7305 -0.166963 23.3716 0.490147 22.2336L7.08147 10.8171C7.6321 9.86328 8.54851 9.23336 9.60436 9.05391V3.17383C9.60436 2.82867 9.88421 2.54883 10.2294 2.54883H25.8007V1.30977C25.8008 0.587578 26.3883 0 27.1105 0H38.6901C39.4123 0 39.9999 0.587578 39.9999 1.30977V5.03789C39.9999 5.76008 39.4123 6.34773 38.6901 6.34773H27.1105C26.3883 6.34766 25.8008 5.76008 25.8008 5.03781ZM27.0508 38.6902C27.0508 38.7215 27.0792 38.75 27.1105 38.75H38.6901C38.7214 38.75 38.75 38.7216 38.75 38.6902V34.9621C38.75 34.9309 38.7215 34.9023 38.6901 34.9023H27.1105C27.0793 34.9023 27.0508 34.9308 27.0508 34.9621V38.6902ZM27.0508 30.2772C27.0508 30.3084 27.0792 30.337 27.1105 30.337H38.6901C38.7214 30.337 38.75 30.3085 38.75 30.2772V26.5491C38.75 26.5178 38.7215 26.4893 38.6901 26.4893H27.1105C27.0793 26.4893 27.0508 26.5177 27.0508 26.5491V30.2772ZM27.0508 21.8641C27.0508 21.8953 27.0792 21.9238 27.1105 21.9238H38.6901C38.7214 21.9238 38.75 21.8954 38.75 21.8641V18.1359C38.75 18.1047 38.7215 18.0762 38.6901 18.0762H27.1105C27.0793 18.0762 27.0508 18.1046 27.0508 18.1359V21.8641ZM27.0508 13.451C27.0508 13.4823 27.0792 13.5108 27.1105 13.5108H38.6901C38.7214 13.5108 38.75 13.4823 38.75 13.451V9.72289C38.75 9.69164 38.7215 9.66313 38.6901 9.66313H27.1105C27.0793 9.66313 27.0508 9.69156 27.0508 9.72289V13.451ZM10.2294 10.2496C9.36718 10.2496 8.59507 10.6954 8.16405 11.442L1.57265 22.8586C1.14155 23.6053 1.14155 24.4969 1.57265 25.2435C2.00382 25.9903 2.77585 26.4361 3.63812 26.4361H16.8208C17.683 26.4361 18.4551 25.9903 18.8862 25.2435C19.3173 24.4968 19.3173 23.6052 18.8862 22.8586L12.2949 11.4421C11.8637 10.6954 11.0916 10.2496 10.2294 10.2496ZM27.0508 5.03781C27.0508 5.06906 27.0792 5.09766 27.1105 5.09766H38.6901C38.7214 5.09766 38.75 5.06914 38.75 5.03781V1.30969C38.75 1.27844 38.7215 1.24992 38.6901 1.24992H27.1105C27.0793 1.24992 27.0508 1.27836 27.0508 1.30969V5.03781ZM11.8638 23.8687C11.8638 24.77 11.1306 25.5032 10.2294 25.5032C9.32811 25.5032 8.59491 24.77 8.59491 23.8687C8.59491 22.9675 9.32811 22.2343 10.2294 22.2343C11.1306 22.2343 11.8638 22.9674 11.8638 23.8687ZM10.6138 23.8687C10.6138 23.6567 10.4414 23.4843 10.2294 23.4843C10.0173 23.4843 9.84491 23.6567 9.84491 23.8687C9.84491 24.0808 10.0173 24.2532 10.2294 24.2532C10.4414 24.2532 10.6138 24.0807 10.6138 23.8687ZM10.0302 13.3404H10.4287C10.8213 13.3404 11.173 13.4898 11.4457 13.7724C11.7183 14.055 11.8548 14.4119 11.8408 14.8044L11.6416 20.3203C11.614 21.084 10.9937 21.6823 10.2295 21.6823C9.46538 21.6823 8.84507 21.0841 8.81741 20.3203L8.61819 14.8044C8.60405 14.4119 8.74061 14.055 9.01335 13.7724C9.28585 13.4898 9.63749 13.3404 10.0302 13.3404ZM10.4286 14.5904H10.0301C9.97772 14.5904 9.94921 14.6025 9.9128 14.6402C9.8764 14.678 9.86538 14.707 9.86726 14.7592L10.0665 20.2752C10.0696 20.3632 10.1412 20.4323 10.2294 20.4323C10.3176 20.4323 10.3891 20.3632 10.3923 20.2752L10.5914 14.7592C10.5933 14.7068 10.5823 14.6779 10.5459 14.6402C10.5095 14.6025 10.481 14.5904 10.4286 14.5904Z" fill="#202020"/>
</g>
<defs>
<clipPath id="clip0_2490_4372">
<rect width="40" height="40" fill="white"/>
</clipPath>
</defs>
</svg>
