<svg width="40" height="40" viewBox="0 0 40 40" fill="none" xmlns="http://www.w3.org/2000/svg">
<g clip-path="url(#clip0_2638_5016)">
<path fill-rule="evenodd" clip-rule="evenodd" d="M31.7049 31.0719C29.7599 31.0719 28.1665 29.5018 28.1665 27.51C28.1665 25.5417 29.7599 23.9482 31.7049 23.9482C33.6498 23.9482 35.2901 25.5417 35.2901 27.51C35.2901 29.5018 33.6967 31.0719 31.7049 31.0719ZM31.7049 25.1199C30.3926 25.1199 29.3147 26.1744 29.3147 27.5335C29.3147 28.916 30.3926 29.9705 31.7049 29.9705C33.0406 29.9705 34.1419 28.916 34.1419 27.5335C34.1419 26.1744 33.0406 25.1199 31.7049 25.1199Z" fill="#202020"/>
<path fill-rule="evenodd" clip-rule="evenodd" d="M33.1109 35.7585H30.3224C29.9943 35.7585 29.7366 35.5007 29.7366 35.1727V33.8136C29.3382 33.673 28.9867 33.5089 28.6352 33.3449L27.6979 34.3057C27.4636 34.5166 27.1121 34.5166 26.8777 34.3057L24.8859 32.3607C24.7922 32.2436 24.7219 32.0795 24.7219 31.9624C24.7219 31.8218 24.7922 31.6577 24.8859 31.564L25.8467 30.6267C25.6358 30.2752 25.5186 29.8768 25.378 29.5253H24.0189C23.6909 29.5253 23.4331 29.2676 23.4331 28.9395V26.151C23.4331 25.8229 23.6909 25.5652 24.0189 25.5652H25.4249C25.5186 25.2137 25.6827 24.8153 25.8701 24.4638L24.8859 23.4797C24.7922 23.3859 24.7219 23.2219 24.7219 23.1047C24.7219 22.9641 24.7922 22.8001 24.8859 22.7064L26.8777 20.7614C27.1121 20.5271 27.4636 20.5271 27.6979 20.7614L28.6586 21.6753C29.0101 21.4644 29.3851 21.3004 29.76 21.2067V19.871C29.76 19.5664 30.0178 19.3086 30.3458 19.3086H33.1343C33.4624 19.3086 33.7202 19.5664 33.7202 19.871V21.2535C34.1185 21.3707 34.47 21.5347 34.8215 21.6988L35.7823 20.7614C35.9932 20.5271 36.3446 20.5271 36.579 20.7614L38.5239 22.7064C38.6176 22.8001 38.6879 22.9641 38.6879 23.1047C38.6879 23.2219 38.6176 23.3859 38.5239 23.4797L37.5866 24.417C37.7741 24.7919 37.9381 25.1668 38.0787 25.5418H39.4144C39.7424 25.5418 40.0002 25.7995 40.0002 26.1276V28.9161C40.0002 29.2442 39.7424 29.5019 39.4144 29.5019H38.0787C37.9381 29.8768 37.7741 30.2752 37.6335 30.6033L38.5708 31.5406C38.6645 31.6343 38.7348 31.7983 38.7348 31.9389C38.7348 32.0561 38.6645 32.2201 38.5708 32.3139L36.6258 34.2588C36.3915 34.4931 36.04 34.4931 35.8057 34.2588L34.8684 33.3215C34.5403 33.5089 34.142 33.6495 33.767 33.7667V35.1493C33.6967 35.5007 33.439 35.7585 33.1109 35.7585ZM30.9082 34.6337H32.5485V33.4152C32.5485 33.1575 32.7125 32.9231 32.9703 32.8763C33.6264 32.7122 34.142 32.4779 34.6106 32.1967C34.8215 32.0327 35.1261 32.0561 35.3136 32.2436L36.204 33.0872L37.3523 31.9389L36.4852 31.0719C36.2978 30.8845 36.2509 30.6033 36.4149 30.3689C36.743 29.8768 36.9773 29.3379 37.0945 28.7755C37.1648 28.5177 37.3991 28.3303 37.6569 28.3303H38.852V26.6665H37.6569C37.3991 26.6665 37.1648 26.4791 37.0945 26.2213C36.9773 25.6589 36.743 25.1434 36.4149 24.6279C36.2978 24.3935 36.3212 24.1123 36.4852 23.9014L37.3523 23.0344L36.204 21.8628L35.3136 22.7064C35.1261 22.8938 34.8215 22.9407 34.634 22.8001C34.142 22.5189 33.603 22.2846 33.0172 22.1205C32.7594 22.0502 32.5954 21.8393 32.5954 21.5816V20.3631H30.9316V21.5816C30.9316 21.8393 30.7676 22.0502 30.5098 22.1205C29.924 22.2611 29.4085 22.472 28.893 22.8001C28.6586 22.9407 28.3775 22.8938 28.2134 22.7064L27.323 21.8393L26.1513 22.9876L26.9949 23.8546C27.2058 24.042 27.2292 24.2998 27.1121 24.5341C26.784 25.0731 26.5497 25.6355 26.456 26.151C26.3857 26.4088 26.1513 26.5962 25.8936 26.5962H24.6751V28.26H25.8936C26.1513 28.26 26.3857 28.4474 26.456 28.7052C26.5731 29.2676 26.8074 29.8065 27.1121 30.2986C27.2292 30.533 27.2058 30.8142 26.9949 30.9782L26.1513 31.8218L27.323 32.9934L28.2134 32.1264C28.4009 31.9389 28.6821 31.8921 28.893 32.0327C29.4085 32.3607 29.924 32.5716 30.5098 32.7122C30.7676 32.7825 30.9316 32.9934 30.9316 33.2512V34.6337H30.9082Z" fill="#202020"/>
<path fill-rule="evenodd" clip-rule="evenodd" d="M15.5361 29.6658C15.2081 29.6658 14.9503 29.3846 14.9503 29.0799C14.9503 24.698 16.0282 23.2686 16.9656 22.0032C17.692 21.0424 18.2309 20.2926 18.2309 18.3477C18.2309 14.8562 15.3721 11.9973 11.8806 11.9973C8.36567 11.9973 5.50685 14.8562 5.50685 18.3477C5.50685 20.2926 6.06924 21.0424 6.77223 22.0032C7.70955 23.2686 8.78746 24.698 8.78746 29.0799C8.78746 29.3846 8.5297 29.6658 8.20164 29.6658C7.87358 29.6658 7.61581 29.3846 7.61581 29.0799C7.61581 25.0729 6.70193 23.8544 5.83491 22.6827C5.13192 21.6986 4.33521 20.6909 4.33521 18.3477C4.33521 14.2235 7.68611 10.8491 11.8337 10.8491C16.0048 10.8491 19.3323 14.2 19.3323 18.3477C19.3323 20.6909 18.6059 21.6986 17.856 22.6827C16.9656 23.8544 16.0751 25.0729 16.0751 29.0799C16.122 29.3846 15.8642 29.6658 15.5361 29.6658Z" fill="#202020"/>
<path fill-rule="evenodd" clip-rule="evenodd" d="M7.49866 19.988C7.1706 19.988 6.91284 19.7302 6.91284 19.4022C6.91284 16.1215 9.56076 13.4502 12.8414 13.4502C13.1694 13.4502 13.4272 13.708 13.4272 14.036C13.4272 14.3641 13.1694 14.6218 12.8414 14.6218C10.1935 14.6218 8.03762 16.7542 8.03762 19.4256C8.03762 19.7302 7.77986 19.988 7.49866 19.988Z" fill="#202020"/>
<path fill-rule="evenodd" clip-rule="evenodd" d="M17.4341 11.2244C17.3404 11.2244 17.2232 11.1776 17.1295 11.1541C16.8717 10.9901 16.778 10.662 16.9186 10.3809L17.8793 8.67025C18.0434 8.41249 18.3714 8.31875 18.6526 8.45935C18.9104 8.62338 19.0275 8.95144 18.8869 9.23264L17.9028 10.9198C17.809 11.1073 17.6216 11.2244 17.4341 11.2244Z" fill="#202020"/>
<path fill-rule="evenodd" clip-rule="evenodd" d="M21.5115 15.3016C21.3241 15.3016 21.1366 15.2079 21.0429 15.0204C20.8788 14.7627 20.9726 14.3878 21.2538 14.2237L22.9409 13.263C23.1987 13.0989 23.5736 13.1927 23.7377 13.4973C23.8783 13.7551 23.7845 14.1066 23.5033 14.2706L21.8162 15.2313C21.7224 15.2782 21.6053 15.3016 21.5115 15.3016Z" fill="#202020"/>
<path fill-rule="evenodd" clip-rule="evenodd" d="M6.32701 11.2242C6.13955 11.2242 5.92865 11.1071 5.83492 10.9196L4.87417 9.23242C4.71014 8.97466 4.80387 8.62316 5.08507 8.45913C5.34283 8.2951 5.71776 8.38883 5.85835 8.67003L6.84254 10.3806C7.00657 10.6384 6.91283 10.9899 6.60821 11.1539C6.51447 11.2242 6.42074 11.2242 6.32701 11.2242Z" fill="#202020"/>
<path fill-rule="evenodd" clip-rule="evenodd" d="M2.27307 15.3015C2.17934 15.3015 2.06217 15.2781 1.96844 15.2312L0.281272 14.2705C0.0235101 14.1064 -0.0702216 13.7784 0.046943 13.4972C0.210973 13.216 0.539034 13.1222 0.843662 13.2628L2.53083 14.2236C2.7886 14.3876 2.88233 14.7157 2.74173 15.0203C2.648 15.1843 2.46053 15.3015 2.27307 15.3015Z" fill="#202020"/>
<path fill-rule="evenodd" clip-rule="evenodd" d="M16.6843 31.7045C16.3563 31.7045 16.0985 31.4467 16.0985 31.1186C16.0985 30.7906 16.3563 30.5328 16.6843 30.5328C16.9187 30.5328 17.1061 30.3454 17.1061 30.0876C17.1061 29.8064 16.9187 29.6658 16.6843 29.6658H7.07684C6.81908 29.6658 6.65505 29.8533 6.65505 30.0876C6.65505 30.3454 6.84251 30.5328 7.07684 30.5328C7.4049 30.5328 7.66266 30.7906 7.66266 31.1186C7.66266 31.4467 7.4049 31.7045 7.07684 31.7045C6.18639 31.7045 5.50684 30.978 5.50684 30.111C5.50684 29.244 6.23326 28.541 7.07684 28.541H16.6843C17.5514 28.541 18.2309 29.2674 18.2309 30.111C18.2778 30.978 17.5514 31.7045 16.6843 31.7045Z" fill="#202020"/>
<path fill-rule="evenodd" clip-rule="evenodd" d="M16.6843 33.743H7.07684C6.18639 33.743 5.50684 33.0401 5.50684 32.1496C5.50684 31.2826 6.23326 30.603 7.07684 30.603H16.6843C17.5514 30.603 18.2309 31.306 18.2309 32.1496C18.2778 32.9932 17.5514 33.743 16.6843 33.743ZM7.07684 31.7044C6.81908 31.7044 6.65505 31.8918 6.65505 32.1262C6.65505 32.3839 6.84251 32.5714 7.07684 32.5714H16.6843C16.9187 32.5714 17.1061 32.3839 17.1061 32.1262C17.1061 31.8684 16.9187 31.7044 16.6843 31.7044H7.07684Z" fill="#202020"/>
<path fill-rule="evenodd" clip-rule="evenodd" d="M12.6303 35.7587H11.154C9.72462 35.7587 8.55298 34.587 8.55298 33.1576C8.55298 32.8295 8.83417 32.5718 9.1388 32.5718C9.46686 32.5718 9.72462 32.8295 9.72462 33.1576C9.72462 33.9778 10.3807 34.6339 11.2009 34.6339H12.6537C13.4739 34.6339 14.1066 33.9778 14.1066 33.1576C14.1066 32.8295 14.3643 32.5718 14.6924 32.5718C15.0205 32.5718 15.2782 32.8295 15.2782 33.1576C15.2079 34.587 14.0597 35.7587 12.6303 35.7587Z" fill="#202020"/>
<path fill-rule="evenodd" clip-rule="evenodd" d="M11.8805 29.6659C11.5524 29.6659 11.2947 29.3848 11.2947 29.0801V23.2922C11.2947 23.1047 11.3884 22.8938 11.5759 22.8001L13.8489 21.5113C14.1066 21.3473 14.4816 21.441 14.6456 21.6988C14.7862 21.9565 14.6925 22.308 14.4347 22.472L12.4663 23.6203V29.1036C12.4663 29.3848 12.2086 29.6659 11.8805 29.6659Z" fill="#202020"/>
<path fill-rule="evenodd" clip-rule="evenodd" d="M11.8806 23.8546C11.7869 23.8546 11.6697 23.8077 11.576 23.7843L9.34983 22.472C9.09207 22.308 8.9749 21.9565 9.13893 21.6988C9.30296 21.441 9.67789 21.3473 9.93565 21.5113L12.1618 22.8001C12.4195 22.9641 12.5133 23.3156 12.3727 23.5734C12.2555 23.7374 12.068 23.8546 11.8806 23.8546Z" fill="#202020"/>
<path fill-rule="evenodd" clip-rule="evenodd" d="M31.7047 16.3326C31.3767 16.3326 31.1189 16.0748 31.1189 15.7702V7.10003C31.1189 6.13928 30.3456 5.36599 29.4083 5.36599H14.1769C13.2162 5.36599 12.4194 6.13928 12.4194 7.10003V11.482C12.4194 11.7866 12.1617 12.0678 11.8336 12.0678C11.529 12.0678 11.2478 11.7866 11.2478 11.482V7.10003C11.2478 5.50659 12.56 4.24121 14.1535 4.24121H29.3849C30.9549 4.24121 32.2437 5.50659 32.2437 7.10003V15.7936C32.2906 16.0748 32.0328 16.3326 31.7047 16.3326Z" fill="#202020"/>
<path fill-rule="evenodd" clip-rule="evenodd" d="M31.7049 16.3327C31.5877 16.3327 31.4237 16.2859 31.33 16.1921L28.5415 13.3802C28.3071 13.1693 28.3071 12.7944 28.5415 12.5835C28.7524 12.3491 29.1273 12.3491 29.3382 12.5835L31.7049 14.9502L34.0716 12.5835C34.306 12.3491 34.6575 12.3491 34.8918 12.5835C35.1261 12.7944 35.1261 13.1693 34.8918 13.3802L32.1033 16.1921C32.0095 16.2859 31.8689 16.3327 31.7049 16.3327Z" fill="#202020"/>
</g>
<defs>
<clipPath id="clip0_2638_5016">
<rect width="40" height="40" fill="white"/>
</clipPath>
</defs>
</svg>
