<svg width="42" height="40" viewBox="0 0 42 40" fill="none" xmlns="http://www.w3.org/2000/svg">
<path d="M34.991 2.41303H34.7204V2.25703C34.7204 1.01254 33.7078 0 32.4633 0C31.2189 0 30.2064 1.01254 30.2064 2.25703V2.41303H11.7875V2.25703C11.7875 1.01254 10.775 0 9.53048 0C8.2859 0 7.27345 1.01254 7.27345 2.25703V2.41303H7.00278C3.14145 2.41303 0 5.55439 0 9.41581V32.9972C0 36.8586 3.14145 40 7.00278 40H34.991C38.8524 40 41.9939 36.8586 41.9939 32.9972V9.41581C41.9939 5.55439 38.8524 2.41303 34.991 2.41303V2.41303ZM31.4367 2.25703C31.4367 1.69092 31.8972 1.2303 32.4634 1.2303C33.0296 1.2303 33.4902 1.69084 33.4902 2.25703V5.52585C33.4902 6.09195 33.0296 6.55258 32.4634 6.55258C31.8972 6.55258 31.4367 6.09203 31.4367 5.52585V2.25703ZM8.50375 2.25703C8.50375 1.69092 8.96437 1.2303 9.53048 1.2303C10.0966 1.2303 10.5572 1.69084 10.5572 2.25703V5.52585C10.5572 6.09195 10.0967 6.55258 9.53048 6.55258C8.96429 6.55258 8.50375 6.09203 8.50375 5.52585V2.25703ZM1.2303 32.9971V11.6886H12.6925V15.22H6.17004C4.81424 15.22 3.71124 16.323 3.71124 17.6788V18.8054C3.71124 20.1612 4.81424 21.2642 6.17004 21.2642H12.6924V29.7157H6.17028C4.81441 29.7157 3.71132 30.8188 3.71132 32.1746V33.3008C3.71132 34.6566 4.81441 35.7596 6.17028 35.7596H7.76475C8.10448 35.7596 8.3799 35.4842 8.3799 35.1445C8.3799 34.8048 8.10448 34.5293 7.76475 34.5293H6.17028C5.4928 34.5293 4.94162 33.9782 4.94162 33.3008V32.1746C4.94162 31.4972 5.4928 30.946 6.17028 30.946H24.144C24.8215 30.946 25.3726 31.4972 25.3726 32.1746V33.3008C25.3726 33.9783 24.8214 34.5293 24.144 34.5293H10.2253C9.88562 34.5293 9.6102 34.8048 9.6102 35.1445C9.6102 35.4842 9.88562 35.7596 10.2253 35.7596H12.6925V38.7698H7.00278C3.81983 38.7697 1.2303 36.1802 1.2303 32.9971V32.9971ZM20.7452 27.2815C20.0678 27.2815 19.5167 26.7304 19.5167 26.053V24.9264C19.5167 24.249 20.0678 23.698 20.7452 23.698H31.2308C31.9082 23.698 32.4594 24.249 32.4594 24.9264V26.053C32.4594 26.7304 31.9082 27.2815 31.2308 27.2815H20.7452ZM20.7452 22.4677C19.3894 22.4677 18.2864 23.5707 18.2864 24.9264V26.053C18.2864 27.4088 19.3894 28.5118 20.7452 28.5118H28.0711V38.7696H13.9228V35.7595H24.1441C25.4999 35.7595 26.603 34.6564 26.603 33.3006V32.1745C26.603 30.8186 25.4999 29.7155 24.1441 29.7155H13.9228V21.2641H16.6557C18.0115 21.2641 19.1145 20.1611 19.1145 18.8053V17.6788C19.1145 16.323 18.0115 15.22 16.6557 15.22H13.9228V11.6885H28.0712V22.4677H20.7452ZM16.6556 16.4503C17.333 16.4503 17.8841 17.0013 17.8841 17.6788V18.8053C17.8841 19.4827 17.333 20.0338 16.6556 20.0338H6.17004C5.49263 20.0338 4.94154 19.4827 4.94154 18.8053V17.6788C4.94154 17.0013 5.49263 16.4503 6.17004 16.4503H16.6556ZM34.991 38.7697H29.3014V28.5118H31.2307C32.5865 28.5118 33.6896 27.4088 33.6896 26.053V24.9264C33.6896 23.5707 32.5866 22.4677 31.2307 22.4677H29.3014V11.6886H32.4633C32.8031 11.6886 33.0784 11.4132 33.0784 11.0734C33.0784 10.7337 32.8031 10.4583 32.4633 10.4583H1.2303V9.41581C1.2303 6.23286 3.81983 3.64333 7.00278 3.64333H7.27345V5.52585C7.27345 6.77034 8.28599 7.78288 9.53048 7.78288C10.775 7.78288 11.7875 6.77042 11.7875 5.52585V3.64333H30.2064V5.52585C30.2064 6.77034 31.2189 7.78288 32.4634 7.78288C33.7079 7.78288 34.7205 6.77042 34.7205 5.52585V3.64333H34.9911C38.1742 3.64333 40.7637 6.23286 40.7637 9.41581V10.4583H34.9239C34.5841 10.4583 34.3088 10.7337 34.3088 11.0734C34.3088 11.4132 34.5841 11.6886 34.9239 11.6886H40.7637V32.9972C40.7636 36.1802 38.1741 38.7697 34.991 38.7697V38.7697Z" fill="#202020"/>
<path d="M36.8531 29.7154H33.2723C31.9166 29.7154 30.8135 30.8184 30.8135 32.1742V33.3007C30.8135 34.6565 31.9165 35.7595 33.2723 35.7595H36.8531C38.2088 35.7595 39.3118 34.6565 39.3118 33.3007V32.1742C39.3118 30.8184 38.2088 29.7154 36.8531 29.7154ZM38.0815 33.3007C38.0815 33.9781 37.5305 34.5292 36.8531 34.5292H33.2723C32.5949 34.5292 32.0438 33.9781 32.0438 33.3007V32.1742C32.0438 31.4968 32.5949 30.9457 33.2723 30.9457H36.8531C37.5305 30.9457 38.0815 31.4968 38.0815 32.1742V33.3007Z" fill="#202020"/>
<path d="M5.57706 13.726H8.40238C8.7421 13.726 9.01752 13.4506 9.01752 13.1109C9.01752 12.7712 8.7421 12.4958 8.40238 12.4958H5.57706C5.23734 12.4958 4.96191 12.7712 4.96191 13.1109C4.96191 13.4506 5.23734 13.726 5.57706 13.726Z" fill="#202020"/>
<path d="M36.9307 13.726C37.2705 13.726 37.5458 13.4506 37.5458 13.1109C37.5458 12.7712 37.2705 12.4958 36.9307 12.4958H34.1054C33.7656 12.4958 33.4902 12.7712 33.4902 13.1109C33.4902 13.4506 33.7656 13.726 34.1054 13.726H36.9307Z" fill="#202020"/>
<path d="M22.4092 12.4958H19.5839C19.2442 12.4958 18.9688 12.7712 18.9688 13.1109C18.9688 13.4506 19.2442 13.726 19.5839 13.726H22.4092C22.749 13.726 23.0244 13.4506 23.0244 13.1109C23.0244 12.7712 22.7489 12.4958 22.4092 12.4958Z" fill="#202020"/>
</svg>
