<svg width="40" height="40" viewBox="0 0 40 40" fill="none" xmlns="http://www.w3.org/2000/svg">
<g clip-path="url(#clip0_2486_4312)">
<path d="M32.6665 12.6667C33.1911 12.6667 33.6538 12.3753 33.8745 11.9073C34.0905 11.4487 34.0238 10.9207 33.7005 10.5293L30.3651 6.48C29.8558 5.87067 28.8111 5.86734 28.2978 6.48334L24.9645 10.5287C24.6418 10.9207 24.5745 11.4493 24.7905 11.9073C25.0111 12.3753 25.4738 12.6667 25.9985 12.6667H26.6651V16.5833C25.4511 15.8273 24.1065 15.2647 22.6651 14.9547V6.66667H23.3318C23.8565 6.66667 24.3191 6.37534 24.5398 5.90734C24.7558 5.44867 24.6891 4.92067 24.3658 4.52934L21.0325 0.480004C20.5231 -0.129329 19.4785 -0.132662 18.9651 0.483338L15.6318 4.52867C15.3091 4.92067 15.2418 5.44934 15.4578 5.90734C15.6785 6.37534 16.1411 6.66667 16.6658 6.66667H17.3325V14.9547C15.8911 15.2647 14.5465 15.8273 13.3325 16.5833V12.6667H13.9991C14.5238 12.6667 14.9865 12.3753 15.2071 11.9073C15.4231 11.4487 15.3565 10.9207 15.0331 10.5293L11.6978 6.48C11.1885 5.87067 10.1438 5.86734 9.63048 6.48334L6.29714 10.5287C5.97448 10.9207 5.90714 11.4493 6.12314 11.9073C6.34381 12.3753 6.80648 12.6667 7.33114 12.6667H7.99781V23.3087C7.57181 24.5747 7.33114 25.9253 7.33114 27.3333C7.33114 34.318 13.0131 40 19.9978 40C26.9825 40 32.6645 34.318 32.6645 27.3333C32.6645 25.9253 32.4238 24.5747 31.9978 23.3087V12.6667H32.6645H32.6665ZM17.9998 5.33334L16.6605 5.37667L20.0058 1.33067L23.3331 5.33334H21.9998C21.6311 5.33334 21.3331 5.63134 21.3331 6V14.738C20.8945 14.692 20.4505 14.6667 19.9998 14.6667C19.5491 14.6667 19.1051 14.692 18.6665 14.738V6C18.6665 5.63134 18.3685 5.33334 17.9998 5.33334ZM8.66648 11.3333L7.32714 11.3767L10.6725 7.33067L13.9998 11.3333H12.6665C12.2978 11.3333 11.9998 11.6313 11.9998 12V17.5233C10.9578 18.3747 10.0611 19.3927 9.33314 20.5293V12C9.33314 11.6313 9.03514 11.3333 8.66648 11.3333ZM19.9998 38.6667C13.7505 38.6667 8.66648 33.5827 8.66648 27.3333C8.66648 21.084 13.7505 16 19.9998 16C26.2491 16 31.3331 21.084 31.3331 27.3333C31.3331 33.5827 26.2491 38.6667 19.9998 38.6667ZM27.9998 17.5233V12C27.9998 11.6313 27.7018 11.3333 27.3331 11.3333L25.9938 11.3767L29.3391 7.33067L32.6665 11.3333H31.3331C30.9645 11.3333 30.6665 11.6313 30.6665 12V20.5293C29.9385 19.392 29.0418 18.3747 27.9998 17.5233Z" fill="black"/>
<path d="M20 17.3333C14.486 17.3333 10 21.8193 10 27.3333C10 32.8473 14.486 37.3333 20 37.3333C25.514 37.3333 30 32.8473 30 27.3333C30 21.8193 25.514 17.3333 20 17.3333ZM20 36C15.2213 36 11.3333 32.112 11.3333 27.3333C11.3333 22.5547 15.2213 18.6667 20 18.6667C24.7787 18.6667 28.6667 22.5547 28.6667 27.3333C28.6667 32.112 24.7787 36 20 36Z" fill="black"/>
<path d="M23.6828 27.5253L20.6668 26.664V20.1667C20.6668 19.798 20.3688 19.5 20.0002 19.5C19.6315 19.5 19.3335 19.798 19.3335 20.1667V27.1667C19.3335 27.464 19.5308 27.726 19.8175 27.808L23.3175 28.808C23.3788 28.8247 23.4402 28.8333 23.5008 28.8333C23.7908 28.8333 24.0575 28.6427 24.1415 28.3493C24.2422 27.996 24.0375 27.6267 23.6828 27.5253Z" fill="black"/>
</g>
<defs>
<clipPath id="clip0_2486_4312">
<rect width="40" height="40" fill="white"/>
</clipPath>
</defs>
</svg>
