<svg width="40" height="40" viewBox="0 0 40 40" fill="none" xmlns="http://www.w3.org/2000/svg">
<path d="M35.625 18.125C35.2385 18.1266 34.8621 18.2476 34.547 18.4713C34.232 18.6951 33.9938 19.0107 33.865 19.375H30.625V10C30.625 9.83424 30.5591 9.67527 30.4419 9.55806C30.3247 9.44085 30.1657 9.375 30 9.375H26.875V6.25H31.365C31.5124 6.66701 31.8025 7.01847 32.184 7.24227C32.5655 7.46607 33.0139 7.54779 33.4498 7.473C33.8857 7.3982 34.2812 7.17171 34.5663 6.83354C34.8514 6.49537 35.0077 6.0673 35.0077 5.625C35.0077 5.1827 34.8514 4.75463 34.5663 4.41646C34.2812 4.07829 33.8857 3.8518 33.4498 3.777C33.0139 3.70221 32.5655 3.78393 32.184 4.00773C31.8025 4.23153 31.5124 4.58299 31.365 5H26.25C26.0842 5 25.9252 5.06585 25.808 5.18306C25.6908 5.30027 25.625 5.45924 25.625 5.625V9.375H20.625V6.135C21.042 5.98757 21.3934 5.69746 21.6172 5.31595C21.841 4.93444 21.9227 4.4861 21.8479 4.05017C21.7732 3.61423 21.5467 3.21877 21.2085 2.93368C20.8703 2.6486 20.4423 2.49223 20 2.49223C19.5576 2.49223 19.1296 2.6486 18.7914 2.93368C18.4532 3.21877 18.2268 3.61423 18.152 4.05017C18.0772 4.4861 18.1589 4.93444 18.3827 5.31595C18.6065 5.69746 18.9579 5.98757 19.375 6.135V9.375H14.375V5.625C14.375 5.45924 14.3091 5.30027 14.1919 5.18306C14.0747 5.06585 13.9157 5 13.75 5H8.63495C8.48752 4.58299 8.19741 4.23153 7.8159 4.00773C7.4344 3.78393 6.98606 3.70221 6.55012 3.777C6.11419 3.8518 5.71873 4.07829 5.43364 4.41646C5.14855 4.75463 4.99219 5.1827 4.99219 5.625C4.99219 6.0673 5.14855 6.49537 5.43364 6.83354C5.71873 7.17171 6.11419 7.3982 6.55012 7.473C6.98606 7.54779 7.4344 7.46607 7.8159 7.24227C8.19741 7.01847 8.48752 6.66701 8.63495 6.25H13.125V9.375H9.99995C9.83419 9.375 9.67522 9.44085 9.55801 9.55806C9.4408 9.67527 9.37495 9.83424 9.37495 10V19.375H6.13495C5.98752 18.958 5.69741 18.6065 5.3159 18.3827C4.9344 18.1589 4.48606 18.0772 4.05012 18.152C3.61419 18.2268 3.21873 18.4533 2.93364 18.7915C2.64855 19.1296 2.49219 19.5577 2.49219 20C2.49219 20.4423 2.64855 20.8704 2.93364 21.2085C3.21873 21.5467 3.61419 21.7732 4.05012 21.848C4.48606 21.9228 4.9344 21.8411 5.3159 21.6173C5.69741 21.3935 5.98752 21.042 6.13495 20.625H9.37495V30C9.37495 30.1658 9.4408 30.3247 9.55801 30.4419C9.67522 30.5592 9.83419 30.625 9.99995 30.625H13.125V33.75H8.63495C8.48752 33.333 8.19741 32.9815 7.8159 32.7577C7.4344 32.5339 6.98606 32.4522 6.55012 32.527C6.11419 32.6018 5.71873 32.8283 5.43364 33.1665C5.14855 33.5046 4.99219 33.9327 4.99219 34.375C4.99219 34.8173 5.14855 35.2454 5.43364 35.5835C5.71873 35.9217 6.11419 36.1482 6.55012 36.223C6.98606 36.2978 7.4344 36.2161 7.8159 35.9923C8.19741 35.7685 8.48752 35.417 8.63495 35H13.75C13.9157 35 14.0747 34.9342 14.1919 34.8169C14.3091 34.6997 14.375 34.5408 14.375 34.375V30.625H19.375V33.865C18.9579 34.0124 18.6065 34.3025 18.3827 34.684C18.1589 35.0656 18.0772 35.5139 18.152 35.9498C18.2268 36.3858 18.4532 36.7812 18.7914 37.0663C19.1296 37.3514 19.5576 37.5078 20 37.5078C20.4423 37.5078 20.8703 37.3514 21.2085 37.0663C21.5467 36.7812 21.7732 36.3858 21.8479 35.9498C21.9227 35.5139 21.841 35.0656 21.6172 34.684C21.3934 34.3025 21.042 34.0124 20.625 33.865V30.625H25.625V34.375C25.625 34.5408 25.6908 34.6997 25.808 34.8169C25.9252 34.9342 26.0842 35 26.25 35H31.365C31.5124 35.417 31.8025 35.7685 32.184 35.9923C32.5655 36.2161 33.0139 36.2978 33.4498 36.223C33.8857 36.1482 34.2812 35.9217 34.5663 35.5835C34.8514 35.2454 35.0077 34.8173 35.0077 34.375C35.0077 33.9327 34.8514 33.5046 34.5663 33.1665C34.2812 32.8283 33.8857 32.6018 33.4498 32.527C33.0139 32.4522 32.5655 32.5339 32.184 32.7577C31.8025 32.9815 31.5124 33.333 31.365 33.75H26.875V30.625H30C30.1657 30.625 30.3247 30.5592 30.4419 30.4419C30.5591 30.3247 30.625 30.1658 30.625 30V20.625H33.865C33.9801 20.9482 34.1819 21.2336 34.4482 21.4499C34.7146 21.6662 35.0353 21.8052 35.3752 21.8516C35.7152 21.8979 36.0614 21.85 36.376 21.7129C36.6905 21.5759 36.9614 21.355 37.1589 21.0744C37.3564 20.7938 37.473 20.4644 37.496 20.122C37.5189 19.7797 37.4473 19.4376 37.289 19.1332C37.1307 18.8287 36.8917 18.5737 36.5982 18.3959C36.3048 18.2181 35.9681 18.1244 35.625 18.125ZM33.125 5C33.2486 5 33.3694 5.03666 33.4722 5.10533C33.575 5.17401 33.6551 5.27162 33.7024 5.38582C33.7497 5.50003 33.7621 5.62569 33.7379 5.74693C33.7138 5.86817 33.6543 5.97953 33.5669 6.06694C33.4795 6.15435 33.3681 6.21388 33.2469 6.23799C33.1256 6.26211 33 6.24973 32.8858 6.20242C32.7716 6.15512 32.674 6.07501 32.6053 5.97223C32.5366 5.86945 32.5 5.74861 32.5 5.625C32.5 5.45924 32.5658 5.30027 32.683 5.18306C32.8002 5.06585 32.9592 5 33.125 5ZM20 3.75C20.1236 3.75 20.2444 3.78666 20.3472 3.85533C20.45 3.92401 20.5301 4.02162 20.5774 4.13582C20.6247 4.25003 20.6371 4.37569 20.6129 4.49693C20.5888 4.61817 20.5293 4.72953 20.4419 4.81694C20.3545 4.90435 20.2431 4.96388 20.1219 4.98799C20.0006 5.01211 19.875 4.99973 19.7608 4.95242C19.6466 4.90512 19.549 4.82501 19.4803 4.72223C19.4116 4.61945 19.375 4.49861 19.375 4.375C19.375 4.20924 19.4408 4.05027 19.558 3.93306C19.6752 3.81585 19.8342 3.75 20 3.75ZM6.87495 6.25C6.75134 6.25 6.6305 6.21334 6.52772 6.14467C6.42494 6.07599 6.34483 5.97838 6.29753 5.86418C6.25023 5.74997 6.23785 5.62431 6.26196 5.50307C6.28608 5.38183 6.34561 5.27047 6.43301 5.18306C6.52042 5.09565 6.63178 5.03612 6.75302 5.01201C6.87426 4.98789 6.99993 5.00027 7.11413 5.04758C7.22834 5.09488 7.32595 5.17499 7.39462 5.27777C7.4633 5.38055 7.49995 5.50139 7.49995 5.625C7.49995 5.79076 7.43411 5.94973 7.3169 6.06694C7.19969 6.18415 7.04071 6.25 6.87495 6.25ZM4.37495 20.625C4.25134 20.625 4.1305 20.5883 4.02772 20.5197C3.92494 20.451 3.84483 20.3534 3.79753 20.2392C3.75022 20.125 3.73785 19.9993 3.76196 19.8781C3.78608 19.7568 3.84561 19.6455 3.93301 19.5581C4.02042 19.4706 4.13178 19.4111 4.25302 19.387C4.37426 19.3629 4.49993 19.3753 4.61413 19.4226C4.72834 19.4699 4.82595 19.55 4.89462 19.6528C4.9633 19.7555 4.99995 19.8764 4.99995 20C4.99995 20.1658 4.93411 20.3247 4.8169 20.4419C4.69969 20.5592 4.54071 20.625 4.37495 20.625ZM6.87495 35C6.75134 35 6.6305 34.9633 6.52772 34.8947C6.42494 34.826 6.34483 34.7284 6.29753 34.6142C6.25023 34.5 6.23785 34.3743 6.26196 34.2531C6.28608 34.1318 6.34561 34.0205 6.43301 33.9331C6.52042 33.8456 6.63178 33.7861 6.75302 33.762C6.87426 33.7379 6.99993 33.7503 7.11413 33.7976C7.22834 33.8449 7.32595 33.925 7.39462 34.0278C7.4633 34.1305 7.49995 34.2514 7.49995 34.375C7.49995 34.5408 7.43411 34.6997 7.3169 34.8169C7.19969 34.9342 7.04071 35 6.87495 35ZM20 36.25C19.8763 36.25 19.7555 36.2133 19.6527 36.1447C19.5499 36.076 19.4698 35.9784 19.4225 35.8642C19.3752 35.75 19.3628 35.6243 19.387 35.5031C19.4111 35.3818 19.4706 35.2705 19.558 35.1831C19.6454 35.0956 19.7568 35.0361 19.878 35.012C19.9993 34.9879 20.1249 35.0003 20.2391 35.0476C20.3533 35.0949 20.4509 35.175 20.5196 35.2778C20.5883 35.3805 20.625 35.5014 20.625 35.625C20.625 35.7908 20.5591 35.9497 20.4419 36.0669C20.3247 36.1842 20.1657 36.25 20 36.25ZM33.125 33.75C33.2486 33.75 33.3694 33.7867 33.4722 33.8553C33.575 33.924 33.6551 34.0216 33.7024 34.1358C33.7497 34.25 33.7621 34.3757 33.7379 34.4969C33.7138 34.6182 33.6543 34.7295 33.5669 34.8169C33.4795 34.9043 33.3681 34.9639 33.2469 34.988C33.1256 35.0121 33 34.9997 32.8858 34.9524C32.7716 34.9051 32.674 34.825 32.6053 34.7222C32.5366 34.6194 32.5 34.4986 32.5 34.375C32.5 34.2092 32.5658 34.0503 32.683 33.9331C32.8002 33.8158 32.9592 33.75 33.125 33.75ZM29.375 29.375H10.625V10.625H29.375V29.375ZM35.625 20.625C35.5013 20.625 35.3805 20.5883 35.2777 20.5197C35.1749 20.451 35.0948 20.3534 35.0475 20.2392C35.0002 20.125 34.9879 19.9993 35.012 19.8781C35.0361 19.7568 35.0956 19.6455 35.183 19.5581C35.2704 19.4706 35.3818 19.4111 35.503 19.387C35.6243 19.3629 35.7499 19.3753 35.8641 19.4226C35.9783 19.4699 36.0759 19.55 36.1446 19.6528C36.2133 19.7555 36.25 19.8764 36.25 20C36.25 20.1658 36.1841 20.3247 36.0669 20.4419C35.9497 20.5592 35.7907 20.625 35.625 20.625Z" fill="black"/>
<path d="M27.5 18.5856H26.3862C26.2207 17.84 25.9261 17.1291 25.5156 16.485L26.3037 15.6969C26.3619 15.6388 26.408 15.5699 26.4394 15.494C26.4709 15.4182 26.4871 15.3368 26.4871 15.2547C26.4871 15.1726 26.4709 15.0912 26.4394 15.0153C26.408 14.9395 26.3619 14.8705 26.3037 14.8125L25.1875 13.6962C25.0703 13.5791 24.9114 13.5133 24.7456 13.5133C24.5799 13.5133 24.421 13.5791 24.3038 13.6962L23.5156 14.4837C22.8716 14.0734 22.1606 13.7789 21.415 13.6137V12.5C21.415 12.3342 21.3492 12.1753 21.2319 12.0581C21.1147 11.9408 20.9558 11.875 20.79 11.875H19.2106C19.0449 11.875 18.8859 11.9408 18.7687 12.0581C18.6515 12.1753 18.5856 12.3342 18.5856 12.5V13.6144C17.84 13.7794 17.129 14.0739 16.485 14.4844L15.6969 13.6969C15.5797 13.5797 15.4207 13.5139 15.255 13.5139C15.0893 13.5139 14.9303 13.5797 14.8131 13.6969L13.6969 14.8125C13.5797 14.9297 13.5139 15.0886 13.5139 15.2544C13.5139 15.4201 13.5797 15.579 13.6969 15.6963L14.4844 16.4844C14.0739 17.1284 13.7794 17.8393 13.6144 18.585H12.5C12.3342 18.585 12.1753 18.6508 12.0581 18.7681C11.9408 18.8853 11.875 19.0442 11.875 19.21V20.7888C11.875 20.9545 11.9408 21.1135 12.0581 21.2307C12.1753 21.3479 12.3342 21.4138 12.5 21.4138H13.6144C13.7794 22.1594 14.0739 22.8704 14.4844 23.5144L13.6969 24.3025C13.5797 24.4197 13.5139 24.5786 13.5139 24.7444C13.5139 24.9101 13.5797 25.069 13.6969 25.1863L14.8125 26.3031C14.9297 26.4203 15.0886 26.4861 15.2544 26.4861C15.4201 26.4861 15.579 26.4203 15.6963 26.3031L16.4844 25.5156C17.1284 25.9261 17.8393 26.2206 18.585 26.3856V27.5C18.585 27.6658 18.6508 27.8247 18.7681 27.9419C18.8853 28.0592 19.0442 28.125 19.21 28.125H20.7888C20.9545 28.125 21.1135 28.0592 21.2307 27.9419C21.3479 27.8247 21.4138 27.6658 21.4138 27.5V26.3856C22.1594 26.2205 22.8703 25.926 23.5144 25.5156L24.3025 26.3031C24.4197 26.4203 24.5786 26.4861 24.7444 26.4861C24.9101 26.4861 25.069 26.4203 25.1863 26.3031L26.3037 25.1875C26.3619 25.1295 26.408 25.0605 26.4394 24.9847C26.4709 24.9088 26.4871 24.8274 26.4871 24.7453C26.4871 24.6632 26.4709 24.5818 26.4394 24.506C26.408 24.4301 26.3619 24.3612 26.3037 24.3031L25.5156 23.515C25.9261 22.8709 26.2207 22.16 26.3862 21.4144H27.5C27.6658 21.4144 27.8247 21.3485 27.9419 21.2313C28.0592 21.1141 28.125 20.9551 28.125 20.7894V19.2106C28.125 19.0449 28.0592 18.8859 27.9419 18.7687C27.8247 18.6515 27.6658 18.5856 27.5 18.5856ZM26.875 20.1644H25.8625C25.7111 20.1644 25.5648 20.2194 25.4509 20.3192C25.3369 20.419 25.2631 20.5568 25.2431 20.7069C25.1208 21.6162 24.7634 22.4779 24.2062 23.2069C24.1144 23.3272 24.0694 23.4768 24.0795 23.6278C24.0896 23.7789 24.1542 23.9211 24.2613 24.0281L24.9781 24.7444L24.745 24.9769L24.0287 24.2606C23.9218 24.1537 23.7797 24.0892 23.6288 24.0791C23.4779 24.069 23.3284 24.114 23.2081 24.2056C22.479 24.7626 21.6174 25.12 20.7081 25.2425C20.5581 25.2626 20.4205 25.3365 20.3209 25.4504C20.2212 25.5643 20.1663 25.7105 20.1662 25.8619V26.875H19.8375V25.8625C19.8375 25.7111 19.7824 25.5648 19.6827 25.4509C19.5829 25.3369 19.4451 25.2631 19.295 25.2431C18.3857 25.1208 17.524 24.7634 16.795 24.2062C16.6747 24.1144 16.5251 24.0694 16.374 24.0795C16.223 24.0896 16.0808 24.1542 15.9738 24.2613L15.2575 24.9775L15.025 24.745L15.7413 24.0287C15.8483 23.9217 15.9129 23.7795 15.923 23.6285C15.9331 23.4774 15.8881 23.3278 15.7963 23.2075C15.2391 22.4785 14.8817 21.6168 14.7594 20.7075C14.7394 20.5574 14.6656 20.4196 14.5516 20.3198C14.4377 20.2201 14.2914 20.165 14.14 20.165H13.125V19.8363H14.1375C14.2889 19.8362 14.4352 19.7812 14.5491 19.6814C14.6631 19.5816 14.7369 19.4439 14.7569 19.2938C14.8792 18.3844 15.2366 17.5227 15.7938 16.7938C15.8856 16.6734 15.9306 16.5238 15.9205 16.3728C15.9104 16.2218 15.8458 16.0795 15.7387 15.9725L15.0225 15.2562L15.255 15.0238L15.9713 15.74C16.0783 15.8471 16.2205 15.9117 16.3715 15.9218C16.5226 15.9319 16.6722 15.8868 16.7925 15.795C17.5215 15.2378 18.3832 14.8804 19.2925 14.7581C19.4426 14.7381 19.5804 14.6643 19.6802 14.5504C19.7799 14.4365 19.835 14.2902 19.835 14.1387V13.125H20.1638V14.1375C20.1638 14.2888 20.2187 14.4351 20.3184 14.549C20.418 14.6629 20.5556 14.7367 20.7056 14.7569C21.6149 14.8794 22.4765 15.2368 23.2056 15.7938C23.3259 15.8854 23.4754 15.9304 23.6263 15.9203C23.7772 15.9101 23.9193 15.8457 24.0263 15.7387L24.7425 15.0225L24.9756 15.255L24.2587 15.9713C24.1517 16.0783 24.0871 16.2205 24.077 16.3715C24.0669 16.5226 24.1119 16.6722 24.2038 16.7925C24.7609 17.5215 25.1183 18.3832 25.2406 19.2925C25.2606 19.4426 25.3344 19.5804 25.4484 19.6802C25.5623 19.7799 25.7086 19.835 25.86 19.835H26.875V20.1644Z" fill="black"/>
<path d="M19.9999 16.6119C19.3298 16.6119 18.6748 16.8106 18.1176 17.1829C17.5604 17.5552 17.1262 18.0843 16.8697 18.7034C16.6133 19.3225 16.5462 20.0038 16.6769 20.661C16.8077 21.3182 17.1303 21.9219 17.6042 22.3958C18.078 22.8696 18.6817 23.1923 19.339 23.323C19.9962 23.4538 20.6774 23.3867 21.2965 23.1302C21.9156 22.8738 22.4448 22.4395 22.8171 21.8823C23.1894 21.3252 23.3881 20.6701 23.3881 20C23.3871 19.1017 23.0298 18.2405 22.3946 17.6053C21.7594 16.9702 20.8982 16.6129 19.9999 16.6119ZM19.9999 22.1381C19.5771 22.1381 19.1637 22.0127 18.8121 21.7778C18.4605 21.5428 18.1864 21.2089 18.0246 20.8182C17.8627 20.4275 17.8204 19.9976 17.9029 19.5829C17.9854 19.1681 18.189 18.7871 18.4881 18.4881C18.7871 18.1891 19.1681 17.9855 19.5828 17.903C19.9976 17.8205 20.4275 17.8628 20.8182 18.0246C21.2089 18.1865 21.5428 18.4605 21.7777 18.8121C22.0127 19.1637 22.1381 19.5771 22.1381 20C22.1374 20.5669 21.9119 21.1103 21.5111 21.5112C21.1103 21.912 20.5668 22.1375 19.9999 22.1381Z" fill="black"/>
</svg>
