<svg width="40" height="40" viewBox="0 0 40 40" fill="none" xmlns="http://www.w3.org/2000/svg">
<g clip-path="url(#clip0_2490_4485)">
<path d="M6.02402 39.9767L33.9713 40C34.4486 40.0039 34.9182 39.8797 35.3311 39.6402C35.744 39.4008 36.0851 39.0549 36.3187 38.6387C36.5515 38.2342 36.6712 37.7746 36.6653 37.308C36.6593 36.8414 36.5278 36.385 36.2847 35.9867L28.9794 23.758C29.0834 23.6473 29.188 23.5487 29.2913 23.4293L31.636 24.1013C31.8753 24.1724 32.1313 24.1634 32.365 24.0758C32.5988 23.9882 32.7976 23.8268 32.9313 23.616C33.0647 23.416 33.512 22.6467 33.6133 22.4493C33.7346 22.2255 33.7786 21.968 33.7385 21.7166C33.6983 21.4653 33.5763 21.2342 33.3913 21.0593L31.6447 19.3833C31.8296 18.8451 31.9771 18.2946 32.086 17.736L34.4647 17.15C34.7032 17.0871 34.9156 16.9503 35.0716 16.7593C35.2277 16.5684 35.3193 16.3329 35.3334 16.0867C35.3407 15.9673 35.3414 15.6513 35.3414 15.3287C35.3414 15.006 35.3414 14.6893 35.334 14.5867C35.3213 14.3338 35.2276 14.0918 35.0667 13.8964C34.9058 13.7009 34.6863 13.5624 34.4407 13.5013L32.084 12.9207C31.9751 12.3622 31.8276 11.812 31.6427 11.274L33.3907 9.59999C33.5744 9.42763 33.6965 9.19976 33.7383 8.95134C33.7801 8.70292 33.7392 8.44764 33.622 8.22466C33.5107 8.01066 33.0653 7.24399 32.952 7.07533C32.8202 6.85541 32.6192 6.68537 32.3805 6.59177C32.1418 6.49817 31.8788 6.4863 31.6327 6.55799L29.2913 7.22999C28.9182 6.79904 28.5135 6.39638 28.0807 6.02533L28.752 3.69199C28.8217 3.4486 28.8103 3.18913 28.7195 2.95279C28.6287 2.71646 28.4634 2.5161 28.2487 2.38199C28.0527 2.26333 27.2973 1.82399 27.0987 1.72199C26.8745 1.6003 26.6165 1.55583 26.3645 1.59548C26.1125 1.63513 25.8807 1.75667 25.7047 1.94133L24.014 3.68133C23.4732 3.49441 22.9195 3.34691 22.3573 3.23999L21.7634 0.866661C21.6977 0.626998 21.5576 0.414404 21.3632 0.259582C21.1688 0.104759 20.9303 0.0157217 20.682 0.00532751C20.4574 -5.8189e-06 19.5634 -5.8189e-06 19.3334 0.00532751C19.0817 0.0172462 18.8405 0.109533 18.6451 0.268639C18.4498 0.427745 18.3106 0.645288 18.248 0.889328L17.662 3.23999C17.0999 3.34686 16.5462 3.49436 16.0054 3.68133L14.3174 1.94266C14.1438 1.75892 13.915 1.63698 13.6657 1.59545C13.4164 1.55393 13.1604 1.59509 12.9367 1.71266C12.722 1.82333 11.9667 2.26266 11.7567 2.38999C11.5449 2.52536 11.3826 2.72573 11.2943 2.96106C11.206 3.1964 11.1963 3.45402 11.2667 3.69533L11.9367 6.02266C11.5041 6.39399 11.0997 6.79688 10.7267 7.22799L8.38402 6.55533C8.14496 6.48376 7.88906 6.49232 7.65533 6.5797C7.42159 6.66708 7.22283 6.82849 7.08935 7.03933C6.94802 7.24999 6.50068 8.02399 6.40602 8.20799C6.28412 8.43197 6.2398 8.68999 6.27996 8.9418C6.32012 9.19361 6.4425 9.42505 6.62802 9.59999L8.37468 11.2767C8.18996 11.8136 8.0425 12.3627 7.93335 12.92L5.55535 13.5067C5.31608 13.5685 5.1027 13.7049 4.94606 13.8961C4.78942 14.0872 4.69765 14.3232 4.68402 14.57C4.67735 14.6893 4.67668 15.0053 4.67668 15.3287C4.67668 15.652 4.67668 15.9673 4.68268 16.068C4.6949 16.3213 4.78848 16.5639 4.94954 16.7598C5.11059 16.9557 5.33053 17.0944 5.57668 17.1553L7.93335 17.7333C8.04245 18.2919 8.18991 18.8423 8.37468 19.3807L6.62935 21.0587C6.44573 21.231 6.32382 21.4589 6.28239 21.7072C6.24095 21.9556 6.28228 22.2107 6.40002 22.4333C6.51268 22.6513 6.95868 23.4187 7.07002 23.584C7.20159 23.8039 7.40248 23.974 7.64116 24.0674C7.87984 24.1608 8.14278 24.1722 8.38868 24.1L10.73 23.4293C10.8327 23.548 10.93 23.658 11.0327 23.7627L3.71668 35.958C3.47237 36.3559 3.33973 36.8123 3.33269 37.2792C3.32565 37.7461 3.44448 38.2062 3.67668 38.6113C3.90935 39.0287 4.25008 39.3757 4.66311 39.6159C5.07613 39.8562 5.54622 39.9808 6.02402 39.9767ZM11.6627 22.4707C11.515 22.3064 11.3246 22.1865 11.1126 22.1245C10.9007 22.0624 10.6756 22.0606 10.4627 22.1193L8.14268 22.786C8.01735 22.5813 7.77735 22.1693 7.64668 21.9347L9.39135 20.26C9.54855 20.1021 9.65788 19.9029 9.70671 19.6855C9.75555 19.4681 9.7419 19.2413 9.66735 19.0313C9.47864 18.4997 9.33132 17.9543 9.22668 17.4C9.18541 17.1777 9.08157 16.9718 8.92734 16.8065C8.77312 16.6411 8.57491 16.5233 8.35602 16.4667L6.01202 15.8887C6.01202 15.75 6.01202 15.5407 6.01202 15.328C6.01202 15.1153 6.01202 14.9127 6.01202 14.7667L8.37468 14.184C8.58823 14.1264 8.78122 14.0098 8.93155 13.8475C9.08189 13.6853 9.18348 13.484 9.22468 13.2667C9.3287 12.7094 9.47581 12.1611 9.66468 11.6267C9.73912 11.4145 9.7517 11.1855 9.70094 10.9664C9.65019 10.7473 9.53819 10.5472 9.37802 10.3893L7.64468 8.72266C7.76602 8.50399 8.00068 8.10066 8.14135 7.87199L10.468 8.53866C10.6841 8.59582 10.912 8.59147 11.1257 8.5261C11.3395 8.46072 11.5308 8.33693 11.678 8.16866C12.0511 7.73134 12.4599 7.32573 12.9 6.95599C13.0652 6.80899 13.1857 6.61858 13.2479 6.40643C13.3102 6.19427 13.3116 5.96891 13.252 5.75599L12.5854 3.44466C12.81 3.31133 13.2107 3.07999 13.442 2.95199L15.1253 4.68533C15.2828 4.84213 15.481 4.95181 15.6975 5.00199C15.914 5.05217 16.1403 5.04086 16.3507 4.96933C16.8934 4.77709 17.4508 4.62905 18.0173 4.52666C18.2346 4.48197 18.4352 4.37794 18.5969 4.22613C18.7586 4.07431 18.8751 3.88066 18.9333 3.66666L19.5127 1.33333H20.5074L21.0954 3.68533C21.1562 3.89814 21.2747 4.08998 21.4378 4.23964C21.6008 4.3893 21.8021 4.49094 22.0194 4.53333C22.5861 4.63585 23.1435 4.78456 23.686 4.97799C23.8965 5.04672 24.122 5.05531 24.337 5.00277C24.5521 4.95024 24.7483 4.83868 24.9033 4.68066L26.5793 2.95399C26.8027 3.07799 27.2174 3.31866 27.4353 3.44666L26.7687 5.75999C26.7096 5.97677 26.7132 6.20588 26.7792 6.42067C26.8451 6.63547 26.9707 6.82712 27.1413 6.97333C27.5792 7.34282 27.9858 7.74798 28.3567 8.18466C28.5048 8.34949 28.6959 8.4698 28.9086 8.5321C29.1212 8.59439 29.347 8.5962 29.5607 8.53733L31.8807 7.87066C32.0073 8.07599 32.2467 8.48799 32.3767 8.72133L30.6313 10.4C30.4744 10.5581 30.3653 10.7573 30.3165 10.9746C30.2676 11.1919 30.2811 11.4186 30.3554 11.6287C30.543 12.1594 30.6892 12.7039 30.7927 13.2573C30.8342 13.4795 30.9381 13.6853 31.0923 13.8506C31.2465 14.0159 31.4446 14.1338 31.6633 14.1907L34.008 14.768V15.33C34.008 15.33 34.008 15.7453 34.008 15.8907L31.6453 16.4733C31.4316 16.5312 31.2385 16.648 31.088 16.8105C30.9376 16.9729 30.8359 17.1745 30.7947 17.392C30.6911 17.9493 30.544 18.4977 30.3547 19.032C30.2806 19.2443 30.2682 19.4734 30.3189 19.6925C30.3697 19.9116 30.4815 20.1118 30.6413 20.27L32.3747 21.9367C32.254 22.1547 32.0194 22.5573 31.878 22.788L29.5527 22.1213C29.3361 22.0625 29.1073 22.0662 28.8927 22.1319C28.6781 22.1976 28.4865 22.3227 28.34 22.4927C28.3153 22.522 28.292 22.546 28.268 22.574L26.994 20.4407C27.9395 19.148 28.5083 17.6187 28.6373 16.0224C28.7663 14.426 28.4505 12.8252 27.7249 11.3975C26.9993 9.96979 25.8923 8.77107 24.5267 7.93436C23.1611 7.09766 21.5904 6.65569 19.9889 6.65753C18.3874 6.65936 16.8177 7.10492 15.454 7.94475C14.0904 8.78458 12.9861 9.98583 12.2638 11.4152C11.5414 12.8446 11.2293 14.4461 11.3619 16.0421C11.4946 17.6381 12.0669 19.1662 13.0154 20.4567L11.7487 22.57C11.7193 22.5333 11.6927 22.5067 11.6627 22.4707ZM13.772 19.1947C13.0819 18.0851 12.7008 16.8113 12.6681 15.505C12.6354 14.1987 12.9524 12.9075 13.5861 11.7648C14.2199 10.6221 15.1475 9.66948 16.2729 9.00553C17.3983 8.34157 18.6807 7.99038 19.9874 7.98828C21.2941 7.98619 22.5776 8.33326 23.7051 8.9936C24.8327 9.65394 25.7633 10.6036 26.4007 11.7442C27.0381 12.8849 27.3592 14.1751 27.3307 15.4815C27.3023 16.7879 26.9252 18.0629 26.2387 19.1747L22.3334 12.6367C22.0953 12.2365 21.7566 11.9056 21.351 11.6769C20.9454 11.4483 20.487 11.3298 20.0214 11.3333C19.5561 11.3299 19.098 11.4483 18.6927 11.6767C18.2873 11.9051 17.9488 12.2356 17.7107 12.6353L13.772 19.1947ZM4.85868 36.646L18.8527 13.3173C18.9735 13.1165 19.1447 12.9508 19.3494 12.8367C19.5541 12.7226 19.785 12.6639 20.0194 12.6667C20.2544 12.6645 20.4858 12.724 20.6906 12.8392C20.8955 12.9544 21.0665 13.1214 21.1867 13.3233L35.144 36.6727C35.2641 36.8693 35.3291 37.0946 35.3321 37.325C35.3352 37.5553 35.2762 37.7823 35.1614 37.982C35.043 38.192 34.8703 38.3664 34.6614 38.4869C34.4525 38.6073 34.2151 38.6694 33.974 38.6667L6.02535 38.6433C5.78406 38.6458 5.54654 38.5834 5.33766 38.4626C5.12877 38.3418 4.9562 38.167 4.83802 37.9567C4.72335 37.7565 4.66475 37.5291 4.66839 37.2985C4.67202 37.0678 4.73776 36.8424 4.85868 36.646Z" fill="#202020"/>
<path d="M20 30.6667C20.5304 30.6667 21.0391 30.456 21.4142 30.0809C21.7893 29.7058 22 29.1971 22 28.6667V20.6667C22 20.1362 21.7893 19.6275 21.4142 19.2525C21.0391 18.8774 20.5304 18.6667 20 18.6667C19.4696 18.6667 18.9609 18.8774 18.5858 19.2525C18.2107 19.6275 18 20.1362 18 20.6667V28.6667C18 29.1971 18.2107 29.7058 18.5858 30.0809C18.9609 30.456 19.4696 30.6667 20 30.6667ZM19.3333 20.6667C19.3333 20.4899 19.4036 20.3203 19.5286 20.1953C19.6536 20.0702 19.8232 20 20 20C20.1768 20 20.3464 20.0702 20.4714 20.1953C20.5964 20.3203 20.6667 20.4899 20.6667 20.6667V28.6667C20.6667 28.8435 20.5964 29.0131 20.4714 29.1381C20.3464 29.2631 20.1768 29.3333 20 29.3333C19.8232 29.3333 19.6536 29.2631 19.5286 29.1381C19.4036 29.0131 19.3333 28.8435 19.3333 28.6667V20.6667Z" fill="#202020"/>
<path d="M20 36C20.3956 36 20.7822 35.8827 21.1111 35.6629C21.44 35.4432 21.6964 35.1308 21.8478 34.7654C21.9991 34.3999 22.0387 33.9978 21.9616 33.6098C21.8844 33.2219 21.6939 32.8655 21.4142 32.5858C21.1345 32.3061 20.7781 32.1156 20.3902 32.0384C20.0022 31.9613 19.6001 32.0009 19.2346 32.1522C18.8692 32.3036 18.5568 32.56 18.3371 32.8889C18.1173 33.2178 18 33.6044 18 34C18 34.5304 18.2107 35.0391 18.5858 35.4142C18.9609 35.7893 19.4696 36 20 36ZM20 33.3333C20.1319 33.3333 20.2607 33.3724 20.3704 33.4457C20.48 33.5189 20.5655 33.6231 20.6159 33.7449C20.6664 33.8667 20.6796 34.0007 20.6539 34.1301C20.6281 34.2594 20.5646 34.3782 20.4714 34.4714C20.3782 34.5646 20.2594 34.6281 20.1301 34.6539C20.0007 34.6796 19.8667 34.6664 19.7449 34.6159C19.6231 34.5655 19.5189 34.48 19.4457 34.3704C19.3724 34.2607 19.3333 34.1319 19.3333 34C19.3333 33.8232 19.4036 33.6536 19.5286 33.5286C19.6536 33.4036 19.8232 33.3333 20 33.3333Z" fill="#202020"/>
</g>
<defs>
<clipPath id="clip0_2490_4485">
<rect width="40" height="40" fill="white"/>
</clipPath>
</defs>
</svg>
