<svg width="40" height="40" viewBox="0 0 40 40" fill="none" xmlns="http://www.w3.org/2000/svg">
<path d="M12.5806 17.7223C13.4215 17.7223 14.1039 17.0641 14.1342 16.2239L14.3691 9.71664C14.3848 9.28484 14.2345 8.89219 13.9345 8.58117C13.6345 8.27031 13.2476 8.10594 12.8156 8.10594H12.3456C11.9136 8.10594 11.5267 8.27031 11.2267 8.58125C10.9267 8.89219 10.7764 9.28484 10.792 9.71664L11.027 16.2238C11.0573 17.0641 11.7398 17.7223 12.5806 17.7223ZM12.1263 9.44906C12.1902 9.38289 12.2537 9.35594 12.3456 9.35594H12.8156C12.9075 9.35594 12.9711 9.38297 13.0348 9.44898C13.0986 9.51516 13.1233 9.57961 13.12 9.67148L12.8851 16.1788C12.8791 16.3434 12.7454 16.4723 12.5807 16.4723C12.4159 16.4723 12.2822 16.3434 12.2762 16.1788L12.0413 9.67148C12.0379 9.57961 12.0626 9.51516 12.1263 9.44906ZM12.5806 18.5982C11.5794 18.5982 10.7647 19.4129 10.7647 20.4141C10.7647 21.4154 11.5793 22.23 12.5806 22.23C13.582 22.23 14.3966 21.4154 14.3966 20.4141C14.3966 19.4129 13.5819 18.5982 12.5806 18.5982ZM12.5806 20.98C12.2686 20.98 12.0147 20.7262 12.0147 20.4141C12.0147 20.1021 12.2686 19.8482 12.5806 19.8482C12.8927 19.8482 13.1466 20.1021 13.1466 20.4141C13.1466 20.7262 12.8927 20.98 12.5806 20.98ZM38.9645 33.048L34.5553 28.7694C34.2962 28.5179 33.9523 28.3832 33.5913 28.3878C33.3985 28.3907 33.2131 28.4345 33.0434 28.5127L31.2863 26.7886C32.0912 25.4749 32.5558 23.9312 32.5558 22.2809C32.5558 17.5089 28.6735 13.6266 23.9016 13.6266C23.0161 13.6266 22.1613 13.7606 21.3562 14.0088L16.197 5.07305C15.4422 3.76563 14.0902 2.985 12.5805 2.985C11.0709 2.985 9.71898 3.76555 8.96406 5.07305L1.1882 18.5412C0.433359 19.8487 0.433359 21.4098 1.1882 22.7172C1.94305 24.0245 3.29492 24.8052 4.80469 24.8052H15.6233C16.7062 28.3495 20.0074 30.935 23.9016 30.935C25.8414 30.935 27.6342 30.2934 29.079 29.2114L30.7667 30.8677C30.6982 31.0351 30.663 31.2162 30.6659 31.4028C30.6713 31.7653 30.817 32.1034 31.0762 32.3548L35.4855 36.6334C35.7483 36.8885 36.0887 37.0154 36.4288 37.0154C36.7827 37.0154 37.1361 36.878 37.4013 36.6047L38.9932 34.9641C39.2448 34.705 39.3802 34.3627 39.3748 34.0001C39.3694 33.6377 39.2236 33.2995 38.9645 33.048ZM32.1078 29.3459L31.5678 29.9023L30.026 28.3893C30.2087 28.2062 30.383 28.0148 30.5487 27.816L32.1078 29.3459ZM4.80469 23.5552C3.74687 23.5552 2.79961 23.0083 2.27078 22.0922C1.74187 21.1761 1.74187 20.0823 2.27078 19.1662L10.0467 5.69797C10.5756 4.78188 11.5229 4.23492 12.5806 4.23492C13.6384 4.23492 14.5856 4.78188 15.1145 5.69797L20.1787 14.4692C17.2649 15.8635 15.2474 18.8409 15.2474 22.2808C15.2474 22.7137 15.2798 23.1391 15.3415 23.5552H4.80469ZM16.4974 22.2808C16.4974 18.198 19.8189 14.8766 23.9016 14.8766C27.9842 14.8766 31.3057 18.1981 31.3057 22.2808C31.3057 26.3634 27.9842 29.6849 23.9016 29.6849C19.8189 29.6849 16.4974 26.3634 16.4974 22.2808ZM38.0962 34.0934L36.5044 35.7341C36.4654 35.7741 36.396 35.7752 36.3559 35.7362L31.9466 31.4577C31.9216 31.4333 31.916 31.4041 31.9157 31.3839C31.9154 31.3637 31.9202 31.3343 31.9444 31.3093L33.5363 29.6687C33.5606 29.6437 33.5898 29.638 33.6101 29.6377H33.6118C33.632 29.6377 33.6603 29.6428 33.6847 29.6665L38.0939 33.9451C38.119 33.9694 38.1247 33.9987 38.1249 34.0189C38.1252 34.0391 38.1205 34.0684 38.0962 34.0934ZM23.9016 15.8903C20.3779 15.8903 17.5112 18.757 17.5112 22.2808C17.5112 25.8045 20.3779 28.6712 23.9016 28.6712C27.4252 28.6712 30.292 25.8045 30.292 22.2808C30.292 18.7571 27.4252 15.8903 23.9016 15.8903ZM23.9016 27.4212C21.0671 27.4212 18.7612 25.1152 18.7612 22.2808C18.7612 19.4463 21.0672 17.1403 23.9016 17.1403C26.7359 17.1403 29.042 19.4463 29.042 22.2808C29.042 25.1152 26.736 27.4212 23.9016 27.4212Z" fill="#212A36"/>
</svg>
