<svg width="42" height="42" viewBox="0 0 42 42" fill="none" xmlns="http://www.w3.org/2000/svg">
<path d="M11.6813 38.7188C16.3918 38.7188 20.0813 36.5571 20.0813 33.7969V8.20312C20.0813 5.44294 16.3918 3.28125 11.6813 3.28125C6.97069 3.28125 3.28125 5.44294 3.28125 8.20312V33.7969C3.28125 36.5571 6.97069 38.7188 11.6813 38.7188ZM11.6813 37.4062C7.83956 37.4062 4.59375 35.7525 4.59375 33.7969V31.3464C6.07163 32.7101 8.66381 33.6 11.6813 33.6C14.6987 33.6 17.2909 32.7101 18.7688 31.3478V33.7982C18.7688 35.7525 15.5229 37.4062 11.6813 37.4062ZM18.7688 13.3219C18.7688 15.2775 15.5229 16.9312 11.6813 16.9312C7.83956 16.9312 4.59375 15.2775 4.59375 13.3219V10.8728C6.07163 12.2351 8.66381 13.125 11.6813 13.125C14.6987 13.125 17.2909 12.2351 18.7688 10.8728V13.3219ZM11.6813 18.2437C14.6987 18.2437 17.2909 17.3539 18.7688 15.9915V18.4406C18.7688 20.3962 15.5229 22.05 11.6813 22.05C7.83956 22.05 4.59375 20.3962 4.59375 18.4406V15.9915C6.07163 17.3552 8.66381 18.2437 11.6813 18.2437ZM11.6813 23.3625C14.6987 23.3625 17.2909 22.4726 18.7688 21.1102V23.5607C18.7688 25.5163 15.5229 27.1701 11.6813 27.1701C7.83956 27.1701 4.59375 25.5163 4.59375 23.5607V21.1102C6.07163 22.4726 8.66381 23.3625 11.6813 23.3625ZM11.6813 28.4813C14.6987 28.4813 17.2909 27.5914 18.7688 26.229V28.6781C18.7688 30.6338 15.5229 32.2875 11.6813 32.2875C7.83956 32.2875 4.59375 30.6338 4.59375 28.6781V26.229C6.07163 27.5914 8.66381 28.4813 11.6813 28.4813ZM11.6813 4.59375C15.5229 4.59375 18.7688 6.2475 18.7688 8.20312C18.7688 10.1588 15.5229 11.8125 11.6813 11.8125C7.83956 11.8125 4.59375 10.1588 4.59375 8.20312C4.59375 6.2475 7.83956 4.59375 11.6813 4.59375Z" fill="black"/>
<path d="M35.3442 19.6009L36.5727 18.3724C36.9546 17.9904 37.1659 17.4825 37.1659 16.9417C37.1659 16.4023 36.9546 15.8944 36.5727 15.5124C35.8088 14.7486 34.4766 14.7486 33.7127 15.5124L32.3412 16.884V5.30381C32.3412 4.18819 31.4342 3.28125 30.3186 3.28125C29.203 3.28125 28.2974 4.18819 28.2974 5.30381V16.8853L26.9245 15.5124C26.1357 14.7236 24.8534 14.721 24.0645 15.5124C23.6826 15.8944 23.4713 16.4023 23.4713 16.9417C23.4713 17.4825 23.6826 17.9904 24.0645 18.3724L25.2957 19.6035C23.1904 20.5144 21.9199 21.9791 21.9199 23.5607V33.7982C21.9199 36.5584 25.6094 38.7201 30.3199 38.7201C35.0305 38.7201 38.7199 36.5584 38.7199 33.7982V23.5607C38.7186 21.9778 37.4494 20.5144 35.3442 19.6009ZM24.9925 16.4404C25.2694 16.1634 25.7196 16.1634 25.9965 16.4404L28.489 18.9328C28.678 19.1218 28.9589 19.1769 29.2043 19.0746C29.4497 18.9722 29.6099 18.7333 29.6099 18.4682V5.30381C29.6099 4.91269 29.9288 4.59375 30.3199 4.59375C30.711 4.59375 31.03 4.91269 31.03 5.30381V18.4682C31.03 18.7333 31.1901 18.9735 31.4355 19.0746C31.6823 19.1743 31.9619 19.1192 32.1509 18.9328L34.642 16.4417C34.9097 16.1753 35.3783 16.1753 35.646 16.4417C35.9204 16.7147 35.9204 17.1727 35.646 17.4457L30.8226 22.2705C30.5457 22.5474 30.0955 22.5474 29.8185 22.2705L24.9938 17.4457C24.7182 17.1727 24.7182 16.7147 24.9925 16.4404ZM26.3102 20.6181L28.8893 23.1971C29.283 23.5909 29.8015 23.7878 30.3186 23.7878C30.8357 23.7878 31.3542 23.5909 31.7479 23.1971L34.3257 20.6194C36.2025 21.3006 37.4048 22.4293 37.4048 23.5607C37.4048 25.5163 34.159 27.1701 30.3173 27.1701C26.4756 27.1701 23.2298 25.5163 23.2298 23.5607C23.2311 22.4293 24.4347 21.2992 26.3102 20.6181ZM37.4061 28.6781C37.4061 30.6338 34.1603 32.2875 30.3186 32.2875C26.4769 32.2875 23.2311 30.6338 23.2311 28.6781V26.229C24.709 27.5914 27.3012 28.4813 30.3186 28.4813C33.336 28.4813 35.9282 27.5914 37.4061 26.229V28.6781ZM30.3186 37.4062C26.4769 37.4062 23.2311 35.7525 23.2311 33.7969V31.3464C24.709 32.7088 27.3012 33.5987 30.3186 33.5987C33.336 33.5987 35.9282 32.7088 37.4061 31.3464V33.7969C37.4061 35.7525 34.1603 37.4062 30.3186 37.4062Z" fill="black"/>
</svg>
