<svg width="40" height="40" viewBox="0 0 40 40" fill="none" xmlns="http://www.w3.org/2000/svg">
<g clip-path="url(#clip0_2490_4384)">
<path d="M8.98125 3.2375H1.64375C1.2078 3.2375 0.789706 3.41068 0.481443 3.71895C0.17318 4.02721 0 4.4453 0 4.88125L0 35.9688C0 36.4047 0.17318 36.8228 0.481443 37.1311C0.789706 37.4393 1.2078 37.6125 1.64375 37.6125H8.98125C9.19711 37.6125 9.41086 37.57 9.61029 37.4874C9.80971 37.4048 9.99092 37.2837 10.1436 37.1311C10.2962 36.9784 10.4173 36.7972 10.4999 36.5978C10.5825 36.3984 10.625 36.1846 10.625 35.9688V4.88125C10.625 4.4453 10.4518 4.02721 10.1436 3.71895C9.83529 3.41068 9.4172 3.2375 8.98125 3.2375ZM9.4125 35.9688C9.4125 36.0831 9.36706 36.1928 9.28619 36.2737C9.20531 36.3546 9.09562 36.4 8.98125 36.4H1.64375C1.52938 36.4 1.41969 36.3546 1.33881 36.2737C1.25794 36.1928 1.2125 36.0831 1.2125 35.9688V4.88125C1.2125 4.76688 1.25794 4.65719 1.33881 4.57631C1.41969 4.49544 1.52938 4.45 1.64375 4.45H8.98125C9.09562 4.45 9.20531 4.49544 9.28619 4.57631C9.36706 4.65719 9.4125 4.76688 9.4125 4.88125V35.9688Z" fill="#202020"/>
<path d="M5.3125 29.2688C4.81805 29.2688 4.3347 29.4154 3.92358 29.6901C3.51245 29.9648 3.19202 30.3552 3.0028 30.812C2.81358 31.2689 2.76407 31.7715 2.86054 32.2565C2.957 32.7414 3.1951 33.1869 3.54473 33.5365C3.89437 33.8862 4.33982 34.1243 4.82478 34.2207C5.30973 34.3172 5.81239 34.2677 6.26921 34.0784C6.72603 33.8892 7.11647 33.5688 7.39118 33.1577C7.66588 32.7466 7.8125 32.2632 7.8125 31.7688C7.8125 31.1057 7.54911 30.4698 7.08027 30.001C6.61143 29.5321 5.97554 29.2688 5.3125 29.2688ZM5.3125 33.0875C5.05388 33.0875 4.80109 33.0107 4.58614 32.8669C4.3712 32.7231 4.20378 32.5187 4.1051 32.2797C4.00642 32.0406 3.98092 31.7777 4.03183 31.5241C4.08274 31.2706 4.20777 31.0378 4.39108 30.8554C4.57438 30.673 4.80772 30.549 5.06152 30.4993C5.31532 30.4496 5.57815 30.4764 5.81673 30.5762C6.0553 30.6761 6.25887 30.8445 6.40165 31.0601C6.54443 31.2757 6.61999 31.5289 6.61875 31.7875C6.6171 32.1329 6.47875 32.4635 6.23396 32.7071C5.98917 32.9507 5.65786 33.0875 5.3125 33.0875Z" fill="#202020"/>
<path d="M7.8562 6.54375H2.76245C2.59669 6.54375 2.43772 6.6096 2.32051 6.72681C2.2033 6.84402 2.13745 7.00299 2.13745 7.16875V19.2C2.13745 19.3658 2.2033 19.5247 2.32051 19.6419C2.43772 19.7591 2.59669 19.825 2.76245 19.825H7.8562C8.02196 19.825 8.18093 19.7591 8.29814 19.6419C8.41535 19.5247 8.4812 19.3658 8.4812 19.2V7.15C8.47632 6.98751 8.40833 6.83331 8.29164 6.72013C8.17496 6.60694 8.01876 6.54367 7.8562 6.54375ZM7.2312 18.5937H3.3687V7.75625H7.24995L7.2312 18.5937Z" fill="#202020"/>
<path d="M20.625 3.2375H13.3C12.8641 3.2375 12.446 3.41068 12.1377 3.71895C11.8294 4.02721 11.6562 4.4453 11.6562 4.88125V35.9688C11.6562 36.4047 11.8294 36.8228 12.1377 37.1311C12.446 37.4393 12.8641 37.6125 13.3 37.6125H20.625C20.8409 37.6125 21.0546 37.57 21.254 37.4874C21.4535 37.4048 21.6347 37.2837 21.7873 37.1311C21.9399 36.9784 22.061 36.7972 22.1436 36.5978C22.2262 36.3984 22.2688 36.1846 22.2688 35.9688V4.88125C22.2688 4.66539 22.2262 4.45165 22.1436 4.25222C22.061 4.05279 21.9399 3.87158 21.7873 3.71895C21.6347 3.56631 21.4535 3.44523 21.254 3.36263C21.0546 3.28002 20.8409 3.2375 20.625 3.2375ZM21.0562 35.9688C21.0562 36.0831 21.0108 36.1928 20.9299 36.2737C20.8491 36.3546 20.7394 36.4 20.625 36.4H13.3C13.1856 36.4 13.0759 36.3546 12.9951 36.2737C12.9142 36.1928 12.8688 36.0831 12.8688 35.9688V4.88125C12.8688 4.76688 12.9142 4.65719 12.9951 4.57631C13.0759 4.49544 13.1856 4.45 13.3 4.45H20.625C20.7394 4.45 20.8491 4.49544 20.9299 4.57631C21.0108 4.65719 21.0562 4.76688 21.0562 4.88125V35.9688Z" fill="#202020"/>
<path d="M16.9688 29.2688C16.4743 29.2688 15.9909 29.4154 15.5798 29.6901C15.1687 29.9648 14.8483 30.3552 14.6591 30.812C14.4698 31.2689 14.4203 31.7715 14.5168 32.2565C14.6133 32.7414 14.8514 33.1869 15.201 33.5365C15.5506 33.8862 15.9961 34.1243 16.481 34.2207C16.966 34.3172 17.4686 34.2677 17.9255 34.0784C18.3823 33.8892 18.7727 33.5688 19.0474 33.1577C19.3221 32.7466 19.4688 32.2632 19.4688 31.7688C19.4688 31.1057 19.2054 30.4698 18.7365 30.001C18.2677 29.5321 17.6318 29.2688 16.9688 29.2688ZM16.9688 33.0875C16.7101 33.0875 16.4573 33.0107 16.2424 32.8669C16.0274 32.7231 15.86 32.5187 15.7613 32.2797C15.6627 32.0406 15.6372 31.7777 15.6881 31.5241C15.739 31.2706 15.864 31.0378 16.0473 30.8554C16.2306 30.673 16.464 30.549 16.7178 30.4993C16.9716 30.4496 17.2344 30.4764 17.473 30.5762C17.7116 30.6761 17.9151 30.8445 18.0579 31.0601C18.2007 31.2757 18.2762 31.5289 18.275 31.7875C18.2733 32.1329 18.135 32.4635 17.8902 32.7071C17.6454 32.9507 17.3141 33.0875 16.9688 33.0875Z" fill="#202020"/>
<path d="M19.5125 6.54375H14.4187C14.2529 6.54375 14.094 6.6096 13.9768 6.72681C13.8595 6.84402 13.7937 7.00299 13.7937 7.16875V19.2C13.7937 19.3658 13.8595 19.5247 13.9768 19.6419C14.094 19.7591 14.2529 19.825 14.4187 19.825H19.5125C19.6782 19.825 19.8372 19.7591 19.9544 19.6419C20.0716 19.5247 20.1375 19.3658 20.1375 19.2V7.15C20.1326 6.98751 20.0646 6.83331 19.9479 6.72013C19.8312 6.60694 19.675 6.54367 19.5125 6.54375ZM18.8875 18.5937H15V7.75625H18.8812L18.8875 18.5937Z" fill="#202020"/>
<path d="M39.9626 34.1062L33.5314 3.69375C33.4882 3.48188 33.4029 3.28084 33.2805 3.10261C33.1581 2.92438 33.0011 2.77258 32.8189 2.65625C32.6363 2.53664 32.4317 2.4546 32.2171 2.41489C32.0025 2.37519 31.7821 2.37862 31.5689 2.425L24.4064 3.94375C23.9828 4.03799 23.6137 4.29588 23.3795 4.66118C23.1454 5.02647 23.0652 5.46953 23.1564 5.89375L29.5689 36.3062C29.6473 36.6746 29.8494 37.005 30.1416 37.2426C30.4338 37.4803 30.7985 37.6108 31.1751 37.6125C31.2907 37.6124 31.406 37.5998 31.5189 37.575L38.7001 36.0562C39.1251 35.9633 39.4962 35.7063 39.7327 35.3411C39.9691 34.9759 40.0518 34.5321 39.9626 34.1062ZM38.4439 34.8687L31.2501 36.3875C31.1947 36.3994 31.1375 36.4003 31.0817 36.3901C31.026 36.3799 30.9728 36.3589 30.9252 36.3281C30.8776 36.2973 30.8365 36.2575 30.8043 36.2108C30.7722 36.1642 30.7495 36.1117 30.7376 36.0562L24.3251 5.625C24.3132 5.56998 24.3124 5.51315 24.3227 5.45781C24.3329 5.40247 24.3541 5.34972 24.3849 5.30263C24.4157 5.25553 24.4556 5.21502 24.5022 5.18345C24.5488 5.15189 24.6012 5.12989 24.6564 5.11875L31.8376 3.6125H31.9251C32.01 3.61322 32.0927 3.63934 32.1626 3.6875C32.2096 3.71745 32.25 3.75677 32.2812 3.80301C32.3124 3.84925 32.3337 3.90141 32.3439 3.95625L38.7814 34.375C38.7999 34.485 38.775 34.5978 38.7121 34.6899C38.6492 34.7819 38.553 34.8461 38.4439 34.8687Z" fill="#202020"/>
<path d="M33.3811 28.6562C32.9 28.76 32.4602 29.0034 32.1168 29.3561C31.7734 29.7087 31.5418 30.1549 31.4509 30.6386C31.3601 31.1224 31.414 31.6222 31.606 32.0754C31.7981 32.5286 32.1196 32.915 32.5303 33.1863C32.941 33.4575 33.4227 33.6015 33.9149 33.6001C34.4071 33.5987 34.888 33.4521 35.2972 33.1786C35.7064 32.9051 36.0258 32.5169 36.2153 32.0626C36.4048 31.6083 36.4559 31.1082 36.3624 30.625C36.2992 30.2983 36.1713 29.9875 35.9864 29.7109C35.8015 29.4343 35.5633 29.1973 35.2856 29.014C35.008 28.8306 34.6965 28.7045 34.3694 28.6431C34.0424 28.5817 33.7064 28.5861 33.3811 28.6562ZM34.1749 32.4062C34.0071 32.442 33.8338 32.4442 33.6651 32.413C33.4964 32.3818 33.3354 32.3176 33.1915 32.2241C32.9008 32.0354 32.697 31.739 32.6249 31.4C32.5528 31.061 32.6183 30.7073 32.807 30.4166C32.9957 30.1259 33.2922 29.9221 33.6311 29.85C33.7205 29.841 33.8105 29.841 33.8999 29.85C34.2208 29.8522 34.5297 29.9724 34.7677 30.1878C35.0056 30.4032 35.1559 30.6987 35.1899 31.0178C35.2239 31.337 35.1392 31.6575 34.952 31.9182C34.7648 32.1789 34.4882 32.3615 34.1749 32.4312V32.4062Z" fill="#202020"/>
<path d="M34.3749 18.125L31.8749 6.36249C31.8593 6.28448 31.828 6.21046 31.7828 6.14493C31.7377 6.07939 31.6797 6.0237 31.6125 5.98124C31.4773 5.89454 31.3139 5.86321 31.1562 5.89374L26.1562 6.94999C26.0011 6.98734 25.8661 7.08258 25.779 7.21621C25.6918 7.34985 25.6591 7.51175 25.6874 7.66874L28.1874 19.4562C28.2229 19.6122 28.3169 19.7487 28.4499 19.8375C28.5494 19.8991 28.6642 19.9316 28.7812 19.9312C28.8226 19.9374 28.8648 19.9374 28.9062 19.9312L33.9062 18.8812C33.9869 18.8629 34.0632 18.8286 34.1305 18.7806C34.1979 18.7325 34.2551 18.6715 34.2987 18.6011C34.3423 18.5308 34.3715 18.4524 34.3846 18.3707C34.3977 18.289 34.3944 18.2055 34.3749 18.125ZM29.2687 18.5875L27.025 7.96249L30.8249 7.15624L33.0625 17.7812L29.2687 18.5875Z" fill="#202020"/>
</g>
<defs>
<clipPath id="clip0_2490_4384">
<rect width="40" height="40" fill="white"/>
</clipPath>
</defs>
</svg>
