<svg width="40" height="40" viewBox="0 0 40 40" fill="none" xmlns="http://www.w3.org/2000/svg">
<path d="M6.17877 9.88617C6.10147 9.85845 6.01946 9.84627 5.93744 9.85031C5.85542 9.85435 5.77501 9.87455 5.70081 9.90974C5.62662 9.94492 5.56009 9.99441 5.50506 10.0554C5.45003 10.1163 5.40757 10.1875 5.38012 10.2649C3.47568 15.3662 7.50834 21.1089 12.9599 21.0061C15.0908 20.9961 17.1316 20.1451 18.6384 18.6382C20.1452 17.1314 20.9961 15.0905 21.006 12.9595C21.0538 5.87125 12.2544 2.20244 7.27037 7.27094C6.88079 7.66281 6.20349 8.26701 6.79372 8.77901C7.37633 9.23494 7.7852 8.52424 8.15506 8.15396C8.78414 7.52039 9.53283 7.0181 10.3576 6.67627C11.1824 6.33444 12.0669 6.15987 12.9598 6.16271C18.9605 6.12933 22.0366 13.5465 17.7638 17.7646C12.6049 22.8198 4.22268 17.5161 6.55754 10.6847C6.6132 10.5286 6.60457 10.3568 6.53353 10.207C6.4625 10.0573 6.33489 9.94184 6.17877 9.88617Z" fill="#202020"/>
<path d="M33.0001 35.0357C33.4006 35.0308 33.7908 34.9086 34.1225 34.6841C34.4542 34.4596 34.7127 34.1427 34.8661 33.7727C35.0194 33.4027 35.0608 32.9958 34.9852 32.6025C34.9095 32.2092 34.7201 31.8468 34.4405 31.56C34.0523 31.1901 33.5367 30.9836 33.0004 30.9836C32.4642 30.9835 31.9485 31.1898 31.5603 31.5598C31.2809 31.8466 31.0918 32.209 31.0162 32.6022C30.9407 32.9953 30.9821 33.402 31.1354 33.7719C31.2886 34.1418 31.5469 34.4587 31.8783 34.6833C32.2097 34.9079 32.5997 35.0304 33.0001 35.0357ZM32.4441 32.4438C32.5923 32.2996 32.7913 32.2194 32.9981 32.2208C33.2049 32.2222 33.4029 32.3049 33.5491 32.4512C33.6954 32.5974 33.7782 32.7953 33.7796 33.0022C33.781 33.209 33.7009 33.408 33.5567 33.5562C33.4085 33.7004 33.2095 33.7804 33.0028 33.7789C32.796 33.7775 32.5982 33.6948 32.452 33.5486C32.3058 33.4024 32.223 33.2046 32.2215 32.9978C32.22 32.7911 32.3 32.5921 32.4441 32.4438Z" fill="#202020"/>
<path d="M36.1205 30.3263L32.5328 27.1451C32.4083 27.0388 32.247 26.9856 32.0837 26.997C31.9204 27.0083 31.7681 27.0833 31.6595 27.2058C31.5509 27.3284 31.4947 27.4886 31.503 27.6521C31.5113 27.8156 31.5835 27.9693 31.704 28.0802L35.291 31.2613C35.582 31.5197 35.817 31.8348 35.9818 32.1874C36.1465 32.5399 36.2374 32.9224 36.249 33.3114C36.2605 33.7003 36.1924 34.0875 36.0488 34.4492C35.9053 34.8109 35.6893 35.1394 35.4141 35.4146C35.139 35.6897 34.8105 35.9058 34.4488 36.0493C34.0871 36.1929 33.6999 36.2611 33.311 36.2496C32.922 36.2381 32.5395 36.1472 32.187 35.9824C31.8344 35.8177 31.5193 35.5827 31.2609 35.2917L24.648 27.8324L27.8324 24.6482L29.8289 26.4182C29.9537 26.524 30.1149 26.5768 30.2781 26.5652C30.4413 26.5536 30.5934 26.4784 30.7019 26.3559C30.8103 26.2334 30.8664 26.0733 30.8582 25.9099C30.8499 25.7465 30.778 25.5928 30.6578 25.4819L22.156 17.9459C22.9841 16.4203 23.418 14.7121 23.4184 12.9764C23.4163 12.8123 23.3497 12.6556 23.2331 12.5401C23.1164 12.4247 22.959 12.3598 22.7949 12.3594C22.6308 12.359 22.4731 12.4231 22.3559 12.538C22.2387 12.6529 22.1713 12.8093 22.1684 12.9734C22.1692 21.1281 12.1943 25.2469 6.44757 19.4701C0.666175 13.7194 4.80173 3.73386 12.9595 3.74852C14.9979 3.75411 16.9771 4.4339 18.5888 5.68194C20.2004 6.92997 21.3538 8.67613 21.8693 10.6482C21.9121 10.8068 22.0156 10.9421 22.1574 11.025C22.2993 11.1078 22.468 11.1315 22.6271 11.0909C22.7863 11.0503 22.923 10.9487 23.0078 10.808C23.0926 10.6674 23.1187 10.499 23.0803 10.3393C22.4956 8.09844 21.1856 6.11407 19.3549 4.69571C17.5241 3.27736 15.2754 2.50478 12.9594 2.49847C3.67976 2.50875 -1.00151 13.7849 5.56391 20.354C7.16084 21.9438 9.22701 22.9773 11.4568 23.3019C13.6866 23.6264 15.9617 23.2247 17.9455 22.1562L30.3258 36.1213C30.6958 36.5413 31.1486 36.8803 31.6558 37.1172C32.1629 37.3541 32.7136 37.4837 33.2732 37.4979C37.037 37.6599 38.9861 32.7927 36.1205 30.3263ZM23.8173 26.8954L22.4338 25.3348L25.3345 22.4337L26.8955 23.8175L23.8173 26.8954ZM20.3535 20.3549C20.765 19.9402 21.1411 19.4919 21.4779 19.0146L24.3976 21.603L21.6032 24.3979L19.0144 21.4776C19.4911 21.1411 19.939 20.7656 20.3535 20.3549Z" fill="#202020"/>
<path d="M7.18494 13.5843H10.0746C10.2036 13.5843 10.3295 13.5444 10.4349 13.47C10.5403 13.3956 10.6201 13.2905 10.6633 13.1689L11.4684 10.9082L13.156 16.0968C13.1951 16.2111 13.2663 16.3117 13.361 16.3866C13.4558 16.4616 13.5701 16.5076 13.6903 16.5194C13.8105 16.5311 13.9316 16.5079 14.039 16.4527C14.1465 16.3974 14.2357 16.3125 14.2961 16.2079L15.7604 13.5843H18.2802C18.4444 13.582 18.6012 13.5151 18.7165 13.3981C18.8318 13.2812 18.8964 13.1235 18.8964 12.9593C18.8964 12.795 18.8318 12.6374 18.7164 12.5204C18.6011 12.4035 18.4444 12.3366 18.2802 12.3343H15.3936C15.2823 12.3343 15.1731 12.364 15.0772 12.4203C14.9812 12.4767 14.9021 12.5576 14.8479 12.6547L13.9022 14.3491L12.0894 8.77625C12.0469 8.65419 11.9679 8.54816 11.8631 8.47256C11.7583 8.39697 11.6327 8.35547 11.5035 8.35371C11.3743 8.35195 11.2476 8.39001 11.1408 8.46271C11.0339 8.53542 10.952 8.63925 10.9062 8.76011L9.63367 12.3343H7.18492C7.0208 12.3368 6.86425 12.4037 6.74907 12.5207C6.63389 12.6376 6.56933 12.7952 6.56934 12.9593C6.56934 13.1234 6.6339 13.281 6.74908 13.3979C6.86426 13.5149 7.02082 13.5818 7.18494 13.5843Z" fill="#202020"/>
</svg>
