<svg width="40" height="40" viewBox="0 0 40 40" fill="none" xmlns="http://www.w3.org/2000/svg">
<g clip-path="url(#clip0_926_72090)">
<path d="M22.9547 33.8812L23.4288 28.5959C23.4807 28.0223 23.6037 27.4982 23.7946 27.0375C24.7886 24.645 26.8934 23.3898 28.0598 22.855C28.5171 22.6451 28.9357 22.3522 29.3033 21.9846L32.2832 19.0045C32.9684 18.3198 33.9453 17.9943 34.8835 18.1099L35.1285 12.8343C35.2045 11.2033 36.4871 9.85508 38.112 9.69797C39.1416 9.60367 39.9941 10.4104 39.9941 11.4068V20.9317C39.9941 21.948 39.708 22.9359 39.1664 23.7889C37.637 26.1982 35.7955 28.3555 33.6927 30.201C32.8406 30.9491 32.3519 32.0578 32.3519 33.2425V33.7988C33.3252 33.7995 34.1168 34.5914 34.1168 35.5648V38.2283C34.1168 39.2021 33.3245 39.9945 32.3506 39.9945H23.4599C22.4861 39.9945 21.6938 39.2021 21.6938 38.2283V35.5648C21.6938 34.7677 22.228 34.1002 22.9547 33.8812ZM32.8684 29.262C34.8816 27.4948 36.6457 25.4282 38.1113 23.1189C38.5253 22.4666 38.7444 21.7103 38.7444 20.9317V11.4068C38.7444 11.1427 38.5284 10.9397 38.2785 10.9397C37.4192 10.9397 36.4295 11.757 36.3769 12.8923L36.1148 18.5373C36.3356 18.6707 36.5388 18.8315 36.7222 19.0176C37.3995 19.7041 37.3922 20.8212 36.706 21.5077L30.0084 28.2051C29.7643 28.4491 29.3689 28.4491 29.1248 28.2051C28.8808 27.961 28.8808 27.5656 29.1248 27.3216L35.8223 20.6242C36.0248 20.4216 36.0295 20.0946 35.8323 19.8948C35.6627 19.7227 35.4653 19.5873 35.2405 19.4902C35.2313 19.4866 35.2219 19.4826 35.213 19.4784C34.547 19.197 33.7028 19.3527 33.1668 19.8884L30.187 22.8683C29.7141 23.3412 29.1738 23.7189 28.5809 23.9907C27.5809 24.4495 25.7793 25.518 24.9488 27.517C24.8063 27.8598 24.7139 28.2608 24.6737 28.708L24.2191 33.7744C24.9229 33.7769 21.6695 33.7653 31.1023 33.7987V33.2426C31.1022 31.6981 31.7459 30.2474 32.8684 29.262ZM22.9434 38.2283C22.9434 38.5132 23.175 38.7448 23.4599 38.7448H32.3506C32.6355 38.7448 32.8671 38.5132 32.8671 38.2283V35.5648C32.8671 35.2799 32.6355 35.0484 32.3506 35.0484H23.4599C23.175 35.0484 22.9434 35.2799 22.9434 35.5648V38.2283Z" fill="#202020"/>
<path d="M0.567694 10.1361C0.925272 9.81116 1.41402 9.651 1.88691 9.69796C3.51183 9.85507 4.79441 11.2033 4.87074 12.8343L5.11543 18.1099C6.05754 17.9964 7.03019 18.3201 7.71605 19.0048L10.6956 21.9843C11.0641 22.3526 11.4821 22.6454 11.9397 22.855C13.1058 23.3901 15.2103 24.645 16.2049 27.0375C16.3959 27.4982 16.5191 28.0226 16.5704 28.5962L17.0442 33.8811C17.7711 34.0999 18.3057 34.7676 18.3057 35.5648V38.2283C18.3057 39.2021 17.513 39.9944 16.5392 39.9944H7.64824C6.67441 39.9944 5.88238 39.2021 5.88238 38.2283V35.5648C5.88238 34.5912 6.67402 33.7991 7.64762 33.7987V33.2425C7.64762 32.0578 7.15887 30.9494 6.30644 30.201C4.20316 28.3555 2.3616 26.1979 0.83246 23.7889C0.29121 22.9358 0.00503922 21.948 0.00503922 20.9317V11.4068C0.00511742 10.9238 0.210115 10.4607 0.567694 10.1361ZM7.13207 35.5648V38.2283C7.13207 38.5132 7.36394 38.7448 7.64832 38.7448H16.5393C16.8242 38.7448 17.0561 38.5132 17.0561 38.2283V35.5648C17.0561 35.2799 16.8242 35.0483 16.5393 35.0483H10.5689L8.27551 35.0591H8.27246C8.25379 35.0591 8.23699 35.05 8.21855 35.0483H7.64824C7.36387 35.0483 7.13207 35.2799 7.13207 35.5648ZM1.25473 20.9317C1.25473 21.7103 1.47379 22.4666 1.88808 23.1192C3.35316 25.4278 5.1166 27.4945 7.13019 29.2619C8.25355 30.2474 8.8973 31.6981 8.8973 33.2425V33.7987H10.5361L15.7802 33.7743L15.3256 28.708C15.2853 28.2607 15.1932 27.8601 15.0504 27.5172C14.22 25.5179 12.4187 24.4494 11.4186 23.9909C10.8261 23.7194 10.2861 23.3417 9.81199 22.8682L6.83246 19.8887C6.29676 19.3535 5.46441 19.194 4.78527 19.4786C4.77676 19.4829 4.76754 19.4866 4.7584 19.4901C4.53629 19.5856 4.33738 19.7217 4.16652 19.895C3.97004 20.0945 3.97434 20.4216 4.17691 20.6241L10.8743 27.3215C11.1183 27.5655 11.1183 27.9609 10.8743 28.205C10.6302 28.4491 10.2348 28.4491 9.99074 28.205L3.2934 21.5076C2.60691 20.8215 2.59965 19.7045 3.27629 19.0181C3.45996 18.8311 3.66379 18.67 3.88465 18.537L3.6223 12.8925C3.57473 11.878 2.77722 11.0394 1.76738 10.942C1.63433 10.9295 1.50684 10.9713 1.40801 11.061C1.30918 11.1507 1.25488 11.2733 1.25488 11.4067V20.9317H1.25473Z" fill="#202020"/>
<path d="M16.8275 19.3556C16.6287 19.2823 16.4334 19.199 16.238 19.1176C14.9382 18.5159 14.1106 19.4185 14.0481 19.4462C13.7997 19.6559 13.4324 19.6409 13.203 19.4109L11.4469 17.6551C11.2175 17.4256 11.2016 17.0586 11.4109 16.8105C11.4387 16.748 12.3353 15.9218 11.744 14.6133C11.6568 14.4192 11.5762 14.231 11.5036 14.0339C11.0025 12.6974 9.78316 12.7487 9.72066 12.7248C9.39605 12.6988 9.1459 12.4279 9.1459 12.1021V9.62171C9.1459 9.30562 9.38207 9.03929 9.69566 9.00148C9.77519 8.97124 11.0011 9.02273 11.5049 7.68132C11.5757 7.49429 11.6532 7.30757 11.7404 7.09765C12.3416 5.79765 11.4387 4.9696 11.4109 4.9071C11.2016 4.65906 11.2175 4.29203 11.4469 4.06257L13.203 2.30679C13.4325 2.07734 13.7998 2.06148 14.0475 2.27078C14.1101 2.29867 14.9358 3.19859 16.2448 2.60304C16.44 2.51578 16.6274 2.43554 16.8239 2.36351C18.1468 1.86601 18.1172 0.620385 18.1413 0.55765C18.1779 0.242806 18.4452 0.00546265 18.7618 0.00546265H21.2364C21.5529 0.00546265 21.8195 0.242181 21.857 0.556478C21.8809 0.618978 21.8518 1.86601 23.1695 2.36171C23.3711 2.43523 23.5591 2.51578 23.7574 2.6046C25.0611 3.19773 25.889 2.29812 25.9516 2.27023C26.2006 2.06187 26.5664 2.07742 26.7955 2.30687L28.5513 4.06265C28.7807 4.2921 28.7963 4.65913 28.5873 4.90718C28.5595 4.96968 27.6601 5.79749 28.2544 7.10351C28.3411 7.29601 28.4204 7.48882 28.4945 7.68382C28.9947 9.01453 30.2401 8.97773 30.3028 9.00148C30.6167 9.03929 30.8525 9.30562 30.8525 9.62171V12.1021C30.8525 12.428 30.6024 12.6989 30.2775 12.7248C30.2149 12.7487 28.9949 12.7022 28.4961 14.0299C28.4219 14.2312 28.3417 14.4195 28.2538 14.6148C27.6623 15.9254 28.5595 16.748 28.5872 16.8105C28.7962 17.0586 28.7807 17.4256 28.5512 17.6551L26.7954 19.4109C26.5663 19.6403 26.1989 19.6555 25.9509 19.4469C25.8884 19.4191 25.0642 18.5158 23.7365 19.128C23.5501 19.2055 23.3636 19.2847 23.1743 19.3541C21.8538 19.8503 21.8808 21.0986 21.8568 21.1612C21.8193 21.4754 21.5527 21.7122 21.2363 21.7122H18.7617C18.445 21.7122 18.1778 21.4748 18.1411 21.16C18.1172 21.0975 18.1514 19.8527 16.8275 19.3556ZM19.3005 20.4625H20.699C20.9373 19.4298 21.689 18.577 22.7392 18.1829C22.8805 18.1306 23.0128 18.0758 23.2359 17.9834C24.2555 17.5117 25.3907 17.5785 26.295 18.1438L27.2842 17.155C26.7237 16.258 26.6532 15.1228 27.1149 14.101C27.1903 13.9335 27.2595 13.7718 27.3248 13.5945C27.7168 12.5505 28.5665 11.8 29.6029 11.5596V10.1605C28.572 9.92648 27.7199 9.17531 27.3257 8.12554C27.2611 7.95562 27.1909 7.78601 27.1158 7.61851C26.6518 6.59859 26.7217 5.46429 27.2843 4.56304L26.2954 3.5739C25.3961 4.13617 24.2611 4.20695 23.243 3.74351C23.0752 3.66843 22.9135 3.5989 22.7347 3.53328C21.6852 3.13882 20.9322 2.28179 20.6979 1.25515H19.2994C19.0608 2.28788 18.3091 3.14031 17.2583 3.53507C17.085 3.59851 16.9233 3.66843 16.7592 3.74195C15.7396 4.20632 14.6046 4.13671 13.7034 3.57351L12.7143 4.56234C13.2787 5.4639 13.3476 6.59882 12.8851 7.5989C12.8125 7.77429 12.7399 7.95007 12.674 8.12304C12.2786 9.17499 11.4268 9.9264 10.3956 10.1605V11.5587C11.4286 11.7969 12.2811 12.5487 12.6752 13.5985C12.7393 13.7721 12.8088 13.9341 12.8832 14.1001C13.3451 15.1216 13.275 16.2552 12.7136 17.1547L13.7028 18.1435C14.604 17.5791 15.7396 17.5101 16.7384 17.973C16.944 18.0584 17.1075 18.1269 17.2632 18.1844C18.3126 18.5786 19.0656 19.435 19.3005 20.4625Z" fill="#202020"/>
<path d="M14.7261 10.8588C14.7261 7.95101 17.0918 5.58531 19.9999 5.58531C22.9077 5.58531 25.2734 7.95101 25.2734 10.8588C25.2734 13.7666 22.9077 16.1323 19.9999 16.1323C17.0918 16.1323 14.7261 13.7666 14.7261 10.8588ZM19.9999 14.8827C22.2185 14.8827 24.0237 13.0775 24.0237 10.8589C24.0237 8.64031 22.2185 6.835 19.9999 6.835C17.7813 6.835 15.9758 8.64023 15.9758 10.8588C15.9758 13.0774 17.7813 14.8827 19.9999 14.8827Z" fill="#202020"/>
<path d="M18.6227 9.11069L20.7946 11.283L21.3758 10.7018C21.6199 10.4577 22.0153 10.4577 22.2593 10.7018C22.5034 10.9458 22.5034 11.3412 22.2593 11.5853L21.2364 12.6083C20.9928 12.8519 20.5972 12.8527 20.3529 12.6083L17.7391 9.99421C17.495 9.75014 17.495 9.35475 17.7391 9.11069C17.9832 8.86663 18.3786 8.86663 18.6227 9.11069Z" fill="#202020"/>
</g>
<defs>
<clipPath id="clip0_926_72090">
<rect width="40" height="40" fill="white" transform="matrix(-1 0 0 1 40 0)"/>
</clipPath>
</defs>
</svg>
