<svg width="468" height="502" viewBox="0 0 468 502" fill="none" xmlns="http://www.w3.org/2000/svg">
<path opacity="0.3" d="M47.2763 283.621C67.3327 283.621 83.5916 274.234 83.5916 262.654C83.5916 251.074 67.3327 241.687 47.2763 241.687C27.2199 241.687 10.9609 251.074 10.9609 262.654C10.9609 274.234 27.2199 283.621 47.2763 283.621Z" fill="#3D4E62"/>
<path d="M78.7134 252.563H29.3565L23.4092 192.871H84.6607L78.7134 252.563Z" fill="#3D4E62"/>
<path d="M54.0356 267.293C67.6367 267.293 78.6625 260.926 78.6625 253.072C78.6625 245.218 67.6367 238.852 54.0356 238.852C40.4345 238.852 29.4087 245.218 29.4087 253.072C29.4087 260.926 40.4345 267.293 54.0356 267.293Z" fill="#3D4E62"/>
<path d="M54.0356 210.584C70.9747 210.584 84.7065 202.654 84.7065 192.871C84.7065 183.088 70.9747 175.158 54.0356 175.158C37.0966 175.158 23.3647 183.088 23.3647 192.871C23.3647 202.654 37.0966 210.584 54.0356 210.584Z" fill="#212A36"/>
<path d="M71.1558 173.173C76.317 175.596 83.4693 175.448 88.4307 172.813C93.7401 169.99 95.6538 164.771 93.9463 160.596C91.6009 154.893 84.3907 152.039 77.7088 152.69C72.0128 153.244 63.8296 156.781 60.8269 147.657C58.8295 141.678 60.8398 136.046 65.2149 135.576C66.9353 135.389 68.6751 135.995 70.4083 136.426C78.9781 138.533 89.6936 135.576 92.3805 129.01C95.3574 121.497 89.9965 107.656 80.5375 113.436C78.0439 114.97 75.7951 117.289 73.2757 118.713C63.4108 124.242 58.1851 109.692 63.0628 106.213C64.2097 105.395 64.693 105.388 74.8866 102.624C77.6572 101.864 80.2926 101.032 81.5942 97.3855C83.6819 91.4575 79.6612 84.4341 75.6276 83.1132C69.7125 81.193 65.8915 88.9639 60.2663 89.4664C54.6992 89.969 51.9156 81.9147 55.1953 78.8476C57.2121 76.9532 61.1491 77.6556 64.4739 75.4197C73.1855 69.5819 64.5255 50.0776 57.1735 59.5881C55.3371 61.9915 53.9453 65.3164 51.5032 66.5728C46.8253 68.9827 40.2207 62.6874 39.4153 57.3651C38.8032 53.1253 40.994 54.3174 42.9077 55.2259C46.5611 56.9334 51.3808 55.3677 52.3667 51.1665C53.0561 48.1703 51.8383 43.8919 48.6681 41.9266C43.3136 38.6147 40.5236 46.0246 35.1755 43.3313C32.2953 41.8815 28.6998 36.6043 30.1625 32.9444C31.2901 30.1093 34.1639 30.0642 35.923 28.2149C38.3199 25.6826 36.9088 20.3152 32.8559 18.7366C28.1844 16.9389 27.0567 21.8681 24.6598 24.2457C20.987 27.8734 14.1054 23.7367 15.4456 14.3808C15.9096 11.0753 16.3413 8.29817 14.8271 5.2633C11.1736 -1.85672 2.868 -0.123428 3.87318 9.47088C4.44665 14.7867 8.17097 20.2572 12.3463 22.7251C13.8219 23.5885 16.1737 25.5022 15.9031 27.3837C15.6003 29.4714 13.925 31.7073 11.7149 32.9766C9.25991 34.3813 6.34747 34.6584 3.9956 36.3337C2.66825 37.2809 2.06257 38.5502 1.28935 39.768C-2.31899 45.4641 2.16566 48.4796 8.31917 46.044C12.2883 44.4718 12.0242 42.5838 13.01 40.9021C14.1054 39.027 17.5913 36.3852 20.9677 38.7435C22.076 39.5296 23.3518 40.0515 23.7062 41.4304C23.893 42.1521 24.0412 43.2475 23.8608 44.3365C23.2164 48.5183 18.4934 48.6729 14.492 50.9346C7.08202 55.1744 15.0719 65.9414 20.5489 61.1152C24.0154 58.061 23.7448 51.3598 27.089 51.9977C28.6547 52.3006 30.6264 54.6395 30.9486 57.8999C31.303 61.2634 30.2656 63.0805 28.8609 65.5934C27.9266 67.2623 27.3338 68.5574 25.0722 69.685C19.9367 72.2431 13.2935 71.0961 8.78954 76.7277C3.37059 83.5256 10.5679 89.518 16.7021 90.085C21.5089 90.5296 28.6934 88.1778 29.8854 81.5539C30.0465 80.684 30.1367 79.8141 30.2914 78.9443C31.6703 71.283 38.4037 71.7985 39.4024 82.0307C39.7439 86.0772 39.1254 89.3182 38.4746 90.8325C37.1214 93.9189 35.1433 96.2707 32.7785 97.7785C25.5039 102.437 20.6133 96.6767 16.831 100.395C16.1222 101.09 15.6003 102.051 15.4521 103.275C14.6144 110.595 25.0399 116.838 31.4319 110.756C32.6239 109.628 33.7128 108.101 34.892 106.935C40.1885 101.709 44.0288 109.976 43.5971 115.047C43.3523 118.333 41.4063 121.626 38.3199 122.979C32.218 125.64 23.3775 120.64 18.4676 126.387C12.4623 133.417 24.299 145.273 33.3391 138.688C35.0209 137.464 36.4706 135.718 38.0751 134.287C46.0521 127.244 50.3756 139.139 45.1178 143.804C43.7195 145.048 42.0765 145.421 40.472 145.776C24.2861 149.339 22.3981 149.159 19.5952 151.543C15.1363 155.325 15.0461 163.089 18.313 166.698C19.9625 168.521 22.527 169.784 25.2204 170.538C31.2708 172.233 32.9396 171.737 36.7091 171.459C39.731 171.24 42.9077 171.066 45.7235 170.229C63.1981 165.029 64.3902 170.003 71.1429 173.173H71.1558Z" fill="#2D6B5F"/>
<path d="M51.0518 198.503C50.1948 181.821 50.8134 165.37 50.6716 149.12C50.6136 140.995 50.3366 132.921 49.6085 124.925L49.325 121.929C49.2863 121.426 49.2154 120.93 49.1574 120.434L48.9706 118.945L48.5968 115.968L48.1329 113.011L47.9009 111.535L47.785 110.794L47.6497 110.047L47.102 107.064C46.9215 106.071 46.7153 105.079 46.522 104.087C46.3287 103.094 46.1354 102.102 45.9228 101.116C42.6366 85.2782 38.0747 69.7044 31.9663 54.762C31.5797 53.8277 31.2124 52.8869 30.8064 51.9655L29.608 49.1884C29.2085 48.2605 28.7768 47.352 28.3644 46.4306C27.9455 45.5156 27.5332 44.5877 27.095 43.705C25.3811 40.1224 23.4545 36.6043 21.4183 33.1184C17.3461 26.1401 12.8356 19.2714 8.71826 12.0289C12.9709 19.1941 17.6167 25.9597 21.8243 32.8735C23.9313 36.3272 25.9352 39.8196 27.7329 43.3893C28.1904 44.272 28.6221 45.1934 29.0603 46.102C29.492 47.0169 29.943 47.9255 30.3618 48.8469L31.6183 51.6111C32.0436 52.5325 32.4302 53.4668 32.8361 54.3947C39.2603 69.2791 44.1573 84.8465 47.7721 100.71C48.0105 101.703 48.2231 102.695 48.4358 103.687C48.6484 104.679 48.8739 105.672 49.0737 106.67L49.6793 109.66L49.834 110.408L49.9693 111.155L50.2335 112.65L50.7618 115.64L51.2 118.649L51.4191 120.15C51.49 120.653 51.5673 121.155 51.6188 121.658L51.9668 124.68C52.8624 132.754 53.2941 140.898 53.5132 149.062C53.9707 165.396 53.6743 181.833 54.8341 198.264L51.0518 198.503Z" fill="#327769"/>
<path d="M80.2349 174.99C95.9183 178.953 103.992 160.402 94.5265 153.141C85.2737 146.208 75.6536 153.895 69.1586 153.212C61.0269 152.374 58.7073 138.192 66.6907 137.496C70.9305 137.129 75.1317 143.997 89.1269 139.764C90.9504 139.21 95.3835 136.858 95.4737 132.296C95.4995 128.082 90.4027 123.082 83.9077 123.185C79.713 123.211 68.2952 128.404 67.4188 121.877C67.1804 120.266 67.9472 118.185 69.2681 116.896C71.7231 114.512 73.6626 115.704 84.0172 118.694C85.744 119.19 87.5096 119.686 89.4619 119.255C96.1374 117.811 98.4055 107.141 94.5909 102.869C92.5483 100.568 89.5328 100.523 86.6268 100.775C83.6435 101.045 77.1936 102.192 75.4603 97.263C74.3713 94.1572 75.8856 89.5824 79.249 88.8929C83.0313 88.1326 89.7712 94.7243 95.493 87.0694C98.6116 82.8941 99.43 75.2586 95.0549 73.7057C90.8795 72.2237 86.5946 77.1465 82.3806 76.8308C78.057 76.5215 75.7051 70.6386 76.0531 66.1088C76.2142 63.6346 77.5544 60.3999 78.9849 60.9541C79.655 61.2183 80.28 62.1848 80.8535 63.0418C83.4437 66.8498 90.029 68.0354 92.6772 62.0237C93.8177 59.369 93.618 56.8238 92.645 54.9552C89.7648 49.4718 83.5339 54.2142 80.3766 49.2528C78.5789 46.4047 78.3727 40.3286 81.4398 38.0862C83.8883 36.3078 86.3562 37.7254 88.824 37.0875C90.0612 36.7589 91.3176 35.7086 91.9878 34.0784C93.6051 30.1479 90.931 25.9339 87.9348 25.9468C85.6667 25.9468 83.5404 27.5963 81.2981 28.1053C76.2013 29.2523 72.6381 22.2482 78.6562 15.2571C80.4991 13.1307 82.6319 10.8111 82.9283 7.42181C83.2698 3.40109 80.7761 -0.671174 76.807 0.23091C70.8017 1.59048 67.4962 12.8472 71.6329 20.5471C72.4319 22.0227 73.4242 24.8063 72.2063 26.2238C70.8597 27.8089 68.2501 28.8012 65.7113 28.7174C64.2873 28.6723 62.9213 28.3373 61.5682 28.0344C56.7871 26.9777 55.9624 27.7509 53.2755 29.0203C51.6775 29.7742 49.7702 31.1853 49.7315 33.0281C49.6285 36.8942 57.0255 39.0012 60.1442 37.5901C61.1043 37.1519 61.755 36.4625 62.6765 35.9857C64.6546 34.9418 68.9331 34.6068 70.589 38.2344C71.3687 39.9291 72.6832 41.366 70.1767 44.3557C68.6109 46.1986 66.8969 46.2823 63.0631 45.6637C60.0089 45.1676 53.952 43.7307 52.9791 49.4525C52.135 54.1949 55.8206 60.1873 63.8556 53.8405C65.5051 52.5518 67.5284 51.0183 68.9975 52.3198C70.0478 53.2541 70.7372 55.9991 69.2488 59.1692C67.8699 62.1075 65.8015 63.2415 63.5077 64.4787C60.621 66.038 59.429 66.9014 52.1414 64.4142C48.7135 63.2415 44.9441 61.9528 40.5947 63.4799C35.7557 65.1681 34.4477 69.1308 36.4967 73.5961C39.8731 81.077 49.4803 82.907 54.2033 79.9623C56.9096 78.2934 57.5926 75.3552 61.188 73.957C64.4613 72.6876 66.1302 75.5227 65.6147 78.9249C64.0231 89.8272 51.6453 97.3274 42.7662 90.7293C41.2455 89.5953 39.8924 88.1133 38.1849 87.4174C34.3897 85.8645 31.0455 89.3246 31.2195 93.9382C31.3999 98.803 36.1423 104.57 42.6502 103.223C44.2353 102.895 45.9686 102.192 47.5601 101.825C51.671 100.897 53.4043 103.313 53.0177 107.353C52.528 112.65 46.9866 119.48 42.212 120.453C34.7376 121.98 29.5055 111.297 23.1652 117.412C11.9986 128.204 23.8095 151.382 34.8472 140.834C36.5031 139.236 37.9465 137.038 39.6346 135.331C47.1413 127.728 51.8257 140.769 46.948 146.253C45.0472 148.379 44.0613 148.031 28.9063 153.624C24.9436 155.041 22.495 156.388 20.852 160.525C20.053 162.542 19.7566 164.945 20.3171 167.123C21.3352 171.099 24.1703 172.832 35.4142 173.373C37.5534 173.483 46.9609 172.619 50.5305 171.472C57.3155 169.307 63.6365 167.213 68.8622 169.275C72.8829 170.873 74.8868 173.682 80.2542 175.023L80.2349 174.99Z" fill="#3E9281"/>
<path d="M50.8848 194.894C54.2547 188.76 55.6336 181.711 55.479 174.256C55.4338 170.538 55.0859 166.73 54.6155 162.87C54.1387 159.004 53.5459 155.074 53.0175 151.066C52.4892 147.058 52.0253 142.973 51.8577 138.785C51.6838 134.603 51.7933 130.331 52.4054 126.059C52.4763 125.524 52.5858 124.996 52.676 124.461C52.7727 123.926 52.8565 123.398 52.966 122.863L53.3333 121.278C53.4621 120.749 53.5717 120.221 53.7392 119.699L54.2031 118.133C54.2805 117.876 54.3513 117.611 54.4416 117.354L54.7186 116.587L55.2792 115.053L55.421 114.667L55.5563 114.319L55.8269 113.636L56.903 110.891L57.9468 108.133C58.6491 106.297 59.2935 104.441 59.97 102.598C65.1764 87.7718 69.2615 72.5459 71.7422 57.0558C71.9098 56.0893 72.0322 55.1163 72.1868 54.1498C72.3286 53.1769 72.4832 52.2103 72.5992 51.2374L72.9729 48.3185C73.0954 47.3455 73.1791 46.3919 73.2887 45.4318C73.656 41.5851 73.8364 37.6868 73.9201 33.7563C74.0941 25.9017 73.8879 17.9118 74.1972 9.81882C74.0426 17.9182 74.4034 25.8888 74.3905 33.7627C74.3905 37.6997 74.2874 41.6108 73.991 45.4898C73.9073 46.4628 73.8428 47.4228 73.7333 48.4023L73.4175 51.334C73.3209 52.3134 73.1856 53.2864 73.0632 54.2658C72.9343 55.2388 72.8312 56.2182 72.6765 57.1911C70.4987 72.7907 66.7035 88.1842 61.7613 103.204C61.1234 105.072 60.5113 106.954 59.8412 108.816L58.8489 111.613L57.8244 114.396L57.5666 115.092L57.4378 115.44L57.3089 115.807L56.7999 117.283L56.5486 118.024C56.4712 118.269 56.4068 118.526 56.3359 118.771L55.9236 120.273C55.7754 120.769 55.6787 121.284 55.5692 121.787L55.2405 123.307C55.1439 123.817 55.073 124.332 54.9892 124.841C54.9119 125.35 54.8153 125.859 54.7637 126.375C54.2547 130.473 54.2225 134.59 54.4738 138.643C54.7186 142.702 55.247 146.704 55.8462 150.66C57.0383 158.573 58.5525 166.363 58.8102 174.172C58.8618 175.152 58.836 176.118 58.8424 177.097C58.8553 177.587 58.8167 178.07 58.7973 178.554L58.7329 180.01C58.5783 181.943 58.3785 183.87 57.9983 185.764C57.2702 189.559 56.0202 193.238 54.2418 196.673L50.9041 194.888L50.8848 194.894Z" fill="#327769"/>
<path d="M38.3975 198.883C38.3975 198.883 44.1386 190.068 53.0692 190.068C61.9999 190.068 67.2835 198.883 67.2835 198.883H38.3975Z" fill="#242E3A"/>
<path d="M280.768 183.99L272.777 188.611V226.67C272.777 251.401 255.405 281.482 233.989 293.861L228.803 307.065L295.169 345.386L347.134 315.387V222.324L280.768 184.003V183.99Z" fill="#364557"/>
<path d="M272.777 188.611V226.67C272.777 233.905 271.278 241.594 268.651 249.159L347.134 294.466V222.296L280.769 183.99L272.777 188.611Z" fill="#43566C"/>
<path d="M300.341 332.167L233.989 293.861L228.803 307.065L295.169 345.372L300.341 332.167Z" fill="#43566C"/>
<path d="M295.169 345.372L300.354 332.168C321.77 319.802 339.142 289.721 339.142 264.976V226.918L347.134 222.296V315.359L295.169 345.358V345.372Z" fill="#1A1D28"/>
<path d="M435.053 137.1L201.954 2.52558C199.506 1.10886 198.241 1.549 195.82 2.73189L187.347 7.22964C187.265 7.2709 187.182 7.31216 187.1 7.35343C185.366 8.34375 184.266 10.6408 184.266 13.9281V180.124C184.266 186.108 187.897 193.054 192.381 195.64L425.48 330.214C427.804 331.562 429.909 331.452 431.381 330.214L439.633 325.717C441.752 324.988 443.155 322.526 443.155 318.826V152.629C443.155 146.646 439.523 139.7 435.039 137.114L435.053 137.1Z" fill="#1A1D28"/>
<path d="M425.508 330.201L192.41 195.626C187.926 193.04 184.294 186.094 184.294 180.111V13.9143C184.294 7.9311 187.926 5.18018 192.41 7.7798L425.508 142.354C429.992 144.94 433.623 151.886 433.623 157.87V324.066C433.623 330.049 429.992 332.8 425.508 330.201Z" fill="#364557"/>
<g opacity="0.15">
<path d="M348.481 96.9401L229.394 216.041L276.077 243L395.177 123.899L348.481 96.9401Z" fill="white"/>
<path d="M434.653 151.862C433.222 147.942 430.664 144.393 427.734 142.702L426.276 141.863L307.175 260.963L318.825 267.689L362.675 223.84C386.663 199.852 410.651 175.864 434.639 151.876L434.653 151.862Z" fill="white"/>
<path d="M349.94 285.639L355.043 288.582L435.865 207.761V199.714C407.228 228.351 378.591 256.988 349.954 285.625L349.94 285.639Z" fill="white"/>
<path d="M296.104 66.7076L186.507 176.304V180.458C186.507 186.441 190.139 193.387 194.623 195.973L198.281 198.077L317.382 78.9767L296.104 66.6938V66.7076Z" fill="white"/>
<path d="M194.636 8.11313C190.152 5.52728 186.521 8.27819 186.521 14.2477V127.228L265.018 48.7304L194.649 8.09938L194.636 8.11313Z" fill="white"/>
</g>
<path d="M304.931 150.415V220.059L244.617 185.235V115.591L304.931 150.415Z" fill="#5EBBA8"/>
<path d="M304.92 220.059L312.77 215.084V146.952L304.92 150.415V220.059Z" fill="#518B80"/>
<path d="M304.921 150.415L312.77 146.952L253.189 112.337L244.607 115.591L304.921 150.415Z" fill="#53B29E"/>
<path d="M284.586 188.939C284.228 189.016 284.059 189.431 284.141 190.025L284.72 194.104L278.864 192.474L277.05 188.053C276.983 187.894 276.906 187.735 276.819 187.586C276.558 187.136 276.215 186.746 275.866 186.516C275.395 186.208 274.98 186.218 274.775 186.551L273.366 188.847L267.233 182.56L267.346 178.938C267.361 178.492 267.192 177.929 266.895 177.416C266.844 177.324 266.787 177.237 266.726 177.15C266.326 176.571 265.824 176.176 265.409 176.125L262.55 175.756L258.477 167.21L260.475 165.771C260.767 165.56 260.834 165.043 260.66 164.413C260.583 164.131 260.455 163.844 260.301 163.578C260.111 163.25 259.876 162.947 259.62 162.717L256.402 159.827L255.951 152.285L259.071 153.582C259.522 153.771 259.871 153.618 259.983 153.177C260.096 152.736 259.958 152.086 259.614 151.461L257.273 147.157L260.614 143.504L263.662 147.039C264.103 147.551 264.6 147.818 264.958 147.741C265.317 147.659 265.486 147.249 265.404 146.655L264.825 142.576L270.681 144.206L272.495 148.627C272.562 148.786 272.638 148.945 272.726 149.094C272.987 149.544 273.325 149.929 273.679 150.164C274.15 150.472 274.565 150.461 274.77 150.128L276.179 147.833L282.312 154.12L282.194 157.742C282.178 158.188 282.347 158.751 282.645 159.264C282.696 159.351 282.752 159.443 282.814 159.53C283.213 160.109 283.715 160.504 284.13 160.555L286.989 160.924L291.063 169.47L289.064 170.909C288.772 171.119 288.706 171.632 288.88 172.262C288.957 172.544 289.085 172.831 289.239 173.097C289.428 173.425 289.664 173.727 289.92 173.958L293.138 176.848L293.588 184.389L290.468 183.093C290.017 182.904 289.669 183.062 289.556 183.498C289.444 183.938 289.582 184.589 289.925 185.214L292.272 189.518L288.931 193.171L285.883 189.636C285.442 189.123 284.945 188.857 284.586 188.934V188.939ZM275.666 183.257C282.552 187.807 287.737 184.815 287.24 176.576C286.995 172.457 285.375 167.805 282.957 163.619C280.539 159.428 277.321 155.703 273.878 153.428C266.992 148.883 261.807 151.876 262.304 160.109C262.55 164.228 264.169 168.881 266.588 173.066C269.006 177.257 272.223 180.982 275.666 183.257Z" fill="#F2F2F2"/>
<g style="mix-blend-mode:multiply">
<path d="M360.562 232.23C367.956 229.537 369.765 215.862 364.602 201.685C359.439 187.508 349.26 178.199 341.866 180.891C334.472 183.584 332.663 197.26 337.826 211.436C342.988 225.613 353.168 234.923 360.562 232.23Z" fill="#CCCCCC"/>
</g>
<path d="M341.8 185.588C341.8 185.588 373.382 191.527 360.414 225.173L341.8 185.588Z" fill="#518B80"/>
<path d="M328.428 187.054C328.428 187.054 323.135 183.841 325.246 177.944C325.246 177.944 326.86 183.59 330.544 184.369L328.428 187.054Z" fill="#FAFAFA"/>
<path d="M331.225 182.955C331.225 182.955 329.559 178.549 326.019 174.47C326.019 174.47 332.065 173.082 334.755 182.489L331.225 182.955Z" fill="#FAFAFA"/>
<path d="M335.155 181.367C334.673 180.531 334.335 179.245 334.269 178.789C334.243 178.492 334.417 178.18 334.345 177.852C334.289 177.437 333.92 177.135 333.951 176.54C333.961 176.264 334.033 175.91 333.884 175.633C333.813 175.49 333.71 175.352 333.679 175.203C333.613 174.906 333.664 174.598 333.659 174.291C333.433 171.268 333.208 170.177 333.715 167.118L333.326 167.005C332.352 169.905 332.778 174.122 332.834 174.373C332.901 174.68 332.988 174.875 333.018 175.28C333.049 175.598 332.834 175.705 332.967 176.217C333.049 176.504 333.203 176.694 333.218 177.114C333.229 177.575 333.029 177.975 333.367 178.492C333.459 178.631 333.556 178.769 333.603 178.918C333.72 179.404 333.91 180.701 333.91 181.695L335.155 181.367Z" fill="#439E8B"/>
<path d="M334.474 166.755C334.371 167.201 333.925 167.473 333.484 167.37C333.043 167.268 332.766 166.822 332.869 166.381C332.972 165.94 333.418 165.663 333.859 165.766C334.305 165.868 334.576 166.314 334.474 166.755Z" fill="#439E8B"/>
<path d="M321.092 185.784C321.107 186.24 320.748 186.619 320.292 186.635C319.836 186.65 319.456 186.291 319.441 185.835C319.426 185.379 319.784 184.999 320.241 184.984C320.697 184.968 321.076 185.327 321.092 185.784Z" fill="#439E8B"/>
<path d="M335.027 195.303C338.895 195.472 342.169 192.469 342.338 188.601C342.507 184.733 339.505 181.459 335.636 181.29C331.768 181.121 328.494 184.123 328.325 187.991C328.156 191.86 331.158 195.133 335.027 195.303Z" fill="#439E8B"/>
<path d="M329.909 194.252C329.909 194.252 327.547 215.417 336.595 225.721C345.648 236.024 357.053 230.117 359.446 227.33C361.838 224.542 364.518 202.937 352.083 192.321C345.71 186.885 340.427 185.004 340.427 185.004C340.427 185.004 331.559 184.825 329.909 194.252Z" fill="#5EBBA8"/>
<path d="M329.898 189.713C330.81 189.754 331.579 189.047 331.62 188.135C331.661 187.223 330.954 186.454 330.042 186.413C329.13 186.372 328.361 187.079 328.32 187.991C328.279 188.903 328.986 189.672 329.898 189.713Z" fill="#FAFAFA"/>
<path d="M329.955 188.422C330.155 188.433 330.324 188.279 330.33 188.079C330.34 187.879 330.186 187.71 329.986 187.704C329.786 187.694 329.617 187.848 329.612 188.048C329.602 188.248 329.755 188.417 329.955 188.422Z" fill="white"/>
<path d="M328.325 187.991C328.325 187.95 328.33 187.909 328.335 187.874C328.438 187.827 328.546 187.797 328.669 187.802C329.053 187.817 329.351 188.145 329.335 188.525C329.32 188.858 329.074 189.125 328.761 189.181C328.474 188.868 328.31 188.448 328.325 187.991Z" fill="white"/>
<path d="M327.014 175.341L326.333 176.756L327.994 176.623L327.014 175.341Z" fill="#FAFAFA"/>
<path d="M342.543 215.311L343.374 214.08L341.856 213.855L342.543 215.311Z" fill="#B11E48"/>
<path d="M326.979 182.177L327.805 180.947L326.287 180.721L326.979 182.177Z" fill="#FAFAFA"/>
<path d="M326.117 180.456L326.948 179.225L325.425 179L326.117 180.456Z" fill="#FAFAFA"/>
<path d="M327.783 176.612L327.101 178.027L328.762 177.894L327.783 176.612Z" fill="#FAFAFA"/>
<path d="M328.976 186.823C328.223 186.741 327.537 186.541 327.301 186.429C327.219 186.382 327.157 186.285 327.091 186.198C326.824 185.844 326.563 186.055 326.271 186.029C326.015 186.014 325.984 185.891 325.769 185.773C325.487 185.624 325.41 185.85 325.19 185.819C324.806 185.778 324.77 185.424 322.464 185.44C321.727 185.44 320.989 185.532 320.271 185.681L320.323 186.085C320.323 186.085 320.779 186.07 321.911 186.101C323.12 186.172 324.514 186.449 324.514 186.449C324.693 186.449 324.883 186.403 325.047 186.475C325.129 186.5 325.195 186.603 325.272 186.675C325.467 186.885 325.769 186.649 326.051 186.797C326.21 186.89 326.327 187.09 326.491 187.136C326.696 187.212 326.865 187.043 327.07 187.074C327.46 187.187 328.126 187.592 328.361 187.96C328.956 187.786 329.125 187.515 328.976 186.833V186.823Z" fill="#439E8B"/>
<path d="M338.229 217.427C338.686 217.447 339.07 217.094 339.091 216.637C339.111 216.181 338.757 215.797 338.301 215.776C337.845 215.756 337.46 216.109 337.44 216.566C337.419 217.022 337.773 217.406 338.229 217.427Z" fill="#439E8B"/>
<path d="M363.437 175.034C363.094 175.09 362.858 175.418 362.919 175.762C363.027 176.412 362.996 177.114 362.873 177.816C362.75 178.518 362.54 179.215 362.284 179.906C362.028 180.593 361.726 181.269 361.387 181.93C361.085 182.519 360.752 183.109 360.399 183.667C359.64 183.283 358.867 182.934 358.093 182.591C357.258 182.217 356.413 181.869 355.572 181.52C354.727 181.177 353.876 180.849 353.026 180.521C352.601 180.368 352.175 180.193 351.745 180.055C351.525 179.994 351.304 179.947 351.069 179.932C350.833 179.917 350.592 179.927 350.331 179.994L350.013 179.809L349.511 180.27C349.291 180.475 349.081 180.685 348.866 180.895L348.241 181.536C347.826 181.966 347.421 182.402 347.026 182.837C346.627 183.278 346.232 183.718 345.848 184.164C345.464 184.61 345.079 185.061 344.716 185.522C344.669 185.578 344.623 185.645 344.587 185.711C344.106 186.526 344.377 187.576 345.192 188.053C346.007 188.529 347.057 188.263 347.533 187.448C347.831 186.941 348.112 186.424 348.394 185.901C348.676 185.383 348.942 184.851 349.209 184.323C349.475 183.795 349.737 183.257 349.983 182.719L350.351 181.905C350.367 181.869 350.382 181.833 350.398 181.802C350.413 181.812 350.433 181.828 350.449 181.838C350.649 181.961 350.859 182.058 351.069 182.13C351.504 182.263 351.945 182.376 352.385 182.499C353.267 182.73 354.148 182.96 355.034 183.17C355.921 183.38 356.812 183.585 357.704 183.77C358.6 183.954 359.497 184.133 360.409 184.272L360.645 184.308L360.716 184.174C361.188 183.56 361.613 182.929 362.018 182.279C362.417 181.623 362.791 180.952 363.114 180.25C363.442 179.548 363.724 178.815 363.924 178.042C364.123 177.273 364.236 176.453 364.164 175.598C364.164 175.582 364.164 175.562 364.159 175.546C364.103 175.203 363.775 174.967 363.432 175.029L363.437 175.034Z" fill="#FAFAFA"/>
<path d="M373.76 184.564C373.416 184.62 373.181 184.948 373.242 185.291C373.35 185.942 373.319 186.644 373.196 187.346C373.073 188.048 372.863 188.75 372.607 189.436C372.351 190.123 372.048 190.799 371.71 191.46C371.408 192.049 371.075 192.638 370.721 193.197C369.963 192.812 369.19 192.464 368.416 192.121C367.581 191.747 366.735 191.398 365.895 191.05C365.05 190.707 364.199 190.379 363.349 190.051C362.924 189.897 362.498 189.723 362.068 189.585C361.848 189.523 361.627 189.477 361.392 189.462C361.156 189.446 360.915 189.457 360.654 189.523L360.387 189.349L359.839 189.805C359.65 189.959 359.475 190.123 359.296 190.281L358.773 190.773C358.425 191.101 358.092 191.439 357.759 191.783C357.431 192.126 357.098 192.464 356.786 192.818C356.468 193.166 356.15 193.52 355.853 193.883C355.797 193.955 355.735 194.037 355.689 194.119C355.223 194.944 355.51 195.989 356.335 196.455C357.16 196.922 358.205 196.635 358.671 195.81C358.902 195.4 359.117 194.98 359.327 194.56C359.542 194.139 359.742 193.709 359.942 193.279C360.141 192.848 360.331 192.413 360.515 191.967L360.761 191.363C360.761 191.363 360.777 191.373 360.782 191.378C360.982 191.501 361.192 191.598 361.402 191.67C361.837 191.803 362.278 191.916 362.719 192.039C363.6 192.269 364.481 192.5 365.367 192.71C366.254 192.92 367.145 193.125 368.037 193.309C368.933 193.494 369.83 193.673 370.742 193.812L370.978 193.847L371.049 193.714C371.521 193.099 371.946 192.469 372.351 191.818C372.75 191.163 373.124 190.492 373.447 189.79C373.775 189.088 374.057 188.355 374.257 187.581C374.457 186.813 374.574 185.993 374.498 185.137C374.498 185.122 374.498 185.102 374.492 185.086C374.436 184.743 374.108 184.507 373.765 184.569L373.76 184.564Z" fill="#FAFAFA"/>
<path d="M378.238 195.497C377.895 195.554 377.659 195.881 377.721 196.225C377.828 196.875 377.798 197.577 377.675 198.279C377.552 198.981 377.342 199.683 377.085 200.37C376.829 201.056 376.527 201.733 376.189 202.393C375.887 202.983 375.554 203.572 375.2 204.13C374.442 203.746 373.668 203.398 372.894 203.054C372.059 202.68 371.214 202.332 370.374 201.984C369.528 201.64 368.678 201.312 367.827 200.985C367.402 200.831 366.977 200.657 366.546 200.518C366.326 200.457 366.106 200.411 365.87 200.395C365.634 200.38 365.394 200.39 365.132 200.457L364.897 200.298L364.333 200.713C364.149 200.851 363.974 200.995 363.795 201.138L363.273 201.579C362.929 201.871 362.591 202.173 362.263 202.481C361.935 202.788 361.607 203.095 361.295 203.413C360.977 203.726 360.665 204.048 360.367 204.376C360.301 204.448 360.239 204.535 360.183 204.622C359.686 205.427 359.937 206.482 360.741 206.979C361.546 207.476 362.601 207.225 363.098 206.421C363.334 206.041 363.549 205.652 363.759 205.258C363.974 204.868 364.174 204.463 364.379 204.064C364.579 203.659 364.774 203.254 364.958 202.839L365.204 202.281C365.204 202.281 365.235 202.301 365.25 202.311C365.45 202.434 365.66 202.532 365.87 202.604C366.306 202.737 366.746 202.849 367.187 202.972C368.068 203.203 368.949 203.434 369.836 203.644C370.722 203.854 371.614 204.059 372.505 204.243C373.402 204.427 374.298 204.607 375.21 204.745L375.446 204.781L375.518 204.648C375.989 204.033 376.414 203.403 376.819 202.752C377.219 202.096 377.593 201.425 377.916 200.723C378.243 200.021 378.53 199.289 378.725 198.515C378.925 197.746 379.043 196.927 378.966 196.071C378.966 196.056 378.966 196.035 378.961 196.02C378.904 195.677 378.576 195.441 378.233 195.502L378.238 195.497Z" fill="#FAFAFA"/>
<path d="M330.375 207.399C330.057 207.922 329.76 208.46 329.463 208.998C329.165 209.536 328.879 210.079 328.597 210.627C328.315 211.175 328.038 211.723 327.772 212.282L327.377 213.122C327.249 213.404 327.121 213.686 327.003 213.978L326.486 215.228L327.531 215.105C327.695 215.264 327.859 215.366 328.033 215.438C328.202 215.51 328.376 215.551 328.551 215.576C328.904 215.607 329.258 215.607 329.611 215.622C330.318 215.638 331.025 215.653 331.732 215.648C332.439 215.638 333.152 215.633 333.864 215.597C334.407 215.571 334.945 215.546 335.488 215.494C335.206 215.914 334.899 216.329 334.591 216.734C334.166 217.282 333.72 217.81 333.249 218.312C332.778 218.809 332.281 219.281 331.758 219.706C331.235 220.126 330.677 220.495 330.103 220.771C330.103 220.771 330.072 220.787 330.057 220.797C329.755 220.976 329.657 221.361 329.831 221.663C330.011 221.965 330.395 222.063 330.697 221.888C331.358 221.499 331.942 221.028 332.475 220.52C333.008 220.013 333.49 219.47 333.941 218.907C334.386 218.343 334.806 217.759 335.191 217.159C335.58 216.56 335.939 215.95 336.272 215.31L336.497 215.038L336.057 214.9C335.37 214.69 334.673 214.516 333.982 214.357C333.29 214.193 332.593 214.055 331.896 213.916C331.199 213.783 330.503 213.665 329.806 213.552C329.703 213.537 329.601 213.522 329.498 213.506L329.514 213.491C329.944 213.045 330.364 212.594 330.779 212.138C331.194 211.682 331.604 211.226 332.004 210.76C332.409 210.299 332.803 209.828 333.187 209.351C333.228 209.295 333.274 209.233 333.315 209.172C333.802 208.362 333.546 207.312 332.737 206.825C331.927 206.339 330.877 206.595 330.39 207.404L330.375 207.399Z" fill="#FAFAFA"/>
<path d="M336.38 224.122C336.098 224.711 335.832 225.311 335.571 225.916C335.309 226.515 335.058 227.125 334.812 227.734C334.566 228.344 334.326 228.959 334.095 229.579L333.757 230.511C333.649 230.824 333.536 231.136 333.439 231.454L333.352 231.726L333.772 232.463C333.895 232.679 334.044 232.832 334.203 232.965C334.361 233.099 334.53 233.201 334.71 233.288C335.074 233.447 335.453 233.58 335.822 233.724C336.564 234.006 337.313 234.277 338.071 234.538C338.829 234.795 339.582 235.051 340.351 235.286C341.048 235.502 341.744 235.707 342.457 235.886C342.441 235.932 342.431 235.978 342.416 236.019C342.375 236.142 342.328 236.26 342.277 236.383C342.17 236.624 342.057 236.864 341.929 237.095C341.668 237.561 341.381 238.012 341.058 238.448C340.904 238.668 340.73 238.878 340.571 239.093L340.054 239.718L339.516 240.328L338.962 240.922L338.952 240.933C338.952 240.933 338.921 240.968 338.911 240.984C338.701 241.266 338.757 241.66 339.039 241.87C339.321 242.08 339.715 242.024 339.926 241.742L340.433 241.066L340.925 240.374L341.391 239.667C341.534 239.421 341.693 239.185 341.826 238.939C342.113 238.453 342.364 237.94 342.59 237.413C342.702 237.151 342.8 236.88 342.887 236.603C342.928 236.465 342.969 236.321 342.994 236.178C343.025 236.029 343.051 235.901 343.061 235.707V235.563L342.897 235.445C342.231 234.984 341.55 234.564 340.863 234.154C340.177 233.739 339.48 233.35 338.788 232.96C338.091 232.571 337.384 232.202 336.682 231.833C336.329 231.654 335.975 231.464 335.617 231.3C335.565 231.28 335.514 231.264 335.458 231.244L335.955 230.609C336.36 230.086 336.754 229.558 337.138 229.025C337.523 228.493 337.912 227.96 338.281 227.417C338.655 226.879 339.024 226.336 339.377 225.782C339.413 225.726 339.449 225.659 339.48 225.603C339.89 224.752 339.526 223.728 338.675 223.323C337.825 222.918 336.8 223.277 336.395 224.127L336.38 224.122Z" fill="#FAFAFA"/>
<path d="M346.278 229.092C345.976 229.717 345.694 230.353 345.417 230.988C345.136 231.623 344.869 232.264 344.603 232.909C344.336 233.555 344.08 234.2 343.829 234.856L343.46 235.84C343.342 236.173 343.225 236.501 343.112 236.834L343.558 237.884C343.681 238.063 343.814 238.186 343.957 238.284C344.101 238.381 344.249 238.448 344.408 238.494C344.726 238.571 345.048 238.622 345.366 238.688C346.007 238.806 346.652 238.919 347.298 239.016C347.948 239.109 348.594 239.206 349.25 239.273C349.813 239.334 350.382 239.39 350.956 239.416C350.905 239.611 350.838 239.811 350.771 240C350.669 240.292 350.546 240.574 350.418 240.856C350.157 241.419 349.854 241.962 349.526 242.485C349.193 243.008 348.83 243.515 348.445 244.002C348.256 244.247 348.051 244.478 347.851 244.719L347.226 245.405L347.205 245.426C347.205 245.426 347.18 245.457 347.17 245.472C346.96 245.754 347.016 246.148 347.298 246.358C347.58 246.568 347.974 246.512 348.184 246.23L348.773 245.441C348.958 245.17 349.152 244.908 349.327 244.627C349.68 244.073 350.018 243.51 350.31 242.926C350.608 242.342 350.874 241.742 351.089 241.122C351.197 240.81 351.299 240.497 351.376 240.179C351.458 239.857 351.525 239.544 351.566 239.191L351.617 239.027L351.361 238.893C350.766 238.586 350.167 238.32 349.562 238.058C348.958 237.797 348.348 237.561 347.738 237.326C347.129 237.095 346.509 236.88 345.894 236.665C345.674 236.593 345.453 236.516 345.228 236.449L345.668 235.876C346.094 235.317 346.504 234.759 346.908 234.19C347.313 233.621 347.718 233.058 348.107 232.484C348.502 231.91 348.891 231.336 349.26 230.752C349.296 230.696 349.327 230.639 349.352 230.583C349.762 229.733 349.409 228.708 348.558 228.298C347.708 227.888 346.683 228.242 346.273 229.092H346.278Z" fill="#FAFAFA"/>
<path d="M336.6 225.721C327.547 215.417 329.914 194.252 329.914 194.252C330.242 192.362 330.867 190.86 331.646 189.662C331.892 196.517 334.505 224.138 360.419 225.167C360.117 226.197 359.779 226.945 359.451 227.33C357.058 230.117 345.653 236.024 336.6 225.721Z" fill="#5EBBA8"/>
<path d="M334.863 184.764C335.775 184.805 336.543 184.097 336.584 183.185C336.625 182.273 335.918 181.505 335.006 181.464C334.094 181.423 333.326 182.13 333.285 183.042C333.244 183.954 333.951 184.723 334.863 184.764Z" fill="#FAFAFA"/>
<path d="M342.954 207.005C342.288 207.84 341.734 208.767 341.237 209.705C340.735 210.647 340.3 211.616 339.915 212.61C339.536 213.604 339.198 214.613 338.942 215.643C338.696 216.673 338.506 217.723 338.496 218.768L336.759 218.384L338.081 215.351L339.367 212.384C339.787 211.395 340.207 210.412 340.592 209.408C340.981 208.403 341.34 207.394 341.642 206.328L342.954 207.005Z" fill="white"/>
<path d="M337.825 219.076C338.01 218.712 337.861 218.266 337.492 218.082C337.128 217.897 336.682 218.046 336.497 218.415C336.313 218.779 336.461 219.225 336.83 219.41C337.194 219.594 337.641 219.445 337.825 219.076Z" fill="white"/>
<path d="M338.794 219.25C338.978 218.886 338.83 218.44 338.461 218.256C338.091 218.071 337.651 218.22 337.466 218.589C337.281 218.958 337.43 219.399 337.799 219.584C338.168 219.768 338.609 219.62 338.794 219.25Z" fill="white"/>
<path d="M342.646 207.021C342.923 206.723 342.908 206.252 342.61 205.975C342.313 205.698 341.841 205.713 341.565 206.011C341.288 206.308 341.303 206.78 341.6 207.057C341.898 207.334 342.369 207.318 342.646 207.021Z" fill="white"/>
<path d="M343.527 207.461C343.804 207.164 343.788 206.692 343.491 206.415C343.193 206.139 342.722 206.154 342.445 206.451C342.168 206.749 342.183 207.22 342.481 207.497C342.778 207.774 343.25 207.759 343.527 207.461Z" fill="white"/>
<path d="M333.686 214.47C334.756 214.167 335.761 213.798 336.765 213.409C337.769 213.025 338.753 212.605 339.742 212.179L342.703 210.888L345.736 209.556L346.12 211.293C345.075 211.308 344.025 211.498 342.995 211.749C341.965 212.005 340.956 212.343 339.962 212.728C338.968 213.112 338 213.552 337.057 214.055C336.119 214.557 335.197 215.11 334.362 215.776L333.686 214.464V214.47Z" fill="white"/>
<path d="M333.757 215.352C334.167 215.347 334.49 215.013 334.485 214.603C334.48 214.193 334.141 213.87 333.736 213.875C333.331 213.88 333.003 214.219 333.008 214.624C333.013 215.034 333.352 215.357 333.757 215.352Z" fill="white"/>
<path d="M334.044 216.295C334.454 216.289 334.777 215.951 334.772 215.546C334.767 215.136 334.429 214.813 334.024 214.818C333.613 214.823 333.29 215.161 333.295 215.566C333.301 215.972 333.639 216.3 334.044 216.295Z" fill="white"/>
<path d="M345.796 210.7C346.206 210.695 346.529 210.361 346.524 209.951C346.519 209.541 346.181 209.218 345.775 209.223C345.37 209.228 345.042 209.567 345.047 209.972C345.053 210.382 345.386 210.705 345.796 210.7Z" fill="white"/>
<path d="M346.084 211.637C346.494 211.632 346.817 211.294 346.812 210.889C346.806 210.478 346.468 210.155 346.063 210.161C345.658 210.166 345.33 210.504 345.335 210.909C345.34 211.314 345.679 211.642 346.084 211.637Z" fill="white"/>
<path d="M336.421 213.363L340.689 208.49L339.141 206.938C339.141 206.938 340.13 201.63 338.188 199.842C336.247 198.054 332.942 200.928 332.153 203.352C331.364 205.78 330.918 209.264 335.739 211.252L336.421 213.368V213.363ZM337.036 206.907C336.359 206.861 335.862 206.118 335.924 205.247C335.985 204.376 336.58 203.71 337.256 203.756C337.932 203.802 338.429 204.545 338.368 205.416C338.306 206.287 337.712 206.953 337.036 206.907ZM334.5 209.776C333.926 209.735 333.5 209.141 333.547 208.449C333.593 207.758 334.1 207.225 334.674 207.266C335.248 207.307 335.673 207.901 335.627 208.593C335.581 209.285 335.073 209.817 334.5 209.776Z" fill="white"/>
<path d="M336.636 207.963L337.666 208.429L336.718 209.511L336.636 207.963Z" fill="#B11E48"/>
<path d="M334.919 183.478C335.119 183.488 335.288 183.334 335.293 183.134C335.304 182.935 335.15 182.765 334.95 182.76C334.75 182.75 334.581 182.904 334.576 183.104C334.565 183.304 334.719 183.473 334.919 183.478Z" fill="white"/>
<path d="M334.55 181.602C334.55 181.572 334.555 181.541 334.566 181.51C334.709 181.479 334.858 181.459 335.012 181.469C335.324 181.484 335.612 181.582 335.858 181.746C335.801 182.064 335.519 182.305 335.186 182.289C334.822 182.274 334.54 181.966 334.555 181.602H334.55Z" fill="white"/>
<path d="M184.295 369.406V363.472V363.045C184.243 360.085 183.312 357.189 181.528 354.435L181.373 354.19L176.473 355.25L177.689 349.923L177.159 349.458C174.431 347.066 170.889 344.907 166.92 343.188L166.687 343.084L163.054 345.877C161.089 345.037 158.995 344.326 156.823 343.744L159.279 340.551L158.659 340.396C154.082 339.219 149.234 338.521 144.231 338.327H143.843L143.417 341.792C140.96 341.701 138.452 341.766 135.97 341.973L135.052 338.521L134.703 338.547C129.739 338.986 124.994 339.917 120.612 341.3L119.966 341.507L122.874 344.571C120.845 345.243 118.88 346.058 117.031 346.989L113.023 344.377L112.803 344.494C112.144 344.83 111.498 345.179 110.877 345.541C107.943 347.234 105.46 349.148 103.482 351.242L103.017 351.733L104.258 356.84L99.9532 356.142L99.811 356.426C98.4277 359.257 97.9106 362.192 98.2725 365.14L98.3242 365.527L98.2725 377.861L98.3242 378.248L99.7721 382.877L100.044 383.394C101.517 386.199 103.806 388.811 106.844 391.15L107.038 391.306L111.847 389.224C112.131 389.444 112.442 389.651 112.752 389.858V394.861L113.398 395.184C117.225 397.071 121.543 398.532 126.236 399.541L126.52 399.605L128.627 396.335C130.838 396.8 133.139 397.123 135.492 397.343V398.726L135.001 400.833L135.492 400.872C137.405 401.014 139.319 401.092 141.219 401.092C144.27 401.092 147.321 400.898 150.32 400.523L150.85 400.459V396.839C152.777 396.541 154.69 396.166 156.539 395.675L159.098 398.843L159.37 398.765C163.895 397.55 167.993 395.882 171.625 393.788L172.246 393.426L173.461 388.19L177.417 389.625L177.611 389.457C180.313 386.975 182.213 384.26 183.286 381.39L183.467 380.886L184.269 376.219V375.792V369.858V369.432L184.295 369.406ZM156.461 371.862C148.058 376.71 134.393 376.71 126.003 371.862C124.839 371.19 123.857 370.453 123.004 369.677C123.857 368.902 124.839 368.165 126.003 367.492C130.204 365.062 135.712 363.86 141.232 363.86C146.752 363.86 152.259 365.075 156.461 367.492C157.625 368.165 158.607 368.902 159.46 369.677C158.607 370.453 157.625 371.19 156.461 371.862Z" fill="#1A1D28"/>
<path d="M177.858 363.084L183.869 363.045C183.817 360.162 182.913 357.344 181.167 354.655L175.531 355.87C174.587 354.409 173.359 353 171.846 351.669L176.862 349.755C174.16 347.39 170.67 345.256 166.74 343.55L163.12 346.342C160.909 345.386 158.556 344.597 156.1 343.964L158.556 340.77C154.019 339.607 149.197 338.909 144.219 338.715L143.793 342.193C141.078 342.089 138.35 342.154 135.661 342.386L134.743 338.935C129.818 339.374 125.099 340.292 120.742 341.675L123.638 344.726C121.298 345.463 119.075 346.381 116.993 347.441L112.986 344.83C112.339 345.166 111.693 345.515 111.072 345.864C108.176 347.532 105.72 349.432 103.768 351.488L109.055 353.155C107.737 354.552 106.715 356.012 105.979 357.512L100.187 356.568C98.8424 359.335 98.3382 362.179 98.6873 365.049L104.686 364.803C104.88 366.368 105.371 367.919 106.16 369.432L100.407 370.44C101.855 373.194 104.104 375.753 107.09 378.055L111.9 375.973C112.934 376.762 114.059 377.524 115.313 378.248C116.011 378.649 116.76 379.024 117.497 379.386L113.58 382.036C117.381 383.911 121.66 385.359 126.327 386.354L128.434 383.083C130.994 383.639 133.644 384.014 136.333 384.221L135.532 387.686C140.457 388.061 145.422 387.957 150.282 387.35L149.003 383.937C151.64 383.601 154.226 383.096 156.708 382.424L159.267 385.591C163.753 384.376 167.826 382.734 171.368 380.692L171.42 380.653L167.166 378.197C169.131 377.059 170.812 375.818 172.234 374.512L177.328 376.361C179.978 373.931 181.852 371.267 182.9 368.449L177.017 367.725C177.586 366.187 177.871 364.609 177.832 363.045L177.858 363.084ZM125.797 354.396C134.329 349.471 148.149 349.471 156.682 354.396C165.214 359.322 165.214 367.298 156.682 372.224C148.149 377.15 134.329 377.15 125.797 372.224C117.265 367.298 117.265 359.322 125.797 354.396Z" fill="#364557"/>
<path d="M88.5768 387.724V383.73V383.445C88.538 381.454 87.9174 379.502 86.7151 377.654L86.6117 377.486L83.3151 378.197L84.1296 374.616L83.7805 374.305C81.9447 372.702 79.566 371.241 76.8899 370.091L76.7348 370.026L74.2914 371.914C72.9728 371.358 71.5636 370.866 70.0898 370.479L71.7446 368.333L71.3309 368.229C68.2541 367.441 64.9833 366.975 61.6221 366.833H61.3635L61.0791 369.16C59.4243 369.108 57.7437 369.147 56.076 369.276L55.4554 366.949L55.2227 366.975C51.8744 367.273 48.6942 367.893 45.7337 368.824L45.3071 368.966L47.2592 371.022C45.8888 371.474 44.5702 372.03 43.3162 372.651L40.6142 370.892L40.472 370.97C40.0325 371.19 39.5929 371.435 39.1792 371.681C37.2013 372.819 35.5336 374.111 34.202 375.521L33.8917 375.857L34.732 379.296L31.8362 378.83L31.7457 379.024C30.8149 380.937 30.4658 382.902 30.7115 384.893L30.7373 385.152L30.7115 393.452L30.7373 393.71L31.7198 396.826L31.9008 397.175C32.8963 399.062 34.4347 400.82 36.4773 402.398L36.6066 402.501L39.8386 401.092C40.0325 401.234 40.2393 401.376 40.4462 401.519V404.893L40.8857 405.113C43.4584 406.379 46.3671 407.362 49.5345 408.047L49.7284 408.086L51.1505 405.888C52.6372 406.198 54.1885 406.418 55.7657 406.56V407.491L55.4296 408.913L55.7657 408.939C57.0456 409.043 58.3384 409.081 59.6182 409.081C61.6738 409.081 63.7293 408.952 65.7461 408.706L66.1081 408.668V406.224C67.4008 406.017 68.6936 405.772 69.9347 405.436L71.6541 407.569L71.8351 407.517C74.8861 406.703 77.6397 405.578 80.0831 404.169L80.5097 403.923L81.3242 400.394L83.9873 401.363L84.1166 401.247C85.9265 399.579 87.2193 397.757 87.9433 395.817L88.0726 395.481L88.6155 392.34V392.055V388.061V387.776L88.5768 387.724ZM69.8313 389.379C64.1818 392.637 54.9771 392.637 49.3276 389.379C48.552 388.927 47.8797 388.436 47.3109 387.905C47.8797 387.375 48.552 386.884 49.3276 386.432C52.1588 384.803 55.8691 383.988 59.5794 383.988C63.2898 383.988 67.0001 384.803 69.8313 386.432C70.607 386.884 71.2792 387.375 71.848 387.905C71.2792 388.436 70.607 388.927 69.8313 389.379Z" fill="#727272"/>
<path d="M84.2459 383.484L88.2923 383.458C88.2535 381.519 87.6459 379.619 86.4695 377.809L82.6687 378.623C82.0352 377.641 81.2078 376.697 80.1865 375.805L83.5607 374.525C81.7378 372.935 79.3979 371.5 76.7477 370.349L74.3043 372.237C72.8176 371.59 71.2275 371.06 69.5856 370.634L71.2404 368.488C68.1894 367.699 64.9445 367.234 61.5962 367.105L61.3117 369.444C59.4889 369.367 57.6532 369.419 55.8433 369.574L55.2227 367.247C51.9002 367.544 48.7329 368.165 45.7983 369.082L47.7504 371.138C46.1732 371.642 44.6736 372.25 43.2773 372.961L40.5754 371.203C40.1359 371.422 39.7092 371.655 39.2955 371.901C37.3434 373.025 35.6887 374.305 34.3829 375.689L37.9381 376.813C37.0461 377.757 36.3609 378.74 35.8696 379.748L31.9784 379.115C31.0734 380.976 30.7244 382.889 30.97 384.829L35.0164 384.661C35.1457 385.708 35.4818 386.755 36.0119 387.776L32.1335 388.448C33.1031 390.297 34.6156 392.029 36.6324 393.568L39.8644 392.159C40.5625 392.689 41.3252 393.206 42.1526 393.684C42.631 393.956 43.1222 394.201 43.6264 394.447L40.9891 396.231C43.5488 397.485 46.4317 398.468 49.5732 399.14L50.9953 396.942C52.7276 397.317 54.4987 397.563 56.3086 397.705L55.7657 400.032C59.0882 400.29 62.4236 400.213 65.6943 399.799L64.8281 397.511C66.6122 397.291 68.3445 396.942 70.0122 396.49L71.7317 398.623C74.7568 397.808 77.4975 396.696 79.8762 395.326L79.915 395.3L77.0579 393.645C78.3766 392.883 79.5142 392.042 80.4709 391.163L83.8968 392.404C85.6808 390.763 86.9349 388.978 87.6459 387.078L83.69 386.587C84.0778 385.553 84.2588 384.493 84.2459 383.432V383.484ZM49.1983 377.628C54.9383 374.318 64.2464 374.318 69.9864 377.628C75.7264 380.937 75.7264 386.315 69.9864 389.625C64.2464 392.934 54.9383 392.934 49.1983 389.625C43.4583 386.315 43.4583 380.937 49.1983 377.628Z" fill="#F2F2F2"/>
<path d="M116.487 414.033C111.445 411.124 103.262 411.124 98.22 414.033C95.6991 415.494 94.4321 417.394 94.4321 419.307V423.923C94.4321 425.836 95.6991 427.736 98.22 429.197C103.262 432.106 111.445 432.106 116.487 429.197C119.008 427.736 120.275 425.836 120.275 423.923V419.307C120.275 417.394 119.008 415.494 116.487 414.033Z" fill="#327769"/>
<path d="M116.488 424.582C111.446 427.491 103.262 427.491 98.2204 424.582C93.1785 421.673 93.1785 416.942 98.2204 414.033C103.262 411.124 111.446 411.124 116.488 414.033C121.529 416.942 121.529 421.673 116.488 424.582Z" fill="#3E9281"/>
<path d="M404.68 432.771V434.943C404.835 436.094 404.228 437.218 402.806 438.033L367.564 458.381C364.759 459.997 359.859 459.803 356.614 457.929L341.411 449.151C339.381 447.974 338.489 446.423 338.787 445.04V443.282C338.541 442.066 339.136 440.877 340.623 440.024L375.864 419.675C378.669 418.059 383.569 418.253 386.814 420.128L402.017 428.906C403.62 429.836 404.512 430.987 404.667 432.125C404.693 432.345 404.693 432.551 404.667 432.771H404.68Z" fill="#327769"/>
<path d="M375.877 422.493L340.636 442.842C337.83 444.458 338.179 447.289 341.424 449.163L356.628 457.941C359.872 459.816 364.772 460.01 367.578 458.394L402.819 438.045C405.624 436.429 405.275 433.598 402.03 431.724L386.827 422.946C383.582 421.071 378.683 420.877 375.877 422.493Z" fill="#439E8B"/>
<path d="M371.727 440.437L338.8 445.285C338.981 444.303 339.718 443.359 341.011 442.609L375.502 422.7C376.795 421.95 378.437 421.524 380.13 421.42L371.727 440.424V440.437Z" fill="#3E9281"/>
<path d="M366.362 437.347L404.681 435.279C404.603 436.365 403.866 437.438 402.431 438.252L367.939 458.161C366.504 458.989 364.656 459.415 362.781 459.454L366.362 437.334V437.347Z" fill="#3E9281"/>
<path d="M298.471 497.765C288.93 503.273 273.468 503.273 263.927 497.765C259.157 495.012 256.778 491.405 256.778 487.798V479.085C256.778 475.478 259.157 471.871 263.927 469.117C273.468 463.61 288.93 463.61 298.471 469.117C303.241 471.871 305.62 475.478 305.62 479.085V487.798C305.62 491.405 303.241 495.012 298.471 497.765Z" fill="#232E3A"/>
<path d="M298.47 477.818C288.93 472.31 273.468 472.31 263.927 477.818C254.386 483.325 254.386 492.258 263.927 497.765C273.468 503.273 288.93 503.273 298.47 497.765C308.011 492.258 308.011 483.325 298.47 477.818Z" fill="#364557"/>
<path d="M464.534 433.181C460.888 435.288 454.993 435.288 451.347 433.181C449.525 432.134 448.62 430.75 448.62 429.38V426.057C448.62 424.674 449.525 423.304 451.347 422.257C454.993 420.149 460.888 420.149 464.534 422.257C466.357 423.304 467.262 424.687 467.262 426.057V429.38C467.262 430.763 466.357 432.134 464.534 433.181Z" fill="#232E3A"/>
<path d="M464.534 425.566C460.888 423.459 454.993 423.459 451.348 425.566C447.702 427.673 447.702 431.074 451.348 433.181C454.993 435.288 460.888 435.288 464.534 433.181C468.18 431.074 468.18 427.673 464.534 425.566Z" fill="#364557"/>
<path d="M410.595 471.25C405.76 468.458 397.925 468.458 393.103 471.25C388.268 474.043 388.268 478.567 393.103 481.347C397.938 484.139 405.773 484.139 410.595 481.347C415.43 478.554 415.43 474.03 410.595 471.25Z" fill="#364557"/>
<path d="M358.631 389.695C350.06 384.744 336.175 384.744 327.604 389.695C319.033 394.647 319.033 402.662 327.604 407.613C336.175 412.565 350.06 412.565 358.631 407.613C367.202 402.662 367.202 394.647 358.631 389.695Z" fill="#3E9281"/>
</svg>
