<svg width="40" height="40" viewBox="0 0 40 40" fill="none" xmlns="http://www.w3.org/2000/svg">
<path d="M20.9614 29.9921H19.0392C18.0685 29.9921 17.2785 29.2079 17.2785 28.2443V27.4314C17.2785 27.2929 17.185 27.165 17.0407 27.105C16.8842 27.0421 16.7299 27.0657 16.6328 27.1614L16.0507 27.7393C15.3635 28.42 14.2464 28.42 13.5599 27.7393L12.2007 26.39C11.5142 25.7093 11.5142 24.6 12.2007 23.9193L12.7828 23.3414C12.8799 23.245 12.905 23.0921 12.8464 22.9514C12.7807 22.7936 12.6521 22.7007 12.5114 22.7007H11.6921C10.7207 22.7007 9.93066 21.9164 9.93066 20.9529V19.045C9.93066 18.0814 10.7207 17.2978 11.6921 17.2978H12.5114C12.6514 17.2978 12.7807 17.205 12.8407 17.0607C12.9049 16.9064 12.8799 16.7529 12.7828 16.6564L12.2007 16.0786C11.5142 15.3971 11.5142 14.2878 12.2007 13.6071L13.5599 12.2586C14.2249 11.5978 15.385 11.5978 16.0507 12.2586L16.6328 12.8364C16.7299 12.9329 16.885 12.9578 17.0264 12.8993C17.1857 12.8343 17.2792 12.7064 17.2792 12.5671V11.7536C17.2792 10.79 18.0692 10.0057 19.04 10.0057H20.9621C21.9328 10.0057 22.7235 10.7893 22.7235 11.7536V12.5671C22.7235 12.7064 22.8171 12.8343 22.9614 12.8936C23.1178 12.9579 23.2721 12.9329 23.3692 12.8364L23.9514 12.2586C24.6157 11.5978 25.7771 11.5978 26.4414 12.2586L27.8007 13.6071C28.4871 14.2878 28.4871 15.3971 27.8007 16.0786L27.2185 16.6564C27.1214 16.7521 27.0964 16.9057 27.1557 17.0471C27.2214 17.205 27.35 17.2978 27.49 17.2978H28.3092C29.2799 17.2978 30.0707 18.0814 30.0707 19.045V20.9529C30.0707 21.9164 29.2807 22.7007 28.3092 22.7007H27.49C27.35 22.7007 27.2207 22.7936 27.1614 22.9364C27.0957 23.0943 27.1199 23.2436 27.2185 23.3414L27.8007 23.9193C28.4878 24.6 28.4878 25.7093 27.8007 26.39L26.4414 27.7393C25.755 28.42 24.6378 28.42 23.9514 27.7393L23.3692 27.1614C23.2707 27.0636 23.1214 27.0393 22.9764 27.0993L22.9614 27.105C22.8092 27.1757 22.7235 27.2979 22.7235 27.4314V28.2443C22.7221 29.2079 21.9321 29.9921 20.9614 29.9921ZM16.8692 25.6679C17.1021 25.6679 17.3378 25.7129 17.5635 25.805C18.2521 26.085 18.6892 26.7221 18.6892 27.4314V28.2443C18.6892 28.4357 18.8457 28.5914 19.0392 28.5914H20.9614C21.1542 28.5914 21.3114 28.4357 21.3114 28.2443V27.4314C21.3114 26.7221 21.7485 26.0857 22.4242 25.81L22.4642 25.7936C23.1285 25.535 23.8721 25.68 24.3657 26.1714L24.9478 26.7493C25.0842 26.885 25.3064 26.885 25.4428 26.7493L26.8021 25.4C26.9385 25.2643 26.9385 25.0443 26.8021 24.9093L26.2199 24.3314C25.7285 23.8436 25.58 23.1136 25.8335 22.4586L25.8621 22.39C26.1335 21.7336 26.775 21.3 27.4892 21.3H28.3085C28.5014 21.3 28.6585 21.1443 28.6585 20.9529V19.045C28.6585 18.8536 28.5014 18.6979 28.3085 18.6979H27.4892C26.7742 18.6979 26.1328 18.2643 25.8557 17.5928C25.5735 16.9157 25.7185 16.1643 26.2199 15.6664L26.8021 15.0886C26.9385 14.9529 26.9385 14.7329 26.8021 14.5971L25.4428 13.2486C25.3535 13.16 25.2492 13.1464 25.1957 13.1464C25.1421 13.1464 25.0378 13.16 24.9485 13.2486L24.3664 13.8264C23.8649 14.3243 23.1085 14.4693 22.4371 14.1936C21.7485 13.9128 21.3121 13.2764 21.3121 12.5671V11.7536C21.3121 11.5621 21.155 11.4064 20.9621 11.4064H19.04C18.8471 11.4064 18.6899 11.5621 18.6899 11.7536V12.5671C18.6899 13.2771 18.2528 13.9136 17.5764 14.1893C16.895 14.4678 16.1364 14.325 15.6357 13.8271L15.0535 13.2493C14.9642 13.1607 14.86 13.1471 14.8057 13.1471C14.7514 13.1471 14.6478 13.1607 14.5585 13.2493L13.1992 14.5978C13.0628 14.7336 13.0628 14.9536 13.1992 15.0893L13.7814 15.6671C14.2828 16.165 14.4285 16.9164 14.1514 17.5814C13.8685 18.265 13.2271 18.6986 12.5121 18.6986H11.6928C11.5 18.6986 11.3428 18.8543 11.3428 19.0457V20.9536C11.3428 21.145 11.5 21.3007 11.6928 21.3007H12.5121C13.2271 21.3007 13.8685 21.7343 14.1464 22.405C14.4285 23.0829 14.2828 23.8343 13.7814 24.3321L13.1992 24.91C13.0628 25.0457 13.0628 25.2657 13.1992 25.4007L14.5585 26.75C14.695 26.8857 14.9171 26.8857 15.0535 26.75L15.6357 26.1721C15.9671 25.8421 16.4121 25.6679 16.8692 25.6679Z" fill="black"/>
<path d="M20 23.8936C17.8371 23.8936 16.0771 22.1471 16.0771 20C16.0771 17.8536 17.8371 16.1071 20 16.1071C22.1636 16.1071 23.9229 17.8536 23.9229 20C23.9229 22.1471 22.1636 23.8936 20 23.8936ZM20 17.5071C18.615 17.5071 17.4886 18.6257 17.4886 20C17.4886 21.3743 18.6157 22.4929 20 22.4929C21.3843 22.4929 22.5121 21.3743 22.5121 20C22.5121 18.6257 21.385 17.5071 20 17.5071Z" fill="black"/>
<path d="M5.23447 18.2479C5.20089 18.2479 5.16661 18.2457 5.13232 18.2407C4.74661 18.185 4.47947 17.83 4.53518 17.4479C5.46089 11.0993 10.3252 5.90929 16.6409 4.53286C17.0188 4.44786 17.3973 4.68857 17.4809 5.06643C17.5645 5.44357 17.3238 5.81786 16.943 5.9C11.1988 7.15214 6.77375 11.8729 5.93161 17.6479C5.88089 17.9964 5.57947 18.2479 5.23447 18.2479Z" fill="black"/>
<path d="M16.7929 34.86C16.7429 34.86 16.6922 34.8543 16.6408 34.8436C10.1922 33.4386 5.31149 28.1271 4.49434 21.6271C4.44577 21.2436 4.72006 20.8936 5.1072 20.8457C5.4972 20.8021 5.84649 21.07 5.89506 21.4536C6.63863 27.3664 11.0786 32.1986 16.9443 33.4764C17.3251 33.5593 17.5658 33.9321 17.4822 34.3107C17.4086 34.6371 17.1172 34.86 16.7929 34.86Z" fill="black"/>
<path d="M22.6093 34.9807C22.2728 34.9807 21.9757 34.7414 21.915 34.4014C21.8478 34.0207 22.1043 33.6579 22.4885 33.5907C28.575 32.5293 33.36 27.5379 34.125 21.4529C34.1735 21.0693 34.5221 20.7986 34.9128 20.845C35.2993 20.8929 35.5735 21.2429 35.5257 21.6264C34.685 28.3164 29.4243 33.8036 22.7328 34.9707C22.6907 34.9771 22.65 34.9807 22.6093 34.9807Z" fill="black"/>
<path d="M34.7845 18.2479C34.4395 18.2479 34.1374 17.9964 34.0874 17.6479C33.206 11.6086 28.5453 6.84071 22.4888 5.78428C22.1053 5.71714 21.8488 5.35428 21.9153 4.97356C21.9831 4.59214 22.3503 4.33785 22.7324 4.40499C29.391 5.56571 34.5153 10.8071 35.4831 17.4471C35.5388 17.83 35.2717 18.185 34.8867 18.24C34.8524 18.2457 34.8188 18.2479 34.7845 18.2479Z" fill="black"/>
<path d="M16.0808 8.58214C16.0008 8.58214 15.9201 8.56857 15.8408 8.54C15.4744 8.40786 15.2851 8.00643 15.4172 7.64286L16.3308 5.14285L13.7508 4.21571C13.3844 4.08357 13.1951 3.68214 13.3272 3.31928C13.4601 2.95571 13.8658 2.76786 14.2308 2.89928L17.4744 4.065C17.6501 4.12857 17.7937 4.25857 17.8737 4.42643C17.953 4.59428 17.9615 4.78714 17.898 4.96143L16.7451 8.12C16.6408 8.40571 16.3701 8.58214 16.0808 8.58214Z" fill="black"/>
<path d="M35.0843 18.5779C34.9657 18.5779 34.8457 18.5486 34.7357 18.4857L31.795 16.8214C31.4557 16.63 31.3378 16.2021 31.5321 15.8664C31.7235 15.53 32.155 15.4129 32.4943 15.605L34.8221 16.9229L36.1821 14.5571C36.3735 14.2214 36.805 14.1036 37.1443 14.2957C37.4835 14.4879 37.6014 14.915 37.4071 15.2507L35.6978 18.2243C35.5678 18.4507 35.3293 18.5779 35.0843 18.5779Z" fill="black"/>
<path d="M24.7415 37.1429C24.5815 37.1429 24.4208 37.0893 24.2886 36.9793L21.6451 34.78C21.5015 34.66 21.4122 34.4893 21.3958 34.305C21.3794 34.12 21.4379 33.9357 21.5579 33.7936L23.7336 31.2193C23.9844 30.9236 24.4286 30.885 24.7279 31.1321C25.0265 31.3807 25.0658 31.8229 24.8158 32.1186L23.0936 34.1564L25.1965 35.9064C25.4951 36.155 25.5344 36.5971 25.2844 36.8929C25.1436 37.0571 24.9436 37.1429 24.7415 37.1429Z" fill="black"/>
<path d="M3.20514 24.74C3.06086 24.74 2.91586 24.6964 2.79086 24.6057C2.47586 24.3779 2.40657 23.9407 2.63514 23.6271L4.66515 20.8593C4.89443 20.5471 5.33514 20.4771 5.65086 20.7057L8.388 22.6821C8.703 22.91 8.77229 23.3471 8.54372 23.6607C8.31443 23.9729 7.873 24.0414 7.558 23.8143L5.39086 22.2493L3.77586 24.4514C3.638 24.64 3.423 24.74 3.20514 24.74Z" fill="black"/>
</svg>
