<svg width="44" height="40" viewBox="0 0 44 40" fill="none" xmlns="http://www.w3.org/2000/svg">
<path d="M11.867 37.1714C11.867 37.5587 11.553 37.8727 11.1658 37.8727H0.701225C0.313974 37.8727 0 37.5587 0 37.1714C0 36.7842 0.313974 36.4702 0.701225 36.4702H11.1658C11.553 36.4702 11.867 36.7841 11.867 37.1714ZM43.2064 36.6188L40.4824 34.4916C40.1771 34.2532 39.7365 34.3075 39.4981 34.6127C39.2598 34.9179 39.3139 35.3586 39.6192 35.5969L40.7375 36.4702H21.3094C11.6411 36.4702 3.77549 28.6045 3.77549 18.9362C3.77549 17.1647 4.04055 15.454 4.53141 13.8409L7.25102 12.3984C7.59304 12.2169 7.72338 11.7924 7.54185 11.4503C7.36041 11.1082 6.93599 10.978 6.5938 11.1594L5.26717 11.8631C7.9916 5.70789 14.1567 1.40219 21.3094 1.40219C30.9778 1.40219 38.8435 9.26792 38.8435 18.9362C38.8435 20.6927 38.5878 22.4024 38.1014 24.0242L35.3679 25.4741C35.0259 25.6556 34.8955 26.0801 35.077 26.4222C35.2584 26.7644 35.6827 26.8944 36.0251 26.7131L37.3769 25.9961C35.9559 29.2429 33.5521 32.022 30.3836 33.9423C30.0524 34.143 29.9466 34.5742 30.1473 34.9054C30.3481 35.2366 30.7791 35.3425 31.1105 35.1416C33.8461 33.4837 36.1355 31.1427 37.731 28.3718C38.02 27.8699 38.2845 27.3552 38.5252 26.8302L38.8062 27.9508C38.886 28.2692 39.1718 28.4817 39.4858 28.4817C39.5423 28.4817 39.5997 28.4747 39.6568 28.4605C40.0325 28.3662 40.2607 27.9854 40.1665 27.6098L39.3979 24.5446C39.9568 22.7375 40.2458 20.8459 40.2458 18.9364C40.2458 13.8783 38.276 9.12294 34.6994 5.54634C31.1228 1.96974 26.3674 0 21.3093 0C16.2512 0 11.4961 1.96948 7.91946 5.54617C6.3041 7.16144 5.01788 9.01776 4.09147 11.0333L3.81274 9.92172C3.71851 9.54604 3.33739 9.31779 2.96206 9.41211C2.58638 9.50634 2.35822 9.88719 2.45245 10.2629L3.21792 13.3157C2.66211 15.1124 2.37312 17.0021 2.37312 18.9363C2.37312 23.9944 4.34286 28.7498 7.91946 32.3264C11.4961 35.903 16.2515 37.8727 21.3095 37.8727H40.7375L39.6191 38.746C39.3139 38.9844 39.2597 39.4251 39.498 39.7303C39.6363 39.9073 39.8427 40 40.0513 40C40.2022 40 40.3542 39.9514 40.4824 39.8514L43.2064 37.7242C43.3765 37.5913 43.476 37.3874 43.476 37.1715C43.476 36.9556 43.3765 36.7517 43.2064 36.6188ZM25.0876 26.7892C25.0876 26.8779 25.0704 26.9624 25.0403 27.0405C25.0597 27.2323 25.0706 27.4257 25.0706 27.6193C25.0706 29.4585 23.8536 31.0639 22.7799 32.4803C22.4549 32.909 22.1479 33.314 21.8952 33.6982C21.7656 33.8953 21.5454 34.0141 21.3094 34.0141C21.0733 34.0141 20.8532 33.8954 20.7235 33.6982C20.4708 33.314 20.1637 32.909 19.8387 32.4801C18.7651 31.0638 17.5483 29.4584 17.5483 27.6192C17.5483 27.4256 17.5592 27.2322 17.5785 27.0404C17.5484 26.9623 17.5312 26.8778 17.5312 26.7891V25.0983H16.6729L14.1112 27.7591C13.977 27.8985 13.7937 27.974 13.606 27.974C13.5364 27.974 13.4662 27.9636 13.3976 27.9423C13.1443 27.8635 12.9572 27.6484 12.9141 27.3865L11.6121 19.4663C11.5659 19.1852 11.6943 18.9041 11.937 18.755L14.5888 17.1261C14.5836 16.0553 14.6573 15.0287 14.8113 14.041C15.4513 9.93724 17.4953 6.55882 20.8867 3.99961C21.1367 3.81098 21.4814 3.81098 21.7314 3.99961C25.1227 6.55874 27.1669 9.93715 27.8068 14.041C27.9608 15.0287 28.0345 16.0553 28.0293 17.1259L30.6813 18.755C30.924 18.9041 31.0524 19.1852 31.0062 19.4663L29.7042 27.3865C29.6612 27.6484 29.474 27.8635 29.2207 27.9423C29.1521 27.9636 29.0819 27.974 29.0123 27.974C28.8246 27.974 28.6414 27.8986 28.5071 27.7591L25.9454 25.0983H25.087V26.7892H25.0876ZM27.9636 18.7314C27.8363 20.4327 27.5225 22.2458 27.0208 24.193L28.5476 25.7788L29.5463 19.7036L27.9636 18.7314ZM16.4394 21.5213H26.1794C27.4908 14.4145 25.8867 9.13399 21.3094 5.44843C16.7321 9.13399 15.1281 14.4145 16.4394 21.5213ZM15.5981 24.1932C15.0963 22.2459 14.7825 20.4328 14.6553 18.7316L13.0727 19.7036L14.0714 25.7788L15.5981 24.1932ZM16.9168 23.696H25.7021C25.7678 23.4364 25.8299 23.1789 25.8886 22.9237H16.7303C16.789 23.1789 16.8511 23.4364 16.9168 23.696ZM18.934 25.0984V26.088H23.6851V25.0984H18.934ZM23.6682 27.6193C23.6682 27.5763 23.6668 27.5334 23.6656 27.4904H18.9536C18.9523 27.5334 18.951 27.5763 18.951 27.6193C18.951 28.9871 19.9706 30.3322 20.9566 31.6332C21.077 31.792 21.1951 31.9476 21.3095 32.1012C21.4241 31.9477 21.5421 31.792 21.6623 31.6332C22.6485 30.3323 23.6682 28.9871 23.6682 27.6193ZM17.9786 13.5058C17.9786 11.6692 19.4729 10.175 21.3094 10.175C23.146 10.175 24.6403 11.6692 24.6403 13.5058C24.6403 15.3424 23.146 16.8366 21.3094 16.8366C19.4729 16.8366 17.9786 15.3424 17.9786 13.5058ZM19.3811 13.5058C19.3811 14.5691 20.2461 15.4341 21.3094 15.4341C22.3728 15.4341 23.2378 14.5691 23.2378 13.5058C23.2378 12.4425 22.3728 11.5774 21.3094 11.5774C20.2461 11.5774 19.3811 12.4425 19.3811 13.5058Z" fill="#202020"/>
</svg>
