<svg width="40" height="40" viewBox="0 0 40 40" fill="none" xmlns="http://www.w3.org/2000/svg">
<g clip-path="url(#clip0_2638_5057)">
<path d="M19.9304 5.08281C20.3649 5.08281 20.7171 4.73055 20.7171 4.29602V0.786797C20.7171 0.352266 20.3649 0 19.9304 0C19.4958 0 19.1436 0.352266 19.1436 0.786797V4.29602C19.1436 4.73055 19.4959 5.08281 19.9304 5.08281Z" fill="#202020"/>
<path d="M39.1625 27.0303L37.7726 25.6443C37.2781 25.1505 36.6191 24.8784 35.9169 24.8784C35.4679 24.8784 35.0369 24.9901 34.655 25.1994L32.0358 22.5833L32.1633 22.4559C33.2259 21.3912 33.2255 19.6612 32.1633 18.6001C31.7837 18.2198 31.31 17.9662 30.7937 17.8594C30.8647 17.6141 30.9022 17.357 30.9022 17.094C30.9022 16.3631 30.6183 15.6778 30.1044 15.166C29.7247 14.7857 29.2511 14.5321 28.7347 14.4254C28.8058 14.18 28.8433 13.923 28.8433 13.6599C28.8433 12.929 28.5594 12.2437 28.0446 11.7312C27.6558 11.3429 27.1779 11.0971 26.6762 10.9925C26.9446 10.0669 26.7152 9.02561 25.9871 8.29624C25.381 7.69272 24.5586 7.43335 23.766 7.51741L18.5758 6.53499C17.7842 6.38483 16.7957 6.28554 16.1717 6.85468C16.1323 6.89061 16.0922 6.93194 16.0526 6.97796C15.0851 6.6253 13.9567 6.8353 13.1819 7.60921C12.6679 8.12257 12.3848 8.80757 12.3848 9.53804C12.3848 9.80116 12.4221 10.0581 12.4931 10.3036C11.9773 10.4102 11.5043 10.6635 11.1259 11.0426C10.6109 11.5555 10.3269 12.2397 10.3264 12.9693C10.3262 13.233 10.3636 13.4908 10.435 13.7369C9.91896 13.8433 9.44561 14.0962 9.06607 14.4752C8.55107 14.9897 8.26748 15.6751 8.26748 16.4051C8.26748 16.9644 8.43443 17.4971 8.74381 17.9471C8.35318 18.0795 7.99537 18.2999 7.69576 18.5992C6.63248 19.6612 6.63209 21.3913 7.69647 22.4576L7.82357 22.5841L5.20404 25.1989C4.23053 24.7405 3.03107 24.9123 2.22771 25.7146L0.836934 27.1015C0.342246 27.5955 0.0699023 28.2546 0.0698242 28.9572C0.0698242 29.6598 0.342246 30.319 0.836934 30.8131L2.57264 32.5467C2.88006 32.8538 3.37826 32.8535 3.68529 32.5461C3.9924 32.2387 3.99209 31.7405 3.68467 31.4334L1.94896 29.6998C1.75193 29.503 1.64342 29.2393 1.64342 28.9573C1.64342 28.6753 1.75193 28.4116 1.9485 28.2153L3.33936 26.8283C3.68686 26.4812 4.21873 26.4295 4.62264 26.671C4.65107 26.7137 4.68396 26.7544 4.72162 26.7921C4.78904 26.8597 4.866 26.9115 4.94771 26.9494L12.9237 34.9137C12.9616 34.9962 13.0137 35.074 13.0815 35.1419C13.1476 35.2081 13.223 35.2593 13.303 35.2969C13.4717 35.4876 13.5649 35.7312 13.5649 35.9911C13.5649 36.2731 13.4564 36.5368 13.2594 36.7336L11.8699 38.1214C11.4594 38.5301 10.7915 38.5301 10.3822 38.1226L8.64654 36.3868C8.33928 36.0795 7.84115 36.0795 7.53389 36.3868C7.22662 36.6941 7.22662 37.1922 7.53389 37.4994L9.27084 39.2366C9.78209 39.7457 10.4535 40.0001 11.1252 40.0001C11.7971 40.0001 12.4693 39.7453 12.9812 39.2357L14.3715 37.847C14.8662 37.3529 15.1386 36.6938 15.1386 35.9911C15.1386 35.4896 14.9991 35.0107 14.7398 34.5977L17.688 31.6532C17.6911 31.65 17.6942 31.6468 17.6974 31.6436C18.035 31.2946 18.9751 31.3599 19.8842 31.423C20.5301 31.468 21.2503 31.5179 21.9539 31.4368L25.1823 34.6614C24.9732 35.0427 24.8615 35.4732 24.8615 35.9215C24.8615 36.6234 25.134 37.2821 25.6287 37.7762L27.019 39.1649C27.5134 39.6587 28.1724 39.9308 28.8746 39.9308C29.5767 39.9308 30.2357 39.6588 30.7301 39.1649L39.163 30.7423C39.6577 30.2482 39.9301 29.5891 39.9301 28.8865C39.9301 28.1839 39.6576 27.5248 39.1625 27.0303ZM18.2828 8.08108L21.6958 8.7271L19.653 10.7692C19.3369 10.6173 18.9038 10.3341 18.4287 9.87952C17.7783 9.25733 17.313 8.53897 17.2707 8.09093C17.2706 8.09069 17.2706 8.09046 17.2706 8.09022C17.2706 8.09015 17.2705 8.09007 17.2705 8.08999C17.2675 8.0578 17.2667 8.0321 17.2671 8.01249C17.37 7.98749 17.6433 7.95976 18.2828 8.08108ZM14.2939 8.72257C14.6925 8.32437 15.3117 8.27843 15.7621 8.58343C16.0173 9.65358 16.9302 10.6235 17.3409 11.0165C17.6453 11.3077 18.6219 12.1809 19.6077 12.4209C19.7411 12.6121 19.8137 12.84 19.8137 13.0805C19.8137 13.3902 19.6945 13.6798 19.4774 13.8967C19.2609 14.1136 18.9708 14.233 18.6605 14.233C18.3501 14.233 18.0601 14.1136 17.8426 13.8957L17.8425 13.8956L17.8421 13.8952L14.2938 10.3533C14.0775 10.1373 13.9583 9.84772 13.9583 9.53804C13.9584 9.22827 14.0776 8.93866 14.2939 8.72257ZM12.2379 12.1559C12.4544 11.9391 12.7442 11.8197 13.054 11.8197C13.3643 11.8197 13.655 11.9394 13.8729 12.157L16.7301 15.0085C17.18 15.4591 17.18 16.1924 16.7316 16.6415C16.514 16.8583 16.2229 16.9776 15.912 16.9776C15.6012 16.9776 15.3101 16.8583 15.0933 16.6424L15.0933 16.6423L12.9257 14.4752C12.9223 14.4719 12.9187 14.4687 12.9152 14.4653L12.2371 13.7875C12.0195 13.5701 11.8997 13.28 11.9 12.9705C11.9003 12.6619 12.0197 12.3733 12.2379 12.1559ZM10.1781 15.5886C10.3947 15.3723 10.6851 15.2531 10.9959 15.2531C11.3041 15.2531 11.592 15.3705 11.8077 15.5831L13.9819 17.7563C14.1987 17.9723 14.3182 18.2616 14.3182 18.5709C14.3182 18.8802 14.1987 19.1695 13.9811 19.3863C13.7645 19.6026 13.4744 19.7217 13.1642 19.7217C12.8535 19.7217 12.5625 19.6023 12.3456 19.3863L11.5574 18.5991C11.5572 18.5988 11.557 18.5987 11.5569 18.5985L10.1782 17.2215C9.96084 17.0044 9.84115 16.7144 9.84115 16.405C9.84115 16.0957 9.96084 15.8056 10.1781 15.5886ZM8.80779 19.7125C9.02537 19.4951 9.31615 19.3755 9.62654 19.3755C9.93686 19.3755 10.2276 19.4951 10.4451 19.7123L11.2344 20.5006C11.4512 20.7166 11.5706 21.0058 11.5706 21.3152C11.5706 21.6246 11.4512 21.9138 11.2327 22.1315C11.0162 22.3483 10.7262 22.4677 10.4158 22.4677C10.1054 22.4677 9.81537 22.3483 9.59732 22.1299L9.4985 22.0315C9.49717 22.0301 9.49615 22.0287 9.4949 22.0275C9.49342 22.0261 9.49186 22.0248 9.49037 22.0234L8.80857 21.3443C8.35865 20.8934 8.35826 20.1615 8.80779 19.7125ZM24.8417 28.6545C24.5346 28.347 24.0364 28.3468 23.729 28.6538L23.029 29.353C22.3639 30.0181 21.1587 29.9344 19.9931 29.8535C18.7274 29.7655 17.4186 29.6748 16.5716 30.5443L13.6736 33.4388L6.42647 26.2023L8.99115 23.6423C9.41506 23.9021 9.9042 24.0414 10.416 24.0414C11.1472 24.0414 11.8328 23.758 12.3449 23.2449C12.8604 22.7315 13.1444 22.0462 13.1444 21.3153C13.1444 21.3085 13.144 21.3018 13.144 21.295C13.1508 21.2951 13.1576 21.2955 13.1644 21.2955C13.8945 21.2955 14.5796 21.0129 15.0924 20.5007C15.6079 19.9873 15.8919 19.3019 15.8919 18.5711C15.8919 18.5643 15.8915 18.5576 15.8915 18.5508C15.8983 18.5508 15.9052 18.5512 15.9122 18.5512C16.6421 18.5512 17.3276 18.269 17.8438 17.7548C18.3797 17.218 18.6448 16.5113 18.6397 15.8061C18.6468 15.8062 18.6538 15.8066 18.6608 15.8066C19.392 15.8065 20.0776 15.5231 20.5905 15.0093C21.1044 14.4959 21.3876 13.8109 21.3876 13.0805C21.3876 12.5696 21.2487 12.0812 20.9897 11.6582L23.2376 9.41124C23.4051 9.24444 23.6116 9.13976 23.8281 9.09655C23.8515 9.09405 23.8747 9.0903 23.8976 9.08577C24.2449 9.03788 24.6097 9.14507 24.8753 9.4096C25.3252 9.8603 25.3252 10.5936 24.8769 11.0426L24.1923 11.7244C24.1901 11.7267 24.1876 11.7287 24.1854 11.731L23.3969 12.5182C23.0894 12.8252 23.089 13.3234 23.3962 13.6308C23.7033 13.9383 24.2015 13.9386 24.5088 13.6316L25.1961 12.9451C25.1963 12.945 25.1965 12.9448 25.1966 12.9447L25.3005 12.8412C25.7517 12.3941 26.4826 12.3951 26.9333 12.8451C27.1502 13.0611 27.2697 13.3504 27.2697 13.6598C27.2697 13.9691 27.1502 14.2583 26.9316 14.476L26.2431 15.1659C26.243 15.166 26.2429 15.1661 26.2429 15.1662L25.4544 15.9515C25.1465 16.2581 25.1455 16.7563 25.4522 17.0641C25.7588 17.372 26.2569 17.373 26.5648 17.0664L27.3569 16.2776C27.5733 16.0607 27.8634 15.9413 28.1737 15.9413C28.4841 15.9413 28.7743 16.0607 28.9923 16.2791C29.2092 16.4951 29.3286 16.7844 29.3286 17.0938C29.3286 17.4031 29.2092 17.6924 28.9911 17.9096L27.6184 19.2828C27.3112 19.5901 27.3113 20.0883 27.6186 20.3955C27.7722 20.5491 27.9735 20.6258 28.1748 20.6258C28.3762 20.6258 28.5776 20.5489 28.7312 20.3952L29.404 19.7223C29.4078 19.7186 29.4119 19.7154 29.4158 19.7116C29.6322 19.4947 29.9223 19.3753 30.2326 19.3753C30.543 19.3753 30.8331 19.4947 31.0504 19.7123C31.4998 20.1613 31.4994 20.8933 31.0504 21.3432L30.3664 22.0264C30.3662 22.0266 30.3658 22.0269 30.3656 22.0271C30.3654 22.0273 30.3651 22.0276 30.3649 22.0279L29.2793 23.1122C28.9719 23.4193 28.9715 23.9175 29.2786 24.2249C29.4322 24.3787 29.6338 24.4557 29.8353 24.4557C30.0365 24.4557 30.2377 24.379 30.3913 24.2256L30.9223 23.6952L33.4674 26.2373L26.2209 33.475L23.6245 30.8817C23.8055 30.7653 23.9787 30.6284 24.1413 30.4658L24.8409 29.7671C25.1485 29.4601 25.1488 28.9619 24.8417 28.6545ZM38.0509 29.6289L29.618 38.0516C29.4208 38.2486 29.1567 38.3571 28.8745 38.3571C28.5923 38.3571 28.3283 38.2486 28.1309 38.0515L26.7405 36.6628C26.5435 36.4661 26.435 36.2028 26.435 35.9215C26.435 35.6402 26.5435 35.3769 26.7405 35.1801L35.1734 26.7575C35.3708 26.5604 35.6347 26.4519 35.917 26.4519C36.1992 26.4519 36.4633 26.5604 36.6611 26.758L38.051 28.144C38.248 28.3408 38.3565 28.6044 38.3565 28.8864C38.3565 29.1685 38.2479 29.4322 38.0509 29.6289Z" fill="#202020"/>
<path d="M9.48255 4.41944C9.63614 4.57272 9.83724 4.64929 10.0383 4.64929C10.2399 4.64929 10.4415 4.57226 10.5952 4.41827C10.9022 4.11069 10.9017 3.61257 10.5941 3.30562L7.72708 0.444287C7.41958 0.137334 6.92138 0.137725 6.61442 0.445381C6.30747 0.752959 6.30794 1.25108 6.61552 1.55804L9.48255 4.41944Z" fill="#202020"/>
<path d="M29.8219 4.64926C30.0231 4.64926 30.2244 4.57254 30.3779 4.41918L33.2428 1.55777C33.5502 1.25074 33.5505 0.752539 33.2434 0.445117C32.9364 0.137695 32.4383 0.137383 32.1308 0.444492L29.2659 3.3059C28.9585 3.61293 28.9582 4.11113 29.2653 4.41855C29.419 4.57238 29.6204 4.64926 29.8219 4.64926Z" fill="#202020"/>
<path d="M4.90784 33.8441C4.60323 34.1539 4.60745 34.6521 4.91737 34.9568L4.91964 34.9589C5.07253 35.1093 5.27104 35.1841 5.46948 35.1841C5.67315 35.1841 5.87683 35.1053 6.03112 34.9483C6.33573 34.6385 6.33034 34.1392 6.0205 33.8346C5.71073 33.53 5.21261 33.5343 4.90784 33.8441Z" fill="#202020"/>
<path d="M26.7661 27.5209C26.8858 27.5209 27.0072 27.4937 27.1212 27.4362C27.5091 27.2405 27.665 26.7674 27.4694 26.3794C27.2737 25.9915 26.8005 25.8355 26.4126 26.0312L26.4082 26.0334C26.0202 26.2291 25.8666 26.7012 26.0622 27.0891C26.2003 27.3632 26.4781 27.5209 26.7661 27.5209Z" fill="#202020"/>
</g>
<defs>
<clipPath id="clip0_2638_5057">
<rect width="40" height="40" fill="white"/>
</clipPath>
</defs>
</svg>
