<svg width="41" height="40" viewBox="0 0 41 40" fill="none" xmlns="http://www.w3.org/2000/svg">
<g clip-path="url(#clip0_2749_16885)">
<path d="M20.4304 5.08281C20.8649 5.08281 21.2171 4.73055 21.2171 4.29602V0.786797C21.2171 0.352266 20.8649 0 20.4304 0C19.9958 0 19.6436 0.352266 19.6436 0.786797V4.29602C19.6436 4.73055 19.9959 5.08281 20.4304 5.08281Z" fill="#212A36"/>
<path d="M39.6625 27.0301L38.2726 25.6441C37.7781 25.1502 37.1191 24.8782 36.4169 24.8782C35.9679 24.8782 35.5369 24.9899 35.155 25.1992L32.5358 22.5831L32.6633 22.4557C33.7259 21.391 33.7255 19.6609 32.6633 18.5998C32.2837 18.2195 31.81 17.9659 31.2937 17.8592C31.3647 17.6138 31.4022 17.3568 31.4022 17.0937C31.4022 16.3629 31.1183 15.6776 30.6044 15.1658C30.2247 14.7855 29.7511 14.5319 29.2347 14.4252C29.3058 14.1798 29.3433 13.9228 29.3433 13.6597C29.3433 12.9287 29.0594 12.2435 28.5446 11.7309C28.1558 11.3427 27.6779 11.0969 27.1762 10.9923C27.4446 10.0667 27.2152 9.02539 26.4871 8.29601C25.881 7.6925 25.0586 7.43312 24.266 7.51718L19.0758 6.53476C18.2842 6.3846 17.2957 6.28531 16.6717 6.85445C16.6323 6.89039 16.5922 6.93171 16.5526 6.97773C15.5851 6.62507 14.4567 6.83507 13.6819 7.60898C13.1679 8.12234 12.8848 8.80734 12.8848 9.53781C12.8848 9.80093 12.9221 10.0579 12.9931 10.3034C12.4773 10.41 12.0043 10.6633 11.6259 11.0423C11.1109 11.5552 10.8269 12.2394 10.8264 12.9691C10.8262 13.2328 10.8636 13.4906 10.935 13.7367C10.419 13.8431 9.94561 14.0959 9.56607 14.475C9.05107 14.9894 8.76748 15.6748 8.76748 16.4049C8.76748 16.9641 8.93443 17.4969 9.24381 17.9469C8.85318 18.0793 8.49537 18.2997 8.19576 18.599C7.13248 19.6609 7.13209 21.3911 8.19647 22.4573L8.32357 22.5839L5.70404 25.1987C4.73053 24.7403 3.53107 24.912 2.72771 25.7144L1.33693 27.1012C0.842246 27.5953 0.569902 28.2544 0.569824 28.9569C0.569824 29.6596 0.842246 30.3187 1.33693 30.8129L3.07264 32.5465C3.38006 32.8536 3.87826 32.8533 4.18529 32.5459C4.4924 32.2384 4.49209 31.7402 4.18467 31.4332L2.44896 29.6996C2.25193 29.5028 2.14342 29.2391 2.14342 28.957C2.14342 28.6751 2.25193 28.4114 2.4485 28.2151L3.83936 26.8281C4.18686 26.481 4.71873 26.4293 5.12264 26.6708C5.15107 26.7135 5.18396 26.7541 5.22162 26.7919C5.28904 26.8594 5.366 26.9112 5.44771 26.9491L13.4237 34.9134C13.4616 34.996 13.5137 35.0737 13.5815 35.1417C13.6476 35.2079 13.723 35.2591 13.803 35.2967C13.9717 35.4874 14.0649 35.731 14.0649 35.9909C14.0649 36.2729 13.9564 36.5366 13.7594 36.7334L12.3699 38.1212C11.9594 38.5299 11.2915 38.5298 10.8822 38.1224L9.14654 36.3866C8.83928 36.0793 8.34115 36.0793 8.03389 36.3866C7.72662 36.6938 7.72662 37.1919 8.03389 37.4992L9.77084 39.2363C10.2821 39.7455 10.9535 39.9999 11.6252 39.9999C12.2971 39.9999 12.9693 39.7451 13.4812 39.2355L14.8715 37.8468C15.3662 37.3527 15.6386 36.6936 15.6386 35.9909C15.6386 35.4894 15.4991 35.0105 15.2398 34.5975L18.188 31.653C18.1911 31.6498 18.1942 31.6466 18.1974 31.6434C18.535 31.2944 19.4751 31.3597 20.3842 31.4228C21.0301 31.4677 21.7503 31.5177 22.4539 31.4366L25.6823 34.6612C25.4732 35.0425 25.3615 35.473 25.3615 35.9212C25.3615 36.6232 25.634 37.2819 26.1287 37.776L27.519 39.1647C28.0134 39.6585 28.6724 39.9305 29.3746 39.9305C30.0767 39.9305 30.7357 39.6586 31.2301 39.1647L39.663 30.742C40.1577 30.248 40.4301 29.5889 40.4301 28.8862C40.4301 28.1837 40.1576 27.5246 39.6625 27.0301ZM18.7828 8.08085L22.1958 8.72687L20.153 10.769C19.8369 10.6171 19.4038 10.3338 18.9287 9.87929C18.2783 9.2571 17.813 8.53874 17.7707 8.0907C17.7706 8.09046 17.7706 8.09023 17.7706 8.09C17.7706 8.08992 17.7705 8.08984 17.7705 8.08976C17.7675 8.05757 17.7667 8.03187 17.7671 8.01226C17.87 7.98726 18.1433 7.95953 18.7828 8.08085ZM14.7939 8.72234C15.1925 8.32414 15.8117 8.2782 16.2621 8.5832C16.5173 9.65335 17.4302 10.6233 17.8409 11.0162C18.1453 11.3075 19.1219 12.1807 20.1077 12.4207C20.2411 12.6119 20.3137 12.8398 20.3137 13.0802C20.3137 13.39 20.1945 13.6796 19.9774 13.8965C19.7609 14.1134 19.4708 14.2327 19.1605 14.2327C18.8501 14.2327 18.5601 14.1134 18.3426 13.8955L18.3425 13.8954L18.3421 13.895L14.7938 10.3531C14.5775 10.1371 14.4583 9.8475 14.4583 9.53781C14.4584 9.22804 14.5776 8.93843 14.7939 8.72234ZM12.7379 12.1557C12.9544 11.9389 13.2442 11.8194 13.554 11.8194C13.8643 11.8194 14.155 11.9391 14.3729 12.1568L17.2301 15.0083C17.68 15.4589 17.68 16.1922 17.2316 16.6412C17.014 16.858 16.7229 16.9774 16.412 16.9774C16.1012 16.9774 15.8101 16.858 15.5933 16.6422L15.5933 16.6421L13.4257 14.475C13.4223 14.4716 13.4187 14.4685 13.4152 14.4651L12.7371 13.7873C12.5195 13.5699 12.3997 13.2798 12.4 12.9702C12.4003 12.6617 12.5197 12.373 12.7379 12.1557ZM10.6781 15.5884C10.8947 15.372 11.1851 15.2529 11.4959 15.2529C11.8041 15.2529 12.092 15.3703 12.3077 15.5829L14.4819 17.7561C14.6987 17.972 14.8182 18.2613 14.8182 18.5707C14.8182 18.88 14.6987 19.1693 14.4811 19.3861C14.2645 19.6023 13.9744 19.7215 13.6642 19.7215C13.3535 19.7215 13.0625 19.602 12.8456 19.3861L12.0574 18.5988C12.0572 18.5986 12.057 18.5984 12.0569 18.5983L10.6782 17.2212C10.4608 17.0041 10.3412 16.7141 10.3412 16.4048C10.3412 16.0955 10.4608 15.8054 10.6781 15.5884ZM9.30779 19.7123C9.52537 19.4949 9.81615 19.3752 10.1265 19.3752C10.4369 19.3752 10.7276 19.4948 10.9451 19.712L11.7344 20.5004C11.9512 20.7163 12.0706 21.0056 12.0706 21.315C12.0706 21.6244 11.9512 21.9136 11.7327 22.1312C11.5162 22.348 11.2262 22.4675 10.9158 22.4675C10.6054 22.4675 10.3154 22.3481 10.0973 22.1297L9.9985 22.0312C9.99717 22.0299 9.99615 22.0285 9.9949 22.0273C9.99342 22.0259 9.99186 22.0246 9.99037 22.0232L9.30857 21.3441C8.85865 20.8932 8.85826 20.1612 9.30779 19.7123ZM25.3417 28.6543C25.0346 28.3468 24.5364 28.3466 24.229 28.6536L23.529 29.3527C22.8639 30.0179 21.6587 29.9341 20.4931 29.8533C19.2274 29.7653 17.9186 29.6745 17.0716 30.5441L14.1736 33.4386L6.92647 26.2021L9.49115 23.642C9.91506 23.9019 10.4042 24.0412 10.916 24.0412C11.6472 24.0412 12.3328 23.7577 12.8449 23.2447C13.3604 22.7312 13.6444 22.046 13.6444 21.3151C13.6444 21.3083 13.644 21.3016 13.644 21.2948C13.6508 21.2948 13.6576 21.2952 13.6644 21.2952C14.3945 21.2952 15.0796 21.0127 15.5924 20.5005C16.1079 19.987 16.3919 19.3017 16.3919 18.5709C16.3919 18.5641 16.3915 18.5573 16.3915 18.5505C16.3983 18.5505 16.4052 18.551 16.4122 18.551C17.1421 18.551 17.8276 18.2687 18.3438 17.7546C18.8797 17.2178 19.1448 16.5111 19.1397 15.8059C19.1468 15.8059 19.1538 15.8063 19.1608 15.8063C19.892 15.8062 20.5776 15.5229 21.0905 15.0091C21.6044 14.4957 21.8876 13.8107 21.8876 13.0802C21.8876 12.5694 21.7487 12.081 21.4897 11.658L23.7376 9.41101C23.9051 9.24421 24.1116 9.13953 24.3281 9.09632C24.3515 9.09382 24.3747 9.09007 24.3976 9.08554C24.7449 9.03765 25.1097 9.14484 25.3753 9.40937C25.8252 9.86007 25.8252 10.5934 25.3769 11.0424L24.6923 11.7242C24.6901 11.7265 24.6876 11.7285 24.6854 11.7308L23.8969 12.518C23.5894 12.825 23.589 13.3232 23.8962 13.6306C24.2033 13.9381 24.7015 13.9384 25.0088 13.6313L25.6961 12.9449C25.6963 12.9448 25.6965 12.9446 25.6966 12.9444L25.8005 12.8409C26.2517 12.3939 26.9826 12.3948 27.4333 12.8449C27.6502 13.0609 27.7697 13.3502 27.7697 13.6595C27.7697 13.9688 27.6502 14.2581 27.4316 14.4758L26.7431 15.1657C26.743 15.1658 26.7429 15.1659 26.7429 15.166L25.9544 15.9512C25.6465 16.2579 25.6455 16.7561 25.9522 17.0639C26.2588 17.3718 26.7569 17.3727 27.0648 17.0662L27.8569 16.2773C28.0733 16.0605 28.3634 15.9411 28.6737 15.9411C28.9841 15.9411 29.2743 16.0605 29.4923 16.2789C29.7092 16.4949 29.8286 16.7842 29.8286 17.0936C29.8286 17.4029 29.7092 17.6922 29.4911 17.9094L28.1184 19.2826C27.8112 19.5899 27.8113 20.088 28.1186 20.3952C28.2722 20.5488 28.4735 20.6255 28.6748 20.6255C28.8762 20.6255 29.0776 20.5487 29.2312 20.395L29.904 19.722C29.9078 19.7184 29.9119 19.7152 29.9158 19.7113C30.1322 19.4944 30.4223 19.3751 30.7326 19.3751C31.043 19.3751 31.3331 19.4944 31.5504 19.7121C31.9998 20.1611 31.9994 20.8931 31.5504 21.343L30.8664 22.0262C30.8662 22.0264 30.8658 22.0266 30.8656 22.0269C30.8654 22.0271 30.8651 22.0274 30.8649 22.0277L29.7793 23.1119C29.4719 23.4191 29.4715 23.9173 29.7786 24.2247C29.9322 24.3785 30.1338 24.4555 30.3353 24.4555C30.5365 24.4555 30.7377 24.3787 30.8913 24.2254L31.4223 23.695L33.9674 26.2371L26.7209 33.4748L24.1245 30.8815C24.3055 30.7651 24.4787 30.6282 24.6413 30.4656L25.3409 29.7669C25.6485 29.4599 25.6488 28.9617 25.3417 28.6543ZM38.5509 29.6287L30.118 38.0513C29.9208 38.2484 29.6567 38.3569 29.3745 38.3569C29.0923 38.3569 28.8283 38.2484 28.6309 38.0512L27.2405 36.6626C27.0435 36.4659 26.935 36.2026 26.935 35.9212C26.935 35.64 27.0435 35.3767 27.2405 35.1799L35.6734 26.7573C35.8708 26.5602 36.1347 26.4516 36.417 26.4516C36.6992 26.4516 36.9633 26.5602 37.1611 26.7577L38.551 28.1437C38.748 28.3405 38.8565 28.6041 38.8565 28.8862C38.8565 29.1683 38.7479 29.4319 38.5509 29.6287Z" fill="#212A36"/>
<path d="M9.98255 4.41954C10.1361 4.57282 10.3372 4.64938 10.5383 4.64938C10.7399 4.64938 10.9415 4.57235 11.0952 4.41836C11.4022 4.11079 11.4017 3.61266 11.0941 3.30571L8.22708 0.444379C7.91958 0.137426 7.42138 0.137816 7.11442 0.445473C6.80747 0.753051 6.80794 1.25118 7.11552 1.55813L9.98255 4.41954Z" fill="#212A36"/>
<path d="M30.3219 4.64938C30.5231 4.64938 30.7244 4.57266 30.8779 4.4193L33.7428 1.5579C34.0502 1.25086 34.0505 0.752661 33.7434 0.445239C33.4364 0.137818 32.9383 0.137505 32.6308 0.444614L29.7659 3.30602C29.4585 3.61305 29.4582 4.11125 29.7653 4.41868C29.919 4.5725 30.1204 4.64938 30.3219 4.64938Z" fill="#212A36"/>
<path d="M5.40784 33.8441C5.10323 34.1539 5.10745 34.6521 5.41737 34.9567L5.41964 34.9589C5.57253 35.1092 5.77104 35.1841 5.96948 35.1841C6.17315 35.1841 6.37683 35.1052 6.53112 34.9483C6.83573 34.6384 6.83034 34.1391 6.5205 33.8345C6.21073 33.5299 5.71261 33.5342 5.40784 33.8441Z" fill="#212A36"/>
<path d="M27.2661 27.5209C27.3858 27.5209 27.5072 27.4936 27.6212 27.4362C28.0091 27.2405 28.165 26.7673 27.9694 26.3794C27.7737 25.9914 27.3005 25.8355 26.9126 26.0312L26.9082 26.0334C26.5202 26.2291 26.3666 26.7011 26.5622 27.0891C26.7003 27.3631 26.9781 27.5209 27.2661 27.5209Z" fill="#212A36"/>
</g>
<defs>
<clipPath id="clip0_2749_16885">
<rect width="40" height="40" fill="white" transform="translate(0.5)"/>
</clipPath>
</defs>
</svg>
