<svg width="336" height="403" viewBox="0 0 336 403" fill="none" xmlns="http://www.w3.org/2000/svg">
<g clip-path="url(#clip0_2749_17055)">
<g opacity="0.15">
<path opacity="0.04" d="M165.198 402.196C127.107 402.196 96.2285 388.659 96.2285 371.96C96.2285 355.261 127.107 341.724 165.198 341.724C203.289 341.724 234.168 355.261 234.168 371.96C234.168 388.659 203.289 402.196 165.198 402.196Z" fill="#4A0101"/>
<path opacity="0.08" d="M165.198 401.446C128.052 401.446 97.9388 388.244 97.9388 371.96C97.9388 355.675 128.052 342.474 165.198 342.474C202.344 342.474 232.457 355.675 232.457 371.96C232.457 388.244 202.344 401.446 165.198 401.446Z" fill="#480202"/>
<path opacity="0.12" d="M165.198 400.696C128.997 400.696 99.6496 387.83 99.6496 371.96C99.6496 356.089 128.997 343.224 165.198 343.224C201.4 343.224 230.747 356.089 230.747 371.96C230.747 387.83 201.4 400.696 165.198 400.696Z" fill="#460303"/>
<path opacity="0.15" d="M165.198 399.946C129.941 399.946 101.36 387.416 101.36 371.96C101.36 356.504 129.941 343.974 165.198 343.974C200.454 343.974 229.036 356.504 229.036 371.96C229.036 387.416 200.454 399.946 165.198 399.946Z" fill="#440404"/>
<path opacity="0.19" d="M165.198 399.195C130.886 399.195 103.071 387.002 103.071 371.96C103.071 356.918 130.886 344.724 165.198 344.724C199.51 344.724 227.325 356.918 227.325 371.96C227.325 387.002 199.51 399.195 165.198 399.195Z" fill="#420505"/>
<path opacity="0.23" d="M165.198 398.445C131.831 398.445 104.782 386.587 104.782 371.96C104.782 357.332 131.831 345.474 165.198 345.474C198.565 345.474 225.615 357.332 225.615 371.96C225.615 386.587 198.565 398.445 165.198 398.445Z" fill="#400606"/>
<path opacity="0.27" d="M165.198 397.695C132.776 397.695 106.492 386.173 106.492 371.96C106.492 357.746 132.776 346.224 165.198 346.224C197.62 346.224 223.904 357.746 223.904 371.96C223.904 386.173 197.62 397.695 165.198 397.695Z" fill="#3E0606"/>
<path opacity="0.31" d="M165.198 396.947C133.721 396.947 108.203 385.76 108.203 371.96C108.203 358.16 133.721 346.972 165.198 346.972C196.676 346.972 222.193 358.16 222.193 371.96C222.193 385.76 196.676 396.947 165.198 396.947Z" fill="#3C0707"/>
<path opacity="0.35" d="M165.198 396.197C134.665 396.197 109.913 385.346 109.913 371.96C109.913 358.574 134.665 347.722 165.198 347.722C195.731 347.722 220.482 358.574 220.482 371.96C220.482 385.346 195.731 396.197 165.198 396.197Z" fill="#3A0808"/>
<path opacity="0.38" d="M165.198 395.447C135.61 395.447 111.624 384.932 111.624 371.96C111.624 358.988 135.61 348.472 165.198 348.472C194.786 348.472 218.772 358.988 218.772 371.96C218.772 384.932 194.786 395.447 165.198 395.447Z" fill="#380909"/>
<path opacity="0.42" d="M165.198 394.697C136.555 394.697 113.335 384.517 113.335 371.96C113.335 359.402 136.555 349.222 165.198 349.222C193.842 349.222 217.062 359.402 217.062 371.96C217.062 384.517 193.842 394.697 165.198 394.697Z" fill="#360A0A"/>
<path opacity="0.46" d="M165.198 393.947C137.499 393.947 115.045 384.103 115.045 371.96C115.045 359.817 137.499 349.972 165.198 349.972C192.896 349.972 215.351 359.817 215.351 371.96C215.351 384.103 192.896 393.947 165.198 393.947Z" fill="#340B0B"/>
<path opacity="0.5" d="M165.198 393.197C138.444 393.197 116.756 383.689 116.756 371.96C116.756 360.231 138.444 350.723 165.198 350.723C191.952 350.723 213.64 360.231 213.64 371.96C213.64 383.689 191.952 393.197 165.198 393.197Z" fill="#330C0C"/>
<path opacity="0.54" d="M165.198 392.447C139.389 392.447 118.466 383.275 118.466 371.96C118.466 360.645 139.389 351.473 165.198 351.473C191.007 351.473 211.929 360.645 211.929 371.96C211.929 383.275 191.007 392.447 165.198 392.447Z" fill="#310D0D"/>
<path opacity="0.58" d="M165.198 391.697C140.334 391.697 120.177 382.86 120.177 371.96C120.177 361.059 140.334 352.223 165.198 352.223C190.062 352.223 210.219 361.059 210.219 371.96C210.219 382.86 190.062 391.697 165.198 391.697Z" fill="#2F0E0E"/>
<path opacity="0.62" d="M165.198 390.947C141.279 390.947 121.888 382.446 121.888 371.96C121.888 361.474 141.279 352.973 165.198 352.973C189.118 352.973 208.508 361.474 208.508 371.96C208.508 382.446 189.118 390.947 165.198 390.947Z" fill="#2D0F0F"/>
<path opacity="0.65" d="M165.198 390.197C142.223 390.197 123.598 382.032 123.598 371.96C123.598 361.888 142.223 353.723 165.198 353.723C188.173 353.723 206.797 361.888 206.797 371.96C206.797 382.032 188.173 390.197 165.198 390.197Z" fill="#2B1010"/>
<path opacity="0.69" d="M165.198 389.447C143.168 389.447 125.309 381.618 125.309 371.96C125.309 362.302 143.168 354.473 165.198 354.473C187.228 354.473 205.087 362.302 205.087 371.96C205.087 381.618 187.228 389.447 165.198 389.447Z" fill="#291111"/>
<path opacity="0.73" d="M165.198 388.697C144.113 388.697 127.02 381.203 127.02 371.96C127.02 362.716 144.113 355.223 165.198 355.223C186.283 355.223 203.376 362.716 203.376 371.96C203.376 381.203 186.283 388.697 165.198 388.697Z" fill="#271212"/>
<path opacity="0.77" d="M165.198 387.947C145.058 387.947 128.73 380.789 128.73 371.96C128.73 363.131 145.058 355.973 165.198 355.973C185.338 355.973 201.666 363.131 201.666 371.96C201.666 380.789 185.338 387.947 165.198 387.947Z" fill="#251212"/>
<path opacity="0.81" d="M165.198 387.197C146.001 387.197 130.439 380.375 130.439 371.96C130.439 363.545 146.001 356.723 165.198 356.723C184.395 356.723 199.957 363.545 199.957 371.96C199.957 380.375 184.395 387.197 165.198 387.197Z" fill="#231313"/>
<path opacity="0.85" d="M165.198 386.447C146.946 386.447 132.15 379.961 132.15 371.96C132.15 363.959 146.946 357.473 165.198 357.473C183.45 357.473 198.247 363.959 198.247 371.96C198.247 379.961 183.45 386.447 165.198 386.447Z" fill="#211414"/>
<path opacity="0.88" d="M165.198 385.699C147.89 385.699 133.86 379.548 133.86 371.96C133.86 364.372 147.89 358.221 165.198 358.221C182.505 358.221 196.536 364.372 196.536 371.96C196.536 379.548 182.505 385.699 165.198 385.699Z" fill="#1F1515"/>
<path opacity="0.92" d="M165.198 384.949C148.835 384.949 135.571 379.133 135.571 371.96C135.571 364.786 148.835 358.971 165.198 358.971C181.561 358.971 194.825 364.786 194.825 371.96C194.825 379.133 181.561 384.949 165.198 384.949Z" fill="#1D1616"/>
<path opacity="0.96" d="M165.198 384.199C149.78 384.199 137.281 378.719 137.281 371.96C137.281 365.201 149.78 359.721 165.198 359.721C180.616 359.721 193.114 365.201 193.114 371.96C193.114 378.719 180.616 384.199 165.198 384.199Z" fill="#1B1717"/>
<path d="M165.198 383.448C150.725 383.448 138.992 378.305 138.992 371.96C138.992 365.615 150.725 360.471 165.198 360.471C179.671 360.471 191.404 365.615 191.404 371.96C191.404 378.305 179.671 383.448 165.198 383.448Z" fill="#191818"/>
</g>
<path d="M161.268 369.372L180.696 358.103L182.813 343.617L163.385 354.885L161.268 369.372Z" fill="#151720"/>
<path d="M102.673 249.935L122.102 238.666L108.421 233.163L88.9925 244.431L102.673 249.935Z" fill="#151720"/>
<path d="M124.89 283.74C124.831 283.382 124.779 283.027 124.728 282.672C124.704 282.504 124.674 282.336 124.652 282.168C124.645 282.124 124.645 282.081 124.639 282.037C124.543 281.274 124.468 280.517 124.416 279.765C124.405 279.604 124.396 279.445 124.388 279.285C124.342 278.513 124.311 277.744 124.313 276.985C124.337 268.636 127.291 262.76 132.054 259.997L151.483 248.729C146.72 251.492 143.766 257.368 143.742 265.717C143.742 266.475 143.77 267.245 143.816 268.017C143.825 268.176 143.834 268.335 143.845 268.497C143.897 269.249 143.971 270.008 144.068 270.769C144.094 270.978 144.127 271.189 144.157 271.401C144.207 271.756 144.26 272.114 144.319 272.472C144.358 272.711 144.402 272.951 144.448 273.191C144.511 273.538 144.577 273.884 144.649 274.231C144.688 274.423 144.73 274.615 144.771 274.807C144.963 275.688 145.18 276.571 145.422 277.456C145.461 277.604 145.505 277.75 145.547 277.896C145.763 278.657 145.992 279.418 146.244 280.177C146.263 280.236 146.281 280.293 146.3 280.352C146.547 281.089 146.814 281.823 147.093 282.558C147.163 282.741 147.235 282.927 147.308 283.11C147.55 283.731 147.803 284.35 148.07 284.97C148.109 285.063 148.146 285.157 148.188 285.249C148.485 285.931 148.797 286.609 149.123 287.285C149.208 287.462 149.296 287.639 149.383 287.815C149.645 288.349 149.914 288.879 150.191 289.407C150.277 289.57 150.362 289.734 150.449 289.897C150.803 290.558 151.17 291.214 151.548 291.864C151.62 291.988 151.694 292.111 151.769 292.233C152.103 292.797 152.446 293.356 152.796 293.909C152.898 294.073 153.001 294.236 153.106 294.4C153.543 295.076 153.988 295.743 154.447 296.399C154.517 296.498 154.587 296.594 154.657 296.694C155.138 297.372 155.631 298.039 156.134 298.693C156.199 298.778 156.265 298.868 156.333 298.953C156.966 299.766 157.617 300.555 158.286 301.325C158.373 301.428 158.461 301.53 158.548 301.632C158.959 302.101 159.376 302.564 159.8 303.015C159.822 303.039 159.841 303.063 159.863 303.085C160.309 303.558 160.761 304.02 161.22 304.471C161.316 304.565 161.414 304.657 161.51 304.75C162.107 305.333 162.712 305.895 163.326 306.44C163.381 306.488 163.435 306.541 163.49 306.589C164.126 307.147 164.774 307.677 165.428 308.191C165.55 308.287 165.675 308.385 165.797 308.479C166.441 308.974 167.092 309.447 167.752 309.896C167.868 309.975 167.986 310.051 168.104 310.13C168.794 310.59 169.491 311.032 170.195 311.438C170.761 311.765 171.32 312.059 171.877 312.341C172.036 312.421 172.196 312.498 172.355 312.574C172.781 312.779 173.203 312.973 173.623 313.152C173.771 313.215 173.918 313.282 174.066 313.341C174.462 313.503 174.853 313.649 175.241 313.788C175.338 313.823 175.436 313.862 175.53 313.895C176.013 314.061 176.489 314.205 176.961 314.336C177.238 314.412 177.514 314.477 177.789 314.541C177.918 314.571 178.047 314.606 178.173 314.634C178.578 314.722 178.977 314.796 179.373 314.857C179.976 314.948 180.566 315.001 181.147 315.033C181.265 315.04 181.381 315.049 181.496 315.053C182.019 315.073 182.532 315.07 183.034 315.04C183.122 315.036 183.209 315.022 183.297 315.016C183.703 314.985 184.103 314.937 184.494 314.876C184.616 314.857 184.738 314.837 184.861 314.815C185.311 314.732 185.757 314.634 186.187 314.51C186.207 314.504 186.226 314.497 186.244 314.49C186.652 314.371 187.05 314.227 187.439 314.07C187.552 314.024 187.666 313.974 187.78 313.926C188.112 313.78 188.439 313.623 188.756 313.45C188.861 313.394 188.97 313.344 189.075 313.282L169.646 324.551C169.598 324.579 169.55 324.608 169.5 324.634C169.445 324.664 169.384 324.686 169.327 324.717C169.008 324.889 168.683 325.048 168.349 325.194C168.287 325.22 168.231 325.255 168.167 325.284C168.117 325.305 168.062 325.318 168.01 325.338C167.619 325.495 167.221 325.639 166.813 325.759C166.795 325.763 166.782 325.772 166.765 325.776C166.763 325.776 166.758 325.776 166.756 325.776C166.326 325.901 165.88 325.999 165.43 326.082C165.377 326.09 165.329 326.108 165.275 326.116C165.205 326.127 165.133 326.13 165.063 326.14C164.67 326.201 164.27 326.249 163.863 326.28C163.798 326.284 163.737 326.297 163.673 326.302C163.651 326.302 163.627 326.302 163.606 326.302C163.103 326.332 162.59 326.332 162.068 326.315C162.017 326.315 161.969 326.319 161.919 326.315C161.853 326.313 161.784 326.297 161.718 326.295C161.137 326.263 160.547 326.21 159.944 326.116H159.942C159.549 326.055 159.149 325.981 158.747 325.894C158.618 325.866 158.485 325.829 158.354 325.798C158.104 325.739 157.858 325.685 157.609 325.617C157.584 325.611 157.558 325.602 157.534 325.595C157.062 325.467 156.584 325.318 156.103 325.155C156.007 325.122 155.911 325.083 155.815 325.048C155.426 324.911 155.035 324.762 154.639 324.601C154.587 324.579 154.537 324.564 154.484 324.542C154.388 324.503 154.29 324.451 154.196 324.411C153.777 324.233 153.357 324.041 152.931 323.836C152.772 323.757 152.61 323.681 152.448 323.6C151.891 323.319 151.332 323.025 150.768 322.698C150.065 322.292 149.368 321.849 148.677 321.389C148.559 321.311 148.441 321.234 148.323 321.154C147.666 320.705 147.015 320.231 146.37 319.739C146.246 319.643 146.121 319.545 145.999 319.449C145.346 318.936 144.699 318.406 144.063 317.848C144.006 317.798 143.952 317.748 143.897 317.698C143.283 317.155 142.68 316.592 142.086 316.012C142.027 315.953 141.964 315.901 141.905 315.842C141.868 315.805 141.833 315.766 141.795 315.729C141.339 315.278 140.887 314.817 140.441 314.344C140.417 314.318 140.393 314.29 140.369 314.264C139.949 313.814 139.534 313.357 139.126 312.892C139.086 312.846 139.045 312.805 139.006 312.761C138.955 312.702 138.909 312.641 138.859 312.583C138.193 311.813 137.54 311.024 136.908 310.212C136.891 310.188 136.871 310.167 136.851 310.143C136.803 310.079 136.757 310.014 136.709 309.951C136.205 309.297 135.713 308.632 135.233 307.954C135.184 307.886 135.132 307.823 135.084 307.753C135.062 307.722 135.042 307.688 135.018 307.657C134.557 307.001 134.112 306.331 133.675 305.655C133.633 305.592 133.587 305.529 133.546 305.466C133.485 305.37 133.428 305.269 133.367 305.171C133.015 304.617 132.672 304.057 132.338 303.49C132.285 303.401 132.229 303.314 132.176 303.224C132.156 303.189 132.139 303.154 132.119 303.122C131.741 302.472 131.376 301.816 131.02 301.155C130.992 301.1 130.959 301.048 130.931 300.994C130.872 300.885 130.819 300.773 130.763 300.662C130.485 300.135 130.216 299.605 129.954 299.071C129.9 298.959 129.841 298.852 129.786 298.741C129.753 298.676 129.727 298.608 129.694 298.543C129.371 297.867 129.058 297.189 128.761 296.506C128.753 296.485 128.742 296.465 128.733 296.443C128.702 296.371 128.674 296.297 128.643 296.225C128.379 295.608 128.126 294.989 127.883 294.367C127.844 294.267 127.8 294.169 127.761 294.069C127.728 293.986 127.702 293.901 127.671 293.818C127.392 293.085 127.125 292.35 126.878 291.613C126.874 291.598 126.867 291.585 126.863 291.57C126.848 291.526 126.837 291.48 126.821 291.437C126.57 290.678 126.338 289.917 126.124 289.156C126.098 289.06 126.063 288.966 126.037 288.87C126.022 288.818 126.013 288.768 125.998 288.716C125.755 287.833 125.539 286.947 125.347 286.066C125.329 285.988 125.305 285.909 125.29 285.833C125.266 285.72 125.248 285.604 125.224 285.491C125.152 285.144 125.087 284.797 125.023 284.451C124.98 284.211 124.936 283.971 124.894 283.731L124.89 283.74Z" fill="#8E8E8E"/>
<mask id="mask0_2749_17055" style="mask-type:luminance" maskUnits="userSpaceOnUse" x="195" y="354" width="24" height="16">
<path d="M195.535 369.202L214.964 357.933C216.439 357.078 217.784 356.006 218.988 354.726L199.559 365.994C198.356 367.276 197.01 368.347 195.535 369.202Z" fill="white"/>
</mask>
<g mask="url(#mask0_2749_17055)">
<path d="M195.535 369.202L214.964 357.933C216.439 357.078 217.784 356.006 218.988 354.726L199.559 365.994C198.356 367.276 197.01 368.347 195.535 369.202Z" fill="#151720"/>
</g>
<mask id="mask1_2749_17055" style="mask-type:luminance" maskUnits="userSpaceOnUse" x="106" y="202" width="25" height="14">
<path d="M125.615 204.065L106.187 215.334C107.744 214.431 109.444 213.77 111.266 213.365L130.695 202.096C128.873 202.502 127.175 203.162 125.615 204.065Z" fill="white"/>
</mask>
<g mask="url(#mask1_2749_17055)">
<path d="M111.266 213.365L130.695 202.096C130.308 202.181 129.928 202.279 129.552 202.388L110.123 213.657C110.499 213.548 110.879 213.45 111.266 213.365Z" fill="#A9A9A9"/>
<path d="M110.123 213.657L129.552 202.388C128.897 202.578 128.259 202.803 127.641 203.062L108.212 214.331C108.832 214.071 109.468 213.847 110.123 213.657Z" fill="#A4A4A4"/>
<path d="M108.212 214.331L127.641 203.062C127.014 203.324 126.406 203.62 125.816 203.952L106.388 215.22C106.975 214.889 107.585 214.592 108.212 214.331Z" fill="#9F9F9F"/>
<path d="M106.388 215.218L125.816 203.95C125.749 203.987 125.683 204.026 125.618 204.063L106.189 215.331C106.254 215.292 106.322 215.255 106.388 215.218Z" fill="#9A9A9A"/>
</g>
<path d="M199.56 365.994L218.989 354.726L221.431 352.12L202.002 363.389L199.56 365.994Z" fill="#151720"/>
<path d="M114.766 212.591L134.195 201.322L130.695 202.096L111.266 213.365L114.766 212.591Z" fill="#151720"/>
<path d="M202.002 363.389L221.431 352.12L213.256 334.611L193.827 345.88L202.002 363.389Z" fill="#151720"/>
<path d="M125.882 228.427L145.311 217.159L134.195 201.322L114.766 212.591L125.882 228.427Z" fill="#151720"/>
<mask id="mask2_2749_17055" style="mask-type:luminance" maskUnits="userSpaceOnUse" x="193" y="323" width="26" height="23">
<path d="M193.827 345.88L213.256 334.611C215.515 331.504 217.282 327.732 218.456 323.347L199.027 334.616C197.856 339.003 196.088 342.775 193.827 345.88Z" fill="white"/>
</mask>
<g mask="url(#mask2_2749_17055)">
<path d="M193.827 345.88L213.256 334.611C215.515 331.504 217.282 327.732 218.456 323.347L199.027 334.616C197.856 339.003 196.088 342.775 193.827 345.88Z" fill="#151720"/>
</g>
<path d="M136.204 229.151C136.003 229.107 135.805 229.066 135.604 229.024C135.101 228.922 134.603 228.833 134.107 228.752C133.948 228.726 133.788 228.695 133.629 228.673C133.074 228.591 132.521 228.521 131.975 228.466C131.949 228.464 131.922 228.46 131.894 228.455C131.322 228.399 130.756 228.362 130.194 228.333C129.991 228.325 129.792 228.322 129.589 228.316C129.259 228.307 128.931 228.298 128.606 228.298C128.39 228.298 128.175 228.307 127.961 228.311C127.653 228.318 127.345 228.327 127.042 228.344C126.653 228.366 126.264 228.388 125.879 228.425L145.308 217.156C145.61 217.128 145.911 217.104 146.215 217.084C146.3 217.08 146.385 217.08 146.47 217.076C146.774 217.058 147.08 217.05 147.386 217.043C147.602 217.039 147.816 217.032 148.035 217.03C148.358 217.03 148.688 217.039 149.016 217.047C149.179 217.052 149.339 217.047 149.503 217.056C149.542 217.056 149.584 217.063 149.623 217.065C150.184 217.091 150.748 217.13 151.321 217.187C151.351 217.189 151.384 217.196 151.414 217.198C151.956 217.252 152.502 217.322 153.053 217.403C153.099 217.409 153.145 217.414 153.193 217.42C153.306 217.438 153.422 217.464 153.538 217.483C154.032 217.562 154.528 217.654 155.028 217.754C155.229 217.795 155.43 217.837 155.633 217.88C156.166 217.998 156.704 218.127 157.243 218.268C157.344 218.295 157.442 218.314 157.543 218.34C157.608 218.358 157.674 218.375 157.739 218.395L138.31 229.663C138.147 229.618 137.983 229.583 137.819 229.539C137.277 229.397 136.737 229.266 136.202 229.149L136.204 229.151Z" fill="#151720"/>
<path d="M198.032 300.819C197.733 299.642 197.41 298.464 197.062 297.285C196.997 297.062 196.934 296.842 196.868 296.62C196.514 295.444 196.134 294.271 195.736 293.101C195.409 292.137 195.052 291.173 194.696 290.211C194.456 289.566 194.235 288.916 193.982 288.273L213.411 277.005C213.487 277.199 213.562 277.393 213.638 277.587C213.813 278.038 213.959 278.492 214.127 278.945C214.483 279.907 214.84 280.866 215.165 281.832C215.22 281.991 215.283 282.15 215.338 282.31C215.676 283.324 215.993 284.337 216.299 285.351C216.367 285.574 216.428 285.796 216.493 286.019C216.627 286.474 216.766 286.928 216.893 287.383C217.094 288.105 217.278 288.827 217.461 289.549C217.503 289.714 217.551 289.88 217.592 290.044C217.844 291.055 218.082 292.065 218.296 293.074C218.379 293.46 218.457 293.846 218.536 294.232C218.536 294.232 218.536 294.232 218.536 294.237L199.107 305.505C198.828 304.112 198.511 302.712 198.161 301.314C198.12 301.151 198.074 300.985 198.032 300.821V300.819Z" fill="#151720"/>
<path d="M173.041 253.707C172.133 252.665 171.206 251.649 170.265 250.652C169.946 250.314 169.616 249.989 169.295 249.656C168.602 248.943 167.907 248.23 167.202 247.543C167.003 247.349 166.802 247.159 166.601 246.967C165.644 246.054 164.68 245.155 163.699 244.292L183.128 233.023C184.109 233.887 185.073 234.783 186.03 235.699C186.231 235.891 186.434 236.082 186.633 236.277C186.805 236.444 186.98 236.606 187.153 236.776C187.683 237.299 188.199 237.846 188.721 238.385C189.045 238.719 189.374 239.043 189.696 239.384C190.635 240.38 191.561 241.396 192.472 242.438C192.503 242.473 192.536 242.506 192.566 242.541C192.566 242.543 192.571 242.545 192.573 242.547C193.563 243.686 194.535 244.848 195.487 246.036L176.059 257.305C175.104 256.114 174.129 254.947 173.138 253.809C173.107 253.774 173.074 253.742 173.044 253.707H173.041Z" fill="#151720"/>
<path d="M212.775 315.757L232.204 304.489L218.536 294.234L199.107 305.503L212.775 315.757Z" fill="#151720"/>
<path d="M213.463 335.75C213.557 335.204 213.64 334.648 213.712 334.088C213.736 333.901 213.752 333.709 213.773 333.521C213.817 333.142 213.861 332.765 213.894 332.379C213.913 332.145 213.924 331.908 213.94 331.672C213.964 331.325 213.99 330.979 214.005 330.626C214.016 330.37 214.02 330.109 214.027 329.851C214.036 329.511 214.049 329.173 214.049 328.829C214.049 328.561 214.044 328.288 214.04 328.018C214.036 327.675 214.033 327.335 214.023 326.991C214.014 326.712 213.998 326.428 213.983 326.149C213.968 325.807 213.953 325.465 213.929 325.118C213.909 324.828 213.883 324.536 213.859 324.246C213.83 323.901 213.802 323.559 213.767 323.21C213.736 322.913 213.699 322.615 213.664 322.316C213.612 321.873 213.564 321.433 213.5 320.986L212.768 315.759L232.197 304.491L232.929 309.717C232.958 309.914 232.984 310.11 233.008 310.304C233.041 310.553 233.062 310.799 233.093 311.045C233.128 311.344 233.165 311.645 233.196 311.942C233.231 312.288 233.259 312.633 233.287 312.977C233.312 313.269 233.338 313.562 233.357 313.849C233.381 314.196 233.397 314.536 233.412 314.881C233.425 315.162 233.443 315.445 233.451 315.722C233.462 316.067 233.464 316.407 233.469 316.749C233.471 317.02 233.478 317.292 233.478 317.56C233.478 317.905 233.464 318.243 233.456 318.583C233.449 318.84 233.445 319.102 233.434 319.357C233.419 319.71 233.392 320.055 233.368 320.404C233.353 320.639 233.342 320.879 233.322 321.11C233.29 321.496 233.246 321.876 233.202 322.255C233.18 322.442 233.165 322.634 233.141 322.82C233.069 323.382 232.986 323.936 232.892 324.483L232.134 328.851L212.705 340.119L213.463 335.752V335.75Z" fill="#151720"/>
<path d="M145.996 217.283C145.535 217.091 145.074 216.903 144.616 216.733L140.43 215.177L159.858 203.908L164.044 205.465C164.462 205.62 164.881 205.783 165.301 205.958C165.342 205.975 165.384 205.997 165.425 206.014C166.175 206.326 166.926 206.669 167.678 207.037C167.839 207.116 168.001 207.198 168.163 207.279C168.936 207.669 169.709 208.075 170.483 208.522C172.637 209.763 174.791 211.221 176.919 212.883L181.101 216.147L161.672 227.415L157.49 224.151C155.362 222.49 153.208 221.031 151.054 219.79C150.281 219.346 149.507 218.938 148.736 218.548C148.572 218.465 148.41 218.382 148.247 218.303C147.495 217.937 146.744 217.595 145.996 217.283Z" fill="#151720"/>
<path d="M163.7 244.292L183.128 233.023L181.101 216.149L161.672 227.417L163.7 244.292Z" fill="#151720"/>
<path d="M193.984 288.273L213.413 277.005L221.728 268.904L202.299 280.173L193.984 288.273Z" fill="#151720"/>
<path d="M187.306 254.287L206.734 243.018L195.485 246.038L176.056 257.307L187.306 254.287Z" fill="#151720"/>
<path d="M196.047 267.265C195.916 267.031 195.791 266.796 195.656 266.565C194.963 265.374 194.242 264.201 193.495 263.046C193.274 262.705 193.043 262.374 192.818 262.036C192.156 261.042 191.492 260.05 190.79 259.086L187.306 254.287L206.734 243.018L210.219 247.818C210.481 248.179 210.741 248.541 210.999 248.908C211.427 249.518 211.834 250.146 212.247 250.768C212.469 251.103 212.703 251.435 212.922 251.775C212.981 251.864 213.044 251.952 213.101 252.041C213.747 253.051 214.374 254.075 214.98 255.111C215.015 255.172 215.047 255.233 215.082 255.294C215.218 255.525 215.34 255.763 215.473 255.994C215.884 256.716 216.297 257.435 216.686 258.168C216.819 258.419 216.939 258.674 217.07 258.925C217.271 259.311 217.466 259.701 217.662 260.091C217.859 260.484 218.069 260.872 218.259 261.266C218.617 262.008 218.965 262.753 219.301 263.501L221.726 268.902L202.297 280.171L199.872 274.77C199.357 273.623 198.802 272.489 198.236 271.362C198.041 270.971 197.845 270.583 197.644 270.195C197.13 269.207 196.597 268.233 196.047 267.265Z" fill="#151720"/>
<path d="M88.2342 248.801C87.463 253.247 87.4478 258.246 88.1927 263.567L88.9246 268.793L102.592 279.048C103.735 284.752 105.461 290.515 107.683 296.195L99.4223 304.249L101.841 309.648C104.307 315.142 107.383 320.454 110.923 325.331L114.407 330.131L125.556 327.137C129.408 331.945 133.578 336.371 138.002 340.257L140.03 357.131L144.211 360.395C146.339 362.056 148.493 363.515 150.648 364.756C152.802 365.996 154.956 367.021 157.086 367.813L161.272 369.369L163.389 354.881C167.8 356.093 171.968 356.481 175.82 356.119L186.936 371.955L190.429 371.177C193.984 370.388 197.082 368.632 199.564 365.99L202.006 363.384L193.831 345.875C196.09 342.768 197.857 338.996 199.031 334.611L212.711 340.115L213.47 335.745C214.241 331.299 214.256 326.3 213.511 320.979L212.779 315.753L199.111 305.498C197.962 299.766 196.221 293.973 193.986 288.269L202.301 280.168L199.876 274.768C197.41 269.273 194.34 263.966 190.794 259.084L187.31 254.285L176.058 257.305C172.235 252.536 168.091 248.149 163.701 244.29L161.674 227.415L157.492 224.151C155.364 222.49 153.21 221.031 151.056 219.79C148.902 218.55 146.748 217.525 144.616 216.733L140.43 215.177L138.315 229.665C133.904 228.453 129.729 228.061 125.884 228.427L114.768 212.591L111.268 213.365C107.713 214.154 104.622 215.92 102.14 218.563L99.691 221.155L107.873 238.668C105.614 241.782 103.846 245.548 102.675 249.935L88.9945 244.431L88.2364 248.801H88.2342ZM150.763 322.706C136.108 314.262 124.267 293.792 124.315 276.985C124.363 260.178 136.281 253.399 150.936 261.844C165.591 270.289 177.432 290.759 177.384 307.565C177.336 324.372 165.419 331.151 150.763 322.706Z" fill="#364557"/>
<path d="M102.153 250.715L88.833 245.356L88.9925 244.431L102.409 249.828C102.324 250.122 102.234 250.412 102.153 250.713V250.715Z" fill="#151720"/>
<path d="M150.241 323.485C135.586 315.04 123.745 294.57 123.793 277.763C123.808 272.238 125.115 267.805 127.372 264.633C125.436 267.738 124.328 271.898 124.315 276.985C124.267 293.792 136.108 314.262 150.764 322.706C160.601 328.375 169.198 327.176 173.808 320.696C169.347 327.852 160.464 329.374 150.244 323.485H150.241Z" fill="white"/>
<path d="M107.351 239.449C107.2 239.656 107.058 239.874 106.912 240.086C107.054 239.866 107.198 239.65 107.344 239.436L107.351 239.449Z" fill="white"/>
<path d="M137.793 230.444C133.382 229.232 129.207 228.839 125.362 229.205L114.246 213.369L110.746 214.143C107.191 214.932 104.1 216.699 101.618 219.341L99.7612 221.308L99.6891 221.155L102.138 218.563C104.62 215.918 107.711 214.154 111.266 213.362L114.766 212.588L125.882 228.425C129.613 228.069 133.655 228.436 137.922 229.563L137.793 230.442V230.444Z" fill="#151720"/>
<path d="M107.161 296.975L99.5056 304.439L99.4204 304.249L107.087 296.775C107.113 296.842 107.135 296.908 107.161 296.975Z" fill="white"/>
<path d="M193.307 346.658C193.488 346.41 193.658 346.15 193.833 345.893L202.002 363.389L201.412 364.019L193.307 346.658Z" fill="#151720"/>
<path d="M194.272 345.232C196.073 342.417 197.506 339.131 198.504 335.392L198.769 335.499C197.687 339.216 196.167 342.472 194.27 345.232H194.272Z" fill="#151720"/>
<path d="M162.865 355.663C162.996 355.7 163.125 355.729 163.256 355.761L161.268 369.372L160.881 369.228L162.863 355.663H162.865Z" fill="#151720"/>
<path d="M212.943 336.528C213.714 332.082 213.73 327.082 212.985 321.762L212.253 316.536L198.585 306.281C197.436 300.549 195.695 294.758 193.46 289.051L194.054 288.474C196.252 294.112 197.969 299.836 199.105 305.503L212.773 315.757L213.505 320.984C214.25 326.304 214.234 331.304 213.463 335.75L212.705 340.117L212.345 339.973L212.943 336.528Z" fill="#151720"/>
<path d="M199.352 275.55C196.885 270.056 193.816 264.748 190.27 259.867L186.785 255.067L175.534 258.087C171.711 253.319 167.566 248.932 163.177 245.072L161.15 228.198L156.968 224.934C154.84 223.273 152.686 221.814 150.532 220.571C148.378 219.33 146.224 218.305 144.094 217.514L140.294 216.101L140.43 215.179L144.616 216.736C146.746 217.527 148.9 218.552 151.056 219.793C153.21 221.033 155.365 222.492 157.492 224.153L161.674 227.417L163.701 244.292C168.091 248.151 172.235 252.536 176.058 257.307L187.31 254.287L190.794 259.086C194.34 263.968 197.41 269.275 199.876 274.77L202.301 280.171L201.696 280.759L199.356 275.548L199.352 275.55Z" fill="#151720"/>
<path d="M96.4252 219.899L121.738 205.216L124.495 186.341L99.1823 201.021L96.4252 219.899Z" fill="#7F7F7F"/>
<path d="M20.0818 64.2849L45.394 49.6041L27.5688 42.4327L2.25655 57.1135L20.0818 64.2849Z" fill="#151720"/>
<path d="M49.0271 108.327C48.9507 107.863 48.883 107.398 48.8174 106.934C48.7868 106.716 48.7475 106.496 48.7191 106.28C48.7125 106.223 48.7104 106.166 48.7016 106.11C48.5749 105.115 48.481 104.13 48.4111 103.149C48.3958 102.939 48.3848 102.732 48.3739 102.523C48.3149 101.516 48.2756 100.515 48.2778 99.527C48.3084 88.6489 52.1557 80.9956 58.3625 77.3957L83.677 62.7128C77.4701 66.3127 73.6228 73.9659 73.5922 84.8462C73.5901 85.8362 73.6294 86.837 73.6884 87.8421C73.7015 88.0493 73.7124 88.2586 73.7255 88.4657C73.7954 89.4469 73.8916 90.4347 74.0161 91.4268C74.051 91.7015 74.0926 91.9762 74.1319 92.251C74.1974 92.7154 74.2651 93.1798 74.3416 93.6442C74.394 93.956 74.4508 94.27 74.5077 94.5818C74.5907 95.0332 74.6759 95.4845 74.7676 95.9359C74.8179 96.1866 74.8747 96.4352 74.9293 96.6859C75.1806 97.835 75.4602 98.9863 75.777 100.138C75.8294 100.329 75.8862 100.521 75.9408 100.713C76.2227 101.705 76.522 102.697 76.8497 103.685C76.8759 103.761 76.8978 103.836 76.9218 103.912C77.2429 104.871 77.5925 105.831 77.9552 106.786C78.0469 107.025 78.1387 107.265 78.2326 107.503C78.5494 108.314 78.8793 109.121 79.2245 109.925C79.2769 110.048 79.325 110.167 79.3774 110.29C79.7641 111.179 80.1727 112.064 80.5943 112.943C80.7057 113.174 80.8193 113.403 80.933 113.632C81.2738 114.328 81.6255 115.019 81.986 115.706C82.0974 115.919 82.2066 116.133 82.3203 116.345C82.7834 117.206 83.2597 118.061 83.7512 118.907C83.8452 119.068 83.9435 119.227 84.0374 119.386C84.4722 120.121 84.9179 120.852 85.3745 121.571C85.51 121.785 85.6432 121.998 85.7809 122.21C86.3489 123.091 86.93 123.961 87.5286 124.816C87.6182 124.944 87.7122 125.068 87.8017 125.197C88.4287 126.08 89.0689 126.95 89.7265 127.803C89.8139 127.914 89.8969 128.029 89.9843 128.141C90.8079 129.2 91.66 130.227 92.5273 131.233C92.6409 131.366 92.7545 131.501 92.8703 131.632C93.4056 132.242 93.9496 132.844 94.5001 133.433C94.5285 133.463 94.5547 133.494 94.5831 133.524C95.1643 134.141 95.7542 134.743 96.3506 135.332C96.4751 135.456 96.6018 135.574 96.7285 135.696C97.5063 136.452 98.2928 137.187 99.0946 137.896C99.1667 137.959 99.2366 138.027 99.3087 138.088C100.139 138.814 100.982 139.505 101.834 140.174C101.994 140.301 102.155 140.427 102.317 140.552C103.156 141.195 104.006 141.814 104.864 142.398C105.015 142.503 105.17 142.601 105.321 142.702C106.221 143.301 107.128 143.877 108.045 144.407C108.782 144.832 109.511 145.216 110.237 145.582C110.446 145.687 110.652 145.787 110.859 145.887C111.414 146.155 111.963 146.406 112.511 146.639C112.703 146.722 112.898 146.809 113.088 146.888C113.601 147.097 114.112 147.289 114.619 147.47C114.744 147.514 114.871 147.566 114.995 147.61C115.624 147.823 116.245 148.015 116.861 148.183C117.223 148.283 117.582 148.368 117.94 148.451C118.106 148.491 118.277 148.539 118.44 148.573C118.967 148.687 119.489 148.785 120.005 148.863C120.791 148.983 121.558 149.051 122.316 149.095C122.469 149.103 122.622 149.114 122.773 149.119C123.452 149.143 124.121 149.14 124.776 149.103C124.892 149.097 125.003 149.081 125.117 149.073C125.646 149.033 126.166 148.972 126.677 148.892C126.836 148.866 126.996 148.842 127.155 148.813C127.743 148.704 128.322 148.578 128.883 148.416C128.91 148.41 128.934 148.399 128.958 148.392C129.491 148.235 130.009 148.048 130.515 147.843C130.664 147.784 130.813 147.719 130.959 147.655C131.394 147.466 131.818 147.259 132.23 147.034C132.368 146.96 132.51 146.895 132.646 146.816L107.333 161.497C107.27 161.534 107.207 161.569 107.143 161.606C107.071 161.647 106.992 161.676 106.92 161.715C106.505 161.939 106.079 162.149 105.644 162.338C105.564 162.373 105.489 162.419 105.408 162.454C105.343 162.482 105.271 162.5 105.205 162.526C104.696 162.731 104.178 162.918 103.645 163.075C103.624 163.082 103.604 163.091 103.582 163.097C103.578 163.097 103.573 163.097 103.569 163.099C103.007 163.261 102.429 163.389 101.841 163.496C101.773 163.509 101.708 163.531 101.64 163.542C101.55 163.557 101.454 163.559 101.362 163.575C100.851 163.655 100.329 163.716 99.8003 163.758C99.7151 163.764 99.6364 163.782 99.5512 163.786C99.5228 163.786 99.49 163.786 99.4616 163.786C98.8062 163.825 98.1377 163.828 97.4583 163.801C97.3927 163.801 97.3294 163.806 97.2638 163.801C97.1786 163.797 97.0868 163.78 97.0016 163.775C96.2435 163.734 95.4745 163.664 94.6902 163.544H94.688C94.1724 163.466 93.6546 163.368 93.1303 163.254C92.9599 163.217 92.7873 163.169 92.6169 163.13C92.2935 163.054 91.9724 162.984 91.6447 162.894C91.6119 162.886 91.5791 162.873 91.5485 162.864C90.9325 162.696 90.312 162.504 89.6828 162.29C89.5583 162.249 89.4315 162.195 89.307 162.151C88.8002 161.972 88.2911 161.78 87.7755 161.571C87.7078 161.543 87.6422 161.523 87.5745 161.495C87.45 161.442 87.3233 161.377 87.1966 161.322C86.6504 161.089 86.102 160.838 85.5493 160.57C85.3396 160.47 85.132 160.37 84.9223 160.265C84.1969 159.899 83.4694 159.515 82.7332 159.09C81.8156 158.562 80.9089 157.986 80.011 157.387C79.858 157.284 79.7029 157.186 79.55 157.081C78.6914 156.497 77.8437 155.882 77.007 155.237C76.8453 155.113 76.6836 154.986 76.522 154.857C75.6699 154.188 74.8266 153.499 73.9986 152.773C73.9243 152.71 73.8544 152.64 73.7801 152.577C72.9805 151.87 72.194 151.138 71.4206 150.381C71.342 150.305 71.2612 150.237 71.1825 150.161C71.1344 150.113 71.0864 150.063 71.0383 150.012C70.4441 149.424 69.8542 148.824 69.2752 148.207C69.2425 148.172 69.2119 148.137 69.1813 148.102C68.6329 147.518 68.0955 146.921 67.5624 146.315C67.5121 146.256 67.4575 146.201 67.4073 146.142C67.3417 146.066 67.2828 145.985 67.2172 145.911C66.3499 144.908 65.5 143.879 64.6764 142.821C64.6523 142.791 64.6261 142.763 64.6021 142.732C64.5387 142.651 64.4797 142.564 64.4164 142.481C63.7609 141.629 63.1187 140.761 62.4938 139.878C62.4305 139.791 62.3627 139.706 62.3016 139.618C62.2732 139.577 62.2469 139.533 62.2164 139.492C61.6177 138.637 61.0344 137.765 60.4664 136.884C60.4118 136.801 60.3528 136.721 60.3003 136.636C60.2195 136.509 60.1452 136.378 60.0666 136.252C59.61 135.53 59.1621 134.8 58.7273 134.063C58.6596 133.947 58.5832 133.834 58.5154 133.716C58.4892 133.672 58.4652 133.627 58.4411 133.583C57.9496 132.737 57.4733 131.882 57.0102 131.021C56.973 130.951 56.9315 130.881 56.8922 130.812C56.8157 130.67 56.748 130.524 56.6737 130.38C56.3132 129.693 55.9615 129.002 55.6207 128.306C55.5508 128.162 55.4721 128.021 55.4022 127.877C55.3607 127.79 55.3235 127.702 55.282 127.617C54.8604 126.737 54.454 125.853 54.0651 124.966C54.052 124.938 54.0389 124.911 54.028 124.883C53.9865 124.789 53.9515 124.693 53.91 124.598C53.5648 123.795 53.2349 122.988 52.9182 122.177C52.8679 122.046 52.8089 121.918 52.7587 121.787C52.7171 121.678 52.6822 121.569 52.6407 121.46C52.278 120.505 51.9285 119.548 51.6073 118.586C51.6008 118.566 51.5942 118.549 51.5876 118.529C51.568 118.471 51.5527 118.414 51.5352 118.355C51.2075 117.365 50.9082 116.375 50.6264 115.383C50.5914 115.259 50.5477 115.137 50.5128 115.012C50.4931 114.945 50.4822 114.877 50.4625 114.81C50.1457 113.658 49.8661 112.507 49.6148 111.358C49.593 111.256 49.5624 111.155 49.5406 111.053C49.5078 110.904 49.4859 110.756 49.4553 110.606C49.3614 110.154 49.2762 109.703 49.1954 109.252C49.1386 108.94 49.0796 108.626 49.0293 108.314L49.0271 108.327Z" fill="#151720"/>
<mask id="mask3_2749_17055" style="mask-type:luminance" maskUnits="userSpaceOnUse" x="141" y="200" width="31" height="20">
<path d="M141.072 219.677L166.387 204.996C168.307 203.882 170.061 202.487 171.63 200.816L146.315 215.497C144.749 217.167 142.992 218.563 141.072 219.677Z" fill="white"/>
</mask>
<g mask="url(#mask3_2749_17055)">
<path d="M141.072 219.677L166.387 204.996C168.307 203.882 170.061 202.487 171.63 200.816L146.315 215.497C144.749 217.167 142.992 218.563 141.072 219.677Z" fill="#818181"/>
</g>
<mask id="mask4_2749_17055" style="mask-type:luminance" maskUnits="userSpaceOnUse" x="24" y="1" width="33" height="19">
<path d="M49.9733 4.5195L24.661 19.2003C26.6906 18.0229 28.9037 17.1616 31.2785 16.6361L56.5908 1.95532C54.2182 2.48298 52.0029 3.34425 49.9733 4.5195Z" fill="white"/>
</mask>
<g mask="url(#mask4_2749_17055)">
<path d="M31.2764 16.6361L56.5908 1.95532C56.0883 2.06652 55.5902 2.19517 55.1008 2.3369L29.7864 17.0177C30.2758 16.8759 30.7717 16.7495 31.2764 16.6361Z" fill="#151720"/>
<path d="M29.7885 17.0177L55.1008 2.33472C54.2466 2.5811 53.4164 2.87546 52.6102 3.21125L27.2958 17.892C28.1019 17.5541 28.9343 17.2619 29.7864 17.0155" fill="#151720"/>
<path d="M27.2959 17.8942L52.6104 3.21344C51.7933 3.55359 51.0002 3.9417 50.2334 4.37342L24.9189 19.0542C25.6857 18.6225 26.4788 18.2365 27.2959 17.8942Z" fill="#151720"/>
<path d="M24.9209 19.052L50.2354 4.37122C50.148 4.41919 50.0606 4.46933 49.9754 4.51948L24.6609 19.2003C24.7483 19.1501 24.8335 19.1 24.9209 19.052Z" fill="#151720"/>
</g>
<path d="M146.315 215.497L171.628 200.816L174.809 197.421L149.496 212.102L146.315 215.497Z" fill="#7D7D7D"/>
<path d="M35.8381 15.6266L61.1504 0.945801L56.5909 1.95534L31.2764 16.6361L35.8381 15.6266Z" fill="#151720"/>
<path d="M149.496 212.102L174.809 197.421L164.158 174.608L138.844 189.288L149.496 212.102Z" fill="#AFAFAF"/>
<path d="M50.3205 36.2621L75.6328 21.5791L61.1502 0.945801L35.8379 15.6266L50.3205 36.2621Z" fill="#151720"/>
<mask id="mask5_2749_17055" style="mask-type:luminance" maskUnits="userSpaceOnUse" x="138" y="159" width="33" height="31">
<path d="M138.844 189.288L164.158 174.608C167.103 170.561 169.404 165.646 170.931 159.931L145.616 174.612C144.089 180.327 141.786 185.242 138.844 189.288Z" fill="white"/>
</mask>
<g mask="url(#mask5_2749_17055)">
<path d="M138.844 189.288L164.158 174.608C167.103 170.561 169.404 165.646 170.931 159.931L145.616 174.612C144.089 180.327 141.786 185.242 138.844 189.288Z" fill="#818181"/>
</g>
<path d="M63.7698 37.204C63.5077 37.1473 63.2477 37.0928 62.9877 37.0405C62.3323 36.9075 61.6834 36.7898 61.0367 36.6851C60.8292 36.6524 60.6195 36.6131 60.4141 36.5804C59.691 36.4736 58.9722 36.382 58.26 36.3101C58.225 36.3057 58.1901 36.3013 58.1551 36.297C57.4101 36.2228 56.6717 36.1749 55.9398 36.1378C55.6754 36.1247 55.4155 36.1225 55.1533 36.116C54.7251 36.1029 54.2947 36.092 53.8708 36.0942C53.589 36.0942 53.3093 36.1051 53.0297 36.1116C52.6277 36.1204 52.2279 36.1334 51.8303 36.1552C51.3234 36.1836 50.8166 36.2141 50.3163 36.2599L75.6286 21.577C76.0196 21.5399 76.4151 21.5094 76.8105 21.4832C76.9198 21.4767 77.0333 21.4767 77.1426 21.4701C77.538 21.4483 77.9356 21.4374 78.3355 21.4265C78.6173 21.42 78.8969 21.4112 79.1788 21.4091C79.6004 21.4091 80.0286 21.42 80.4568 21.4309C80.6687 21.4374 80.8785 21.4309 81.0926 21.4418C81.145 21.4439 81.1974 21.4505 81.2499 21.4527C81.9796 21.4876 82.7158 21.5377 83.4608 21.6118C83.5023 21.6162 83.5439 21.6227 83.5854 21.6271C84.291 21.6991 85.001 21.7885 85.7198 21.8953C85.781 21.904 85.84 21.9084 85.9012 21.9171C86.0497 21.9389 86.2005 21.976 86.349 22C86.9913 22.1046 87.638 22.2202 88.2913 22.3532C88.5534 22.4055 88.8156 22.46 89.0799 22.5189C89.7747 22.6715 90.4738 22.8394 91.1773 23.0248C91.3084 23.0596 91.4373 23.0836 91.5684 23.1185C91.6536 23.1403 91.7388 23.1643 91.824 23.1883L66.5095 37.8691C66.2954 37.8102 66.0835 37.7622 65.8694 37.7077C65.1615 37.5224 64.4602 37.3523 63.7633 37.1997L63.7698 37.204Z" fill="#151720"/>
<path d="M144.325 130.581C143.934 129.046 143.513 127.511 143.063 125.978C142.977 125.69 142.897 125.4 142.809 125.112C142.348 123.581 141.852 122.053 141.334 120.527C140.908 119.271 140.445 118.017 139.98 116.763C139.668 115.922 139.377 115.078 139.049 114.238L164.364 99.5576C164.462 99.8105 164.56 100.063 164.659 100.316C164.886 100.905 165.076 101.496 165.294 102.085C165.76 103.336 166.221 104.588 166.647 105.846C166.717 106.053 166.802 106.26 166.872 106.467C167.313 107.786 167.726 109.108 168.124 110.431C168.211 110.721 168.292 111.011 168.377 111.299C168.552 111.892 168.733 112.485 168.897 113.076C169.159 114.016 169.4 114.958 169.638 115.898C169.692 116.113 169.753 116.329 169.808 116.543C170.136 117.86 170.444 119.177 170.726 120.492C170.833 120.995 170.938 121.497 171.038 121.998C171.038 121.998 171.038 122.001 171.038 122.003L145.724 136.684C145.359 134.867 144.946 133.047 144.491 131.224C144.439 131.01 144.378 130.796 144.323 130.583L144.325 130.581Z" fill="#151720"/>
<path d="M111.764 69.1995C110.58 67.8433 109.372 66.5176 108.148 65.2181C107.731 64.7755 107.305 64.3546 106.883 63.9207C105.981 62.9897 105.076 62.063 104.157 61.1669C103.897 60.9139 103.635 60.6654 103.375 60.4168C102.129 59.2263 100.871 58.0554 99.5928 56.9303L124.905 42.2473C126.183 43.3724 127.439 44.5411 128.685 45.7317C128.947 45.9824 129.211 46.231 129.471 46.4861C129.696 46.7041 129.926 46.9156 130.148 47.1358C130.839 47.8183 131.512 48.5313 132.191 49.2312C132.613 49.6673 133.043 50.0903 133.461 50.5329C134.686 51.8303 135.892 53.156 137.076 54.5144C137.116 54.5602 137.159 54.6038 137.199 54.6496C137.201 54.6539 137.205 54.6561 137.207 54.6583C138.499 56.141 139.763 57.6564 141.004 59.2045L115.69 73.8874C114.447 72.3372 113.177 70.8174 111.884 69.3325C111.845 69.2868 111.803 69.2431 111.762 69.1974L111.764 69.1995Z" fill="#151720"/>
<path d="M163.533 150.043L188.846 135.362L171.04 122.001L145.726 136.684L163.533 150.043Z" fill="#151720"/>
<path d="M164.431 176.09C164.556 175.38 164.663 174.656 164.757 173.925C164.787 173.683 164.809 173.432 164.835 173.186C164.892 172.693 164.949 172.2 164.993 171.697C165.019 171.394 165.032 171.082 165.054 170.774C165.085 170.323 165.119 169.872 165.139 169.412C165.154 169.078 165.157 168.74 165.168 168.402C165.181 167.96 165.194 167.517 165.198 167.068C165.198 166.719 165.192 166.363 165.187 166.012C165.183 165.568 165.181 165.125 165.165 164.676C165.154 164.312 165.133 163.943 165.115 163.577C165.093 163.13 165.074 162.685 165.043 162.234C165.017 161.857 164.984 161.475 164.951 161.096C164.914 160.646 164.877 160.199 164.831 159.746C164.792 159.36 164.744 158.97 164.698 158.579C164.63 158.004 164.567 157.43 164.484 156.848L163.531 150.039L188.846 135.358L189.798 142.167C189.833 142.422 189.868 142.678 189.901 142.933C189.942 143.258 189.973 143.576 190.01 143.899C190.056 144.289 190.104 144.679 190.143 145.065C190.189 145.516 190.226 145.966 190.264 146.413C190.294 146.792 190.329 147.174 190.355 147.551C190.386 148.002 190.406 148.447 190.427 148.894C190.445 149.26 190.467 149.629 190.478 149.993C190.491 150.442 190.495 150.887 190.499 151.329C190.504 151.681 190.513 152.036 190.51 152.385C190.508 152.834 190.493 153.274 190.48 153.719C190.471 154.055 190.467 154.395 190.451 154.729C190.432 155.189 190.397 155.638 190.366 156.092C190.344 156.399 190.331 156.709 190.305 157.014C190.261 157.518 190.205 158.01 190.148 158.505C190.119 158.749 190.1 159 190.069 159.242C189.975 159.975 189.868 160.697 189.744 161.41L188.756 167.1L163.442 181.781L164.429 176.09H164.431Z" fill="#151720"/>
<path d="M76.5288 21.7427C75.928 21.4919 75.3272 21.2499 74.7286 21.0275L69.2755 18.9997L94.5878 4.31891L100.041 6.3467C100.585 6.54948 101.131 6.76316 101.677 6.98774C101.732 7.00955 101.786 7.03789 101.841 7.06188C102.818 7.46744 103.796 7.91442 104.777 8.39412C104.989 8.4966 105.199 8.60344 105.411 8.71028C106.418 9.21832 107.425 9.74816 108.435 10.3303C111.242 11.9482 114.047 13.8474 116.82 16.0125L122.266 20.2665L96.9516 34.9473L91.5051 30.6933C88.7327 28.5281 85.9275 26.629 83.1201 25.0111C82.113 24.4311 81.1058 23.8991 80.0986 23.3932C79.8867 23.2864 79.6748 23.1796 79.4629 23.0749C78.4841 22.5974 77.5054 22.1504 76.531 21.7448L76.5288 21.7427Z" fill="#151720"/>
<path d="M99.5908 56.9325L124.905 42.2495L122.264 20.2643L96.9495 34.9451L99.5908 56.9325Z" fill="#151720"/>
<path d="M139.049 114.236L164.364 99.5532L175.198 88.9978L149.883 103.681L139.049 114.236Z" fill="#151720"/>
<path d="M130.35 69.954L155.664 55.2732L141.005 59.2067L115.692 73.8875L130.35 69.954Z" fill="#151720"/>
<path d="M141.736 86.8631C141.564 86.5601 141.402 86.2526 141.227 85.9517C140.325 84.3993 139.386 82.8708 138.413 81.3663C138.127 80.9237 137.824 80.4919 137.531 80.0515C136.67 78.7563 135.803 77.4633 134.889 76.2096L130.35 69.9562L155.664 55.2732L160.204 61.5266C160.547 61.9976 160.886 62.4708 161.22 62.9483C161.779 63.7441 162.308 64.5618 162.845 65.3707C163.138 65.809 163.44 66.2385 163.726 66.6812C163.802 66.7989 163.883 66.9101 163.959 67.0278C164.803 68.3448 165.618 69.6771 166.409 71.0267C166.454 71.1052 166.496 71.1859 166.542 71.2666C166.717 71.5675 166.878 71.8771 167.051 72.1802C167.586 73.1199 168.124 74.0575 168.633 75.0126C168.805 75.3374 168.963 75.671 169.133 75.9981C169.395 76.5018 169.649 77.0098 169.904 77.5179C170.16 78.0281 170.433 78.5339 170.682 79.0485C171.147 80.0144 171.602 80.9847 172.039 81.9594L175.198 88.9978L149.883 103.681L146.722 96.6423C146.051 95.1466 145.326 93.6704 144.59 92.2008C144.334 91.6928 144.081 91.1847 143.818 90.6811C143.15 89.3946 142.455 88.1234 141.736 86.8631Z" fill="#151720"/>
<path d="M1.26881 62.8065C0.26384 68.5999 0.244171 75.1128 1.21419 82.0444L2.16673 88.8539L19.9745 102.213C21.4645 109.646 23.7125 117.154 26.6073 124.554L15.8453 135.048L18.9957 142.082C22.2095 149.243 26.2162 156.161 30.8282 162.517L35.3681 168.771L49.8943 164.872C54.9127 171.136 60.3461 176.904 66.1094 181.967L68.7508 203.954L74.1973 208.208C76.9697 210.373 79.7749 212.272 82.5823 213.89C85.3897 215.508 88.197 216.842 90.9716 217.874L96.4247 219.902L99.1819 201.026C104.928 202.604 110.359 203.11 115.379 202.639L129.862 223.273L134.415 222.259C139.047 221.229 143.082 218.944 146.315 215.499L149.496 212.104L138.846 189.291C141.791 185.244 144.091 180.329 145.618 174.614L163.444 181.786L164.431 176.095C165.436 170.301 165.456 163.788 164.486 156.857L163.533 150.047L145.725 136.688C144.227 129.218 141.961 121.671 139.049 114.241L149.883 103.685L146.724 96.6467C143.51 89.4862 139.51 82.5721 134.891 76.2118L130.351 69.9583L115.694 73.8918C110.711 67.6776 105.312 61.9627 99.5926 56.9347L96.9513 34.9473L91.5047 30.6933C88.7323 28.5281 85.9271 26.6268 83.1197 25.0111C80.3124 23.3932 77.505 22.0588 74.7304 21.0275L69.2773 18.9997L66.5201 37.8756C60.7743 36.297 55.3322 35.7846 50.3226 36.2621L35.84 15.6288L31.2783 16.6383C26.6466 17.6674 22.6202 19.9678 19.3868 23.4129L16.1971 26.7925L26.8564 49.6106C23.9114 53.6684 21.6108 58.5722 20.0837 64.2871L2.2585 57.1156L1.271 62.8065H1.26881ZM82.7374 159.098C63.6429 148.096 48.2143 121.427 48.2776 99.5292C48.3388 77.6312 63.8679 68.7983 82.9624 79.8008C102.057 90.8032 117.486 117.474 117.422 139.372C117.361 161.27 101.832 170.101 82.7374 159.098Z" fill="#364557"/>
<path d="M19.4023 65.301L2.04679 58.3192L2.25654 57.1156L19.7366 64.1475C19.6252 64.5313 19.5072 64.9085 19.4023 65.301Z" fill="#151720"/>
<path d="M82.058 160.112C62.9635 149.11 47.5349 122.441 47.5982 100.543C47.6179 93.3434 49.3198 87.5674 52.2605 83.4355C49.7393 87.4802 48.2952 92.9007 48.2777 99.5292C48.2165 121.427 63.6429 148.096 82.7375 159.098C95.5553 166.483 106.756 164.922 112.762 156.48C106.951 165.803 95.3761 167.787 82.0602 160.114L82.058 160.112Z" fill="#151720"/>
<path d="M26.1751 50.6224C25.9784 50.8927 25.7949 51.1762 25.6048 51.4531C25.7884 51.1653 25.9784 50.8862 26.1685 50.6049L26.1772 50.6224H26.1751Z" fill="white"/>
<path d="M65.8389 38.8895C60.093 37.3109 54.6531 36.8007 49.6413 37.276L35.1587 16.6427L30.597 17.6522C25.9654 18.6814 21.9389 20.9817 18.7055 24.4246L16.287 26.9866L16.1952 26.7882L19.3849 23.4085C22.6183 19.9634 26.6448 17.6631 31.2764 16.6339L35.8381 15.6266L50.3207 36.2599C55.1818 35.7977 60.4491 36.273 66.0071 37.7426L65.8389 38.8873V38.8895Z" fill="#151720"/>
<path d="M25.9282 125.572L15.9527 135.297L15.8413 135.05L25.8299 125.311C25.8627 125.398 25.8911 125.485 25.926 125.572H25.9282Z" fill="#151720"/>
<path d="M138.166 190.305C138.402 189.98 138.625 189.642 138.852 189.308L149.494 212.102L148.725 212.922L138.164 190.305H138.166Z" fill="#151720"/>
<path d="M139.425 188.447C141.769 184.779 143.639 180.497 144.939 175.626L145.284 175.765C143.873 180.608 141.893 184.849 139.425 188.447Z" fill="white"/>
<path d="M98.5027 202.037C98.6731 202.085 98.8435 202.122 99.0139 202.166L96.425 219.897L95.9225 219.71L98.5049 202.035L98.5027 202.037Z" fill="#151720"/>
<path d="M163.752 177.106C164.757 171.313 164.776 164.8 163.806 157.869L162.854 151.059L145.046 137.697C143.547 130.23 141.282 122.683 138.37 115.25L139.143 114.496C142.005 121.844 144.242 129.301 145.723 136.681L163.531 150.041L164.484 156.85C165.454 163.782 165.434 170.295 164.429 176.088L163.442 181.779L162.972 181.592L163.75 177.104L163.752 177.106Z" fill="#151720"/>
<path d="M146.045 97.6584C142.831 90.4979 138.831 83.5838 134.212 77.2235L129.672 70.9701L115.015 74.9035C110.032 68.6893 104.633 62.9745 98.9135 57.9464L96.2722 35.959L90.8257 31.7072C88.0532 29.542 85.248 27.6407 82.4407 26.0228C79.6333 24.405 76.8259 23.0727 74.0513 22.0414L69.1007 20.1989L69.2755 18.9975L74.7286 21.0253C77.5032 22.0567 80.3128 23.3911 83.118 25.009C85.9253 26.6268 88.7305 28.526 91.5029 30.6911L96.9495 34.9451L99.5908 56.9325C105.31 61.9606 110.709 67.6754 115.692 73.8896L130.35 69.9562L134.889 76.2096C139.51 82.5699 143.508 89.484 146.722 96.6445L149.883 103.683L149.095 104.45L146.045 97.6584Z" fill="#151720"/>
<path d="M221.149 178.177L240.578 166.909L242.693 152.42L223.264 163.688L221.149 178.177Z" fill="#151720"/>
<path d="M162.553 58.74L181.981 47.4716L168.301 41.9682L148.872 53.2367L162.553 58.74Z" fill="#151720"/>
<path d="M184.771 92.5431C184.712 92.1855 184.66 91.8301 184.609 91.4747C184.585 91.3068 184.555 91.1389 184.533 90.971C184.526 90.9274 184.526 90.8838 184.52 90.8402C184.424 90.0771 184.349 89.3205 184.297 88.5682C184.286 88.4069 184.277 88.2477 184.269 88.0885C184.223 87.3167 184.192 86.547 184.194 85.7882C184.218 77.4393 187.172 71.5631 191.935 68.8005L211.364 57.5321C206.601 60.2947 203.647 66.1709 203.623 74.5198C203.621 75.2785 203.652 76.0482 203.697 76.8201C203.706 76.9793 203.715 77.1384 203.726 77.2998C203.778 78.052 203.853 78.8108 203.949 79.5718C203.975 79.7811 204.008 79.9926 204.038 80.2041C204.089 80.5595 204.141 80.9171 204.2 81.2747C204.239 81.5145 204.285 81.7544 204.329 81.9942C204.392 82.3409 204.458 82.6876 204.53 83.0343C204.569 83.2262 204.611 83.4181 204.652 83.6099C204.844 84.4908 205.061 85.3739 205.303 86.2591C205.343 86.4074 205.386 86.5535 205.428 86.6996C205.644 87.4606 205.873 88.2215 206.125 88.9803C206.144 89.0392 206.162 89.0959 206.181 89.1547C206.428 89.8917 206.695 90.6265 206.975 91.3613C207.044 91.5445 207.117 91.7298 207.189 91.913C207.431 92.5344 207.685 93.1536 207.951 93.7729C207.99 93.8666 208.028 93.9604 208.069 94.052C208.366 94.7344 208.679 95.4126 209.004 96.0885C209.089 96.2651 209.177 96.4417 209.264 96.6183C209.526 97.1525 209.795 97.6824 210.072 98.21C210.158 98.3736 210.243 98.5371 210.33 98.7006C210.684 99.3613 211.051 100.018 211.429 100.667C211.501 100.792 211.576 100.914 211.65 101.036C211.984 101.601 212.327 102.159 212.677 102.713C212.779 102.876 212.882 103.04 212.989 103.203C213.426 103.879 213.872 104.546 214.331 105.203C214.4 105.301 214.47 105.397 214.54 105.497C215.021 106.175 215.515 106.842 216.017 107.496C216.083 107.581 216.148 107.671 216.216 107.756C216.85 108.569 217.501 109.359 218.169 110.128C218.256 110.231 218.344 110.333 218.431 110.436C218.842 110.904 219.259 111.367 219.683 111.818C219.705 111.842 219.725 111.866 219.746 111.888C220.192 112.361 220.644 112.823 221.103 113.275C221.199 113.368 221.298 113.46 221.394 113.554C221.99 114.136 222.595 114.698 223.209 115.243C223.264 115.291 223.319 115.344 223.373 115.392C224.009 115.95 224.658 116.48 225.311 116.994C225.433 117.09 225.558 117.188 225.68 117.282C226.325 117.777 226.976 118.25 227.636 118.699C227.751 118.778 227.869 118.854 227.987 118.933C228.678 119.393 229.375 119.835 230.078 120.241C230.644 120.568 231.203 120.862 231.76 121.144C231.92 121.224 232.079 121.301 232.239 121.377C232.665 121.582 233.086 121.776 233.506 121.955C233.654 122.018 233.801 122.086 233.949 122.145C234.345 122.306 234.736 122.452 235.125 122.592C235.221 122.626 235.319 122.666 235.413 122.698C235.896 122.864 236.372 123.008 236.844 123.139C237.122 123.215 237.397 123.281 237.672 123.344C237.801 123.374 237.93 123.409 238.057 123.438C238.461 123.525 238.861 123.599 239.256 123.66C239.859 123.751 240.449 123.804 241.03 123.837C241.148 123.843 241.264 123.852 241.38 123.856C241.902 123.876 242.415 123.874 242.918 123.843C243.005 123.839 243.092 123.826 243.18 123.819C243.586 123.789 243.986 123.741 244.377 123.68C244.499 123.66 244.622 123.64 244.744 123.618C245.194 123.536 245.64 123.438 246.07 123.313C246.09 123.307 246.11 123.3 246.127 123.294C246.536 123.174 246.933 123.03 247.322 122.873C247.436 122.827 247.549 122.777 247.663 122.729C247.995 122.583 248.323 122.426 248.64 122.254C248.744 122.197 248.854 122.147 248.958 122.086L229.53 133.354C229.482 133.382 229.434 133.411 229.383 133.437C229.329 133.467 229.268 133.489 229.211 133.52C228.892 133.692 228.566 133.851 228.232 133.997C228.171 134.023 228.112 134.058 228.051 134.087C228 134.108 227.946 134.122 227.893 134.141C227.502 134.298 227.105 134.442 226.696 134.562C226.679 134.566 226.666 134.575 226.648 134.579C226.646 134.579 226.641 134.579 226.639 134.579C226.209 134.704 225.763 134.802 225.313 134.885C225.261 134.896 225.21 134.911 225.158 134.92C225.088 134.931 225.016 134.933 224.946 134.944C224.553 135.005 224.153 135.053 223.747 135.083C223.681 135.088 223.62 135.101 223.554 135.105C223.533 135.105 223.509 135.105 223.487 135.105C222.984 135.135 222.471 135.135 221.949 135.118C221.898 135.118 221.85 135.122 221.8 135.118C221.735 135.116 221.665 135.101 221.599 135.098C221.018 135.066 220.428 135.013 219.825 134.92H219.823C219.43 134.859 219.03 134.784 218.628 134.697C218.499 134.669 218.366 134.632 218.235 134.601C217.986 134.542 217.739 134.488 217.49 134.42C217.466 134.414 217.439 134.405 217.415 134.398C216.943 134.27 216.465 134.122 215.984 133.958C215.888 133.925 215.792 133.886 215.696 133.851C215.307 133.714 214.916 133.566 214.521 133.404C214.468 133.382 214.418 133.367 214.365 133.345C214.269 133.306 214.171 133.254 214.077 133.215C213.658 133.036 213.238 132.844 212.814 132.639C212.655 132.56 212.493 132.484 212.331 132.403C211.774 132.122 211.215 131.828 210.651 131.503C209.948 131.097 209.251 130.655 208.561 130.195C208.443 130.116 208.325 130.04 208.207 129.959C207.549 129.51 206.898 129.039 206.254 128.544C206.129 128.448 206.005 128.35 205.882 128.254C205.229 127.742 204.582 127.212 203.946 126.654C203.89 126.603 203.835 126.553 203.78 126.503C203.167 125.96 202.564 125.398 201.969 124.818C201.91 124.759 201.847 124.707 201.788 124.648C201.751 124.611 201.716 124.571 201.677 124.534C201.22 124.083 200.768 123.623 200.322 123.15C200.298 123.124 200.274 123.095 200.25 123.069C199.83 122.62 199.415 122.162 199.007 121.698C198.967 121.652 198.926 121.61 198.887 121.567C198.836 121.508 198.791 121.447 198.74 121.388C198.074 120.618 197.421 119.829 196.789 119.018C196.772 118.994 196.752 118.972 196.733 118.948C196.684 118.885 196.639 118.819 196.591 118.756C196.086 118.102 195.594 117.437 195.114 116.759C195.066 116.691 195.013 116.628 194.965 116.558C194.943 116.528 194.924 116.493 194.9 116.462C194.439 115.806 193.993 115.137 193.556 114.461C193.514 114.397 193.469 114.334 193.427 114.271C193.366 114.175 193.309 114.075 193.248 113.977C192.896 113.423 192.553 112.862 192.219 112.296C192.166 112.206 192.11 112.119 192.057 112.03C192.038 111.995 192.02 111.96 192 111.927C191.622 111.277 191.258 110.621 190.901 109.96C190.873 109.906 190.84 109.853 190.812 109.799C190.753 109.69 190.7 109.579 190.644 109.468C190.366 108.94 190.097 108.41 189.835 107.876C189.781 107.765 189.722 107.658 189.667 107.547C189.634 107.481 189.608 107.414 189.575 107.348C189.252 106.672 188.94 105.994 188.642 105.312C188.634 105.29 188.623 105.27 188.614 105.248C188.583 105.176 188.555 105.102 188.524 105.03C188.26 104.413 188.007 103.794 187.764 103.173C187.725 103.072 187.681 102.974 187.642 102.874C187.609 102.791 187.583 102.706 187.552 102.623C187.273 101.891 187.006 101.156 186.759 100.419C186.755 100.404 186.748 100.39 186.744 100.375C186.729 100.332 186.718 100.286 186.702 100.242C186.451 99.4834 186.22 98.7224 186.005 97.9615C185.979 97.8655 185.944 97.7718 185.918 97.6758C185.903 97.6235 185.894 97.5734 185.879 97.521C185.636 96.638 185.42 95.7527 185.228 94.8718C185.21 94.7933 185.186 94.7148 185.171 94.6385C185.147 94.5251 185.129 94.4096 185.105 94.2962C185.033 93.9495 184.968 93.6028 184.904 93.2561C184.861 93.0163 184.817 92.7764 184.775 92.5366L184.771 92.5431Z" fill="#8E8E8E"/>
<mask id="mask6_2749_17055" style="mask-type:luminance" maskUnits="userSpaceOnUse" x="255" y="163" width="24" height="16">
<path d="M255.417 178.007L274.845 166.739C276.32 165.884 277.666 164.811 278.87 163.531L259.441 174.8C258.237 176.082 256.891 177.152 255.417 178.007Z" fill="white"/>
</mask>
<g mask="url(#mask6_2749_17055)">
<path d="M255.417 178.007L274.845 166.739C276.32 165.884 277.666 164.811 278.87 163.531L259.441 174.8C258.237 176.082 256.891 177.152 255.417 178.007Z" fill="#151720"/>
</g>
<mask id="mask7_2749_17055" style="mask-type:luminance" maskUnits="userSpaceOnUse" x="166" y="10" width="25" height="15">
<path d="M185.497 12.8683L166.068 24.1368C167.626 23.2341 169.325 22.5734 171.147 22.1678L190.576 10.8994C188.754 11.305 187.057 11.9656 185.497 12.8683Z" fill="white"/>
</mask>
<g mask="url(#mask7_2749_17055)">
<path d="M171.145 22.1678L190.574 10.8994C190.187 10.9845 189.807 11.0826 189.431 11.1916L170.002 22.46C170.378 22.351 170.758 22.2529 171.145 22.1678Z" fill="#364557"/>
<path d="M170.002 22.46L189.431 11.1916C188.776 11.3813 188.138 11.6059 187.52 11.8653L168.091 23.1338C168.711 22.8743 169.347 22.6497 170.002 22.46Z" fill="#364557"/>
<path d="M168.091 23.1337L187.52 11.8653C186.893 12.127 186.285 12.4235 185.695 12.7549L166.266 24.0234C166.854 23.6919 167.464 23.3954 168.091 23.1337Z" fill="#364557"/>
<path d="M166.267 24.0234L185.695 12.7549C185.628 12.792 185.562 12.8313 185.497 12.8683L166.068 24.1367C166.133 24.0975 166.201 24.0604 166.267 24.0234Z" fill="#364557"/>
</g>
<path d="M259.439 174.797L278.868 163.529L281.31 160.923L261.881 172.192L259.439 174.797Z" fill="#151720"/>
<path d="M174.647 21.3938L194.076 10.1254L190.574 10.8994L171.145 22.1678L174.647 21.3938Z" fill="#364557"/>
<path d="M261.881 172.192L281.31 160.923L273.135 143.415L253.706 154.683L261.881 172.192Z" fill="#151720"/>
<path d="M185.763 37.2302L205.19 25.9618L194.076 10.1254L174.647 21.3938L185.763 37.2302Z" fill="#151720"/>
<mask id="mask8_2749_17055" style="mask-type:luminance" maskUnits="userSpaceOnUse" x="253" y="132" width="26" height="23">
<path d="M253.706 154.683L273.135 143.415C275.394 140.307 277.161 136.535 278.334 132.15L258.906 143.419C257.735 147.806 255.967 151.578 253.706 154.683Z" fill="white"/>
</mask>
<g mask="url(#mask8_2749_17055)">
<path d="M253.706 154.683L273.135 143.415C275.394 140.307 277.161 136.535 278.334 132.15L258.906 143.419C257.735 147.806 255.967 151.578 253.706 154.683Z" fill="#151720"/>
</g>
<path d="M196.086 37.9541C195.885 37.9105 195.686 37.869 195.485 37.8276C194.982 37.7251 194.484 37.6357 193.988 37.5551C193.829 37.5289 193.669 37.4984 193.51 37.4766C192.955 37.3937 192.402 37.3239 191.856 37.2694C191.83 37.2672 191.804 37.2629 191.775 37.2607C191.203 37.204 190.637 37.1669 190.076 37.1386C189.872 37.1299 189.674 37.1277 189.47 37.1212C189.14 37.1124 188.813 37.1037 188.487 37.1037C188.271 37.1037 188.057 37.1124 187.843 37.1168C187.535 37.1233 187.227 37.1321 186.923 37.1495C186.534 37.1713 186.145 37.1931 185.761 37.2302L205.189 25.9618C205.491 25.9334 205.792 25.9094 206.096 25.8898C206.181 25.8854 206.267 25.8854 206.352 25.8811C206.655 25.8636 206.961 25.8549 207.267 25.8484C207.483 25.844 207.698 25.8375 207.916 25.8353C208.239 25.8353 208.569 25.844 208.897 25.8527C209.061 25.8571 209.22 25.8527 209.384 25.8615C209.423 25.8615 209.465 25.868 209.504 25.8702C210.066 25.8963 210.629 25.9356 211.202 25.9923C211.232 25.9945 211.265 26.001 211.296 26.0032C211.838 26.0577 212.384 26.1275 212.934 26.2081C212.98 26.2147 213.026 26.2191 213.074 26.2256C213.188 26.243 213.304 26.2692 213.419 26.2888C213.913 26.3673 214.409 26.4589 214.909 26.5592C215.11 26.6006 215.311 26.6421 215.515 26.6857C216.048 26.8034 216.585 26.932 217.125 27.0738C217.225 27.0999 217.323 27.1196 217.424 27.1457C217.49 27.1632 217.555 27.1806 217.621 27.2002L198.192 38.4687C198.028 38.4229 197.864 38.388 197.7 38.3444C197.158 38.2026 196.619 38.0718 196.084 37.9541H196.086Z" fill="#151720"/>
<path d="M257.914 109.622C257.614 108.445 257.291 107.268 256.944 106.088C256.878 105.865 256.815 105.645 256.749 105.423C256.395 104.248 256.015 103.075 255.618 101.904C255.29 100.94 254.934 99.9762 254.578 99.0146C254.337 98.3692 254.117 97.7194 253.863 97.0762L273.292 85.8078C273.369 86.0019 273.443 86.1959 273.519 86.39C273.694 86.8413 273.84 87.2948 274.009 87.7484C274.365 88.7099 274.721 89.6693 275.046 90.6353C275.101 90.7944 275.164 90.9536 275.219 91.1128C275.558 92.1267 275.874 93.1406 276.18 94.1545C276.248 94.3769 276.309 94.5993 276.375 94.8217C276.508 95.2774 276.648 95.7309 276.775 96.1866C276.976 96.9083 277.159 97.63 277.343 98.3518C277.384 98.5175 277.432 98.6832 277.474 98.8467C277.725 99.8584 277.963 100.868 278.177 101.878C278.26 102.263 278.339 102.649 278.417 103.035C278.417 103.035 278.417 103.035 278.417 103.04L258.989 114.308C258.709 112.915 258.392 111.515 258.043 110.117C258.001 109.954 257.955 109.788 257.914 109.625V109.622Z" fill="#151720"/>
<path d="M232.92 62.5122C232.011 61.4699 231.085 60.4539 230.144 59.4574C229.825 59.1194 229.495 58.7946 229.173 58.461C228.481 57.748 227.786 57.035 227.081 56.3481C226.882 56.1541 226.681 55.9644 226.48 55.7725C225.523 54.8589 224.559 53.9606 223.578 53.0971L243.007 41.8287C243.988 42.6922 244.952 43.5883 245.909 44.5041C246.11 44.696 246.313 44.8878 246.511 45.0819C246.684 45.2498 246.859 45.4111 247.031 45.5812C247.562 46.1045 248.078 46.6518 248.6 47.1904C248.923 47.524 249.253 47.8488 249.574 48.189C250.514 49.1854 251.44 50.2015 252.351 51.2438C252.382 51.2787 252.415 51.3114 252.445 51.3462C252.445 51.3484 252.45 51.3506 252.452 51.3528C253.441 52.491 254.414 53.6531 255.366 54.8415L235.937 66.1099C234.983 64.9194 234.008 63.7528 233.016 62.6147C232.986 62.5798 232.953 62.5471 232.922 62.5122H232.92Z" fill="#151720"/>
<path d="M272.654 124.56L292.083 113.292L278.415 103.037L258.989 114.306L272.654 124.56Z" fill="#151720"/>
<path d="M273.345 144.553C273.439 144.008 273.522 143.452 273.594 142.891C273.618 142.704 273.633 142.512 273.655 142.324C273.699 141.945 273.742 141.568 273.775 141.182C273.795 140.948 273.806 140.711 273.821 140.475C273.845 140.129 273.871 139.782 273.886 139.429C273.897 139.174 273.902 138.912 273.908 138.655C273.917 138.315 273.93 137.977 273.93 137.632C273.93 137.364 273.926 137.091 273.921 136.821C273.917 136.479 273.915 136.138 273.904 135.794C273.895 135.515 273.88 135.231 273.865 134.952C273.849 134.61 273.834 134.268 273.81 133.923C273.79 133.633 273.764 133.341 273.74 133.051C273.712 132.706 273.683 132.364 273.648 132.015C273.618 131.719 273.581 131.42 273.546 131.121C273.493 130.679 273.445 130.238 273.382 129.791L272.65 124.565L292.079 113.296L292.811 118.523C292.839 118.719 292.865 118.915 292.889 119.109C292.922 119.358 292.944 119.604 292.974 119.851C293.009 120.149 293.046 120.45 293.077 120.747C293.112 121.094 293.14 121.438 293.169 121.783C293.193 122.075 293.219 122.367 293.239 122.655C293.263 123.001 293.278 123.342 293.293 123.686C293.306 123.967 293.324 124.251 293.333 124.528C293.344 124.872 293.346 125.212 293.35 125.555C293.352 125.825 293.359 126.098 293.359 126.366C293.359 126.71 293.346 127.048 293.337 127.388C293.33 127.646 293.326 127.907 293.315 128.163C293.3 128.516 293.274 128.86 293.25 129.209C293.234 129.445 293.223 129.684 293.204 129.916C293.171 130.301 293.127 130.681 293.084 131.06C293.062 131.248 293.046 131.44 293.022 131.625C292.95 132.188 292.867 132.741 292.773 133.289L292.015 137.656L272.586 148.924L273.345 144.555V144.553Z" fill="#151720"/>
<path d="M205.878 26.0882C205.417 25.8964 204.956 25.7088 204.497 25.5388L200.311 23.982L219.74 12.7135L223.926 14.2704C224.343 14.4252 224.762 14.5887 225.182 14.7631C225.223 14.7806 225.265 14.8024 225.306 14.8198C226.056 15.1316 226.807 15.4739 227.559 15.8424C227.721 15.9209 227.882 16.0038 228.044 16.0845C228.817 16.4748 229.591 16.8803 230.364 17.3273C232.518 18.568 234.672 20.0267 236.8 21.6881L240.982 24.9522L221.553 36.2207L217.372 32.9566C215.244 31.2951 213.089 29.8364 210.935 28.5957C210.162 28.1509 209.389 27.7432 208.617 27.3529C208.453 27.27 208.292 27.1872 208.128 27.1087C207.376 26.7424 206.625 26.4 205.878 26.0882Z" fill="#151720"/>
<path d="M223.579 53.0949L243.007 41.8265L240.98 24.9522L221.551 36.2207L223.579 53.0949Z" fill="#151720"/>
<path d="M253.864 97.0762L273.292 85.8078L281.607 77.7075L262.179 88.976L253.864 97.0762Z" fill="#151720"/>
<path d="M247.187 63.09L266.616 51.8216L255.364 54.8414L235.936 66.1099L247.187 63.09Z" fill="#151720"/>
<path d="M255.926 76.0679C255.795 75.8345 255.67 75.5991 255.535 75.3679C254.842 74.1774 254.121 73.0044 253.374 71.8487C253.153 71.5086 252.922 71.1772 252.697 70.8392C252.035 69.8449 251.37 68.8528 250.669 67.8891L247.185 63.09L266.613 51.8216L270.098 56.6207C270.36 56.9826 270.62 57.3446 270.878 57.7109C271.306 58.3214 271.713 58.9494 272.125 59.5708C272.348 59.9066 272.582 60.238 272.801 60.5781C272.86 60.6675 272.923 60.7547 272.98 60.8441C273.626 61.8537 274.253 62.8785 274.859 63.9142C274.893 63.9752 274.926 64.0363 274.961 64.0973C275.097 64.3285 275.219 64.5661 275.352 64.7973C275.763 65.519 276.176 66.2385 276.565 66.9711C276.698 67.2219 276.818 67.477 276.949 67.7277C277.15 68.1137 277.345 68.504 277.541 68.8943C277.738 69.2867 277.948 69.6749 278.138 70.0695C278.496 70.8109 278.843 71.5544 279.18 72.3044L281.605 77.7054L262.176 88.9738L259.751 83.5729C259.236 82.426 258.681 81.2921 258.115 80.1649C257.92 79.7746 257.724 79.3865 257.523 78.9983C257.009 78.0106 256.476 77.036 255.926 76.0679Z" fill="#151720"/>
<path d="M148.114 57.6041C147.342 62.0499 147.327 67.0497 148.072 72.3699L148.804 77.5964L162.472 87.8509C163.614 93.5549 165.34 99.3177 167.562 104.998L159.302 113.052L161.72 118.451C164.187 123.946 167.263 129.257 170.802 134.135L174.287 138.934L185.435 135.94C189.287 140.748 193.458 145.174 197.882 149.06L199.909 165.934L204.091 169.198C206.219 170.86 208.373 172.318 210.527 173.559C212.681 174.8 214.835 175.824 216.965 176.616L221.151 178.173L223.268 163.684C227.679 164.896 231.848 165.284 235.699 164.922L246.815 180.759L250.309 179.98C253.863 179.191 256.961 177.436 259.443 174.793L261.886 172.187L253.71 154.679C255.969 151.572 257.737 147.799 258.91 143.415L272.591 148.918L273.349 144.548C274.12 140.102 274.135 135.103 273.39 129.783L272.659 124.556L258.991 114.302C257.842 108.569 256.101 102.776 253.866 97.0719L262.181 88.9716L259.756 83.5707C257.289 78.076 254.219 72.7689 250.674 67.8869L247.189 63.0878L235.938 66.1077C232.114 61.3391 227.97 56.9521 223.581 53.0928L221.553 36.2185L217.372 32.9544C215.244 31.2929 213.09 29.8342 210.936 28.5936C208.781 27.3529 206.627 26.3281 204.495 25.5366L200.309 23.9798L198.194 38.4687C193.783 37.2564 189.608 36.8639 185.763 37.2302L174.647 21.3938L171.147 22.1678C167.593 22.9572 164.501 24.7233 162.019 27.366L159.57 29.9585L167.752 47.4716C165.493 50.5853 163.726 54.3509 162.555 58.7357L148.874 53.2323L148.116 57.6019L148.114 57.6041ZM210.643 131.509C195.988 123.065 184.146 102.595 184.194 85.7882C184.243 68.9815 196.16 62.2026 210.815 70.6474C225.471 79.0921 237.312 99.5619 237.264 116.369C237.216 133.175 225.298 139.954 210.643 131.509Z" fill="#364557"/>
<path d="M162.033 59.5185L148.713 54.159L148.872 53.2345L162.289 58.631C162.203 58.9254 162.114 59.2154 162.033 59.5163V59.5185Z" fill="#151720"/>
<path d="M210.123 132.288C195.468 123.843 183.627 103.373 183.675 86.5666C183.69 81.0414 184.997 76.6086 187.254 73.4361C185.318 76.541 184.21 80.7013 184.197 85.7882C184.149 102.595 195.99 123.065 210.645 131.509C220.483 137.179 229.08 135.979 233.69 129.499C229.229 136.655 220.346 138.177 210.125 132.288H210.123Z" fill="white"/>
<path d="M167.23 48.2544C167.08 48.4615 166.938 48.6796 166.791 48.8911C166.933 48.6709 167.078 48.455 167.224 48.2413L167.23 48.2544Z" fill="white"/>
<path d="M197.674 39.2471C193.263 38.0348 189.088 37.6423 185.243 38.0086L174.127 22.1722L170.627 22.9462C167.073 23.7356 163.981 25.5017 161.5 28.1444L159.643 30.1111L159.57 29.9585L162.02 27.366C164.501 24.7211 167.593 22.9571 171.147 22.1657L174.647 21.3916L185.763 37.228C189.495 36.8726 193.536 37.2389 197.803 38.3662L197.674 39.2449V39.2471Z" fill="#151720"/>
<path d="M167.04 105.778L159.385 113.242L159.3 113.052L166.966 105.578C166.992 105.645 167.014 105.711 167.04 105.778Z" fill="white"/>
<path d="M253.186 155.461C253.367 155.213 253.538 154.953 253.713 154.696L261.881 172.192L261.291 172.822L253.186 155.461Z" fill="#151720"/>
<path d="M254.152 154.038C255.952 151.223 257.385 147.937 258.384 144.197L258.648 144.304C257.567 148.022 256.046 151.277 254.15 154.038H254.152Z" fill="#151720"/>
<path d="M222.744 164.467C222.875 164.504 223.004 164.532 223.135 164.565L221.147 178.175L220.76 178.031L222.742 164.467H222.744Z" fill="#151720"/>
<path d="M272.823 145.331C273.594 140.885 273.609 135.886 272.864 130.565L272.132 125.339L258.465 115.084C257.315 109.352 255.574 103.561 253.339 97.8546L253.933 97.2768C256.131 102.915 257.848 108.639 258.985 114.306L272.652 124.56L273.384 129.787C274.129 135.107 274.114 140.107 273.343 144.553L272.584 148.922L272.224 148.778L272.823 145.333V145.331Z" fill="#151720"/>
<path d="M259.234 84.3535C256.767 78.8588 253.698 73.5516 250.152 68.6697L246.667 63.8706L235.416 66.8905C231.593 62.1219 227.448 57.7349 223.059 53.8755L221.032 37.0012L216.85 33.7371C214.722 32.0757 212.568 30.617 210.414 29.3741C208.26 28.1335 206.105 27.1087 203.975 26.3172L200.176 24.9043L200.312 23.9819L204.497 25.5388C206.628 26.3302 208.782 27.355 210.938 28.5957C213.092 29.8364 215.246 31.2951 217.374 32.9565L221.556 36.2206L223.583 53.0949C227.972 56.9543 232.117 61.3391 235.94 66.1099L247.191 63.09L250.676 67.8891C254.222 72.771 257.291 78.0782 259.758 83.5729L262.183 88.9738L261.578 89.5625L259.238 84.3513L259.234 84.3535Z" fill="#151720"/>
<g opacity="0.15">
<path opacity="0.04" d="M87.6447 186.696C66.2011 186.696 48.8176 173.159 48.8176 156.46C48.8176 139.761 66.2011 126.224 87.6447 126.224C109.088 126.224 126.472 139.761 126.472 156.46C126.472 173.159 109.088 186.696 87.6447 186.696Z" fill="#4A0101"/>
<path opacity="0.08" d="M87.6447 185.946C66.7333 185.946 49.7812 172.745 49.7812 156.46C49.7812 140.175 66.7333 126.974 87.6447 126.974C108.556 126.974 125.508 140.175 125.508 156.46C125.508 172.745 108.556 185.946 87.6447 185.946Z" fill="#480202"/>
<path opacity="0.12" d="M87.6443 185.196C67.265 185.196 50.7442 172.33 50.7442 156.46C50.7442 140.59 67.265 127.724 87.6443 127.724C108.024 127.724 124.544 140.59 124.544 156.46C124.544 172.33 108.024 185.196 87.6443 185.196Z" fill="#460303"/>
<path opacity="0.15" d="M87.6447 184.446C67.7962 184.446 51.7059 171.916 51.7059 156.46C51.7059 141.004 67.7962 128.474 87.6447 128.474C107.493 128.474 123.583 141.004 123.583 156.46C123.583 171.916 107.493 184.446 87.6447 184.446Z" fill="#440404"/>
<path opacity="0.19" d="M87.6448 183.696C68.3284 183.696 52.6694 171.502 52.6694 156.46C52.6694 141.418 68.3284 129.224 87.6448 129.224C106.961 129.224 122.62 141.418 122.62 156.46C122.62 171.502 106.961 183.696 87.6448 183.696Z" fill="#420505"/>
<path opacity="0.23" d="M87.6444 182.946C68.8601 182.946 53.6325 171.088 53.6325 156.46C53.6325 141.832 68.8601 129.974 87.6444 129.974C106.429 129.974 121.656 141.832 121.656 156.46C121.656 171.088 106.429 182.946 87.6444 182.946Z" fill="#400606"/>
<path opacity="0.27" d="M87.6445 182.196C69.3923 182.196 54.596 170.673 54.596 156.46C54.596 142.247 69.3923 130.725 87.6445 130.725C105.897 130.725 120.693 142.247 120.693 156.46C120.693 170.673 105.897 182.196 87.6445 182.196Z" fill="#3E0606"/>
<path opacity="0.31" d="M87.6448 181.448C69.9236 181.448 55.5577 170.26 55.5577 156.46C55.5577 142.66 69.9236 131.472 87.6448 131.472C105.366 131.472 119.732 142.66 119.732 156.46C119.732 170.26 105.366 181.448 87.6448 181.448Z" fill="#3C0707"/>
<path opacity="0.35" d="M87.6444 180.698C70.4553 180.698 56.5207 169.846 56.5207 156.46C56.5207 143.074 70.4553 132.222 87.6444 132.222C104.834 132.222 118.768 143.074 118.768 156.46C118.768 169.846 104.834 180.698 87.6444 180.698Z" fill="#3A0808"/>
<path opacity="0.38" d="M87.6445 179.948C70.9875 179.948 57.4843 169.432 57.4843 156.46C57.4843 143.488 70.9875 132.973 87.6445 132.973C104.302 132.973 117.805 143.488 117.805 156.46C117.805 169.432 104.302 179.948 87.6445 179.948Z" fill="#380909"/>
<path opacity="0.42" d="M87.6446 179.197C71.5197 179.197 58.4478 169.018 58.4478 156.46C58.4478 143.902 71.5197 133.723 87.6446 133.723C103.769 133.723 116.841 143.902 116.841 156.46C116.841 169.018 103.769 179.197 87.6446 179.197Z" fill="#360A0A"/>
<path opacity="0.46" d="M87.6447 178.447C72.0519 178.447 59.4114 168.603 59.4114 156.46C59.4114 144.317 72.0519 134.473 87.6447 134.473C103.237 134.473 115.878 144.317 115.878 156.46C115.878 168.603 103.237 178.447 87.6447 178.447Z" fill="#340B0B"/>
<path opacity="0.5" d="M87.6445 177.697C72.5826 177.697 60.3725 168.189 60.3725 156.46C60.3725 144.731 72.5826 135.223 87.6445 135.223C102.706 135.223 114.917 144.731 114.917 156.46C114.917 168.189 102.706 177.697 87.6445 177.697Z" fill="#330C0C"/>
<path opacity="0.54" d="M87.6446 176.947C73.1148 176.947 61.3361 167.775 61.3361 156.46C61.3361 145.145 73.1148 135.973 87.6446 135.973C102.174 135.973 113.953 145.145 113.953 156.46C113.953 167.775 102.174 176.947 87.6446 176.947Z" fill="#310D0D"/>
<path opacity="0.58" d="M87.6447 176.197C73.647 176.197 62.2996 167.361 62.2996 156.46C62.2996 145.559 73.647 136.723 87.6447 136.723C101.642 136.723 112.99 145.559 112.99 156.46C112.99 167.361 101.642 176.197 87.6447 176.197Z" fill="#2F0E0E"/>
<path opacity="0.62" d="M87.6448 175.447C74.1792 175.447 63.2632 166.946 63.2632 156.46C63.2632 145.974 74.1792 137.473 87.6448 137.473C101.11 137.473 112.026 145.974 112.026 156.46C112.026 166.946 101.11 175.447 87.6448 175.447Z" fill="#2D0F0F"/>
<path opacity="0.65" d="M87.6444 174.697C74.7109 174.697 64.2262 166.532 64.2262 156.46C64.2262 146.388 74.7109 138.223 87.6444 138.223C100.578 138.223 111.062 146.388 111.062 156.46C111.062 166.532 100.578 174.697 87.6444 174.697Z" fill="#2B1010"/>
<path opacity="0.69" d="M87.6445 173.947C75.2419 173.947 65.1876 166.118 65.1876 156.46C65.1876 146.802 75.2419 138.973 87.6445 138.973C100.047 138.973 110.101 146.802 110.101 156.46C110.101 166.118 100.047 173.947 87.6445 173.947Z" fill="#291111"/>
<path opacity="0.73" d="M87.6446 173.197C75.7741 173.197 66.1512 165.704 66.1512 156.46C66.1512 147.216 75.7741 139.723 87.6446 139.723C99.515 139.723 109.138 147.216 109.138 156.46C109.138 165.704 99.515 173.197 87.6446 173.197Z" fill="#271212"/>
<path opacity="0.77" d="M87.6447 172.447C76.3063 172.447 67.1148 165.289 67.1148 156.46C67.1148 147.631 76.3063 140.473 87.6447 140.473C98.983 140.473 108.175 147.631 108.175 156.46C108.175 165.289 98.983 172.447 87.6447 172.447Z" fill="#251212"/>
<path opacity="0.81" d="M87.6445 171.697C76.8383 171.697 68.078 164.875 68.078 156.46C68.078 148.045 76.8383 141.223 87.6445 141.223C98.4508 141.223 107.211 148.045 107.211 156.46C107.211 164.875 98.4508 171.697 87.6445 171.697Z" fill="#231313"/>
<path opacity="0.85" d="M87.6446 170.947C77.3692 170.947 69.0394 164.461 69.0394 156.46C69.0394 148.459 77.3692 141.973 87.6446 141.973C97.9199 141.973 106.25 148.459 106.25 156.46C106.25 164.461 97.9199 170.947 87.6446 170.947Z" fill="#211414"/>
<path opacity="0.88" d="M87.6444 170.199C77.9012 170.199 70.0027 164.048 70.0027 156.46C70.0027 148.872 77.9012 142.721 87.6444 142.721C97.3877 142.721 105.286 148.872 105.286 156.46C105.286 164.048 97.3877 170.199 87.6444 170.199Z" fill="#1F1515"/>
<path opacity="0.92" d="M87.6445 169.449C78.4334 169.449 70.9663 163.634 70.9663 156.46C70.9663 149.287 78.4334 143.471 87.6445 143.471C96.8557 143.471 104.323 149.287 104.323 156.46C104.323 163.634 96.8557 169.449 87.6445 169.449Z" fill="#1D1616"/>
<path opacity="0.96" d="M87.6446 168.699C78.9656 168.699 71.9298 163.219 71.9298 156.46C71.9298 149.701 78.9656 144.221 87.6446 144.221C96.3236 144.221 103.359 149.701 103.359 156.46C103.359 163.219 96.3236 168.699 87.6446 168.699Z" fill="#1B1717"/>
<path d="M87.6444 167.949C79.4975 167.949 72.8931 162.805 72.8931 156.46C72.8931 150.115 79.4975 144.971 87.6444 144.971C95.7914 144.971 102.396 150.115 102.396 156.46C102.396 162.805 95.7914 167.949 87.6444 167.949Z" fill="#191818"/>
</g>
<path d="M80.9614 103.681L43.3382 82.5873C48.623 66.2494 64.3903 61.2563 82.9845 71.9687C102.955 83.4769 119.574 109.295 123.413 133.119L258.831 211.036C265.75 199.7 279.678 197.24 295.718 206.483C314.734 217.44 330.702 241.372 335.5 264.203L329.691 268.621L295.583 241.824L297.466 276.978L332.496 296.62C325.636 308.185 311.612 310.755 295.447 301.441C277.528 291.116 262.309 269.271 256.598 247.68L116.083 166.83C108.509 174.187 96.3769 174.797 82.7157 166.926C66.0637 157.33 51.7494 137.785 45.2236 117.742L80.9636 137.778V103.679L80.9614 103.681Z" fill="#151720"/>
<path d="M75.1501 108.098L37.5269 87.0049C42.8118 70.667 58.579 65.6738 77.1732 76.3862C97.1438 87.8945 113.763 113.713 117.602 137.536L253.02 215.454C259.939 204.118 273.867 201.658 289.907 210.901C308.923 221.857 324.891 245.79 329.691 268.621L289.774 246.241L291.657 281.396L326.687 301.035C319.827 312.6 305.803 315.171 289.638 305.856C271.719 295.532 256.5 273.686 250.789 252.096L110.274 171.245C102.7 178.602 90.5678 179.213 76.9067 171.341C60.2547 161.745 45.9403 142.2 39.4145 122.158L75.1545 142.194V108.094L75.1501 108.098Z" fill="#439E8B"/>
<path d="M297.466 276.981L291.657 281.398L326.687 301.039L332.496 296.62L297.466 276.981Z" fill="#151720"/>
<path d="M45.2215 117.742L39.4123 122.162L75.1501 142.198V134.523L45.2215 117.742Z" fill="#151720"/>
<path d="M115.839 153.298V159.543C115.839 161.294 116.778 162.921 118.296 163.804L244.388 236.527C245.907 237.397 247.689 236.859 248.561 235.59C248.257 235.52 247.954 235.411 247.663 235.245L121.571 162.522C120.038 161.639 119.098 160.012 119.098 158.261V152.016C119.098 151.643 119.181 151.286 119.319 150.983C117.702 150.294 115.839 151.465 115.839 153.298Z" fill="#151720"/>
<path d="M119.098 152.016V158.261C119.098 160.012 120.038 161.639 121.571 162.522L247.663 235.245C247.954 235.411 248.257 235.52 248.561 235.59C248.906 235.093 249.114 234.486 249.114 233.81V228.724C249.114 226.918 248.146 225.25 246.586 224.339L119.623 151.118C119.526 151.063 119.43 151.007 119.319 150.981C119.181 151.284 119.098 151.641 119.098 152.014V152.016Z" fill="#151720"/>
<path d="M290.09 212.246C274.05 203.003 260.123 205.463 253.204 216.799L117.785 138.884C113.947 115.06 97.3274 89.2398 77.3568 77.7337C59.1667 67.2524 43.6835 71.8117 38.0753 87.3145L37.5269 87.0071C42.8118 70.6692 58.579 65.676 77.1732 76.3884C97.1438 87.8967 113.763 113.715 117.602 137.538L253.02 215.454C259.939 204.117 273.867 201.658 289.907 210.901C308.923 221.857 324.891 245.79 329.691 268.621L329.531 268.532C324.38 246.139 308.711 222.972 290.093 212.244L290.09 212.246Z" fill="#202934"/>
<path d="M75.1502 109.339L75.3337 109.441V143.541L39.952 123.706C39.7729 123.191 39.5784 122.677 39.4102 122.16L75.1502 142.196V109.337V109.339Z" fill="#202934"/>
<path d="M291.77 281.464L326.685 301.039C326.497 301.356 326.283 301.641 326.084 301.944L291.838 282.744L291.77 281.464Z" fill="#202934"/>
<path d="M209.087 137.174C191.085 126.802 176.539 101.657 176.598 81.0131C176.657 60.3688 191.297 52.0396 209.299 62.4141C227.301 72.7863 241.847 97.931 241.788 118.577C241.729 139.222 227.09 147.549 209.087 137.176" fill="#439E8B"/>
<path d="M199.556 142.093C181.553 131.721 167.007 106.576 167.066 85.9321C167.125 65.2879 181.765 56.9608 199.768 67.3331C217.77 77.7054 232.316 102.85 232.257 123.496C232.198 144.141 217.558 152.468 199.556 142.095" fill="#5FBCA9"/>
<path d="M179.012 99.793L191.38 123.034L214.143 96.6772L208.764 88.0362L193.493 107.021L185.866 92.8397L179.012 99.793Z" fill="white"/>
<path d="M152.184 323.929C134.181 313.557 119.635 288.413 119.694 267.768C119.753 247.124 134.393 238.795 152.395 249.169C170.398 259.542 184.944 284.686 184.885 305.333C184.826 325.977 170.186 334.304 152.184 323.932" fill="#439E8B"/>
<path d="M142.652 328.851C124.65 318.478 110.104 293.334 110.163 272.69C110.222 252.045 124.862 243.716 142.864 254.091C160.866 264.463 175.412 289.607 175.353 310.254C175.294 330.898 160.654 339.225 142.652 328.853" fill="#5FBCA9"/>
<path d="M122.108 286.548L134.476 309.792L157.239 283.435L151.86 274.792L136.589 293.776L128.96 279.597L122.108 286.548Z" fill="white"/>
</g>
<defs>
<clipPath id="clip0_2749_17055">
<rect width="335" height="402" fill="white" transform="matrix(-1 0 0 1 335.5 0.945801)"/>
</clipPath>
</defs>
</svg>
