<svg width="309" height="410" viewBox="0 0 309 410" fill="none" xmlns="http://www.w3.org/2000/svg">
<path opacity="0.3" d="M132.995 409.201H-52.214L-236 304.389L2.40991 168.526L132.995 409.201Z" fill="#061015"/>
<path d="M128.7 406.444L-48.127 305.683V104.159L147.183 149.532L128.7 406.444Z" fill="#232E3A"/>
<path d="M128.7 409.152C129.139 409.152 129.578 409.043 129.962 408.827C130.784 408.394 131.333 407.581 131.388 406.607L149.926 149.694C150.035 148.341 149.103 147.15 147.842 146.879L-47.4685 101.507C-48.2912 101.29 -49.1688 101.506 -49.8269 101.994C-50.4851 102.481 -50.869 103.293 -50.869 104.105V305.629C-50.869 306.603 -50.3206 307.469 -49.4979 307.957L127.329 408.718C127.768 408.935 128.206 409.098 128.7 409.098V409.152ZM144.331 151.644L126.287 401.95L-45.3295 304.113V107.571L144.331 151.644Z" fill="#202020"/>
<path d="M128.699 406.444L305.525 305.683V104.159L128.699 149.532V406.444Z" fill="#DFDFDF"/>
<path d="M128.699 409.151C129.192 409.151 129.631 409.043 130.07 408.773L306.896 308.011C307.719 307.524 308.268 306.657 308.268 305.683V104.159C308.268 103.347 307.884 102.535 307.225 101.994C306.567 101.452 305.69 101.29 304.867 101.506L128.04 146.879C126.834 147.204 126.011 148.287 126.011 149.478V406.39C126.011 407.365 126.559 408.231 127.382 408.718C127.821 408.935 128.26 409.097 128.753 409.097L128.699 409.151ZM302.783 304.112L131.441 401.788V151.643L302.783 107.679V304.167V304.112Z" fill="#202020"/>
<path d="M-48.128 104.159L128.699 3.39767L305.525 104.159L128.699 204.921L-48.128 104.159Z" fill="#5FBCA9"/>
<path d="M128.699 207.628C129.192 207.628 129.631 207.52 130.07 207.249L306.896 106.488C307.719 106 308.268 105.134 308.268 104.159C308.268 103.185 307.719 102.319 306.896 101.831L130.07 1.06953C129.247 0.582232 128.15 0.582232 127.327 1.06953L-49.4994 101.831C-50.3221 102.319 -50.8705 103.185 -50.8705 104.159C-50.8705 105.134 -50.3221 106 -49.4994 106.488L127.327 207.249C127.766 207.466 128.205 207.628 128.699 207.628ZM300.041 104.159L128.699 201.835L-42.6435 104.159L128.699 6.48391L300.041 104.159Z" fill="#202020"/>
<path d="M128.698 303.192L42.479 254.029V155.812L137.693 177.903L128.698 303.192Z" fill="#5EBBA8"/>
<path d="M128.699 305.899C129.138 305.899 129.577 305.791 129.961 305.574C130.783 305.141 131.332 304.329 131.387 303.354L140.437 178.12C140.546 176.766 139.669 175.575 138.352 175.304L43.138 153.159C42.3153 152.997 41.4377 153.159 40.7796 153.647C40.1214 154.134 39.7375 154.946 39.7375 155.758V254.029C39.7375 255.004 40.2859 255.87 41.1087 256.357L127.328 305.466C127.767 305.683 128.206 305.845 128.699 305.845V305.899ZM134.842 180.015L126.286 298.644L45.277 252.459V159.169L134.842 180.015Z" fill="#202020"/>
<path d="M128.699 303.192L214.918 254.029V155.813L128.699 177.903V303.192Z" fill="#232E3A"/>
<path d="M128.698 305.899C129.192 305.899 129.631 305.791 130.07 305.52L216.289 256.412C217.112 255.925 217.66 255.058 217.66 254.084V155.813C217.66 155.001 217.276 154.188 216.618 153.647C215.96 153.16 215.082 152.943 214.26 153.16L128.04 175.304C126.834 175.629 126.011 176.712 126.011 177.903V303.138C126.011 304.113 126.559 304.979 127.382 305.466C127.821 305.683 128.26 305.845 128.753 305.845L128.698 305.899ZM212.175 252.514L131.441 298.536V180.069L212.175 159.332V252.514Z" fill="#202020"/>
<path d="M42.479 155.813L128.698 106.65L214.918 155.813L128.698 204.921L42.479 155.813Z" fill="#DFDFDF"/>
<path d="M128.698 207.628C129.192 207.628 129.631 207.52 130.069 207.249L216.289 158.141C217.112 157.654 217.66 156.787 217.66 155.813C217.66 154.838 217.112 153.972 216.289 153.485L130.069 104.376C129.247 103.889 128.15 103.889 127.327 104.376L41.1077 153.485C40.285 153.972 39.7365 154.838 39.7365 155.813C39.7365 156.787 40.285 157.654 41.1077 158.141L127.327 207.249C127.766 207.466 128.205 207.628 128.698 207.628ZM209.433 155.813L128.698 201.835L47.9635 155.813L128.698 109.791L209.433 155.813Z" fill="#202020"/>
</svg>
