<svg width="309" height="410" viewBox="0 0 309 410" fill="none" xmlns="http://www.w3.org/2000/svg">
<path opacity="0.3" d="M176.004 409.201H361.213L545 304.389L306.59 168.526L176.004 409.201Z" fill="#061015"/>
<path d="M180.3 406.444L357.127 305.683V104.159L161.816 149.532L180.3 406.444Z" fill="#232E3A"/>
<path d="M180.3 409.152C179.861 409.152 179.422 409.043 179.038 408.827C178.216 408.394 177.667 407.581 177.612 406.607L159.074 149.694C158.965 148.341 159.897 147.15 161.158 146.879L356.469 101.507C357.291 101.29 358.169 101.506 358.827 101.994C359.485 102.481 359.869 103.293 359.869 104.105V305.629C359.869 306.603 359.321 307.469 358.498 307.957L181.671 408.718C181.232 408.935 180.794 409.098 180.3 409.098V409.152ZM164.669 151.644L182.713 401.95L354.329 304.113V107.571L164.669 151.644Z" fill="#202020"/>
<path d="M180.301 406.444L3.47461 305.683V104.159L180.301 149.532V406.444Z" fill="#DFDFDF"/>
<path d="M180.301 409.151C179.808 409.151 179.369 409.043 178.93 408.773L2.1036 308.011C1.28089 307.524 0.732422 306.657 0.732422 305.683V104.159C0.732422 103.347 1.11635 102.535 1.77451 101.994C2.43268 101.452 3.31023 101.29 4.13293 101.506L180.96 146.879C182.166 147.204 182.989 148.287 182.989 149.478V406.39C182.989 407.365 182.441 408.231 181.618 408.718C181.179 408.935 180.74 409.097 180.247 409.097L180.301 409.151ZM6.21712 304.112L177.559 401.788V151.643L6.21712 107.679V304.167V304.112Z" fill="#202020"/>
<path d="M357.128 104.159L180.301 3.39767L3.47461 104.159L180.301 204.921L357.128 104.159Z" fill="#5FBCA9"/>
<path d="M180.301 207.628C179.808 207.628 179.369 207.52 178.93 207.249L2.1036 106.488C1.28089 106 0.732422 105.134 0.732422 104.159C0.732422 103.185 1.28089 102.319 2.1036 101.831L178.93 1.06953C179.753 0.582232 180.85 0.582232 181.673 1.06953L358.499 101.831C359.322 102.319 359.871 103.185 359.871 104.159C359.871 105.134 359.322 106 358.499 106.488L181.673 207.249C181.234 207.466 180.795 207.628 180.301 207.628ZM8.95947 104.159L180.301 201.835L351.643 104.159L180.301 6.48391L8.95947 104.159Z" fill="#202020"/>
<path d="M180.302 303.192L266.521 254.029V155.812L171.307 177.903L180.302 303.192Z" fill="#5EBBA8"/>
<path d="M180.301 305.899C179.862 305.899 179.424 305.791 179.04 305.574C178.217 305.141 177.669 304.329 177.614 303.354L168.564 178.12C168.454 176.766 169.332 175.575 170.648 175.304L265.862 153.159C266.685 152.997 267.563 153.159 268.221 153.647C268.879 154.134 269.263 154.946 269.263 155.758V254.029C269.263 255.004 268.715 255.87 267.892 256.357L181.672 305.466C181.234 305.683 180.795 305.845 180.301 305.845V305.899ZM174.158 180.015L182.714 298.644L263.723 252.459V159.169L174.158 180.015Z" fill="#202020"/>
<path d="M180.301 303.192L94.082 254.029V155.813L180.301 177.903V303.192Z" fill="#232E3A"/>
<path d="M180.302 305.899C179.808 305.899 179.369 305.791 178.93 305.52L92.711 256.412C91.8883 255.925 91.3398 255.058 91.3398 254.084V155.813C91.3398 155.001 91.7238 154.188 92.3819 153.647C93.0401 153.16 93.9176 152.943 94.7404 153.16L180.96 175.304C182.166 175.629 182.989 176.712 182.989 177.903V303.138C182.989 304.113 182.441 304.979 181.618 305.466C181.179 305.683 180.74 305.845 180.247 305.845L180.302 305.899ZM96.8245 252.514L177.559 298.536V180.069L96.8245 159.332V252.514Z" fill="#202020"/>
<path d="M266.521 155.813L180.302 106.65L94.082 155.813L180.302 204.921L266.521 155.813Z" fill="#DFDFDF"/>
<path d="M180.302 207.628C179.808 207.628 179.369 207.52 178.931 207.249L92.711 158.141C91.8883 157.654 91.3398 156.787 91.3398 155.813C91.3398 154.838 91.8883 153.972 92.711 153.485L178.931 104.376C179.753 103.889 180.85 103.889 181.673 104.376L267.892 153.485C268.715 153.972 269.264 154.838 269.264 155.813C269.264 156.787 268.715 157.654 267.892 158.141L181.673 207.249C181.234 207.466 180.795 207.628 180.302 207.628ZM99.5669 155.813L180.302 201.835L261.036 155.813L180.302 109.791L99.5669 155.813Z" fill="#202020"/>
</svg>
