<svg width="105" height="156" viewBox="0 0 105 156" fill="none" xmlns="http://www.w3.org/2000/svg">
<path opacity="0.3" d="M65.8515 155.323H135.371L204.357 115.47L114.868 63.8104L65.8515 155.323Z" fill="#061015"/>
<path d="M67.4643 154.276L133.838 115.963V39.3367L60.5264 56.5889L67.4643 154.276Z" fill="#232E3A"/>
<path d="M67.4638 155.305C67.2991 155.305 67.1344 155.264 66.9902 155.181C66.6814 155.017 66.4756 154.708 66.455 154.337L59.4965 56.6505C59.4553 56.1358 59.8053 55.6829 60.2788 55.5799L133.59 38.3278C133.899 38.2455 134.228 38.3278 134.476 38.5131C134.723 38.6984 134.867 39.0072 134.867 39.316V115.942C134.867 116.313 134.661 116.642 134.352 116.827L67.9784 155.14C67.8137 155.223 67.649 155.284 67.4638 155.284V155.305ZM61.5964 57.3916L68.3696 152.567L132.787 115.366V40.6336L61.5964 57.3916Z" fill="#202020"/>
<path d="M67.4644 154.276L1.09082 115.963V39.3369L67.4644 56.589V154.276Z" fill="#DFDFDF"/>
<path d="M67.4644 155.305C67.2792 155.305 67.1145 155.264 66.9498 155.161L0.576207 116.848C0.267397 116.663 0.0615234 116.334 0.0615234 115.963V39.337C0.0615234 39.0282 0.205634 38.7194 0.452682 38.5135C0.69973 38.3076 1.02913 38.2459 1.33794 38.3282L67.7115 55.5803C68.1644 55.7039 68.4732 56.1156 68.4732 56.5685V154.255C68.4732 154.626 68.2673 154.955 67.9585 155.141C67.7938 155.223 67.6291 155.285 67.4439 155.285L67.4644 155.305ZM2.12026 115.366L66.4351 152.506V57.392L2.12026 40.6751V115.387V115.366Z" fill="#202020"/>
<path d="M133.838 39.3375L67.4644 1.02441L1.09082 39.3375L67.4644 77.6505L133.838 39.3375Z" fill="#5FBCA9"/>
<path d="M67.4644 78.6796C67.2792 78.6796 67.1145 78.6385 66.9498 78.5356L0.576207 40.2225C0.267397 40.0372 0.0615234 39.7078 0.0615234 39.3373C0.0615234 38.9667 0.267397 38.6373 0.576207 38.452L66.9498 0.138964C67.2586 -0.0463215 67.6703 -0.0463215 67.9791 0.138964L134.353 38.452C134.661 38.6373 134.867 38.9667 134.867 39.3373C134.867 39.7078 134.661 40.0372 134.353 40.2225L67.9791 78.5356C67.8144 78.6179 67.6497 78.6796 67.4644 78.6796ZM3.14962 39.3373L67.4644 76.4768L131.779 39.3373L67.4644 2.1977L3.14962 39.3373Z" fill="#202020"/>
<path d="M67.4642 115.014L99.8275 96.321V58.9756L64.0879 67.3752L67.4642 115.014Z" fill="#5EBBA8"/>
<path d="M67.4639 116.044C67.2992 116.044 67.1344 116.003 66.9903 115.921C66.6815 115.756 66.4757 115.447 66.4551 115.077L63.0582 67.4583C63.017 66.9436 63.3464 66.4906 63.8405 66.3877L99.5801 57.9675C99.8889 57.9057 100.218 57.9675 100.465 58.1528C100.712 58.3381 100.856 58.6469 100.856 58.9557V96.3217C100.856 96.6923 100.651 97.0217 100.342 97.2069L67.9785 115.88C67.8138 115.962 67.6491 116.024 67.4639 116.024V116.044ZM65.1581 68.1789L68.3697 113.286L98.7772 95.7247V60.2527L65.1581 68.1789Z" fill="#202020"/>
<path d="M67.4648 115.016L35.1016 96.3229V58.9775L67.4648 67.3771V115.016Z" fill="#232E3A"/>
<path d="M67.4649 116.045C67.2796 116.045 67.1149 116.004 66.9502 115.901L34.5869 97.2285C34.2781 97.0432 34.0723 96.7138 34.0723 96.3433V58.9773C34.0723 58.6685 34.2164 58.3596 34.4634 58.1537C34.7105 57.9684 35.0399 57.8861 35.3487 57.9684L67.712 66.3887C68.1649 66.5122 68.4737 66.9239 68.4737 67.3769V114.995C68.4737 115.366 68.2678 115.695 67.959 115.881C67.7943 115.963 67.6296 116.025 67.4443 116.025L67.4649 116.045ZM36.131 95.7462L66.4356 113.245V68.2004L36.131 60.3154V95.7462Z" fill="#202020"/>
<path d="M99.8281 58.9775L67.4648 40.2842L35.1016 58.9775L67.4648 77.6502L99.8281 58.9775Z" fill="#DFDFDF"/>
<path d="M67.4649 78.6792C67.2796 78.6792 67.1149 78.6381 66.9502 78.5352L34.5869 59.8624C34.2781 59.6772 34.0723 59.3478 34.0723 58.9772C34.0723 58.6066 34.2781 58.2772 34.5869 58.0919L66.9502 39.4192C67.259 39.234 67.6708 39.234 67.9796 39.4192L100.343 58.0919C100.652 58.2772 100.858 58.6066 100.858 58.9772C100.858 59.3478 100.652 59.6772 100.343 59.8624L67.9796 78.5352C67.8149 78.6175 67.6502 78.6792 67.4649 78.6792ZM37.1604 58.9772L67.4649 76.4764L97.7695 58.9772L67.4649 41.478L37.1604 58.9772Z" fill="#202020"/>
</svg>
