<svg width="437" height="332" viewBox="0 0 437 332" fill="none" xmlns="http://www.w3.org/2000/svg">
<path opacity="0.3" d="M141.395 331.871H289.762L436.99 246.818L246.004 136.567L141.395 331.871Z" fill="#061015"/>
<path d="M144.835 329.634L286.488 247.868V84.3346L130.028 121.154L144.835 329.634Z" fill="#232E3A"/>
<path d="M144.835 331.831C144.483 331.831 144.132 331.743 143.824 331.568C143.165 331.216 142.726 330.557 142.682 329.766L127.831 121.286C127.743 120.187 128.49 119.22 129.501 119.001L285.96 82.1818C286.619 82.006 287.322 82.1817 287.849 82.5772C288.377 82.9726 288.684 83.6316 288.684 84.2906V247.824C288.684 248.615 288.245 249.318 287.586 249.713L145.933 331.48C145.582 331.656 145.23 331.787 144.835 331.787V331.831ZM132.313 122.867L146.768 325.988L284.247 246.594V87.1027L132.313 122.867Z" fill="#202020"/>
<path d="M144.836 329.634L3.18359 247.868V84.3346L144.836 121.154V329.634Z" fill="#DFDFDF"/>
<path d="M144.836 331.831C144.44 331.831 144.089 331.743 143.737 331.524L2.08475 249.757C1.4257 249.362 0.986328 248.659 0.986328 247.868V84.3345C0.986328 83.6755 1.29388 83.0165 1.82113 82.5771C2.34837 82.1377 3.05136 82.0059 3.71042 82.1817L145.363 119.001C146.33 119.264 146.989 120.143 146.989 121.11V329.59C146.989 330.381 146.549 331.084 145.89 331.48C145.539 331.655 145.187 331.787 144.792 331.787L144.836 331.831ZM5.38002 246.594L142.639 325.856V122.867L5.38002 87.1904V246.638V246.594Z" fill="#202020"/>
<path d="M286.489 84.3346L144.836 2.56792L3.18359 84.3346L144.836 166.101L286.489 84.3346Z" fill="#5FBCA9"/>
<path d="M144.836 168.298C144.44 168.298 144.089 168.21 143.737 167.99L2.08475 86.2238C1.4257 85.8284 0.986328 85.1254 0.986328 84.3346C0.986328 83.5437 1.4257 82.8407 2.08475 82.4453L143.737 0.678654C144.396 0.283222 145.275 0.283222 145.934 0.678654L287.587 82.4453C288.246 82.8407 288.685 83.5437 288.685 84.3346C288.685 85.1254 288.246 85.8284 287.587 86.2238L145.934 167.99C145.583 168.166 145.231 168.298 144.836 168.298ZM7.57686 84.3346L144.836 163.597L282.095 84.3346L144.836 5.07235L7.57686 84.3346Z" fill="#202020"/>
<path d="M144.836 245.847L213.904 205.952V126.25L137.63 144.176L144.836 245.847Z" fill="#5EBBA8"/>
<path d="M144.835 248.043C144.483 248.043 144.132 247.956 143.824 247.78C143.165 247.428 142.726 246.769 142.682 245.978L135.432 144.352C135.344 143.254 136.047 142.287 137.102 142.067L213.376 124.097C214.035 123.965 214.738 124.097 215.266 124.493C215.793 124.888 216.1 125.547 216.1 126.206V205.952C216.1 206.743 215.661 207.446 215.002 207.841L145.933 247.692C145.582 247.868 145.23 247.999 144.835 247.999V248.043ZM139.914 145.89L146.768 242.156L211.663 204.678V128.974L139.914 145.89Z" fill="#202020"/>
<path d="M144.835 245.847L75.7666 205.952V126.25L144.835 144.177V245.847Z" fill="#232E3A"/>
<path d="M144.836 248.044C144.441 248.044 144.089 247.956 143.738 247.736L74.6687 207.885C74.0097 207.49 73.5703 206.787 73.5703 205.996V126.25C73.5703 125.591 73.8779 124.932 74.4051 124.493C74.9324 124.097 75.6353 123.922 76.2944 124.097L145.363 142.068C146.33 142.331 146.989 143.21 146.989 144.177V245.803C146.989 246.594 146.55 247.297 145.89 247.692C145.539 247.868 145.187 248 144.792 248L144.836 248.044ZM77.964 204.722L142.639 242.068V145.934L77.964 129.106V204.722Z" fill="#202020"/>
<path d="M213.904 126.251L144.835 86.3558L75.7666 126.251L144.835 166.101L213.904 126.251Z" fill="#DFDFDF"/>
<path d="M144.836 168.298C144.441 168.298 144.089 168.21 143.738 167.991L74.6687 128.14C74.0097 127.744 73.5703 127.041 73.5703 126.251C73.5703 125.46 74.0097 124.757 74.6687 124.361L143.738 84.5105C144.397 84.1151 145.275 84.1151 145.934 84.5105L215.003 124.361C215.662 124.757 216.102 125.46 216.102 126.251C216.102 127.041 215.662 127.744 215.003 128.14L145.934 167.991C145.583 168.166 145.231 168.298 144.836 168.298ZM80.1608 126.251L144.836 163.597L209.511 126.251L144.836 88.9042L80.1608 126.251Z" fill="#202020"/>
</svg>
