<svg width="187" height="256" viewBox="0 0 187 256" fill="none" xmlns="http://www.w3.org/2000/svg">
<path d="M111.466 253.946L220.332 191.105V65.4223L100.086 93.7195L111.466 253.946Z" fill="#232E3A"/>
<path d="M111.465 255.634C111.195 255.634 110.925 255.567 110.688 255.432C110.182 255.162 109.844 254.655 109.81 254.047L98.397 93.8208C98.3295 92.9766 98.9035 92.2337 99.6802 92.0649L219.926 63.7678C220.433 63.6328 220.973 63.7678 221.378 64.0717C221.783 64.3756 222.02 64.8821 222.02 65.3886V191.071C222.02 191.679 221.682 192.219 221.175 192.523L112.309 255.364C112.039 255.499 111.769 255.601 111.465 255.601V255.634ZM101.841 95.0364L112.951 251.143L218.609 190.126V67.5498L101.841 95.0364Z" fill="#202020"/>
<path d="M111.468 253.946L2.60156 191.105V65.4224L111.468 93.7195V253.946Z" fill="#DFDFDF"/>
<path d="M111.467 255.634C111.163 255.634 110.893 255.567 110.623 255.398L1.7563 192.557C1.24978 192.253 0.912109 191.713 0.912109 191.105V65.4223C0.912109 64.9158 1.14848 64.4093 1.55369 64.0717C1.9589 63.734 2.49918 63.6327 3.00569 63.7678L111.872 92.0648C112.615 92.2674 113.121 92.9428 113.121 93.6857V253.912C113.121 254.52 112.784 255.06 112.277 255.364C112.007 255.499 111.737 255.601 111.433 255.601L111.467 255.634ZM4.28885 190.125L109.778 251.042V95.0363L4.28885 67.6172V190.159V190.125Z" fill="#202020"/>
<path d="M220.334 65.4224L111.468 2.5811L2.60156 65.4224L111.468 128.264L220.334 65.4224Z" fill="#5FBCA9"/>
<path d="M111.467 129.952C111.163 129.952 110.893 129.884 110.623 129.716L1.7563 66.8743C1.24978 66.5704 0.912109 66.0302 0.912109 65.4224C0.912109 64.8145 1.24978 64.2743 1.7563 63.9704L110.623 1.12911C111.129 0.825207 111.804 0.825207 112.311 1.12911L221.177 63.9704C221.684 64.2743 222.021 64.8145 222.021 65.4224C222.021 66.0302 221.684 66.5704 221.177 66.8743L112.311 129.716C112.041 129.851 111.771 129.952 111.467 129.952ZM5.97723 65.4224L111.467 126.339L216.956 65.4224L111.467 4.50586L5.97723 65.4224Z" fill="#202020"/>
<path d="M111.467 189.551L164.549 158.89V97.6364L105.929 111.413L111.467 189.551Z" fill="#5EBBA8"/>
<path d="M111.466 191.24C111.196 191.24 110.926 191.172 110.69 191.037C110.183 190.767 109.845 190.26 109.812 189.653L104.24 111.549C104.173 110.704 104.713 109.961 105.523 109.793L164.144 95.9817C164.65 95.8804 165.19 95.9817 165.596 96.2856C166.001 96.5895 166.237 97.0961 166.237 97.6026V158.89C166.237 159.498 165.899 160.039 165.393 160.342L112.31 190.97C112.04 191.105 111.77 191.206 111.466 191.206V191.24ZM107.684 112.73L112.952 186.715L162.827 157.911V99.73L107.684 112.73Z" fill="#202020"/>
<path d="M111.466 189.552L58.3838 158.891V97.6365L111.466 111.414V189.552Z" fill="#232E3A"/>
<path d="M111.467 191.24C111.163 191.24 110.893 191.172 110.623 191.004L57.5405 160.376C57.034 160.073 56.6963 159.532 56.6963 158.924V97.6365C56.6963 97.13 56.9327 96.6234 57.3379 96.2858C57.7431 95.9819 58.2834 95.8468 58.7899 95.9819L111.872 109.793C112.615 109.995 113.122 110.671 113.122 111.414V189.518C113.122 190.126 112.784 190.666 112.277 190.97C112.007 191.105 111.737 191.206 111.433 191.206L111.467 191.24ZM60.073 157.945L109.779 186.647V112.764L60.073 99.8314V157.945Z" fill="#202020"/>
<path d="M164.549 97.6366L111.466 66.9757L58.3838 97.6366L111.466 128.264L164.549 97.6366Z" fill="#DFDFDF"/>
<path d="M111.467 129.952C111.163 129.952 110.893 129.885 110.623 129.716L57.5405 99.0886C57.034 98.7847 56.6963 98.2444 56.6963 97.6366C56.6963 97.0288 57.034 96.4885 57.5405 96.1845L110.623 65.5576C111.129 65.2536 111.805 65.2536 112.311 65.5576L165.394 96.1845C165.9 96.4885 166.238 97.0288 166.238 97.6366C166.238 98.2444 165.9 98.7847 165.394 99.0886L112.311 129.716C112.041 129.851 111.771 129.952 111.467 129.952ZM61.7614 97.6366L111.467 126.339L161.173 97.6366L111.467 68.9343L61.7614 97.6366Z" fill="#202020"/>
</svg>
