<svg width="207" height="238" viewBox="0 0 207 238" fill="none" xmlns="http://www.w3.org/2000/svg">
<path d="M103.244 236.355L204.913 177.669V60.296L92.6172 86.7222L103.244 236.355Z" fill="#232E3A"/>
<path d="M103.244 237.932C102.992 237.932 102.74 237.869 102.519 237.743C102.046 237.49 101.731 237.017 101.699 236.45L91.0402 86.817C90.9771 86.0287 91.5132 85.3348 92.2385 85.1772L204.534 58.751C205.007 58.6249 205.512 58.751 205.89 59.0348C206.269 59.3187 206.489 59.7916 206.489 60.2647V177.637C206.489 178.205 206.174 178.71 205.701 178.993L104.033 237.68C103.78 237.806 103.528 237.9 103.244 237.9V237.932ZM94.2568 87.9522L104.632 233.738L203.304 176.754V62.2829L94.2568 87.9522Z" fill="#202020"/>
<path d="M103.245 236.356L1.57715 177.669V60.2967L103.245 86.7229V236.356Z" fill="#DFDFDF"/>
<path d="M103.245 237.932C102.961 237.932 102.709 237.869 102.457 237.712L0.788371 179.025C0.315348 178.741 0 178.237 0 177.669V60.2964C0 59.8234 0.220743 59.3504 0.599161 59.0351C0.977579 58.7197 1.48214 58.6251 1.95516 58.7513L103.624 85.1774C104.317 85.3666 104.79 85.9973 104.79 86.6911V236.324C104.79 236.892 104.475 237.396 104.002 237.68C103.75 237.806 103.497 237.901 103.214 237.901L103.245 237.932ZM3.15348 176.755L101.668 233.643V87.9525L3.15348 62.3462V176.786V176.755Z" fill="#202020"/>
<path d="M204.914 60.2958L103.245 1.60938L1.57715 60.2958L103.245 118.982L204.914 60.2958Z" fill="#5FBCA9"/>
<path d="M103.245 120.559C102.961 120.559 102.709 120.496 102.457 120.339L0.788371 61.6522C0.315348 61.3684 0 60.8639 0 60.2962C0 59.7286 0.315348 59.2241 0.788371 58.9403L102.457 0.253876C102.93 -0.0299378 103.56 -0.0299378 104.033 0.253876L205.702 58.9403C206.175 59.2241 206.49 59.7286 206.49 60.2962C206.49 60.8639 206.175 61.3684 205.702 61.6522L104.033 120.339C103.781 120.465 103.529 120.559 103.245 120.559ZM4.73023 60.2962L103.245 117.185L201.76 60.2962L103.245 3.40736L4.73023 60.2962Z" fill="#202020"/>
<path d="M103.246 176.218L152.819 147.584V90.3799L98.0742 103.246L103.246 176.218Z" fill="#5EBBA8"/>
<path d="M103.245 177.795C102.993 177.795 102.74 177.732 102.52 177.606C102.047 177.354 101.731 176.881 101.7 176.313L96.4965 103.373C96.4335 102.585 96.938 101.891 97.6948 101.733L152.439 88.8353C152.912 88.7407 153.417 88.8353 153.795 89.1191C154.174 89.4029 154.394 89.876 154.394 90.349V147.585C154.394 148.152 154.079 148.657 153.606 148.941L104.033 177.543C103.781 177.669 103.529 177.764 103.245 177.764V177.795ZM99.7131 104.477L104.633 173.569L151.209 146.67V92.3357L99.7131 104.477Z" fill="#202020"/>
<path d="M103.245 176.219L53.6719 147.585V90.3808L103.245 103.247V176.219Z" fill="#232E3A"/>
<path d="M103.245 177.796C102.961 177.796 102.709 177.733 102.457 177.575L52.8841 148.973C52.4111 148.689 52.0957 148.184 52.0957 147.617V90.3811C52.0957 89.9081 52.3164 89.435 52.6949 89.1196C53.0733 88.8358 53.5778 88.7097 54.0509 88.8358L103.624 101.734C104.317 101.923 104.79 102.553 104.79 103.247V176.187C104.79 176.755 104.475 177.26 104.002 177.543C103.75 177.669 103.497 177.764 103.214 177.764L103.245 177.796ZM55.2492 146.702L101.668 173.507V104.509L55.2492 92.4308V146.702Z" fill="#202020"/>
<path d="M152.817 90.3817L103.245 61.748L53.6719 90.3817L103.245 118.984L152.817 90.3817Z" fill="#DFDFDF"/>
<path d="M103.245 120.561C102.961 120.561 102.709 120.498 102.457 120.34L52.8841 91.7379C52.4111 91.4541 52.0957 90.9495 52.0957 90.3819C52.0957 89.8143 52.4111 89.3096 52.8841 89.0258L102.457 60.4238C102.93 60.14 103.561 60.14 104.034 60.4238L153.606 89.0258C154.079 89.3096 154.395 89.8143 154.395 90.3819C154.395 90.9495 154.079 91.4541 153.606 91.7379L104.034 120.34C103.781 120.466 103.529 120.561 103.245 120.561ZM56.8259 90.3819L103.245 117.187L149.665 90.3819L103.245 63.5773L56.8259 90.3819Z" fill="#202020"/>
</svg>
