<svg width="286" height="217" viewBox="0 0 286 217" fill="none" xmlns="http://www.w3.org/2000/svg">
<path opacity="0.3" d="M92.6219 216.509H189.483L285.6 160.982L160.915 89.0059L92.6219 216.509Z" fill="#061015"/>
<path d="M94.8677 215.049L187.345 161.668V54.9062L85.2012 78.9433L94.8677 215.049Z" fill="#232E3A"/>
<path d="M94.867 216.483C94.6375 216.483 94.408 216.425 94.2073 216.311C93.777 216.081 93.4902 215.651 93.4615 215.135L83.7663 79.0294C83.7089 78.3123 84.1966 77.6812 84.8563 77.5378L187 53.5007C187.43 53.386 187.889 53.5007 188.233 53.7589C188.577 54.017 188.778 54.4472 188.778 54.8775V161.639C188.778 162.155 188.491 162.614 188.061 162.873L95.5841 216.253C95.3546 216.368 95.1252 216.454 94.867 216.454V216.483ZM86.6921 80.062L96.1291 212.668L185.881 160.836V56.7133L86.6921 80.062Z" fill="#202020"/>
<path d="M94.8686 215.049L2.3916 161.668V54.9061L94.8686 78.9433V215.049Z" fill="#DFDFDF"/>
<path d="M94.8683 216.483C94.6101 216.483 94.3806 216.425 94.1512 216.282L1.67413 162.901C1.24387 162.643 0.957031 162.184 0.957031 161.668V54.9061C0.957031 54.4758 1.15782 54.0456 1.50203 53.7588C1.84623 53.4719 2.30518 53.3859 2.73544 53.5006L95.2125 77.5377C95.8435 77.7098 96.2738 78.2835 96.2738 78.9146V215.02C96.2738 215.536 95.9869 215.995 95.5567 216.253C95.3272 216.368 95.0977 216.454 94.8396 216.454L94.8683 216.483ZM3.82543 160.836L93.4341 212.582V80.0619L3.82543 56.7705V160.865V160.836Z" fill="#202020"/>
<path d="M187.346 54.9062L94.8686 1.5253L2.3916 54.9062L94.8686 108.287L187.346 54.9062Z" fill="#5FBCA9"/>
<path d="M94.8683 109.721C94.6101 109.721 94.3806 109.664 94.1512 109.52L1.67413 56.1396C1.24387 55.8814 0.957031 55.4225 0.957031 54.9062C0.957031 54.3899 1.24387 53.9309 1.67413 53.6728L94.1512 0.291914C94.5814 0.0337582 95.1551 0.0337582 95.5854 0.291914L188.062 53.6728C188.493 53.9309 188.78 54.3899 188.78 54.9062C188.78 55.4225 188.493 55.8814 188.062 56.1396L95.5854 109.52C95.3559 109.635 95.1264 109.721 94.8683 109.721ZM5.25962 54.9062L94.8683 106.652L184.477 54.9062L94.8683 3.16031L5.25962 54.9062Z" fill="#202020"/>
<path d="M94.8682 160.348L139.959 134.303V82.2706L90.1641 93.9736L94.8682 160.348Z" fill="#5EBBA8"/>
<path d="M94.8678 161.782C94.6383 161.782 94.4089 161.725 94.2081 161.61C93.7778 161.381 93.491 160.951 93.4623 160.434L88.7294 94.0883C88.6721 93.3712 89.131 92.7401 89.8194 92.5967L139.615 80.865C140.045 80.7789 140.504 80.865 140.848 81.1231C141.192 81.3813 141.393 81.8116 141.393 82.2418V134.303C141.393 134.819 141.106 135.278 140.676 135.537L95.5849 161.553C95.3554 161.668 95.126 161.754 94.8678 161.754V161.782ZM91.6552 95.0923L96.1299 157.939L138.496 133.471V84.0489L91.6552 95.0923Z" fill="#202020"/>
<path d="M94.8685 160.348L49.7773 134.303V82.2706L94.8685 93.9736V160.348Z" fill="#232E3A"/>
<path d="M94.8691 161.783C94.611 161.783 94.3815 161.725 94.152 161.582L49.0608 135.565C48.6306 135.307 48.3438 134.848 48.3438 134.332V82.2707C48.3438 81.8404 48.5445 81.4101 48.8887 81.1232C49.2329 80.8651 49.6919 80.7504 50.1222 80.8651L95.2133 92.5968C95.8444 92.7689 96.2746 93.3426 96.2746 93.9737V160.32C96.2746 160.836 95.9878 161.295 95.5575 161.553C95.328 161.668 95.0986 161.754 94.8404 161.754L94.8691 161.783ZM51.2121 133.5L93.4349 157.882V95.121L51.2121 84.1351V133.5Z" fill="#202020"/>
<path d="M139.96 82.2707L94.8685 56.2256L49.7773 82.2707L94.8685 108.287L139.96 82.2707Z" fill="#DFDFDF"/>
<path d="M94.8691 109.721C94.611 109.721 94.3815 109.664 94.152 109.52L49.0608 83.5041C48.6306 83.246 48.3438 82.787 48.3438 82.2707C48.3438 81.7544 48.6306 81.2954 49.0608 81.0372L94.152 55.021C94.5823 54.7628 95.156 54.7628 95.5862 55.021L140.677 81.0372C141.108 81.2954 141.394 81.7544 141.394 82.2707C141.394 82.787 141.108 83.246 140.677 83.5041L95.5862 109.52C95.3567 109.635 95.1273 109.721 94.8691 109.721ZM52.6463 82.2707L94.8691 106.652L137.092 82.2707L94.8691 57.8894L52.6463 82.2707Z" fill="#202020"/>
</svg>
