<svg width="363" height="294" viewBox="0 0 363 294" fill="none" xmlns="http://www.w3.org/2000/svg">
<path opacity="0.3" d="M124.301 293.462H255.648L385.987 218.166L216.91 120.563L124.301 293.462Z" fill="#061015"/>
<path d="M127.347 291.482L252.75 219.095V74.3219L114.239 106.917L127.347 291.482Z" fill="#232E3A"/>
<path d="M127.347 293.427C127.036 293.427 126.724 293.349 126.452 293.193C125.869 292.882 125.48 292.299 125.441 291.599L112.294 107.034C112.216 106.062 112.877 105.206 113.772 105.011L252.283 72.416C252.866 72.2604 253.489 72.416 253.955 72.7661C254.422 73.1161 254.695 73.6995 254.695 74.283V219.056C254.695 219.757 254.306 220.379 253.722 220.729L128.319 293.116C128.008 293.271 127.697 293.388 127.347 293.388V293.427ZM116.261 108.434L129.058 288.254L250.766 217.967V76.7724L116.261 108.434Z" fill="#212A36"/>
<path d="M127.348 291.482L1.94482 219.095V74.3219L127.348 106.917V291.482Z" fill="#DFDFDF"/>
<path d="M127.348 293.427C126.998 293.427 126.686 293.349 126.375 293.155L0.972417 220.768C0.388967 220.418 0 219.795 0 219.095V74.3218C0 73.7384 0.272275 73.1549 0.739035 72.766C1.2058 72.377 1.82814 72.2603 2.41159 72.4159L127.814 105.011C128.67 105.245 129.254 106.023 129.254 106.878V291.443C129.254 292.143 128.865 292.766 128.281 293.116C127.97 293.271 127.659 293.388 127.309 293.388L127.348 293.427ZM3.88967 217.967L125.403 288.137V108.434L3.88967 76.8501V218.006V217.967Z" fill="#212A36"/>
<path d="M252.751 74.3219L127.348 1.93509L1.94482 74.3219L127.348 146.708L252.751 74.3219Z" fill="#5FBCA9"/>
<path d="M127.348 148.653C126.998 148.653 126.686 148.576 126.375 148.381L0.972417 75.9944C0.388967 75.6443 0 75.022 0 74.3218C0 73.6217 0.388967 72.9994 0.972417 72.6493L126.375 0.262553C126.959 -0.0875175 127.737 -0.0875175 128.32 0.262553L253.723 72.6493C254.306 72.9994 254.695 73.6217 254.695 74.3218C254.695 75.022 254.306 75.6443 253.723 75.9944L128.32 148.381C128.009 148.537 127.698 148.653 127.348 148.653ZM5.8345 74.3218L127.348 144.491L248.861 74.3218L127.348 4.15222L5.8345 74.3218Z" fill="#212A36"/>
<path d="M127.347 217.306L188.493 181.988V111.429L120.968 127.299L127.347 217.306Z" fill="#5EBBA8"/>
<path d="M127.347 219.251C127.036 219.251 126.725 219.173 126.452 219.017C125.869 218.706 125.48 218.123 125.441 217.423L119.023 127.455C118.945 126.482 119.568 125.626 120.501 125.432L188.026 109.523C188.609 109.406 189.232 109.523 189.698 109.873C190.165 110.223 190.437 110.807 190.437 111.39V181.988C190.437 182.688 190.048 183.31 189.465 183.66L128.319 218.939C128.008 219.095 127.697 219.212 127.347 219.212V219.251ZM122.991 128.816L129.059 214.039L186.509 180.86V113.841L122.991 128.816Z" fill="#212A36"/>
<path d="M127.348 217.306L66.2021 181.988V111.429L127.348 127.299V217.306Z" fill="#232E3A"/>
<path d="M127.348 219.251C126.998 219.251 126.686 219.173 126.375 218.979L65.2297 183.699C64.6463 183.349 64.2573 182.727 64.2573 182.027V111.429C64.2573 110.846 64.5296 110.262 64.9964 109.873C65.4631 109.523 66.0855 109.368 66.6689 109.523L127.814 125.432C128.67 125.665 129.254 126.443 129.254 127.299V217.267C129.254 217.967 128.865 218.59 128.281 218.94C127.97 219.095 127.659 219.212 127.309 219.212L127.348 219.251ZM68.147 180.899L125.403 213.961V128.855L68.147 113.958V180.899Z" fill="#212A36"/>
<path d="M188.493 111.429L127.348 76.1112L66.2021 111.429L127.348 146.709L188.493 111.429Z" fill="#DFDFDF"/>
<path d="M127.348 148.653C126.998 148.653 126.686 148.576 126.375 148.381L65.2297 113.102C64.6463 112.752 64.2573 112.13 64.2573 111.429C64.2573 110.729 64.6463 110.107 65.2297 109.757L126.375 74.4776C126.959 74.1275 127.737 74.1275 128.32 74.4776L189.466 109.757C190.049 110.107 190.438 110.729 190.438 111.429C190.438 112.13 190.049 112.752 189.466 113.102L128.32 148.381C128.009 148.537 127.698 148.653 127.348 148.653ZM70.0918 111.429L127.348 144.492L184.604 111.429L127.348 78.3672L70.0918 111.429Z" fill="#212A36"/>
</svg>
